<?xml version="1.0" encoding="UTF-8" standalone="no"?>
<!DOCTYPE svg PUBLIC "-//W3C//DTD SVG 1.1//EN"
 "http://www.w3.org/Graphics/SVG/1.1/DTD/svg11.dtd">
<!-- Generated by graphviz version 2.40.1 (20161225.0304)
 -->
<!-- Title: %3 Pages: 1 -->
<svg width="580pt" height="238pt"
 viewBox="0.00 0.00 579.50 238.01" xmlns="http://www.w3.org/2000/svg" xmlns:xlink="http://www.w3.org/1999/xlink">
<g id="graph0" class="graph" transform="scale(1 1) rotate(0) translate(4 234.0071)">
<title>%3</title>
<polygon fill="#ffffff" stroke="transparent" points="-4,4 -4,-234.0071 575.5,-234.0071 575.5,4 -4,4"/>
<!-- RF_R -->
<g id="node1" class="node">
<title>RF_R</title>
<polygon fill="#d3d3d3" stroke="#000000" points="41,-230.0071 0,-230.0071 0,-212.0071 41,-212.0071 41,-230.0071"/>
<text text-anchor="middle" x="20.5" y="-218.8071" font-family="Times,serif" font-size="9.00" fill="#000000">RF_R</text>
</g>
<!-- ANG_VEL -->
<g id="node11" class="node">
<title>ANG_VEL</title>
<ellipse fill="#add8e6" stroke="#000000" cx="346.5" cy="-44.5477" rx="44.5955" ry="44.5955"/>
<text text-anchor="middle" x="346.5" y="-42.3477" font-family="Times,serif" font-size="9.00" fill="#000000">ANG_VEL</text>
</g>
<!-- RF_R&#45;&gt;ANG_VEL -->
<g id="edge4" class="edge">
<title>RF_R&#45;&gt;ANG_VEL</title>
<path fill="none" stroke="#00ff00" stroke-width=".4727" d="M25.7525,-211.8988C37.1278,-192.9616 65.908,-149.1103 101.5,-125.0955 160.1317,-85.5351 239.6928,-64.1273 292.0285,-53.5328"/>
<polygon fill="#00ff00" stroke="#00ff00" stroke-width=".4727" points="292.9779,-56.9134 302.1184,-51.5559 291.6319,-50.044 292.9779,-56.9134"/>
</g>
<!-- VEL -->
<g id="node12" class="node">
<title>VEL</title>
<ellipse fill="#add8e6" stroke="#000000" cx="179.5" cy="-150.5513" rx="25.4118" ry="25.4118"/>
<text text-anchor="middle" x="179.5" y="-148.3513" font-family="Times,serif" font-size="9.00" fill="#000000">VEL</text>
</g>
<!-- RF_R&#45;&gt;VEL -->
<g id="edge13" class="edge">
<title>RF_R&#45;&gt;VEL</title>
<path fill="none" stroke="#ff0000" stroke-width=".1873" d="M40.961,-211.9405C67.7167,-200.0846 114.9114,-179.1717 146.6899,-165.09"/>
<polygon fill="#ff0000" stroke="#ff0000" stroke-width=".1873" points="148.293,-168.208 156.0176,-160.9568 145.457,-161.8082 148.293,-168.208"/>
</g>
<!-- RF_FR -->
<g id="node2" class="node">
<title>RF_FR</title>
<polygon fill="#d3d3d3" stroke="#000000" points="106,-230.0071 59,-230.0071 59,-212.0071 106,-212.0071 106,-230.0071"/>
<text text-anchor="middle" x="82.5" y="-218.8071" font-family="Times,serif" font-size="9.00" fill="#000000">RF_FR</text>
</g>
<!-- RF_FR&#45;&gt;ANG_VEL -->
<g id="edge5" class="edge">
<title>RF_FR&#45;&gt;ANG_VEL</title>
<path fill="none" stroke="#00ff00" stroke-width=".1366" d="M86.2782,-211.7441C94.4003,-192.9027 115.2702,-149.8113 145.5,-125.0955 188.7014,-89.7741 249.3812,-68.3331 292.7457,-56.5511"/>
<polygon fill="#00ff00" stroke="#00ff00" stroke-width=".1366" points="293.7676,-59.9014 302.5476,-53.9716 291.9861,-53.1319 293.7676,-59.9014"/>
</g>
<!-- RF_FR&#45;&gt;VEL -->
<g id="edge10" class="edge">
<title>RF_FR&#45;&gt;VEL</title>
<path fill="none" stroke="#ff0000" stroke-width=".3731" d="M95.1811,-211.7963C109.1645,-201.6394 132.1233,-184.9633 150.5557,-171.575"/>
<polygon fill="#ff0000" stroke="#ff0000" stroke-width=".3731" points="152.6235,-174.3989 158.6576,-165.6902 148.5097,-168.7352 152.6235,-174.3989"/>
</g>
<!-- RF_F -->
<g id="node3" class="node">
<title>RF_F</title>
<polygon fill="#d3d3d3" stroke="#000000" points="416.5,-230.0071 376.5,-230.0071 376.5,-212.0071 416.5,-212.0071 416.5,-230.0071"/>
<text text-anchor="middle" x="396.5" y="-218.8071" font-family="Times,serif" font-size="9.00" fill="#000000">RF_F</text>
</g>
<!-- RF_F&#45;&gt;ANG_VEL -->
<g id="edge15" class="edge">
<title>RF_F&#45;&gt;ANG_VEL</title>
<path fill="none" stroke="#ff0000" stroke-width=".2035" d="M393.8118,-211.5199C387.8153,-190.3571 372.9705,-137.9672 361.4945,-97.4661"/>
<polygon fill="#ff0000" stroke="#ff0000" stroke-width=".2035" points="364.8251,-96.3816 358.7314,-87.7146 358.0902,-98.29 364.8251,-96.3816"/>
</g>
<!-- 8 -->
<g id="node13" class="node">
<title>8</title>
<ellipse fill="#ffffff" stroke="#000000" cx="283.5" cy="-150.5513" rx="16.0303" ry="16.0303"/>
<text text-anchor="middle" x="283.5" y="-148.3513" font-family="Times,serif" font-size="9.00" fill="#000000">8</text>
</g>
<!-- RF_F&#45;&gt;8 -->
<g id="edge18" class="edge">
<title>RF_F&#45;&gt;8</title>
<path fill="none" stroke="#ff0000" stroke-width=".1638" d="M381.7272,-211.7963C362.483,-199.7974 328.6464,-178.7002 306.1501,-164.6737"/>
<polygon fill="#ff0000" stroke="#ff0000" stroke-width=".1638" points="307.9028,-161.6419 297.5653,-159.321 304.1991,-167.5819 307.9028,-161.6419"/>
</g>
<!-- RF_FL -->
<g id="node4" class="node">
<title>RF_FL</title>
<polygon fill="#d3d3d3" stroke="#000000" points="439.5,-159.5513 393.5,-159.5513 393.5,-141.5513 439.5,-141.5513 439.5,-159.5513"/>
<text text-anchor="middle" x="416.5" y="-148.3513" font-family="Times,serif" font-size="9.00" fill="#000000">RF_FL</text>
</g>
<!-- RF_FL&#45;&gt;ANG_VEL -->
<g id="edge14" class="edge">
<title>RF_FL&#45;&gt;ANG_VEL</title>
<path fill="none" stroke="#00ff00" stroke-width=".2354" d="M410.5318,-141.5135C402.9861,-130.0867 389.4445,-109.5802 376.7517,-90.359"/>
<polygon fill="#00ff00" stroke="#00ff00" stroke-width=".2354" points="379.626,-88.36 371.1948,-81.9439 373.7846,-92.2174 379.626,-88.36"/>
</g>
<!-- RF_L -->
<g id="node5" class="node">
<title>RF_L</title>
<polygon fill="#d3d3d3" stroke="#000000" points="231.5,-230.0071 191.5,-230.0071 191.5,-212.0071 231.5,-212.0071 231.5,-230.0071"/>
<text text-anchor="middle" x="211.5" y="-218.8071" font-family="Times,serif" font-size="9.00" fill="#000000">RF_L</text>
</g>
<!-- RF_L&#45;&gt;VEL -->
<g id="edge16" class="edge">
<title>RF_L&#45;&gt;VEL</title>
<path fill="none" stroke="#00ff00" stroke-width=".4759" d="M207.3166,-211.7963C203.9961,-204.4854 199.1414,-193.7967 194.4138,-183.3877"/>
<polygon fill="#00ff00" stroke="#00ff00" stroke-width=".4759" points="197.4776,-181.6696 190.1555,-174.0121 191.1042,-184.5644 197.4776,-181.6696"/>
</g>
<!-- RF_L&#45;&gt;8 -->
<g id="edge11" class="edge">
<title>RF_L&#45;&gt;8</title>
<path fill="none" stroke="#ff0000" stroke-width=".3563" d="M220.9127,-211.7963C231.8479,-201.0957 250.1776,-183.159 264.1826,-169.4544"/>
<polygon fill="#ff0000" stroke="#ff0000" stroke-width=".3563" points="266.7443,-171.8446 271.4437,-162.349 261.8485,-166.8415 266.7443,-171.8446"/>
</g>
<!-- RF_B -->
<g id="node6" class="node">
<title>RF_B</title>
<polygon fill="#d3d3d3" stroke="#000000" points="358,-230.0071 317,-230.0071 317,-212.0071 358,-212.0071 358,-230.0071"/>
<text text-anchor="middle" x="337.5" y="-218.8071" font-family="Times,serif" font-size="9.00" fill="#000000">RF_B</text>
</g>
<!-- RF_B&#45;&gt;ANG_VEL -->
<g id="edge6" class="edge">
<title>RF_B&#45;&gt;ANG_VEL</title>
<path fill="none" stroke="#ff0000" stroke-width=".3889" d="M337.9839,-211.5199C339.0453,-190.71 341.6466,-139.7058 343.6972,-99.502"/>
<polygon fill="#ff0000" stroke="#ff0000" stroke-width=".3889" points="347.2047,-99.4408 344.2187,-89.2755 340.2138,-99.0842 347.2047,-99.4408"/>
</g>
<!-- RF_B&#45;&gt;VEL -->
<g id="edge17" class="edge">
<title>RF_B&#45;&gt;VEL</title>
<path fill="none" stroke="#ff0000" stroke-width=".5144" d="M317.1677,-211.9405C290.5803,-200.0846 243.6824,-179.1717 212.1037,-165.09"/>
<polygon fill="#ff0000" stroke="#ff0000" stroke-width=".5144" points="213.3932,-161.8329 202.8347,-160.9568 210.5423,-168.2261 213.3932,-161.8329"/>
</g>
<!-- RF_B&#45;&gt;8 -->
<g id="edge1" class="edge">
<title>RF_B&#45;&gt;8</title>
<path fill="none" stroke="#00ff00" stroke-width=".241" d="M330.4404,-211.7963C322.7014,-201.6989 310.0241,-185.1583 299.7938,-171.8104"/>
<polygon fill="#00ff00" stroke="#00ff00" stroke-width=".241" points="302.362,-169.4076 293.5009,-163.5998 296.8061,-173.6659 302.362,-169.4076"/>
</g>
<!-- RAD_F -->
<g id="node7" class="node">
<title>RAD_F</title>
<polygon fill="#d3d3d3" stroke="#000000" points="505.5,-159.5513 457.5,-159.5513 457.5,-141.5513 505.5,-141.5513 505.5,-159.5513"/>
<text text-anchor="middle" x="481.5" y="-148.3513" font-family="Times,serif" font-size="9.00" fill="#000000">RAD_F</text>
</g>
<!-- RAD_F&#45;&gt;ANG_VEL -->
<g id="edge3" class="edge">
<title>RAD_F&#45;&gt;ANG_VEL</title>
<path fill="none" stroke="#00ff00" stroke-width=".1323" d="M469.99,-141.5135C452.4055,-127.706 417.9371,-100.641 389.8747,-78.6061"/>
<polygon fill="#00ff00" stroke="#00ff00" stroke-width=".1323" points="391.8007,-75.6683 381.7741,-72.2453 387.4776,-81.1739 391.8007,-75.6683"/>
</g>
<!-- RAD_L -->
<g id="node8" class="node">
<title>RAD_L</title>
<polygon fill="#d3d3d3" stroke="#000000" points="571.5,-159.5513 523.5,-159.5513 523.5,-141.5513 571.5,-141.5513 571.5,-159.5513"/>
<text text-anchor="middle" x="547.5" y="-148.3513" font-family="Times,serif" font-size="9.00" fill="#000000">RAD_L</text>
</g>
<!-- RAD_L&#45;&gt;ANG_VEL -->
<g id="edge2" class="edge">
<title>RAD_L&#45;&gt;ANG_VEL</title>
<path fill="none" stroke="#00ff00" stroke-width=".3451" d="M536.9143,-141.4663C530.6358,-136.3166 522.3858,-129.9527 514.5,-125.0955 476.7392,-101.8369 431.2358,-80.387 397.1151,-65.4802"/>
<polygon fill="#00ff00" stroke="#00ff00" stroke-width=".3451" points="398.3766,-62.2125 387.809,-61.4531 395.5965,-68.6368 398.3766,-62.2125"/>
</g>
<!-- RAD_B -->
<g id="node9" class="node">
<title>RAD_B</title>
<polygon fill="#d3d3d3" stroke="#000000" points="173,-230.0071 124,-230.0071 124,-212.0071 173,-212.0071 173,-230.0071"/>
<text text-anchor="middle" x="148.5" y="-218.8071" font-family="Times,serif" font-size="9.00" fill="#000000">RAD_B</text>
</g>
<!-- RAD_B&#45;&gt;VEL -->
<g id="edge8" class="edge">
<title>RAD_B&#45;&gt;VEL</title>
<path fill="none" stroke="#ff0000" stroke-width=".4471" d="M152.5527,-211.7963C155.7695,-204.4854 160.4724,-193.7967 165.0522,-183.3877"/>
<polygon fill="#ff0000" stroke="#ff0000" stroke-width=".4471" points="168.3537,-184.5748 169.1774,-174.0121 161.9465,-181.7557 168.3537,-184.5748"/>
</g>
<!-- RAD_R -->
<g id="node10" class="node">
<title>RAD_R</title>
<polygon fill="#d3d3d3" stroke="#000000" points="299,-230.0071 250,-230.0071 250,-212.0071 299,-212.0071 299,-230.0071"/>
<text text-anchor="middle" x="274.5" y="-218.8071" font-family="Times,serif" font-size="9.00" fill="#000000">RAD_R</text>
</g>
<!-- RAD_R&#45;&gt;VEL -->
<g id="edge19" class="edge">
<title>RAD_R&#45;&gt;VEL</title>
<path fill="none" stroke="#ff0000" stroke-width=".1245" d="M262.0804,-211.7963C248.5951,-201.7951 226.5868,-185.4728 208.6804,-172.1926"/>
<polygon fill="#ff0000" stroke="#ff0000" stroke-width=".1245" points="210.3918,-169.1044 200.2748,-165.9587 206.2219,-174.7269 210.3918,-169.1044"/>
</g>
<!-- RAD_R&#45;&gt;8 -->
<g id="edge9" class="edge">
<title>RAD_R&#45;&gt;8</title>
<path fill="none" stroke="#00ff00" stroke-width=".3567" d="M275.6766,-211.7963C276.8043,-202.9683 278.5611,-189.2152 280.1244,-176.9767"/>
<polygon fill="#00ff00" stroke="#00ff00" stroke-width=".3567" points="283.6324,-177.1362 281.4278,-166.7733 276.6888,-176.2492 283.6324,-177.1362"/>
</g>
<!-- ANG_VEL&#45;&gt;ANG_VEL -->
<g id="edge7" class="edge">
<title>ANG_VEL&#45;&gt;ANG_VEL</title>
<path fill="none" stroke="#00ff00" stroke-width=".4638" d="M386.5042,-64.4118C399.106,-64.1085 409.0477,-57.4872 409.0477,-44.5477 409.0477,-35.4497 404.1327,-29.4752 396.8338,-26.6243"/>
<polygon fill="#00ff00" stroke="#00ff00" stroke-width=".4638" points="396.9785,-23.0903 386.5042,-24.6836 395.686,-29.9699 396.9785,-23.0903"/>
</g>
<!-- 8&#45;&gt;ANG_VEL -->
<g id="edge12" class="edge">
<title>8&#45;&gt;ANG_VEL</title>
<path fill="none" stroke="#00ff00" stroke-width=".2258" d="M291.9965,-136.2552C298.7977,-124.8114 308.7449,-108.0743 318.2856,-92.0212"/>
<polygon fill="#00ff00" stroke="#00ff00" stroke-width=".2258" points="321.4213,-93.5957 323.5216,-83.2111 315.4038,-90.0194 321.4213,-93.5957"/>
</g>
</g>
</svg>
