<?xml version="1.0" encoding="utf-8" standalone="no"?>
<!DOCTYPE svg PUBLIC "-//W3C//DTD SVG 1.1//EN"
  "http://www.w3.org/Graphics/SVG/1.1/DTD/svg11.dtd">
<!-- Created with matplotlib (https://matplotlib.org/) -->
<svg height="345.6pt" version="1.1" viewBox="0 0 460.8 345.6" width="460.8pt" xmlns="http://www.w3.org/2000/svg" xmlns:xlink="http://www.w3.org/1999/xlink">
 <defs>
  <style type="text/css">
*{stroke-linecap:butt;stroke-linejoin:round;}
  </style>
 </defs>
 <g id="figure_1">
  <g id="patch_1">
   <path d="M 0 345.6 
L 460.8 345.6 
L 460.8 0 
L 0 0 
z
" style="fill:#ffffff;"/>
  </g>
  <g id="axes_1">
   <g id="patch_2">
    <path d="M 57.6 307.584 
L 414.72 307.584 
L 414.72 41.472 
L 57.6 41.472 
z
" style="fill:#ffffff;"/>
   </g>
   <g id="matplotlib.axis_1">
    <g id="xtick_1">
     <g id="line2d_1">
      <path clip-path="url(#p9d9c78ce58)" d="M 73.832727 307.584 
L 73.832727 41.472 
" style="fill:none;stroke:#b0b0b0;stroke-linecap:square;stroke-width:0.8;"/>
     </g>
     <g id="line2d_2">
      <defs>
       <path d="M 0 0 
L 0 3.5 
" id="mfc823af457" style="stroke:#000000;stroke-width:0.8;"/>
      </defs>
      <g>
       <use style="stroke:#000000;stroke-width:0.8;" x="73.832727" xlink:href="#mfc823af457" y="307.584"/>
      </g>
     </g>
     <g id="text_1">
      <!-- 0 -->
      <defs>
       <path d="M 31.78125 66.40625 
Q 24.171875 66.40625 20.328125 58.90625 
Q 16.5 51.421875 16.5 36.375 
Q 16.5 21.390625 20.328125 13.890625 
Q 24.171875 6.390625 31.78125 6.390625 
Q 39.453125 6.390625 43.28125 13.890625 
Q 47.125 21.390625 47.125 36.375 
Q 47.125 51.421875 43.28125 58.90625 
Q 39.453125 66.40625 31.78125 66.40625 
z
M 31.78125 74.21875 
Q 44.046875 74.21875 50.515625 64.515625 
Q 56.984375 54.828125 56.984375 36.375 
Q 56.984375 17.96875 50.515625 8.265625 
Q 44.046875 -1.421875 31.78125 -1.421875 
Q 19.53125 -1.421875 13.0625 8.265625 
Q 6.59375 17.96875 6.59375 36.375 
Q 6.59375 54.828125 13.0625 64.515625 
Q 19.53125 74.21875 31.78125 74.21875 
z
" id="DejaVuSans-48"/>
      </defs>
      <g transform="translate(70.651477 322.182437)scale(0.1 -0.1)">
       <use xlink:href="#DejaVuSans-48"/>
      </g>
     </g>
    </g>
    <g id="xtick_2">
     <g id="line2d_3">
      <path clip-path="url(#p9d9c78ce58)" d="M 114.516254 307.584 
L 114.516254 41.472 
" style="fill:none;stroke:#b0b0b0;stroke-linecap:square;stroke-width:0.8;"/>
     </g>
     <g id="line2d_4">
      <g>
       <use style="stroke:#000000;stroke-width:0.8;" x="114.516254" xlink:href="#mfc823af457" y="307.584"/>
      </g>
     </g>
     <g id="text_2">
      <!-- 50 -->
      <defs>
       <path d="M 10.796875 72.90625 
L 49.515625 72.90625 
L 49.515625 64.59375 
L 19.828125 64.59375 
L 19.828125 46.734375 
Q 21.96875 47.46875 24.109375 47.828125 
Q 26.265625 48.1875 28.421875 48.1875 
Q 40.625 48.1875 47.75 41.5 
Q 54.890625 34.8125 54.890625 23.390625 
Q 54.890625 11.625 47.5625 5.09375 
Q 40.234375 -1.421875 26.90625 -1.421875 
Q 22.3125 -1.421875 17.546875 -0.640625 
Q 12.796875 0.140625 7.71875 1.703125 
L 7.71875 11.625 
Q 12.109375 9.234375 16.796875 8.0625 
Q 21.484375 6.890625 26.703125 6.890625 
Q 35.15625 6.890625 40.078125 11.328125 
Q 45.015625 15.765625 45.015625 23.390625 
Q 45.015625 31 40.078125 35.4375 
Q 35.15625 39.890625 26.703125 39.890625 
Q 22.75 39.890625 18.8125 39.015625 
Q 14.890625 38.140625 10.796875 36.28125 
z
" id="DejaVuSans-53"/>
      </defs>
      <g transform="translate(108.153754 322.182437)scale(0.1 -0.1)">
       <use xlink:href="#DejaVuSans-53"/>
       <use x="63.623047" xlink:href="#DejaVuSans-48"/>
      </g>
     </g>
    </g>
    <g id="xtick_3">
     <g id="line2d_5">
      <path clip-path="url(#p9d9c78ce58)" d="M 155.199781 307.584 
L 155.199781 41.472 
" style="fill:none;stroke:#b0b0b0;stroke-linecap:square;stroke-width:0.8;"/>
     </g>
     <g id="line2d_6">
      <g>
       <use style="stroke:#000000;stroke-width:0.8;" x="155.199781" xlink:href="#mfc823af457" y="307.584"/>
      </g>
     </g>
     <g id="text_3">
      <!-- 100 -->
      <defs>
       <path d="M 12.40625 8.296875 
L 28.515625 8.296875 
L 28.515625 63.921875 
L 10.984375 60.40625 
L 10.984375 69.390625 
L 28.421875 72.90625 
L 38.28125 72.90625 
L 38.28125 8.296875 
L 54.390625 8.296875 
L 54.390625 0 
L 12.40625 0 
z
" id="DejaVuSans-49"/>
      </defs>
      <g transform="translate(145.656031 322.182437)scale(0.1 -0.1)">
       <use xlink:href="#DejaVuSans-49"/>
       <use x="63.623047" xlink:href="#DejaVuSans-48"/>
       <use x="127.246094" xlink:href="#DejaVuSans-48"/>
      </g>
     </g>
    </g>
    <g id="xtick_4">
     <g id="line2d_7">
      <path clip-path="url(#p9d9c78ce58)" d="M 195.883308 307.584 
L 195.883308 41.472 
" style="fill:none;stroke:#b0b0b0;stroke-linecap:square;stroke-width:0.8;"/>
     </g>
     <g id="line2d_8">
      <g>
       <use style="stroke:#000000;stroke-width:0.8;" x="195.883308" xlink:href="#mfc823af457" y="307.584"/>
      </g>
     </g>
     <g id="text_4">
      <!-- 150 -->
      <g transform="translate(186.339558 322.182437)scale(0.1 -0.1)">
       <use xlink:href="#DejaVuSans-49"/>
       <use x="63.623047" xlink:href="#DejaVuSans-53"/>
       <use x="127.246094" xlink:href="#DejaVuSans-48"/>
      </g>
     </g>
    </g>
    <g id="xtick_5">
     <g id="line2d_9">
      <path clip-path="url(#p9d9c78ce58)" d="M 236.566835 307.584 
L 236.566835 41.472 
" style="fill:none;stroke:#b0b0b0;stroke-linecap:square;stroke-width:0.8;"/>
     </g>
     <g id="line2d_10">
      <g>
       <use style="stroke:#000000;stroke-width:0.8;" x="236.566835" xlink:href="#mfc823af457" y="307.584"/>
      </g>
     </g>
     <g id="text_5">
      <!-- 200 -->
      <defs>
       <path d="M 19.1875 8.296875 
L 53.609375 8.296875 
L 53.609375 0 
L 7.328125 0 
L 7.328125 8.296875 
Q 12.9375 14.109375 22.625 23.890625 
Q 32.328125 33.6875 34.8125 36.53125 
Q 39.546875 41.84375 41.421875 45.53125 
Q 43.3125 49.21875 43.3125 52.78125 
Q 43.3125 58.59375 39.234375 62.25 
Q 35.15625 65.921875 28.609375 65.921875 
Q 23.96875 65.921875 18.8125 64.3125 
Q 13.671875 62.703125 7.8125 59.421875 
L 7.8125 69.390625 
Q 13.765625 71.78125 18.9375 73 
Q 24.125 74.21875 28.421875 74.21875 
Q 39.75 74.21875 46.484375 68.546875 
Q 53.21875 62.890625 53.21875 53.421875 
Q 53.21875 48.921875 51.53125 44.890625 
Q 49.859375 40.875 45.40625 35.40625 
Q 44.1875 33.984375 37.640625 27.21875 
Q 31.109375 20.453125 19.1875 8.296875 
z
" id="DejaVuSans-50"/>
      </defs>
      <g transform="translate(227.023085 322.182437)scale(0.1 -0.1)">
       <use xlink:href="#DejaVuSans-50"/>
       <use x="63.623047" xlink:href="#DejaVuSans-48"/>
       <use x="127.246094" xlink:href="#DejaVuSans-48"/>
      </g>
     </g>
    </g>
    <g id="xtick_6">
     <g id="line2d_11">
      <path clip-path="url(#p9d9c78ce58)" d="M 277.250362 307.584 
L 277.250362 41.472 
" style="fill:none;stroke:#b0b0b0;stroke-linecap:square;stroke-width:0.8;"/>
     </g>
     <g id="line2d_12">
      <g>
       <use style="stroke:#000000;stroke-width:0.8;" x="277.250362" xlink:href="#mfc823af457" y="307.584"/>
      </g>
     </g>
     <g id="text_6">
      <!-- 250 -->
      <g transform="translate(267.706612 322.182437)scale(0.1 -0.1)">
       <use xlink:href="#DejaVuSans-50"/>
       <use x="63.623047" xlink:href="#DejaVuSans-53"/>
       <use x="127.246094" xlink:href="#DejaVuSans-48"/>
      </g>
     </g>
    </g>
    <g id="xtick_7">
     <g id="line2d_13">
      <path clip-path="url(#p9d9c78ce58)" d="M 317.933889 307.584 
L 317.933889 41.472 
" style="fill:none;stroke:#b0b0b0;stroke-linecap:square;stroke-width:0.8;"/>
     </g>
     <g id="line2d_14">
      <g>
       <use style="stroke:#000000;stroke-width:0.8;" x="317.933889" xlink:href="#mfc823af457" y="307.584"/>
      </g>
     </g>
     <g id="text_7">
      <!-- 300 -->
      <defs>
       <path d="M 40.578125 39.3125 
Q 47.65625 37.796875 51.625 33 
Q 55.609375 28.21875 55.609375 21.1875 
Q 55.609375 10.40625 48.1875 4.484375 
Q 40.765625 -1.421875 27.09375 -1.421875 
Q 22.515625 -1.421875 17.65625 -0.515625 
Q 12.796875 0.390625 7.625 2.203125 
L 7.625 11.71875 
Q 11.71875 9.328125 16.59375 8.109375 
Q 21.484375 6.890625 26.8125 6.890625 
Q 36.078125 6.890625 40.9375 10.546875 
Q 45.796875 14.203125 45.796875 21.1875 
Q 45.796875 27.640625 41.28125 31.265625 
Q 36.765625 34.90625 28.71875 34.90625 
L 20.21875 34.90625 
L 20.21875 43.015625 
L 29.109375 43.015625 
Q 36.375 43.015625 40.234375 45.921875 
Q 44.09375 48.828125 44.09375 54.296875 
Q 44.09375 59.90625 40.109375 62.90625 
Q 36.140625 65.921875 28.71875 65.921875 
Q 24.65625 65.921875 20.015625 65.03125 
Q 15.375 64.15625 9.8125 62.3125 
L 9.8125 71.09375 
Q 15.4375 72.65625 20.34375 73.4375 
Q 25.25 74.21875 29.59375 74.21875 
Q 40.828125 74.21875 47.359375 69.109375 
Q 53.90625 64.015625 53.90625 55.328125 
Q 53.90625 49.265625 50.4375 45.09375 
Q 46.96875 40.921875 40.578125 39.3125 
z
" id="DejaVuSans-51"/>
      </defs>
      <g transform="translate(308.390139 322.182437)scale(0.1 -0.1)">
       <use xlink:href="#DejaVuSans-51"/>
       <use x="63.623047" xlink:href="#DejaVuSans-48"/>
       <use x="127.246094" xlink:href="#DejaVuSans-48"/>
      </g>
     </g>
    </g>
    <g id="xtick_8">
     <g id="line2d_15">
      <path clip-path="url(#p9d9c78ce58)" d="M 358.617416 307.584 
L 358.617416 41.472 
" style="fill:none;stroke:#b0b0b0;stroke-linecap:square;stroke-width:0.8;"/>
     </g>
     <g id="line2d_16">
      <g>
       <use style="stroke:#000000;stroke-width:0.8;" x="358.617416" xlink:href="#mfc823af457" y="307.584"/>
      </g>
     </g>
     <g id="text_8">
      <!-- 350 -->
      <g transform="translate(349.073666 322.182437)scale(0.1 -0.1)">
       <use xlink:href="#DejaVuSans-51"/>
       <use x="63.623047" xlink:href="#DejaVuSans-53"/>
       <use x="127.246094" xlink:href="#DejaVuSans-48"/>
      </g>
     </g>
    </g>
    <g id="xtick_9">
     <g id="line2d_17">
      <path clip-path="url(#p9d9c78ce58)" d="M 399.300943 307.584 
L 399.300943 41.472 
" style="fill:none;stroke:#b0b0b0;stroke-linecap:square;stroke-width:0.8;"/>
     </g>
     <g id="line2d_18">
      <g>
       <use style="stroke:#000000;stroke-width:0.8;" x="399.300943" xlink:href="#mfc823af457" y="307.584"/>
      </g>
     </g>
     <g id="text_9">
      <!-- 400 -->
      <defs>
       <path d="M 37.796875 64.3125 
L 12.890625 25.390625 
L 37.796875 25.390625 
z
M 35.203125 72.90625 
L 47.609375 72.90625 
L 47.609375 25.390625 
L 58.015625 25.390625 
L 58.015625 17.1875 
L 47.609375 17.1875 
L 47.609375 0 
L 37.796875 0 
L 37.796875 17.1875 
L 4.890625 17.1875 
L 4.890625 26.703125 
z
" id="DejaVuSans-52"/>
      </defs>
      <g transform="translate(389.757193 322.182437)scale(0.1 -0.1)">
       <use xlink:href="#DejaVuSans-52"/>
       <use x="63.623047" xlink:href="#DejaVuSans-48"/>
       <use x="127.246094" xlink:href="#DejaVuSans-48"/>
      </g>
     </g>
    </g>
    <g id="text_10">
     <!-- Generations -->
     <defs>
      <path d="M 59.515625 10.40625 
L 59.515625 29.984375 
L 43.40625 29.984375 
L 43.40625 38.09375 
L 69.28125 38.09375 
L 69.28125 6.78125 
Q 63.578125 2.734375 56.6875 0.65625 
Q 49.8125 -1.421875 42 -1.421875 
Q 24.90625 -1.421875 15.25 8.5625 
Q 5.609375 18.5625 5.609375 36.375 
Q 5.609375 54.25 15.25 64.234375 
Q 24.90625 74.21875 42 74.21875 
Q 49.125 74.21875 55.546875 72.453125 
Q 61.96875 70.703125 67.390625 67.28125 
L 67.390625 56.78125 
Q 61.921875 61.421875 55.765625 63.765625 
Q 49.609375 66.109375 42.828125 66.109375 
Q 29.4375 66.109375 22.71875 58.640625 
Q 16.015625 51.171875 16.015625 36.375 
Q 16.015625 21.625 22.71875 14.15625 
Q 29.4375 6.6875 42.828125 6.6875 
Q 48.046875 6.6875 52.140625 7.59375 
Q 56.25 8.5 59.515625 10.40625 
z
" id="DejaVuSans-71"/>
      <path d="M 56.203125 29.59375 
L 56.203125 25.203125 
L 14.890625 25.203125 
Q 15.484375 15.921875 20.484375 11.0625 
Q 25.484375 6.203125 34.421875 6.203125 
Q 39.59375 6.203125 44.453125 7.46875 
Q 49.3125 8.734375 54.109375 11.28125 
L 54.109375 2.78125 
Q 49.265625 0.734375 44.1875 -0.34375 
Q 39.109375 -1.421875 33.890625 -1.421875 
Q 20.796875 -1.421875 13.15625 6.1875 
Q 5.515625 13.8125 5.515625 26.8125 
Q 5.515625 40.234375 12.765625 48.109375 
Q 20.015625 56 32.328125 56 
Q 43.359375 56 49.78125 48.890625 
Q 56.203125 41.796875 56.203125 29.59375 
z
M 47.21875 32.234375 
Q 47.125 39.59375 43.09375 43.984375 
Q 39.0625 48.390625 32.421875 48.390625 
Q 24.90625 48.390625 20.390625 44.140625 
Q 15.875 39.890625 15.1875 32.171875 
z
" id="DejaVuSans-101"/>
      <path d="M 54.890625 33.015625 
L 54.890625 0 
L 45.90625 0 
L 45.90625 32.71875 
Q 45.90625 40.484375 42.875 44.328125 
Q 39.84375 48.1875 33.796875 48.1875 
Q 26.515625 48.1875 22.3125 43.546875 
Q 18.109375 38.921875 18.109375 30.90625 
L 18.109375 0 
L 9.078125 0 
L 9.078125 54.6875 
L 18.109375 54.6875 
L 18.109375 46.1875 
Q 21.34375 51.125 25.703125 53.5625 
Q 30.078125 56 35.796875 56 
Q 45.21875 56 50.046875 50.171875 
Q 54.890625 44.34375 54.890625 33.015625 
z
" id="DejaVuSans-110"/>
      <path d="M 41.109375 46.296875 
Q 39.59375 47.171875 37.8125 47.578125 
Q 36.03125 48 33.890625 48 
Q 26.265625 48 22.1875 43.046875 
Q 18.109375 38.09375 18.109375 28.8125 
L 18.109375 0 
L 9.078125 0 
L 9.078125 54.6875 
L 18.109375 54.6875 
L 18.109375 46.1875 
Q 20.953125 51.171875 25.484375 53.578125 
Q 30.03125 56 36.53125 56 
Q 37.453125 56 38.578125 55.875 
Q 39.703125 55.765625 41.0625 55.515625 
z
" id="DejaVuSans-114"/>
      <path d="M 34.28125 27.484375 
Q 23.390625 27.484375 19.1875 25 
Q 14.984375 22.515625 14.984375 16.5 
Q 14.984375 11.71875 18.140625 8.90625 
Q 21.296875 6.109375 26.703125 6.109375 
Q 34.1875 6.109375 38.703125 11.40625 
Q 43.21875 16.703125 43.21875 25.484375 
L 43.21875 27.484375 
z
M 52.203125 31.203125 
L 52.203125 0 
L 43.21875 0 
L 43.21875 8.296875 
Q 40.140625 3.328125 35.546875 0.953125 
Q 30.953125 -1.421875 24.3125 -1.421875 
Q 15.921875 -1.421875 10.953125 3.296875 
Q 6 8.015625 6 15.921875 
Q 6 25.140625 12.171875 29.828125 
Q 18.359375 34.515625 30.609375 34.515625 
L 43.21875 34.515625 
L 43.21875 35.40625 
Q 43.21875 41.609375 39.140625 45 
Q 35.0625 48.390625 27.6875 48.390625 
Q 23 48.390625 18.546875 47.265625 
Q 14.109375 46.140625 10.015625 43.890625 
L 10.015625 52.203125 
Q 14.9375 54.109375 19.578125 55.046875 
Q 24.21875 56 28.609375 56 
Q 40.484375 56 46.34375 49.84375 
Q 52.203125 43.703125 52.203125 31.203125 
z
" id="DejaVuSans-97"/>
      <path d="M 18.3125 70.21875 
L 18.3125 54.6875 
L 36.8125 54.6875 
L 36.8125 47.703125 
L 18.3125 47.703125 
L 18.3125 18.015625 
Q 18.3125 11.328125 20.140625 9.421875 
Q 21.96875 7.515625 27.59375 7.515625 
L 36.8125 7.515625 
L 36.8125 0 
L 27.59375 0 
Q 17.1875 0 13.234375 3.875 
Q 9.28125 7.765625 9.28125 18.015625 
L 9.28125 47.703125 
L 2.6875 47.703125 
L 2.6875 54.6875 
L 9.28125 54.6875 
L 9.28125 70.21875 
z
" id="DejaVuSans-116"/>
      <path d="M 9.421875 54.6875 
L 18.40625 54.6875 
L 18.40625 0 
L 9.421875 0 
z
M 9.421875 75.984375 
L 18.40625 75.984375 
L 18.40625 64.59375 
L 9.421875 64.59375 
z
" id="DejaVuSans-105"/>
      <path d="M 30.609375 48.390625 
Q 23.390625 48.390625 19.1875 42.75 
Q 14.984375 37.109375 14.984375 27.296875 
Q 14.984375 17.484375 19.15625 11.84375 
Q 23.34375 6.203125 30.609375 6.203125 
Q 37.796875 6.203125 41.984375 11.859375 
Q 46.1875 17.53125 46.1875 27.296875 
Q 46.1875 37.015625 41.984375 42.703125 
Q 37.796875 48.390625 30.609375 48.390625 
z
M 30.609375 56 
Q 42.328125 56 49.015625 48.375 
Q 55.71875 40.765625 55.71875 27.296875 
Q 55.71875 13.875 49.015625 6.21875 
Q 42.328125 -1.421875 30.609375 -1.421875 
Q 18.84375 -1.421875 12.171875 6.21875 
Q 5.515625 13.875 5.515625 27.296875 
Q 5.515625 40.765625 12.171875 48.375 
Q 18.84375 56 30.609375 56 
z
" id="DejaVuSans-111"/>
      <path d="M 44.28125 53.078125 
L 44.28125 44.578125 
Q 40.484375 46.53125 36.375 47.5 
Q 32.28125 48.484375 27.875 48.484375 
Q 21.1875 48.484375 17.84375 46.4375 
Q 14.5 44.390625 14.5 40.28125 
Q 14.5 37.15625 16.890625 35.375 
Q 19.28125 33.59375 26.515625 31.984375 
L 29.59375 31.296875 
Q 39.15625 29.25 43.1875 25.515625 
Q 47.21875 21.78125 47.21875 15.09375 
Q 47.21875 7.46875 41.1875 3.015625 
Q 35.15625 -1.421875 24.609375 -1.421875 
Q 20.21875 -1.421875 15.453125 -0.5625 
Q 10.6875 0.296875 5.421875 2 
L 5.421875 11.28125 
Q 10.40625 8.6875 15.234375 7.390625 
Q 20.0625 6.109375 24.8125 6.109375 
Q 31.15625 6.109375 34.5625 8.28125 
Q 37.984375 10.453125 37.984375 14.40625 
Q 37.984375 18.0625 35.515625 20.015625 
Q 33.0625 21.96875 24.703125 23.78125 
L 21.578125 24.515625 
Q 13.234375 26.265625 9.515625 29.90625 
Q 5.8125 33.546875 5.8125 39.890625 
Q 5.8125 47.609375 11.28125 51.796875 
Q 16.75 56 26.8125 56 
Q 31.78125 56 36.171875 55.265625 
Q 40.578125 54.546875 44.28125 53.078125 
z
" id="DejaVuSans-115"/>
     </defs>
     <g transform="translate(205.662344 335.860562)scale(0.1 -0.1)">
      <use xlink:href="#DejaVuSans-71"/>
      <use x="77.490234" xlink:href="#DejaVuSans-101"/>
      <use x="139.013672" xlink:href="#DejaVuSans-110"/>
      <use x="202.392578" xlink:href="#DejaVuSans-101"/>
      <use x="263.916016" xlink:href="#DejaVuSans-114"/>
      <use x="305.029297" xlink:href="#DejaVuSans-97"/>
      <use x="366.308594" xlink:href="#DejaVuSans-116"/>
      <use x="405.517578" xlink:href="#DejaVuSans-105"/>
      <use x="433.300781" xlink:href="#DejaVuSans-111"/>
      <use x="494.482422" xlink:href="#DejaVuSans-110"/>
      <use x="557.861328" xlink:href="#DejaVuSans-115"/>
     </g>
    </g>
   </g>
   <g id="matplotlib.axis_2">
    <g id="ytick_1">
     <g id="line2d_19">
      <path clip-path="url(#p9d9c78ce58)" d="M 57.6 264.86844 
L 414.72 264.86844 
" style="fill:none;stroke:#b0b0b0;stroke-linecap:square;stroke-width:0.8;"/>
     </g>
     <g id="line2d_20">
      <defs>
       <path d="M 0 0 
L -3.5 0 
" id="m722a0cf217" style="stroke:#000000;stroke-width:0.8;"/>
      </defs>
      <g>
       <use style="stroke:#000000;stroke-width:0.8;" x="57.6" xlink:href="#m722a0cf217" y="264.86844"/>
      </g>
     </g>
     <g id="text_11">
      <!-- 0.1 -->
      <defs>
       <path d="M 10.6875 12.40625 
L 21 12.40625 
L 21 0 
L 10.6875 0 
z
" id="DejaVuSans-46"/>
      </defs>
      <g transform="translate(34.696875 268.667659)scale(0.1 -0.1)">
       <use xlink:href="#DejaVuSans-48"/>
       <use x="63.623047" xlink:href="#DejaVuSans-46"/>
       <use x="95.410156" xlink:href="#DejaVuSans-49"/>
      </g>
     </g>
    </g>
    <g id="ytick_2">
     <g id="line2d_21">
      <path clip-path="url(#p9d9c78ce58)" d="M 57.6 220.884848 
L 414.72 220.884848 
" style="fill:none;stroke:#b0b0b0;stroke-linecap:square;stroke-width:0.8;"/>
     </g>
     <g id="line2d_22">
      <g>
       <use style="stroke:#000000;stroke-width:0.8;" x="57.6" xlink:href="#m722a0cf217" y="220.884848"/>
      </g>
     </g>
     <g id="text_12">
      <!-- 0.2 -->
      <g transform="translate(34.696875 224.684067)scale(0.1 -0.1)">
       <use xlink:href="#DejaVuSans-48"/>
       <use x="63.623047" xlink:href="#DejaVuSans-46"/>
       <use x="95.410156" xlink:href="#DejaVuSans-50"/>
      </g>
     </g>
    </g>
    <g id="ytick_3">
     <g id="line2d_23">
      <path clip-path="url(#p9d9c78ce58)" d="M 57.6 176.901255 
L 414.72 176.901255 
" style="fill:none;stroke:#b0b0b0;stroke-linecap:square;stroke-width:0.8;"/>
     </g>
     <g id="line2d_24">
      <g>
       <use style="stroke:#000000;stroke-width:0.8;" x="57.6" xlink:href="#m722a0cf217" y="176.901255"/>
      </g>
     </g>
     <g id="text_13">
      <!-- 0.3 -->
      <g transform="translate(34.696875 180.700474)scale(0.1 -0.1)">
       <use xlink:href="#DejaVuSans-48"/>
       <use x="63.623047" xlink:href="#DejaVuSans-46"/>
       <use x="95.410156" xlink:href="#DejaVuSans-51"/>
      </g>
     </g>
    </g>
    <g id="ytick_4">
     <g id="line2d_25">
      <path clip-path="url(#p9d9c78ce58)" d="M 57.6 132.917663 
L 414.72 132.917663 
" style="fill:none;stroke:#b0b0b0;stroke-linecap:square;stroke-width:0.8;"/>
     </g>
     <g id="line2d_26">
      <g>
       <use style="stroke:#000000;stroke-width:0.8;" x="57.6" xlink:href="#m722a0cf217" y="132.917663"/>
      </g>
     </g>
     <g id="text_14">
      <!-- 0.4 -->
      <g transform="translate(34.696875 136.716882)scale(0.1 -0.1)">
       <use xlink:href="#DejaVuSans-48"/>
       <use x="63.623047" xlink:href="#DejaVuSans-46"/>
       <use x="95.410156" xlink:href="#DejaVuSans-52"/>
      </g>
     </g>
    </g>
    <g id="ytick_5">
     <g id="line2d_27">
      <path clip-path="url(#p9d9c78ce58)" d="M 57.6 88.93407 
L 414.72 88.93407 
" style="fill:none;stroke:#b0b0b0;stroke-linecap:square;stroke-width:0.8;"/>
     </g>
     <g id="line2d_28">
      <g>
       <use style="stroke:#000000;stroke-width:0.8;" x="57.6" xlink:href="#m722a0cf217" y="88.93407"/>
      </g>
     </g>
     <g id="text_15">
      <!-- 0.5 -->
      <g transform="translate(34.696875 92.733289)scale(0.1 -0.1)">
       <use xlink:href="#DejaVuSans-48"/>
       <use x="63.623047" xlink:href="#DejaVuSans-46"/>
       <use x="95.410156" xlink:href="#DejaVuSans-53"/>
      </g>
     </g>
    </g>
    <g id="ytick_6">
     <g id="line2d_29">
      <path clip-path="url(#p9d9c78ce58)" d="M 57.6 44.950478 
L 414.72 44.950478 
" style="fill:none;stroke:#b0b0b0;stroke-linecap:square;stroke-width:0.8;"/>
     </g>
     <g id="line2d_30">
      <g>
       <use style="stroke:#000000;stroke-width:0.8;" x="57.6" xlink:href="#m722a0cf217" y="44.950478"/>
      </g>
     </g>
     <g id="text_16">
      <!-- 0.6 -->
      <defs>
       <path d="M 33.015625 40.375 
Q 26.375 40.375 22.484375 35.828125 
Q 18.609375 31.296875 18.609375 23.390625 
Q 18.609375 15.53125 22.484375 10.953125 
Q 26.375 6.390625 33.015625 6.390625 
Q 39.65625 6.390625 43.53125 10.953125 
Q 47.40625 15.53125 47.40625 23.390625 
Q 47.40625 31.296875 43.53125 35.828125 
Q 39.65625 40.375 33.015625 40.375 
z
M 52.59375 71.296875 
L 52.59375 62.3125 
Q 48.875 64.0625 45.09375 64.984375 
Q 41.3125 65.921875 37.59375 65.921875 
Q 27.828125 65.921875 22.671875 59.328125 
Q 17.53125 52.734375 16.796875 39.40625 
Q 19.671875 43.65625 24.015625 45.921875 
Q 28.375 48.1875 33.59375 48.1875 
Q 44.578125 48.1875 50.953125 41.515625 
Q 57.328125 34.859375 57.328125 23.390625 
Q 57.328125 12.15625 50.6875 5.359375 
Q 44.046875 -1.421875 33.015625 -1.421875 
Q 20.359375 -1.421875 13.671875 8.265625 
Q 6.984375 17.96875 6.984375 36.375 
Q 6.984375 53.65625 15.1875 63.9375 
Q 23.390625 74.21875 37.203125 74.21875 
Q 40.921875 74.21875 44.703125 73.484375 
Q 48.484375 72.75 52.59375 71.296875 
z
" id="DejaVuSans-54"/>
      </defs>
      <g transform="translate(34.696875 48.749697)scale(0.1 -0.1)">
       <use xlink:href="#DejaVuSans-48"/>
       <use x="63.623047" xlink:href="#DejaVuSans-46"/>
       <use x="95.410156" xlink:href="#DejaVuSans-54"/>
      </g>
     </g>
    </g>
    <g id="text_17">
     <!-- Fitness -->
     <defs>
      <path d="M 9.8125 72.90625 
L 51.703125 72.90625 
L 51.703125 64.59375 
L 19.671875 64.59375 
L 19.671875 43.109375 
L 48.578125 43.109375 
L 48.578125 34.8125 
L 19.671875 34.8125 
L 19.671875 0 
L 9.8125 0 
z
" id="DejaVuSans-70"/>
     </defs>
     <g transform="translate(28.617187 192.202219)rotate(-90)scale(0.1 -0.1)">
      <use xlink:href="#DejaVuSans-70"/>
      <use x="57.410156" xlink:href="#DejaVuSans-105"/>
      <use x="85.193359" xlink:href="#DejaVuSans-116"/>
      <use x="124.402344" xlink:href="#DejaVuSans-110"/>
      <use x="187.78125" xlink:href="#DejaVuSans-101"/>
      <use x="249.304688" xlink:href="#DejaVuSans-115"/>
      <use x="301.404297" xlink:href="#DejaVuSans-115"/>
     </g>
    </g>
   </g>
   <g id="line2d_31">
    <path clip-path="url(#p9d9c78ce58)" d="M 73.832727 209.091381 
L 75.460068 139.120263 
L 76.273739 135.813818 
L 77.087409 163.029159 
L 77.90108 145.911747 
L 78.714751 145.024882 
L 79.528421 139.088183 
L 80.342092 149.084566 
L 81.155762 146.818876 
L 81.969433 150.542931 
L 82.783103 156.332665 
L 84.410444 183.590781 
L 85.224115 169.660547 
L 86.037785 167.061425 
L 86.851456 163.317773 
L 87.665126 161.621765 
L 88.478797 169.848189 
L 89.292468 160.141468 
L 90.106138 163.748727 
L 90.919809 165.414889 
L 91.733479 154.571307 
L 92.54715 162.504762 
L 94.174491 156.645329 
L 95.801832 161.689042 
L 96.615502 167.24493 
L 97.429173 164.275288 
L 98.242843 163.147155 
L 99.056514 173.163211 
L 100.683855 165.870147 
L 101.497526 157.67605 
L 102.311196 170.449872 
L 103.124867 163.863513 
L 103.938537 163.145544 
L 104.752208 186.575207 
L 105.565878 175.964779 
L 106.379549 167.739857 
L 107.193219 167.128095 
L 108.00689 176.735244 
L 108.82056 161.733646 
L 109.634231 159.585976 
L 110.447902 161.644625 
L 111.261572 167.908451 
L 112.075243 151.566015 
L 112.888913 172.900811 
L 113.702584 174.630567 
L 114.516254 175.081158 
L 115.329925 175.777366 
L 116.143595 184.422028 
L 116.957266 180.206116 
L 117.770936 173.088904 
L 118.584607 167.779043 
L 119.398278 168.631456 
L 120.211948 164.63726 
L 121.025619 169.922007 
L 121.839289 166.253673 
L 122.65296 165.023703 
L 123.46663 179.180978 
L 124.280301 175.064144 
L 125.093971 168.712486 
L 125.907642 182.14982 
L 126.721312 175.209415 
L 127.534983 169.711517 
L 128.348653 176.662277 
L 129.162324 195.52171 
L 129.975995 189.140849 
L 130.789665 193.522295 
L 132.417006 184.867242 
L 133.230677 190.171711 
L 134.044347 188.445221 
L 134.858018 185.117063 
L 135.671688 172.060033 
L 136.485359 177.791286 
L 137.299029 173.769726 
L 138.1127 171.46851 
L 138.92637 178.288203 
L 139.740041 193.487934 
L 140.553712 178.935426 
L 141.367382 168.57166 
L 142.181053 181.616868 
L 142.994723 184.94216 
L 143.808394 178.268396 
L 144.622064 170.251795 
L 146.249405 183.91991 
L 147.063076 194.054649 
L 147.876746 189.458442 
L 148.690417 186.321912 
L 149.504087 189.007202 
L 150.317758 189.923332 
L 151.131429 174.741956 
L 151.945099 185.147264 
L 152.75877 179.555619 
L 153.57244 185.841818 
L 154.386111 172.554267 
L 156.013452 187.882664 
L 156.827122 179.867062 
L 157.640793 173.640073 
L 158.454463 170.34253 
L 159.268134 181.701001 
L 160.081805 176.043559 
L 160.895475 167.950087 
L 161.709146 169.591709 
L 163.336487 183.024083 
L 164.150157 176.948991 
L 164.963828 175.720798 
L 165.777498 177.638042 
L 166.591169 162.879168 
L 167.404839 170.494401 
L 168.21851 168.650368 
L 169.03218 180.648917 
L 169.845851 163.811444 
L 170.659522 169.477925 
L 171.473192 186.71136 
L 172.286863 171.73408 
L 173.100533 178.077508 
L 173.914204 177.027915 
L 174.727874 169.707895 
L 175.541545 175.652645 
L 176.355215 163.708827 
L 177.168886 190.653806 
L 177.982556 166.783991 
L 178.796227 169.810842 
L 179.609897 165.129815 
L 180.423568 184.591552 
L 181.237239 185.550674 
L 182.050909 178.684704 
L 182.86458 166.482786 
L 183.67825 177.921255 
L 184.491921 184.836527 
L 185.305591 178.021512 
L 186.119262 173.093422 
L 186.932932 190.365297 
L 187.746603 185.648617 
L 188.560273 174.268044 
L 189.373944 172.188917 
L 190.187614 170.491822 
L 191.001285 170.768371 
L 191.814956 178.387007 
L 192.628626 177.625548 
L 193.442297 178.898467 
L 194.255967 180.659997 
L 195.069638 178.414084 
L 195.883308 185.965566 
L 196.696979 172.503437 
L 197.510649 194.792603 
L 198.32432 175.542788 
L 199.13799 181.409745 
L 199.951661 183.622577 
L 200.765332 196.177695 
L 202.392673 183.452145 
L 203.206343 169.371907 
L 204.020014 182.659586 
L 204.833684 185.375834 
L 205.647355 191.69419 
L 206.461025 196.725977 
L 207.274696 198.298562 
L 208.088366 182.363557 
L 208.902037 181.022656 
L 209.715707 156.634101 
L 210.529378 168.098834 
L 211.343049 160.001763 
L 212.156719 176.207707 
L 212.97039 186.733348 
L 213.78406 172.809087 
L 214.597731 176.570398 
L 215.411401 188.223082 
L 216.225072 183.712818 
L 217.038742 195.793712 
L 217.852413 185.60799 
L 218.666083 184.669762 
L 219.479754 191.849696 
L 221.107095 171.636574 
L 221.920766 186.754919 
L 222.734436 187.613375 
L 223.548107 180.984386 
L 224.361777 192.118522 
L 225.989118 174.540617 
L 226.802789 175.049974 
L 228.43013 165.156302 
L 229.2438 158.877653 
L 230.057471 162.360296 
L 230.871141 158.081246 
L 231.684812 170.745694 
L 232.498483 168.045344 
L 233.312153 185.97437 
L 234.125824 171.749068 
L 234.939494 170.077704 
L 235.753165 173.899353 
L 236.566835 172.410949 
L 237.380506 171.666551 
L 238.194176 176.708108 
L 239.007847 170.557105 
L 239.821517 165.742277 
L 240.635188 176.476463 
L 241.448859 177.502813 
L 242.262529 166.369381 
L 243.0762 164.605695 
L 243.88987 178.41763 
L 244.703541 173.947373 
L 245.517211 172.46634 
L 246.330882 168.461056 
L 247.144552 187.160167 
L 247.958223 193.824832 
L 248.771893 199.109498 
L 249.585564 199.302557 
L 250.399234 184.434953 
L 251.212905 204.025681 
L 252.026576 189.307604 
L 252.840246 183.739647 
L 254.467587 171.101368 
L 255.281258 162.803369 
L 256.094928 183.622776 
L 256.908599 168.562961 
L 257.722269 158.724798 
L 258.53594 171.258345 
L 259.34961 162.983103 
L 260.163281 162.743505 
L 260.976951 165.317994 
L 261.790622 155.063437 
L 262.604293 175.062668 
L 263.417963 152.765976 
L 264.231634 167.671793 
L 265.045304 164.440365 
L 265.858975 165.771936 
L 266.672645 170.468518 
L 267.486316 167.366795 
L 268.299986 158.207065 
L 269.113657 166.96078 
L 269.927327 162.028646 
L 270.740998 176.683081 
L 271.554668 159.922396 
L 272.368339 176.334125 
L 273.18201 169.311604 
L 273.99568 158.96133 
L 274.809351 172.858613 
L 275.623021 174.726253 
L 276.436692 169.437294 
L 277.250362 169.983317 
L 278.064033 168.197811 
L 278.877703 152.169835 
L 279.691374 164.668732 
L 280.505044 174.955668 
L 281.318715 160.289474 
L 282.132386 176.437262 
L 282.946056 162.446143 
L 283.759727 173.489115 
L 284.573397 158.423873 
L 285.387068 154.218009 
L 286.200738 165.377429 
L 287.014409 171.866745 
L 287.828079 163.824944 
L 288.64175 162.500443 
L 289.45542 171.930859 
L 290.269091 175.258679 
L 291.082761 184.653744 
L 291.896432 178.07471 
L 293.523773 160.736125 
L 294.337444 162.377218 
L 295.151114 169.438271 
L 295.964785 162.593604 
L 296.778455 161.349844 
L 297.592126 158.982498 
L 298.405796 158.615349 
L 299.219467 159.5759 
L 300.033137 160.25081 
L 300.846808 157.117028 
L 301.660478 153.352706 
L 302.474149 167.127905 
L 303.28782 161.645616 
L 304.10149 149.332631 
L 304.915161 159.186081 
L 305.728831 162.590291 
L 306.542502 170.825623 
L 307.356172 156.01795 
L 308.169843 164.995316 
L 308.983513 162.080996 
L 309.797184 157.756452 
L 310.610854 156.003437 
L 311.424525 163.291606 
L 312.238195 161.780154 
L 313.051866 168.119296 
L 313.865537 162.249801 
L 314.679207 153.896313 
L 315.492878 165.297624 
L 316.306548 165.142828 
L 317.120219 154.052884 
L 317.933889 161.000201 
L 318.74756 154.783372 
L 319.56123 167.347845 
L 320.374901 162.36114 
L 321.188571 174.794981 
L 322.002242 170.183035 
L 323.629583 157.245305 
L 324.443254 157.798223 
L 325.256924 167.836301 
L 326.070595 171.48475 
L 326.884265 166.90814 
L 327.697936 163.28587 
L 328.511606 170.146623 
L 329.325277 165.06137 
L 330.138947 157.509761 
L 330.952618 164.771604 
L 331.766288 165.507028 
L 332.579959 166.814423 
L 333.39363 169.326562 
L 334.2073 159.937141 
L 335.020971 167.214921 
L 335.834641 170.720603 
L 336.648312 159.160075 
L 337.461982 166.682046 
L 338.275653 163.392779 
L 339.089323 168.547599 
L 339.902994 152.743883 
L 340.716664 163.864178 
L 341.530335 153.12044 
L 342.344005 151.658116 
L 343.157676 153.789197 
L 343.971347 149.543629 
L 344.785017 163.728768 
L 345.598688 143.978258 
L 346.412358 142.083287 
L 347.226029 134.147132 
L 348.85337 152.495318 
L 349.66704 144.371756 
L 350.480711 153.825682 
L 351.294381 146.369768 
L 352.108052 150.737392 
L 352.921722 150.761126 
L 353.735393 161.046811 
L 354.549064 152.096966 
L 355.362734 156.403749 
L 356.176405 144.032392 
L 356.990075 157.423293 
L 357.803746 159.760859 
L 358.617416 145.566049 
L 359.431087 149.512353 
L 360.244757 165.364899 
L 361.058428 146.321623 
L 361.872098 167.394876 
L 363.49944 160.754094 
L 364.31311 152.12704 
L 365.126781 160.082105 
L 366.754122 170.721302 
L 367.567792 159.634654 
L 368.381463 153.321299 
L 369.195133 160.674492 
L 370.008804 170.352491 
L 370.822474 154.354995 
L 371.636145 161.465243 
L 372.449815 164.660422 
L 373.263486 156.911787 
L 374.077157 160.331805 
L 374.890827 161.555885 
L 375.704498 162.273643 
L 376.518168 165.798301 
L 377.331839 154.582425 
L 378.145509 162.732641 
L 378.95918 156.67526 
L 379.77285 161.37693 
L 380.586521 153.02805 
L 381.400191 157.746036 
L 382.213862 163.865564 
L 383.027532 161.241248 
L 383.841203 168.192047 
L 384.654874 158.84365 
L 385.468544 152.450282 
L 386.282215 179.797071 
L 387.095885 170.608073 
L 387.909556 172.394902 
L 388.723226 179.642575 
L 389.536897 165.297074 
L 390.350567 175.582815 
L 391.164238 172.034559 
L 391.977908 176.113806 
L 392.791579 169.768986 
L 393.605249 183.517818 
L 394.41892 173.030783 
L 395.232591 177.83035 
L 396.046261 187.272437 
L 396.859932 174.649446 
L 397.673602 176.279618 
L 398.487273 171.74854 
L 398.487273 171.74854 
" style="fill:none;stroke:#0000ff;stroke-linecap:square;stroke-width:1.5;"/>
   </g>
   <g id="line2d_32">
    <path clip-path="url(#p9d9c78ce58)" d="M 73.832727 271.443204 
L 74.646398 270.140258 
L 75.460068 222.890112 
L 76.273739 218.059637 
L 77.087409 256.446569 
L 77.90108 227.237589 
L 78.714751 225.131775 
L 79.528421 214.0972 
L 80.342092 234.062456 
L 81.155762 230.735004 
L 81.969433 234.412402 
L 83.596774 258.991554 
L 84.410444 277.76098 
L 85.224115 257.985458 
L 86.851456 252.289862 
L 87.665126 249.487237 
L 88.478797 259.120452 
L 89.292468 246.280165 
L 90.106138 251.528375 
L 90.919809 251.014953 
L 91.733479 237.905468 
L 92.54715 250.090089 
L 93.36082 245.453524 
L 94.174491 243.167061 
L 94.988161 244.704374 
L 95.801832 248.960638 
L 96.615502 257.180332 
L 98.242843 247.965066 
L 99.056514 263.334156 
L 99.870185 261.620518 
L 100.683855 257.914939 
L 101.497526 247.466823 
L 102.311196 265.339046 
L 103.124867 254.801694 
L 103.938537 251.826473 
L 104.752208 278.314665 
L 105.565878 268.154417 
L 106.379549 261.946466 
L 107.193219 258.073612 
L 108.00689 268.076608 
L 108.82056 250.606168 
L 109.634231 245.676636 
L 110.447902 251.084884 
L 111.261572 258.8414 
L 112.075243 235.095646 
L 112.888913 259.814306 
L 113.702584 260.542488 
L 115.329925 266.736109 
L 116.143595 269.632715 
L 116.957266 263.394828 
L 118.584607 256.030227 
L 119.398278 253.658299 
L 120.211948 252.331004 
L 121.025619 257.123733 
L 121.839289 251.696757 
L 122.65296 252.915842 
L 123.46663 266.942086 
L 124.280301 262.492593 
L 125.093971 255.47914 
L 125.907642 271.363198 
L 126.721312 270.037955 
L 127.534983 263.499608 
L 128.348653 268.365972 
L 129.162324 285.365299 
L 129.975995 281.147179 
L 130.789665 284.923363 
L 131.603336 281.766625 
L 132.417006 275.898989 
L 133.230677 279.769664 
L 134.044347 275.831039 
L 134.858018 277.295397 
L 135.671688 261.774676 
L 136.485359 271.249796 
L 138.1127 264.896025 
L 138.92637 274.172913 
L 139.740041 292.069368 
L 140.553712 276.856776 
L 141.367382 264.576743 
L 142.181053 279.009272 
L 142.994723 281.890028 
L 143.808394 276.851957 
L 144.622064 266.645861 
L 145.435735 274.269583 
L 147.063076 292.519295 
L 147.876746 288.538992 
L 148.690417 283.801754 
L 149.504087 285.535892 
L 150.317758 286.657474 
L 151.131429 271.101712 
L 151.945099 284.938983 
L 152.75877 276.625668 
L 153.57244 283.104771 
L 154.386111 268.369831 
L 156.013452 285.236621 
L 156.827122 276.282845 
L 158.454463 265.510174 
L 159.268134 277.900603 
L 160.081805 273.464831 
L 160.895475 260.095678 
L 162.522816 273.905423 
L 163.336487 279.203368 
L 164.150157 276.989037 
L 164.963828 273.110255 
L 165.777498 272.729045 
L 166.591169 257.648148 
L 167.404839 264.420218 
L 168.21851 261.314324 
L 169.03218 278.328897 
L 169.845851 257.998036 
L 170.659522 263.626639 
L 171.473192 283.818104 
L 172.286863 266.557966 
L 173.100533 273.510972 
L 173.914204 272.744709 
L 174.727874 262.337617 
L 175.541545 271.056935 
L 176.355215 254.981423 
L 177.168886 285.498392 
L 177.982556 259.862986 
L 178.796227 263.947843 
L 179.609897 261.20916 
L 180.423568 282.489923 
L 181.237239 284.481903 
L 182.86458 260.592664 
L 183.67825 271.990722 
L 184.491921 278.950659 
L 185.305591 272.232254 
L 186.119262 270.329391 
L 186.932932 285.450723 
L 187.746603 281.277883 
L 188.560273 271.111279 
L 189.373944 266.331015 
L 190.187614 264.271657 
L 191.001285 264.083777 
L 191.814956 273.006674 
L 192.628626 275.310933 
L 193.442297 275.521789 
L 194.255967 275.425707 
L 195.069638 275.66729 
L 195.883308 280.469343 
L 196.696979 268.151746 
L 197.510649 292.629305 
L 198.32432 273.995166 
L 199.13799 277.669946 
L 199.951661 283.434118 
L 200.765332 292.934542 
L 201.579002 288.534758 
L 202.392673 280.622234 
L 203.206343 268.141806 
L 204.020014 280.085874 
L 204.833684 280.238823 
L 205.647355 291.228398 
L 206.461025 294.658015 
L 207.274696 295.488 
L 208.088366 278.102589 
L 208.902037 279.549842 
L 209.715707 249.061497 
L 210.529378 264.266904 
L 211.343049 255.330194 
L 212.156719 271.546766 
L 212.97039 273.382895 
L 213.78406 261.345649 
L 214.597731 258.714357 
L 215.411401 275.347019 
L 216.225072 276.101208 
L 217.038742 286.356114 
L 217.852413 278.741487 
L 218.666083 277.374254 
L 219.479754 288.203378 
L 220.293424 277.381693 
L 221.107095 264.157592 
L 221.920766 281.132108 
L 222.734436 282.680642 
L 223.548107 275.346867 
L 224.361777 286.885207 
L 225.175448 277.407462 
L 225.989118 266.539947 
L 226.802789 270.344156 
L 227.616459 262.331146 
L 228.43013 258.205768 
L 229.2438 249.433373 
L 230.057471 254.404238 
L 230.871141 250.301971 
L 231.684812 264.253259 
L 232.498483 261.017262 
L 233.312153 281.934789 
L 234.125824 265.888276 
L 234.939494 262.074977 
L 235.753165 269.767058 
L 236.566835 261.851565 
L 237.380506 264.016722 
L 238.194176 265.42795 
L 239.007847 261.871118 
L 239.821517 256.739645 
L 240.635188 267.952676 
L 241.448859 270.062526 
L 242.262529 255.030368 
L 243.0762 254.162009 
L 243.88987 274.819054 
L 244.703541 265.303975 
L 245.517211 264.025109 
L 246.330882 255.705052 
L 247.144552 274.370569 
L 247.958223 280.587605 
L 248.771893 285.665244 
L 249.585564 281.107093 
L 250.399234 271.014981 
L 251.212905 292.046491 
L 252.026576 278.262182 
L 252.840246 273.043227 
L 253.653917 261.16339 
L 254.467587 255.888826 
L 255.281258 246.401229 
L 256.094928 271.671424 
L 256.908599 252.409285 
L 257.722269 243.293551 
L 258.53594 260.624888 
L 259.34961 249.625254 
L 260.163281 250.529299 
L 260.976951 252.779888 
L 261.790622 236.263754 
L 262.604293 261.759507 
L 263.417963 235.160968 
L 264.231634 257.864171 
L 265.045304 251.051619 
L 266.672645 260.369727 
L 267.486316 257.169285 
L 268.299986 244.021233 
L 269.113657 254.280687 
L 269.927327 248.665025 
L 270.740998 269.259378 
L 271.554668 249.279306 
L 272.368339 267.423831 
L 273.18201 259.845348 
L 273.99568 249.975999 
L 274.809351 263.993848 
L 275.623021 264.350594 
L 276.436692 259.981033 
L 277.250362 258.495041 
L 278.064033 257.867616 
L 278.877703 234.329689 
L 280.505044 262.54761 
L 281.318715 245.491668 
L 282.132386 269.04239 
L 282.946056 247.433528 
L 283.759727 261.188205 
L 284.573397 241.337109 
L 285.387068 237.988254 
L 286.200738 252.495701 
L 287.014409 260.378769 
L 287.828079 249.293073 
L 288.64175 245.446966 
L 289.45542 258.314773 
L 290.269091 261.515771 
L 291.082761 277.407629 
L 292.710103 262.492908 
L 293.523773 251.915213 
L 294.337444 253.148281 
L 295.151114 259.535003 
L 295.964785 248.217184 
L 296.778455 246.538152 
L 297.592126 242.364431 
L 298.405796 240.629727 
L 299.219467 242.238345 
L 300.033137 244.599385 
L 300.846808 239.603557 
L 301.660478 231.211694 
L 302.474149 256.637049 
L 303.28782 248.048825 
L 304.10149 231.324429 
L 304.915161 247.375577 
L 305.728831 244.610455 
L 306.542502 259.096986 
L 307.356172 241.821156 
L 308.169843 250.915747 
L 308.983513 246.232957 
L 309.797184 243.949815 
L 310.610854 239.3217 
L 311.424525 249.874924 
L 312.238195 246.667003 
L 313.051866 255.068792 
L 313.865537 247.15761 
L 314.679207 238.119876 
L 315.492878 252.888836 
L 316.306548 253.12661 
L 317.120219 239.475022 
L 317.933889 245.644963 
L 318.74756 240.335694 
L 319.56123 251.98707 
L 320.374901 249.582279 
L 321.188571 264.996598 
L 322.002242 258.871417 
L 322.815913 248.341966 
L 323.629583 241.241258 
L 324.443254 242.465573 
L 325.256924 258.914419 
L 326.070595 260.267846 
L 326.884265 252.243629 
L 327.697936 249.766289 
L 328.511606 254.646074 
L 329.325277 254.460272 
L 330.138947 241.395936 
L 330.952618 251.464597 
L 331.766288 254.083479 
L 332.579959 253.087635 
L 333.39363 255.726855 
L 334.2073 250.128404 
L 335.020971 254.287965 
L 335.834641 255.176628 
L 336.648312 245.08866 
L 337.461982 251.228733 
L 338.275653 251.210578 
L 339.089323 259.534226 
L 339.902994 235.170177 
L 340.716664 251.858202 
L 341.530335 239.884393 
L 342.344005 234.023222 
L 343.157676 239.866304 
L 343.971347 234.762519 
L 344.785017 251.666954 
L 345.598688 222.684548 
L 346.412358 220.00721 
L 347.226029 208.895976 
L 348.039699 220.269313 
L 348.85337 235.070739 
L 349.66704 227.24587 
L 350.480711 238.119971 
L 351.294381 228.728334 
L 352.108052 230.788166 
L 352.921722 234.429257 
L 353.735393 246.642945 
L 354.549064 234.175831 
L 355.362734 237.817287 
L 356.176405 220.879958 
L 356.990075 239.783739 
L 357.803746 239.310822 
L 358.617416 226.299005 
L 359.431087 225.597342 
L 360.244757 251.871819 
L 361.058428 226.929885 
L 361.872098 253.290101 
L 362.685769 247.024581 
L 363.49944 248.200471 
L 364.31311 234.059206 
L 365.126781 245.699582 
L 365.940451 250.696613 
L 366.754122 258.619943 
L 367.567792 242.888385 
L 368.381463 236.79959 
L 369.195133 245.072803 
L 370.008804 257.143184 
L 370.822474 238.244528 
L 371.636145 249.058739 
L 372.449815 251.852905 
L 373.263486 242.924268 
L 374.077157 248.206671 
L 374.890827 249.529604 
L 375.704498 251.336108 
L 376.518168 249.751901 
L 377.331839 232.82368 
L 378.145509 249.003431 
L 378.95918 235.221348 
L 379.77285 246.431386 
L 380.586521 232.851214 
L 381.400191 244.754639 
L 382.213862 248.68412 
L 383.027532 245.799434 
L 383.841203 257.850689 
L 384.654874 242.663925 
L 385.468544 236.217077 
L 386.282215 276.391165 
L 387.095885 262.561786 
L 387.909556 266.163988 
L 388.723226 275.319976 
L 389.536897 260.452308 
L 390.350567 269.020255 
L 391.164238 265.667202 
L 391.977908 271.204575 
L 392.791579 265.091709 
L 393.605249 279.171388 
L 394.41892 267.457247 
L 395.232591 274.324533 
L 396.046261 282.65179 
L 396.859932 268.546302 
L 397.673602 268.79828 
L 398.487273 263.279702 
L 398.487273 263.279702 
" style="fill:none;stroke:#008000;stroke-dasharray:9.6,2.4,1.5,2.4;stroke-dashoffset:0;stroke-width:1.5;"/>
   </g>
   <g id="line2d_33">
    <path clip-path="url(#p9d9c78ce58)" d="M 73.832727 146.739558 
L 74.646398 80.260028 
L 75.460068 55.350414 
L 76.273739 53.568 
L 77.087409 69.61175 
L 77.90108 64.585905 
L 78.714751 64.917989 
L 79.528421 64.079166 
L 80.342092 64.106676 
L 81.155762 62.902747 
L 81.969433 66.673459 
L 82.783103 65.500133 
L 83.596774 79.748119 
L 84.410444 89.420582 
L 85.224115 81.335636 
L 86.037785 79.182449 
L 86.851456 74.345685 
L 87.665126 73.756292 
L 88.478797 80.575926 
L 89.292468 74.002771 
L 90.106138 75.969078 
L 90.919809 79.814826 
L 91.733479 71.237146 
L 92.54715 74.919434 
L 93.36082 73.54618 
L 94.174491 70.123596 
L 94.988161 73.69697 
L 95.801832 74.417446 
L 96.615502 77.309529 
L 97.429173 76.122607 
L 98.242843 78.329245 
L 99.056514 82.992266 
L 99.870185 77.354579 
L 100.683855 73.825356 
L 101.497526 67.885277 
L 102.311196 75.560699 
L 103.124867 72.925332 
L 103.938537 74.464614 
L 104.752208 94.835749 
L 106.379549 73.533248 
L 107.193219 76.182578 
L 108.00689 85.393881 
L 108.82056 72.861124 
L 109.634231 73.495316 
L 110.447902 72.204367 
L 111.261572 76.975503 
L 112.075243 68.036384 
L 112.888913 85.987316 
L 113.702584 88.718647 
L 114.516254 86.429764 
L 115.329925 84.818622 
L 116.143595 99.211341 
L 116.957266 97.017405 
L 117.770936 86.251161 
L 118.584607 79.527859 
L 119.398278 83.604613 
L 120.211948 76.943515 
L 121.025619 82.72028 
L 121.839289 80.810589 
L 122.65296 77.131565 
L 123.46663 91.41987 
L 124.280301 87.635694 
L 125.093971 81.945831 
L 125.907642 92.936441 
L 126.721312 80.380875 
L 127.534983 75.923427 
L 128.348653 84.958582 
L 129.162324 105.67812 
L 129.975995 97.134518 
L 130.789665 102.121227 
L 131.603336 97.177715 
L 132.417006 93.835494 
L 133.230677 100.573758 
L 134.044347 101.059402 
L 134.858018 92.93873 
L 135.671688 82.34539 
L 136.485359 84.332775 
L 137.299029 79.580631 
L 138.1127 78.040995 
L 138.92637 82.403494 
L 139.740041 94.9065 
L 140.553712 81.014076 
L 141.367382 72.566577 
L 142.181053 84.224464 
L 142.994723 87.994292 
L 143.808394 79.684834 
L 144.622064 73.857729 
L 146.249405 84.668682 
L 147.063076 95.590002 
L 147.876746 90.377891 
L 148.690417 88.842071 
L 149.504087 92.478513 
L 150.317758 93.189191 
L 151.131429 78.3822 
L 151.945099 85.355545 
L 152.75877 82.48557 
L 153.57244 88.578864 
L 154.386111 76.738704 
L 156.013452 90.528706 
L 157.640793 76.233779 
L 158.454463 75.174886 
L 159.268134 85.501399 
L 160.081805 78.622287 
L 160.895475 75.804497 
L 161.709146 71.944307 
L 162.522816 78.478042 
L 163.336487 86.844798 
L 164.150157 76.908945 
L 164.963828 78.331342 
L 165.777498 82.547039 
L 166.591169 68.110188 
L 167.404839 76.568584 
L 168.21851 75.986412 
L 169.03218 82.968937 
L 169.845851 69.624851 
L 170.659522 75.329211 
L 171.473192 89.604616 
L 172.286863 76.910194 
L 173.100533 82.644044 
L 173.914204 81.311121 
L 174.727874 77.078172 
L 175.541545 80.248355 
L 176.355215 72.436232 
L 177.168886 95.809219 
L 177.982556 73.704995 
L 178.796227 75.673841 
L 179.609897 69.050471 
L 180.423568 86.693182 
L 181.237239 86.619445 
L 182.050909 84.509097 
L 182.86458 72.372909 
L 183.67825 83.851789 
L 184.491921 90.722394 
L 185.305591 83.81077 
L 186.119262 75.857453 
L 186.932932 95.27987 
L 187.746603 90.019351 
L 188.560273 77.424808 
L 189.373944 78.046819 
L 190.187614 76.711987 
L 191.001285 77.452966 
L 191.814956 83.767341 
L 192.628626 79.940162 
L 193.442297 82.275144 
L 194.255967 85.894287 
L 195.069638 81.160878 
L 195.883308 91.46179 
L 196.696979 76.855127 
L 197.510649 96.955901 
L 198.32432 77.09041 
L 199.13799 85.149544 
L 199.951661 83.811035 
L 200.765332 99.420848 
L 201.579002 91.392356 
L 202.392673 86.282055 
L 203.206343 70.602007 
L 204.020014 85.233299 
L 204.833684 90.512845 
L 205.647355 92.159982 
L 206.461025 98.79394 
L 207.274696 101.109124 
L 208.088366 86.624525 
L 208.902037 82.49547 
L 209.715707 64.206705 
L 210.529378 71.930763 
L 211.343049 64.673332 
L 212.156719 80.868647 
L 212.97039 100.083801 
L 213.78406 84.272525 
L 214.597731 94.426439 
L 215.411401 101.099146 
L 216.225072 91.324428 
L 217.038742 105.23131 
L 217.852413 92.474492 
L 218.666083 91.965271 
L 219.479754 95.496015 
L 221.107095 79.115555 
L 221.920766 92.37773 
L 222.734436 92.546108 
L 223.548107 86.621905 
L 224.361777 97.351836 
L 225.175448 88.3229 
L 225.989118 82.541287 
L 226.802789 79.755792 
L 227.616459 77.781205 
L 228.43013 72.106835 
L 229.2438 68.321932 
L 230.057471 70.316354 
L 230.871141 65.860521 
L 231.684812 77.238129 
L 232.498483 75.073426 
L 233.312153 90.013951 
L 234.125824 77.60986 
L 234.939494 78.080432 
L 235.753165 78.031649 
L 236.566835 82.970333 
L 237.380506 79.31638 
L 238.194176 87.988266 
L 239.007847 79.243091 
L 239.821517 74.74491 
L 240.635188 85.000249 
L 241.448859 84.943101 
L 242.262529 77.708394 
L 243.0762 75.049381 
L 243.88987 82.016207 
L 244.703541 82.59077 
L 245.517211 80.907571 
L 246.330882 81.217059 
L 247.144552 99.949766 
L 247.958223 107.062058 
L 249.585564 117.498021 
L 250.399234 97.854926 
L 251.212905 116.00487 
L 252.026576 100.353027 
L 252.840246 94.436067 
L 253.653917 93.585937 
L 255.281258 79.205509 
L 256.094928 95.574129 
L 257.722269 74.156046 
L 258.53594 81.891803 
L 259.34961 76.340952 
L 260.163281 74.957712 
L 260.976951 77.8561 
L 261.790622 73.86312 
L 262.604293 88.365828 
L 263.417963 70.370984 
L 264.231634 77.479415 
L 265.045304 77.829112 
L 265.858975 75.933149 
L 266.672645 80.567308 
L 267.486316 77.564305 
L 268.299986 72.392897 
L 269.113657 79.640873 
L 269.927327 75.392266 
L 270.740998 84.106784 
L 271.554668 70.565486 
L 272.368339 85.244418 
L 273.18201 78.77786 
L 273.99568 67.946662 
L 274.809351 81.723378 
L 275.623021 85.101911 
L 276.436692 78.893556 
L 277.250362 81.471593 
L 278.064033 78.528007 
L 278.877703 70.00998 
L 279.691374 80.773628 
L 280.505044 87.363726 
L 281.318715 75.08728 
L 282.132386 83.832133 
L 282.946056 77.458758 
L 283.759727 85.790025 
L 284.573397 75.510638 
L 285.387068 70.447764 
L 286.200738 78.259157 
L 287.014409 83.354721 
L 287.828079 78.356814 
L 288.64175 79.553921 
L 289.45542 85.546945 
L 290.269091 89.001588 
L 291.082761 91.899859 
L 291.896432 85.934898 
L 293.523773 69.557038 
L 294.337444 71.606155 
L 295.151114 79.341539 
L 295.964785 76.970025 
L 296.778455 76.161536 
L 297.592126 75.600565 
L 298.405796 76.600971 
L 299.219467 76.913456 
L 300.033137 75.902235 
L 300.846808 74.630498 
L 301.660478 75.493718 
L 302.474149 77.618762 
L 303.28782 75.242406 
L 304.10149 67.340833 
L 304.915161 70.996586 
L 305.728831 80.570127 
L 306.542502 82.554261 
L 307.356172 70.214744 
L 308.169843 79.074884 
L 308.983513 77.929035 
L 309.797184 71.563089 
L 310.610854 72.685174 
L 311.424525 76.708288 
L 312.238195 76.893305 
L 313.051866 81.169799 
L 313.865537 77.341992 
L 314.679207 69.67275 
L 315.492878 77.706412 
L 316.306548 77.159046 
L 317.120219 68.630746 
L 317.933889 76.35544 
L 318.74756 69.231049 
L 319.56123 82.70862 
L 320.374901 75.14 
L 321.188571 84.593363 
L 322.002242 81.494653 
L 322.815913 78.946657 
L 323.629583 73.249353 
L 324.443254 73.130873 
L 325.256924 76.758183 
L 326.070595 82.701655 
L 326.884265 81.572651 
L 327.697936 76.805451 
L 328.511606 85.647172 
L 329.325277 75.662468 
L 330.138947 73.623585 
L 330.952618 78.078611 
L 331.766288 76.930577 
L 332.579959 80.541212 
L 333.39363 82.926269 
L 334.2073 69.745879 
L 335.020971 80.141878 
L 335.834641 86.264577 
L 336.648312 73.231491 
L 337.461982 82.13536 
L 338.275653 75.574981 
L 339.089323 77.560972 
L 339.902994 70.317588 
L 340.716664 75.870154 
L 341.530335 66.356487 
L 342.344005 69.29301 
L 343.157676 67.71209 
L 343.971347 64.324739 
L 344.785017 75.790582 
L 345.598688 65.271968 
L 346.412358 64.159363 
L 347.226029 59.398288 
L 348.039699 66.175386 
L 348.85337 69.919896 
L 349.66704 61.497642 
L 350.480711 69.531392 
L 351.294381 64.011202 
L 352.108052 70.686619 
L 352.921722 67.092995 
L 353.735393 75.450677 
L 354.549064 70.0181 
L 355.362734 74.990211 
L 356.176405 67.184827 
L 356.990075 75.062847 
L 357.803746 80.210896 
L 358.617416 64.833093 
L 359.431087 73.427365 
L 360.244757 78.857978 
L 361.058428 65.713361 
L 361.872098 81.499651 
L 362.685769 80.66647 
L 363.49944 73.307718 
L 364.31311 70.194873 
L 365.126781 74.464628 
L 365.940451 80.471668 
L 366.754122 82.82266 
L 368.381463 69.843008 
L 370.008804 83.561799 
L 370.822474 70.465461 
L 372.449815 77.46794 
L 373.263486 70.899305 
L 374.077157 72.45694 
L 374.890827 73.582165 
L 375.704498 73.211177 
L 376.518168 81.844702 
L 377.331839 76.34117 
L 378.145509 76.461851 
L 378.95918 78.129172 
L 379.77285 76.322474 
L 380.586521 73.204885 
L 381.400191 70.737432 
L 382.213862 79.047007 
L 383.027532 76.683063 
L 383.841203 78.533405 
L 384.654874 75.023376 
L 385.468544 68.683487 
L 386.282215 83.202976 
L 387.095885 78.654359 
L 387.909556 78.625817 
L 388.723226 83.965175 
L 389.536897 70.141839 
L 390.350567 82.145375 
L 391.164238 78.401916 
L 391.977908 81.023037 
L 392.791579 74.446262 
L 393.605249 87.864248 
L 394.41892 78.604318 
L 395.232591 81.336166 
L 396.046261 91.893084 
L 396.859932 80.752591 
L 397.673602 83.760955 
L 398.487273 80.217379 
L 398.487273 80.217379 
" style="fill:none;stroke:#008000;stroke-dasharray:9.6,2.4,1.5,2.4;stroke-dashoffset:0;stroke-width:1.5;"/>
   </g>
   <g id="line2d_34">
    <path clip-path="url(#p9d9c78ce58)" d="M 73.832727 83.120164 
L 74.646398 81.84424 
L 80.342092 81.82866 
L 81.155762 81.613333 
L 398.487273 81.59415 
L 398.487273 81.59415 
" style="fill:none;stroke:#ff0000;stroke-linecap:square;stroke-width:1.5;"/>
   </g>
   <g id="patch_3">
    <path d="M 57.6 307.584 
L 57.6 41.472 
" style="fill:none;stroke:#000000;stroke-linecap:square;stroke-linejoin:miter;stroke-width:0.8;"/>
   </g>
   <g id="patch_4">
    <path d="M 414.72 307.584 
L 414.72 41.472 
" style="fill:none;stroke:#000000;stroke-linecap:square;stroke-linejoin:miter;stroke-width:0.8;"/>
   </g>
   <g id="patch_5">
    <path d="M 57.6 307.584 
L 414.72 307.584 
" style="fill:none;stroke:#000000;stroke-linecap:square;stroke-linejoin:miter;stroke-width:0.8;"/>
   </g>
   <g id="patch_6">
    <path d="M 57.6 41.472 
L 414.72 41.472 
" style="fill:none;stroke:#000000;stroke-linecap:square;stroke-linejoin:miter;stroke-width:0.8;"/>
   </g>
   <g id="text_18">
    <!-- Population's average and best fitness -->
    <defs>
     <path d="M 19.671875 64.796875 
L 19.671875 37.40625 
L 32.078125 37.40625 
Q 38.96875 37.40625 42.71875 40.96875 
Q 46.484375 44.53125 46.484375 51.125 
Q 46.484375 57.671875 42.71875 61.234375 
Q 38.96875 64.796875 32.078125 64.796875 
z
M 9.8125 72.90625 
L 32.078125 72.90625 
Q 44.34375 72.90625 50.609375 67.359375 
Q 56.890625 61.8125 56.890625 51.125 
Q 56.890625 40.328125 50.609375 34.8125 
Q 44.34375 29.296875 32.078125 29.296875 
L 19.671875 29.296875 
L 19.671875 0 
L 9.8125 0 
z
" id="DejaVuSans-80"/>
     <path d="M 18.109375 8.203125 
L 18.109375 -20.796875 
L 9.078125 -20.796875 
L 9.078125 54.6875 
L 18.109375 54.6875 
L 18.109375 46.390625 
Q 20.953125 51.265625 25.265625 53.625 
Q 29.59375 56 35.59375 56 
Q 45.5625 56 51.78125 48.09375 
Q 58.015625 40.1875 58.015625 27.296875 
Q 58.015625 14.40625 51.78125 6.484375 
Q 45.5625 -1.421875 35.59375 -1.421875 
Q 29.59375 -1.421875 25.265625 0.953125 
Q 20.953125 3.328125 18.109375 8.203125 
z
M 48.6875 27.296875 
Q 48.6875 37.203125 44.609375 42.84375 
Q 40.53125 48.484375 33.40625 48.484375 
Q 26.265625 48.484375 22.1875 42.84375 
Q 18.109375 37.203125 18.109375 27.296875 
Q 18.109375 17.390625 22.1875 11.75 
Q 26.265625 6.109375 33.40625 6.109375 
Q 40.53125 6.109375 44.609375 11.75 
Q 48.6875 17.390625 48.6875 27.296875 
z
" id="DejaVuSans-112"/>
     <path d="M 8.5 21.578125 
L 8.5 54.6875 
L 17.484375 54.6875 
L 17.484375 21.921875 
Q 17.484375 14.15625 20.5 10.265625 
Q 23.53125 6.390625 29.59375 6.390625 
Q 36.859375 6.390625 41.078125 11.03125 
Q 45.3125 15.671875 45.3125 23.6875 
L 45.3125 54.6875 
L 54.296875 54.6875 
L 54.296875 0 
L 45.3125 0 
L 45.3125 8.40625 
Q 42.046875 3.421875 37.71875 1 
Q 33.40625 -1.421875 27.6875 -1.421875 
Q 18.265625 -1.421875 13.375 4.4375 
Q 8.5 10.296875 8.5 21.578125 
z
M 31.109375 56 
z
" id="DejaVuSans-117"/>
     <path d="M 9.421875 75.984375 
L 18.40625 75.984375 
L 18.40625 0 
L 9.421875 0 
z
" id="DejaVuSans-108"/>
     <path d="M 17.921875 72.90625 
L 17.921875 45.796875 
L 9.625 45.796875 
L 9.625 72.90625 
z
" id="DejaVuSans-39"/>
     <path id="DejaVuSans-32"/>
     <path d="M 2.984375 54.6875 
L 12.5 54.6875 
L 29.59375 8.796875 
L 46.6875 54.6875 
L 56.203125 54.6875 
L 35.6875 0 
L 23.484375 0 
z
" id="DejaVuSans-118"/>
     <path d="M 45.40625 27.984375 
Q 45.40625 37.75 41.375 43.109375 
Q 37.359375 48.484375 30.078125 48.484375 
Q 22.859375 48.484375 18.828125 43.109375 
Q 14.796875 37.75 14.796875 27.984375 
Q 14.796875 18.265625 18.828125 12.890625 
Q 22.859375 7.515625 30.078125 7.515625 
Q 37.359375 7.515625 41.375 12.890625 
Q 45.40625 18.265625 45.40625 27.984375 
z
M 54.390625 6.78125 
Q 54.390625 -7.171875 48.1875 -13.984375 
Q 42 -20.796875 29.203125 -20.796875 
Q 24.46875 -20.796875 20.265625 -20.09375 
Q 16.0625 -19.390625 12.109375 -17.921875 
L 12.109375 -9.1875 
Q 16.0625 -11.328125 19.921875 -12.34375 
Q 23.78125 -13.375 27.78125 -13.375 
Q 36.625 -13.375 41.015625 -8.765625 
Q 45.40625 -4.15625 45.40625 5.171875 
L 45.40625 9.625 
Q 42.625 4.78125 38.28125 2.390625 
Q 33.9375 0 27.875 0 
Q 17.828125 0 11.671875 7.65625 
Q 5.515625 15.328125 5.515625 27.984375 
Q 5.515625 40.671875 11.671875 48.328125 
Q 17.828125 56 27.875 56 
Q 33.9375 56 38.28125 53.609375 
Q 42.625 51.21875 45.40625 46.390625 
L 45.40625 54.6875 
L 54.390625 54.6875 
z
" id="DejaVuSans-103"/>
     <path d="M 45.40625 46.390625 
L 45.40625 75.984375 
L 54.390625 75.984375 
L 54.390625 0 
L 45.40625 0 
L 45.40625 8.203125 
Q 42.578125 3.328125 38.25 0.953125 
Q 33.9375 -1.421875 27.875 -1.421875 
Q 17.96875 -1.421875 11.734375 6.484375 
Q 5.515625 14.40625 5.515625 27.296875 
Q 5.515625 40.1875 11.734375 48.09375 
Q 17.96875 56 27.875 56 
Q 33.9375 56 38.25 53.625 
Q 42.578125 51.265625 45.40625 46.390625 
z
M 14.796875 27.296875 
Q 14.796875 17.390625 18.875 11.75 
Q 22.953125 6.109375 30.078125 6.109375 
Q 37.203125 6.109375 41.296875 11.75 
Q 45.40625 17.390625 45.40625 27.296875 
Q 45.40625 37.203125 41.296875 42.84375 
Q 37.203125 48.484375 30.078125 48.484375 
Q 22.953125 48.484375 18.875 42.84375 
Q 14.796875 37.203125 14.796875 27.296875 
z
" id="DejaVuSans-100"/>
     <path d="M 48.6875 27.296875 
Q 48.6875 37.203125 44.609375 42.84375 
Q 40.53125 48.484375 33.40625 48.484375 
Q 26.265625 48.484375 22.1875 42.84375 
Q 18.109375 37.203125 18.109375 27.296875 
Q 18.109375 17.390625 22.1875 11.75 
Q 26.265625 6.109375 33.40625 6.109375 
Q 40.53125 6.109375 44.609375 11.75 
Q 48.6875 17.390625 48.6875 27.296875 
z
M 18.109375 46.390625 
Q 20.953125 51.265625 25.265625 53.625 
Q 29.59375 56 35.59375 56 
Q 45.5625 56 51.78125 48.09375 
Q 58.015625 40.1875 58.015625 27.296875 
Q 58.015625 14.40625 51.78125 6.484375 
Q 45.5625 -1.421875 35.59375 -1.421875 
Q 29.59375 -1.421875 25.265625 0.953125 
Q 20.953125 3.328125 18.109375 8.203125 
L 18.109375 0 
L 9.078125 0 
L 9.078125 75.984375 
L 18.109375 75.984375 
z
" id="DejaVuSans-98"/>
     <path d="M 37.109375 75.984375 
L 37.109375 68.5 
L 28.515625 68.5 
Q 23.6875 68.5 21.796875 66.546875 
Q 19.921875 64.59375 19.921875 59.515625 
L 19.921875 54.6875 
L 34.71875 54.6875 
L 34.71875 47.703125 
L 19.921875 47.703125 
L 19.921875 0 
L 10.890625 0 
L 10.890625 47.703125 
L 2.296875 47.703125 
L 2.296875 54.6875 
L 10.890625 54.6875 
L 10.890625 58.5 
Q 10.890625 67.625 15.140625 71.796875 
Q 19.390625 75.984375 28.609375 75.984375 
z
" id="DejaVuSans-102"/>
    </defs>
    <g transform="translate(123.315 35.472)scale(0.12 -0.12)">
     <use xlink:href="#DejaVuSans-80"/>
     <use x="60.255859" xlink:href="#DejaVuSans-111"/>
     <use x="121.4375" xlink:href="#DejaVuSans-112"/>
     <use x="184.914062" xlink:href="#DejaVuSans-117"/>
     <use x="248.292969" xlink:href="#DejaVuSans-108"/>
     <use x="276.076172" xlink:href="#DejaVuSans-97"/>
     <use x="337.355469" xlink:href="#DejaVuSans-116"/>
     <use x="376.564453" xlink:href="#DejaVuSans-105"/>
     <use x="404.347656" xlink:href="#DejaVuSans-111"/>
     <use x="465.529297" xlink:href="#DejaVuSans-110"/>
     <use x="528.908203" xlink:href="#DejaVuSans-39"/>
     <use x="556.398438" xlink:href="#DejaVuSans-115"/>
     <use x="608.498047" xlink:href="#DejaVuSans-32"/>
     <use x="640.285156" xlink:href="#DejaVuSans-97"/>
     <use x="701.564453" xlink:href="#DejaVuSans-118"/>
     <use x="760.744141" xlink:href="#DejaVuSans-101"/>
     <use x="822.267578" xlink:href="#DejaVuSans-114"/>
     <use x="863.380859" xlink:href="#DejaVuSans-97"/>
     <use x="924.660156" xlink:href="#DejaVuSans-103"/>
     <use x="988.136719" xlink:href="#DejaVuSans-101"/>
     <use x="1049.660156" xlink:href="#DejaVuSans-32"/>
     <use x="1081.447266" xlink:href="#DejaVuSans-97"/>
     <use x="1142.726562" xlink:href="#DejaVuSans-110"/>
     <use x="1206.105469" xlink:href="#DejaVuSans-100"/>
     <use x="1269.582031" xlink:href="#DejaVuSans-32"/>
     <use x="1301.369141" xlink:href="#DejaVuSans-98"/>
     <use x="1364.845703" xlink:href="#DejaVuSans-101"/>
     <use x="1426.369141" xlink:href="#DejaVuSans-115"/>
     <use x="1478.46875" xlink:href="#DejaVuSans-116"/>
     <use x="1517.677734" xlink:href="#DejaVuSans-32"/>
     <use x="1549.464844" xlink:href="#DejaVuSans-102"/>
     <use x="1584.669922" xlink:href="#DejaVuSans-105"/>
     <use x="1612.453125" xlink:href="#DejaVuSans-116"/>
     <use x="1651.662109" xlink:href="#DejaVuSans-110"/>
     <use x="1715.041016" xlink:href="#DejaVuSans-101"/>
     <use x="1776.564453" xlink:href="#DejaVuSans-115"/>
     <use x="1828.664062" xlink:href="#DejaVuSans-115"/>
    </g>
   </g>
   <g id="legend_1">
    <g id="patch_7">
     <path d="M 334.779375 302.584 
L 407.72 302.584 
Q 409.72 302.584 409.72 300.584 
L 409.72 242.8715 
Q 409.72 240.8715 407.72 240.8715 
L 334.779375 240.8715 
Q 332.779375 240.8715 332.779375 242.8715 
L 332.779375 300.584 
Q 332.779375 302.584 334.779375 302.584 
z
" style="fill:#ffffff;opacity:0.8;stroke:#cccccc;stroke-linejoin:miter;"/>
    </g>
    <g id="line2d_35">
     <path d="M 336.779375 248.969937 
L 356.779375 248.969937 
" style="fill:none;stroke:#0000ff;stroke-linecap:square;stroke-width:1.5;"/>
    </g>
    <g id="line2d_36"/>
    <g id="text_19">
     <!-- average -->
     <g transform="translate(364.779375 252.469937)scale(0.1 -0.1)">
      <use xlink:href="#DejaVuSans-97"/>
      <use x="61.279297" xlink:href="#DejaVuSans-118"/>
      <use x="120.458984" xlink:href="#DejaVuSans-101"/>
      <use x="181.982422" xlink:href="#DejaVuSans-114"/>
      <use x="223.095703" xlink:href="#DejaVuSans-97"/>
      <use x="284.375" xlink:href="#DejaVuSans-103"/>
      <use x="347.851562" xlink:href="#DejaVuSans-101"/>
     </g>
    </g>
    <g id="line2d_37">
     <path d="M 336.779375 263.648062 
L 356.779375 263.648062 
" style="fill:none;stroke:#008000;stroke-dasharray:9.6,2.4,1.5,2.4;stroke-dashoffset:0;stroke-width:1.5;"/>
    </g>
    <g id="line2d_38"/>
    <g id="text_20">
     <!-- -1 sd -->
     <defs>
      <path d="M 4.890625 31.390625 
L 31.203125 31.390625 
L 31.203125 23.390625 
L 4.890625 23.390625 
z
" id="DejaVuSans-45"/>
     </defs>
     <g transform="translate(364.779375 267.148062)scale(0.1 -0.1)">
      <use xlink:href="#DejaVuSans-45"/>
      <use x="36.083984" xlink:href="#DejaVuSans-49"/>
      <use x="99.707031" xlink:href="#DejaVuSans-32"/>
      <use x="131.494141" xlink:href="#DejaVuSans-115"/>
      <use x="183.59375" xlink:href="#DejaVuSans-100"/>
     </g>
    </g>
    <g id="line2d_39">
     <path d="M 336.779375 278.326187 
L 356.779375 278.326187 
" style="fill:none;stroke:#008000;stroke-dasharray:9.6,2.4,1.5,2.4;stroke-dashoffset:0;stroke-width:1.5;"/>
    </g>
    <g id="line2d_40"/>
    <g id="text_21">
     <!-- +1 sd -->
     <defs>
      <path d="M 46 62.703125 
L 46 35.5 
L 73.1875 35.5 
L 73.1875 27.203125 
L 46 27.203125 
L 46 0 
L 37.796875 0 
L 37.796875 27.203125 
L 10.59375 27.203125 
L 10.59375 35.5 
L 37.796875 35.5 
L 37.796875 62.703125 
z
" id="DejaVuSans-43"/>
     </defs>
     <g transform="translate(364.779375 281.826187)scale(0.1 -0.1)">
      <use xlink:href="#DejaVuSans-43"/>
      <use x="83.789062" xlink:href="#DejaVuSans-49"/>
      <use x="147.412109" xlink:href="#DejaVuSans-32"/>
      <use x="179.199219" xlink:href="#DejaVuSans-115"/>
      <use x="231.298828" xlink:href="#DejaVuSans-100"/>
     </g>
    </g>
    <g id="line2d_41">
     <path d="M 336.779375 293.004312 
L 356.779375 293.004312 
" style="fill:none;stroke:#ff0000;stroke-linecap:square;stroke-width:1.5;"/>
    </g>
    <g id="line2d_42"/>
    <g id="text_22">
     <!-- best -->
     <g transform="translate(364.779375 296.504312)scale(0.1 -0.1)">
      <use xlink:href="#DejaVuSans-98"/>
      <use x="63.476562" xlink:href="#DejaVuSans-101"/>
      <use x="125" xlink:href="#DejaVuSans-115"/>
      <use x="177.099609" xlink:href="#DejaVuSans-116"/>
     </g>
    </g>
   </g>
  </g>
 </g>
 <defs>
  <clipPath id="p9d9c78ce58">
   <rect height="266.112" width="357.12" x="57.6" y="41.472"/>
  </clipPath>
 </defs>
</svg>
