<?xml version="1.0" encoding="UTF-8" standalone="no"?>
<!DOCTYPE svg PUBLIC "-//W3C//DTD SVG 1.1//EN"
 "http://www.w3.org/Graphics/SVG/1.1/DTD/svg11.dtd">
<!-- Generated by graphviz version 2.40.1 (20161225.0304)
 -->
<!-- Title: %3 Pages: 1 -->
<svg width="547pt" height="339pt"
 viewBox="0.00 0.00 547.01 339.06" xmlns="http://www.w3.org/2000/svg" xmlns:xlink="http://www.w3.org/1999/xlink">
<g id="graph0" class="graph" transform="scale(1 1) rotate(0) translate(4 335.061)">
<title>%3</title>
<polygon fill="#ffffff" stroke="transparent" points="-4,4 -4,-335.061 543.0132,-335.061 543.0132,4 -4,4"/>
<!-- RF_R -->
<g id="node1" class="node">
<title>RF_R</title>
<polygon fill="#d3d3d3" stroke="#000000" points="241.5132,-163.0868 200.5132,-163.0868 200.5132,-145.0868 241.5132,-145.0868 241.5132,-163.0868"/>
<text text-anchor="middle" x="221.0132" y="-151.8868" font-family="Times,serif" font-size="9.00" fill="#000000">RF_R</text>
</g>
<!-- ANG_VEL -->
<g id="node11" class="node">
<title>ANG_VEL</title>
<ellipse fill="#add8e6" stroke="#000000" cx="134.0132" cy="-44.5477" rx="44.5955" ry="44.5955"/>
<text text-anchor="middle" x="134.0132" y="-42.3477" font-family="Times,serif" font-size="9.00" fill="#000000">ANG_VEL</text>
</g>
<!-- RF_R&#45;&gt;ANG_VEL -->
<g id="edge2" class="edge">
<title>RF_R&#45;&gt;ANG_VEL</title>
<path fill="none" stroke="#00ff00" stroke-width=".9398" d="M213.5957,-144.7476C203.5391,-132.0856 184.9134,-108.6347 168.2085,-87.6019"/>
<polygon fill="#00ff00" stroke="#00ff00" stroke-width=".9398" points="170.8822,-85.3407 161.922,-79.6869 165.4007,-89.6943 170.8822,-85.3407"/>
</g>
<!-- VEL -->
<g id="node12" class="node">
<title>VEL</title>
<ellipse fill="#add8e6" stroke="#000000" cx="376.0132" cy="-44.5477" rx="25.4118" ry="25.4118"/>
<text text-anchor="middle" x="376.0132" y="-42.3477" font-family="Times,serif" font-size="9.00" fill="#000000">VEL</text>
</g>
<!-- RF_R&#45;&gt;VEL -->
<g id="edge6" class="edge">
<title>RF_R&#45;&gt;VEL</title>
<path fill="none" stroke="#ff0000" stroke-width=".1507" stroke-dasharray="1,5" d="M229.5208,-144.9823C235.3101,-139.0148 243.2945,-131.2152 251.0132,-125.0955 281.2341,-101.1352 318.7498,-77.7104 344.7558,-62.3551"/>
<polygon fill="#ff0000" stroke="#ff0000" stroke-width=".1507" points="346.5795,-65.3432 353.4436,-57.2726 343.0448,-59.3011 346.5795,-65.3432"/>
</g>
<!-- RF_FR -->
<g id="node2" class="node">
<title>RF_FR</title>
<polygon fill="#d3d3d3" stroke="#000000" points="68.5132,-331.061 21.5132,-331.061 21.5132,-313.061 68.5132,-313.061 68.5132,-331.061"/>
<text text-anchor="middle" x="45.0132" y="-319.861" font-family="Times,serif" font-size="9.00" fill="#000000">RF_FR</text>
</g>
<!-- RF_FR&#45;&gt;ANG_VEL -->
<g id="edge11" class="edge">
<title>RF_FR&#45;&gt;ANG_VEL</title>
<path fill="none" stroke="#00ff00" stroke-width=".3684" d="M39.6591,-312.7622C23.4616,-283.302 -21.8279,-190.1434 13.0132,-125.0955 27.8819,-97.3357 57.0056,-77.5002 82.9542,-64.4595"/>
<polygon fill="#00ff00" stroke="#00ff00" stroke-width=".3684" points="84.4728,-67.613 91.9715,-60.1284 81.442,-61.3031 84.4728,-67.613"/>
</g>
<!-- 1878 -->
<g id="node13" class="node">
<title>1878</title>
<ellipse fill="#ffffff" stroke="#000000" cx="84.0132" cy="-248.0696" rx="28.9828" ry="28.9828"/>
<text text-anchor="middle" x="84.0132" y="-245.8696" font-family="Times,serif" font-size="9.00" fill="#000000">1878</text>
</g>
<!-- RF_FR&#45;&gt;1878 -->
<g id="edge9" class="edge">
<title>RF_FR&#45;&gt;1878</title>
<path fill="none" stroke="#00ff00" stroke-width=".3757" d="M49.7954,-312.9882C53.7998,-305.3909 59.784,-294.0376 65.6334,-282.9401"/>
<polygon fill="#00ff00" stroke="#00ff00" stroke-width=".3757" points="68.9021,-284.2448 70.4687,-273.7665 62.7096,-280.9808 68.9021,-284.2448"/>
</g>
<!-- RF_F -->
<g id="node3" class="node">
<title>RF_F</title>
<polygon fill="#d3d3d3" stroke="#000000" points="300.0132,-163.0868 260.0132,-163.0868 260.0132,-145.0868 300.0132,-145.0868 300.0132,-163.0868"/>
<text text-anchor="middle" x="280.0132" y="-151.8868" font-family="Times,serif" font-size="9.00" fill="#000000">RF_F</text>
</g>
<!-- RF_F&#45;&gt;ANG_VEL -->
<g id="edge5" class="edge">
<title>RF_F&#45;&gt;ANG_VEL</title>
<path fill="none" stroke="#ff0000" stroke-width="2.1728" d="M271.7764,-145.0309C266.1746,-139.0839 258.4552,-131.2889 251.0132,-125.0955 228.8409,-106.6429 202.5035,-88.2365 180.4364,-73.6865"/>
<polygon fill="#ff0000" stroke="#ff0000" stroke-width="2.1728" points="182.18,-70.6449 171.894,-68.1051 178.3511,-76.5049 182.18,-70.6449"/>
</g>
<!-- RF_F&#45;&gt;VEL -->
<g id="edge12" class="edge">
<title>RF_F&#45;&gt;VEL</title>
<path fill="none" stroke="#00ff00" stroke-width=".1117" d="M288.1981,-144.7476C302.2119,-128.7575 331.3051,-95.5611 352.1664,-71.7577"/>
<polygon fill="#00ff00" stroke="#00ff00" stroke-width=".1117" points="354.933,-73.9112 358.8919,-64.0838 349.6686,-69.2975 354.933,-73.9112"/>
</g>
<!-- RF_FL -->
<g id="node4" class="node">
<title>RF_FL</title>
<polygon fill="#d3d3d3" stroke="#000000" points="182.0132,-163.0868 136.0132,-163.0868 136.0132,-145.0868 182.0132,-145.0868 182.0132,-163.0868"/>
<text text-anchor="middle" x="159.0132" y="-151.8868" font-family="Times,serif" font-size="9.00" fill="#000000">RF_FL</text>
</g>
<!-- RF_FL&#45;&gt;ANG_VEL -->
<g id="edge3" class="edge">
<title>RF_FL&#45;&gt;ANG_VEL</title>
<path fill="none" stroke="#ff0000" stroke-width=".8199" d="M156.8817,-144.7476C154.4607,-134.1398 150.3115,-115.9596 146.2064,-97.9729"/>
<polygon fill="#ff0000" stroke="#ff0000" stroke-width=".8199" points="149.579,-97.02 143.9416,-88.0495 142.7545,-98.5776 149.579,-97.02"/>
</g>
<!-- RF_L -->
<g id="node5" class="node">
<title>RF_L</title>
<polygon fill="#d3d3d3" stroke="#000000" points="205.0132,-331.061 165.0132,-331.061 165.0132,-313.061 205.0132,-313.061 205.0132,-331.061"/>
<text text-anchor="middle" x="185.0132" y="-319.861" font-family="Times,serif" font-size="9.00" fill="#000000">RF_L</text>
</g>
<!-- RF_B -->
<g id="node6" class="node">
<title>RF_B</title>
<polygon fill="#d3d3d3" stroke="#000000" points="264.5132,-331.061 223.5132,-331.061 223.5132,-313.061 264.5132,-313.061 264.5132,-331.061"/>
<text text-anchor="middle" x="244.0132" y="-319.861" font-family="Times,serif" font-size="9.00" fill="#000000">RF_B</text>
</g>
<!-- RAD_F -->
<g id="node7" class="node">
<title>RAD_F</title>
<polygon fill="#d3d3d3" stroke="#000000" points="147.0132,-331.061 99.0132,-331.061 99.0132,-313.061 147.0132,-313.061 147.0132,-331.061"/>
<text text-anchor="middle" x="123.0132" y="-319.861" font-family="Times,serif" font-size="9.00" fill="#000000">RAD_F</text>
</g>
<!-- RAD_F&#45;&gt;VEL -->
<g id="edge7" class="edge">
<title>RAD_F&#45;&gt;VEL</title>
<path fill="none" stroke="#00ff00" stroke-width=".4999" d="M147.482,-315.2332C216.3499,-295.4729 409.0933,-236.2499 444.0132,-183.0782 468.8544,-145.2532 431.3137,-97.0358 402.8951,-68.6057"/>
<polygon fill="#00ff00" stroke="#00ff00" stroke-width=".4999" points="405.1616,-65.9283 395.546,-61.4796 400.2887,-70.9537 405.1616,-65.9283"/>
</g>
<!-- RAD_F&#45;&gt;1878 -->
<g id="edge13" class="edge">
<title>RAD_F&#45;&gt;1878</title>
<path fill="none" stroke="#00ff00" stroke-width=".2018" d="M118.2311,-312.9882C114.2266,-305.3909 108.2424,-294.0376 102.3931,-282.9401"/>
<polygon fill="#00ff00" stroke="#00ff00" stroke-width=".2018" points="105.3168,-280.9808 97.5577,-273.7665 99.1244,-284.2448 105.3168,-280.9808"/>
</g>
<!-- RAD_L -->
<g id="node8" class="node">
<title>RAD_L</title>
<polygon fill="#d3d3d3" stroke="#000000" points="539.0132,-163.0868 491.0132,-163.0868 491.0132,-145.0868 539.0132,-145.0868 539.0132,-163.0868"/>
<text text-anchor="middle" x="515.0132" y="-151.8868" font-family="Times,serif" font-size="9.00" fill="#000000">RAD_L</text>
</g>
<!-- RAD_L&#45;&gt;VEL -->
<g id="edge1" class="edge">
<title>RAD_L&#45;&gt;VEL</title>
<path fill="none" stroke="#ff0000" stroke-width=".2062" d="M503.1622,-144.7476C481.4384,-127.6281 434.6877,-90.7862 404.3317,-66.8642"/>
<polygon fill="#ff0000" stroke="#ff0000" stroke-width=".2062" points="406.2596,-63.9272 396.239,-60.4866 401.9269,-69.4252 406.2596,-63.9272"/>
</g>
<!-- RAD_B -->
<g id="node9" class="node">
<title>RAD_B</title>
<polygon fill="#d3d3d3" stroke="#000000" points="367.5132,-163.0868 318.5132,-163.0868 318.5132,-145.0868 367.5132,-145.0868 367.5132,-163.0868"/>
<text text-anchor="middle" x="343.0132" y="-151.8868" font-family="Times,serif" font-size="9.00" fill="#000000">RAD_B</text>
</g>
<!-- RAD_B&#45;&gt;VEL -->
<g id="edge16" class="edge">
<title>RAD_B&#45;&gt;VEL</title>
<path fill="none" stroke="#ff0000" stroke-width=".4418" d="M345.8268,-144.7476C350.1715,-130.3258 358.7329,-101.9073 365.6318,-79.0075"/>
<polygon fill="#ff0000" stroke="#ff0000" stroke-width=".4418" points="369.0328,-79.8516 368.5662,-69.267 362.3304,-77.8323 369.0328,-79.8516"/>
</g>
<!-- RAD_R -->
<g id="node10" class="node">
<title>RAD_R</title>
<polygon fill="#d3d3d3" stroke="#000000" points="434.5132,-163.0868 385.5132,-163.0868 385.5132,-145.0868 434.5132,-145.0868 434.5132,-163.0868"/>
<text text-anchor="middle" x="410.0132" y="-151.8868" font-family="Times,serif" font-size="9.00" fill="#000000">RAD_R</text>
</g>
<!-- RAD_R&#45;&gt;VEL -->
<g id="edge8" class="edge">
<title>RAD_R&#45;&gt;VEL</title>
<path fill="none" stroke="#00ff00" stroke-width=".6078" d="M407.1144,-144.7476C402.638,-130.3258 393.8172,-101.9073 386.7092,-79.0075"/>
<polygon fill="#00ff00" stroke="#00ff00" stroke-width=".6078" points="389.993,-77.78 383.6859,-69.267 383.3077,-79.8551 389.993,-77.78"/>
</g>
<!-- VEL&#45;&gt;VEL -->
<g id="edge4" class="edge">
<title>VEL&#45;&gt;VEL</title>
<path fill="none" stroke="#ff0000" stroke-width=".2611" d="M394.321,-62.8202C406.9925,-68.3573 419.4691,-62.2665 419.4691,-44.5477 419.4691,-31.5355 412.7404,-24.7943 404.1471,-24.3242"/>
<polygon fill="#ff0000" stroke="#ff0000" stroke-width=".2611" points="403.4478,-20.8946 394.321,-26.2753 404.8112,-27.7606 403.4478,-20.8946"/>
</g>
<!-- 1878&#45;&gt;ANG_VEL -->
<g id="edge10" class="edge">
<title>1878&#45;&gt;ANG_VEL</title>
<path fill="none" stroke="#ff0000" stroke-width=".2951" stroke-dasharray="1,5" d="M90.9655,-219.7707C98.6754,-188.3883 111.2887,-137.0465 120.874,-98.03"/>
<polygon fill="#ff0000" stroke="#ff0000" stroke-width=".2951" points="124.3786,-98.4348 123.3655,-87.8885 117.5807,-96.7647 124.3786,-98.4348"/>
</g>
<!-- 2929 -->
<g id="node14" class="node">
<title>2929</title>
<ellipse fill="#ffffff" stroke="#000000" cx="51.0132" cy="-154.0868" rx="28.9828" ry="28.9828"/>
<text text-anchor="middle" x="51.0132" y="-151.8868" font-family="Times,serif" font-size="9.00" fill="#000000">2929</text>
</g>
<!-- 1878&#45;&gt;2929 -->
<g id="edge14" class="edge">
<title>1878&#45;&gt;2929</title>
<path fill="none" stroke="#00ff00" stroke-width=".3" d="M74.3795,-220.6332C71.1549,-211.4497 67.5045,-201.0533 64.0636,-191.2537"/>
<polygon fill="#00ff00" stroke="#00ff00" stroke-width=".3" points="67.3314,-189.9957 60.716,-181.72 60.7267,-192.3148 67.3314,-189.9957"/>
</g>
<!-- 2929&#45;&gt;ANG_VEL -->
<g id="edge15" class="edge">
<title>2929&#45;&gt;ANG_VEL</title>
<path fill="none" stroke="#ff0000" stroke-width=".3544" d="M68.6154,-130.8564C77.9236,-118.5719 89.665,-103.0762 100.6218,-88.616"/>
<polygon fill="#ff0000" stroke="#ff0000" stroke-width=".3544" points="103.7082,-90.338 106.9579,-80.2539 98.129,-86.1105 103.7082,-90.338"/>
</g>
</g>
</svg>
