<?xml version="1.0" encoding="utf-8" standalone="no"?>
<!DOCTYPE svg PUBLIC "-//W3C//DTD SVG 1.1//EN"
  "http://www.w3.org/Graphics/SVG/1.1/DTD/svg11.dtd">
<!-- Created with matplotlib (https://matplotlib.org/) -->
<svg height="345.6pt" version="1.1" viewBox="0 0 460.8 345.6" width="460.8pt" xmlns="http://www.w3.org/2000/svg" xmlns:xlink="http://www.w3.org/1999/xlink">
 <defs>
  <style type="text/css">
*{stroke-linecap:butt;stroke-linejoin:round;}
  </style>
 </defs>
 <g id="figure_1">
  <g id="patch_1">
   <path d="M 0 345.6 
L 460.8 345.6 
L 460.8 0 
L 0 0 
z
" style="fill:#ffffff;"/>
  </g>
  <g id="axes_1">
   <g id="patch_2">
    <path d="M 57.6 307.584 
L 414.72 307.584 
L 414.72 41.472 
L 57.6 41.472 
z
" style="fill:#ffffff;"/>
   </g>
   <g id="matplotlib.axis_1">
    <g id="xtick_1">
     <g id="line2d_1">
      <path clip-path="url(#pa2b1186c57)" d="M 73.832727 307.584 
L 73.832727 41.472 
" style="fill:none;stroke:#b0b0b0;stroke-linecap:square;stroke-width:0.8;"/>
     </g>
     <g id="line2d_2">
      <defs>
       <path d="M 0 0 
L 0 3.5 
" id="m3c40a3a4c0" style="stroke:#000000;stroke-width:0.8;"/>
      </defs>
      <g>
       <use style="stroke:#000000;stroke-width:0.8;" x="73.832727" xlink:href="#m3c40a3a4c0" y="307.584"/>
      </g>
     </g>
     <g id="text_1">
      <!-- 0 -->
      <defs>
       <path d="M 31.78125 66.40625 
Q 24.171875 66.40625 20.328125 58.90625 
Q 16.5 51.421875 16.5 36.375 
Q 16.5 21.390625 20.328125 13.890625 
Q 24.171875 6.390625 31.78125 6.390625 
Q 39.453125 6.390625 43.28125 13.890625 
Q 47.125 21.390625 47.125 36.375 
Q 47.125 51.421875 43.28125 58.90625 
Q 39.453125 66.40625 31.78125 66.40625 
z
M 31.78125 74.21875 
Q 44.046875 74.21875 50.515625 64.515625 
Q 56.984375 54.828125 56.984375 36.375 
Q 56.984375 17.96875 50.515625 8.265625 
Q 44.046875 -1.421875 31.78125 -1.421875 
Q 19.53125 -1.421875 13.0625 8.265625 
Q 6.59375 17.96875 6.59375 36.375 
Q 6.59375 54.828125 13.0625 64.515625 
Q 19.53125 74.21875 31.78125 74.21875 
z
" id="DejaVuSans-48"/>
      </defs>
      <g transform="translate(70.651477 322.182437)scale(0.1 -0.1)">
       <use xlink:href="#DejaVuSans-48"/>
      </g>
     </g>
    </g>
    <g id="xtick_2">
     <g id="line2d_3">
      <path clip-path="url(#pa2b1186c57)" d="M 114.516254 307.584 
L 114.516254 41.472 
" style="fill:none;stroke:#b0b0b0;stroke-linecap:square;stroke-width:0.8;"/>
     </g>
     <g id="line2d_4">
      <g>
       <use style="stroke:#000000;stroke-width:0.8;" x="114.516254" xlink:href="#m3c40a3a4c0" y="307.584"/>
      </g>
     </g>
     <g id="text_2">
      <!-- 50 -->
      <defs>
       <path d="M 10.796875 72.90625 
L 49.515625 72.90625 
L 49.515625 64.59375 
L 19.828125 64.59375 
L 19.828125 46.734375 
Q 21.96875 47.46875 24.109375 47.828125 
Q 26.265625 48.1875 28.421875 48.1875 
Q 40.625 48.1875 47.75 41.5 
Q 54.890625 34.8125 54.890625 23.390625 
Q 54.890625 11.625 47.5625 5.09375 
Q 40.234375 -1.421875 26.90625 -1.421875 
Q 22.3125 -1.421875 17.546875 -0.640625 
Q 12.796875 0.140625 7.71875 1.703125 
L 7.71875 11.625 
Q 12.109375 9.234375 16.796875 8.0625 
Q 21.484375 6.890625 26.703125 6.890625 
Q 35.15625 6.890625 40.078125 11.328125 
Q 45.015625 15.765625 45.015625 23.390625 
Q 45.015625 31 40.078125 35.4375 
Q 35.15625 39.890625 26.703125 39.890625 
Q 22.75 39.890625 18.8125 39.015625 
Q 14.890625 38.140625 10.796875 36.28125 
z
" id="DejaVuSans-53"/>
      </defs>
      <g transform="translate(108.153754 322.182437)scale(0.1 -0.1)">
       <use xlink:href="#DejaVuSans-53"/>
       <use x="63.623047" xlink:href="#DejaVuSans-48"/>
      </g>
     </g>
    </g>
    <g id="xtick_3">
     <g id="line2d_5">
      <path clip-path="url(#pa2b1186c57)" d="M 155.199781 307.584 
L 155.199781 41.472 
" style="fill:none;stroke:#b0b0b0;stroke-linecap:square;stroke-width:0.8;"/>
     </g>
     <g id="line2d_6">
      <g>
       <use style="stroke:#000000;stroke-width:0.8;" x="155.199781" xlink:href="#m3c40a3a4c0" y="307.584"/>
      </g>
     </g>
     <g id="text_3">
      <!-- 100 -->
      <defs>
       <path d="M 12.40625 8.296875 
L 28.515625 8.296875 
L 28.515625 63.921875 
L 10.984375 60.40625 
L 10.984375 69.390625 
L 28.421875 72.90625 
L 38.28125 72.90625 
L 38.28125 8.296875 
L 54.390625 8.296875 
L 54.390625 0 
L 12.40625 0 
z
" id="DejaVuSans-49"/>
      </defs>
      <g transform="translate(145.656031 322.182437)scale(0.1 -0.1)">
       <use xlink:href="#DejaVuSans-49"/>
       <use x="63.623047" xlink:href="#DejaVuSans-48"/>
       <use x="127.246094" xlink:href="#DejaVuSans-48"/>
      </g>
     </g>
    </g>
    <g id="xtick_4">
     <g id="line2d_7">
      <path clip-path="url(#pa2b1186c57)" d="M 195.883308 307.584 
L 195.883308 41.472 
" style="fill:none;stroke:#b0b0b0;stroke-linecap:square;stroke-width:0.8;"/>
     </g>
     <g id="line2d_8">
      <g>
       <use style="stroke:#000000;stroke-width:0.8;" x="195.883308" xlink:href="#m3c40a3a4c0" y="307.584"/>
      </g>
     </g>
     <g id="text_4">
      <!-- 150 -->
      <g transform="translate(186.339558 322.182437)scale(0.1 -0.1)">
       <use xlink:href="#DejaVuSans-49"/>
       <use x="63.623047" xlink:href="#DejaVuSans-53"/>
       <use x="127.246094" xlink:href="#DejaVuSans-48"/>
      </g>
     </g>
    </g>
    <g id="xtick_5">
     <g id="line2d_9">
      <path clip-path="url(#pa2b1186c57)" d="M 236.566835 307.584 
L 236.566835 41.472 
" style="fill:none;stroke:#b0b0b0;stroke-linecap:square;stroke-width:0.8;"/>
     </g>
     <g id="line2d_10">
      <g>
       <use style="stroke:#000000;stroke-width:0.8;" x="236.566835" xlink:href="#m3c40a3a4c0" y="307.584"/>
      </g>
     </g>
     <g id="text_5">
      <!-- 200 -->
      <defs>
       <path d="M 19.1875 8.296875 
L 53.609375 8.296875 
L 53.609375 0 
L 7.328125 0 
L 7.328125 8.296875 
Q 12.9375 14.109375 22.625 23.890625 
Q 32.328125 33.6875 34.8125 36.53125 
Q 39.546875 41.84375 41.421875 45.53125 
Q 43.3125 49.21875 43.3125 52.78125 
Q 43.3125 58.59375 39.234375 62.25 
Q 35.15625 65.921875 28.609375 65.921875 
Q 23.96875 65.921875 18.8125 64.3125 
Q 13.671875 62.703125 7.8125 59.421875 
L 7.8125 69.390625 
Q 13.765625 71.78125 18.9375 73 
Q 24.125 74.21875 28.421875 74.21875 
Q 39.75 74.21875 46.484375 68.546875 
Q 53.21875 62.890625 53.21875 53.421875 
Q 53.21875 48.921875 51.53125 44.890625 
Q 49.859375 40.875 45.40625 35.40625 
Q 44.1875 33.984375 37.640625 27.21875 
Q 31.109375 20.453125 19.1875 8.296875 
z
" id="DejaVuSans-50"/>
      </defs>
      <g transform="translate(227.023085 322.182437)scale(0.1 -0.1)">
       <use xlink:href="#DejaVuSans-50"/>
       <use x="63.623047" xlink:href="#DejaVuSans-48"/>
       <use x="127.246094" xlink:href="#DejaVuSans-48"/>
      </g>
     </g>
    </g>
    <g id="xtick_6">
     <g id="line2d_11">
      <path clip-path="url(#pa2b1186c57)" d="M 277.250362 307.584 
L 277.250362 41.472 
" style="fill:none;stroke:#b0b0b0;stroke-linecap:square;stroke-width:0.8;"/>
     </g>
     <g id="line2d_12">
      <g>
       <use style="stroke:#000000;stroke-width:0.8;" x="277.250362" xlink:href="#m3c40a3a4c0" y="307.584"/>
      </g>
     </g>
     <g id="text_6">
      <!-- 250 -->
      <g transform="translate(267.706612 322.182437)scale(0.1 -0.1)">
       <use xlink:href="#DejaVuSans-50"/>
       <use x="63.623047" xlink:href="#DejaVuSans-53"/>
       <use x="127.246094" xlink:href="#DejaVuSans-48"/>
      </g>
     </g>
    </g>
    <g id="xtick_7">
     <g id="line2d_13">
      <path clip-path="url(#pa2b1186c57)" d="M 317.933889 307.584 
L 317.933889 41.472 
" style="fill:none;stroke:#b0b0b0;stroke-linecap:square;stroke-width:0.8;"/>
     </g>
     <g id="line2d_14">
      <g>
       <use style="stroke:#000000;stroke-width:0.8;" x="317.933889" xlink:href="#m3c40a3a4c0" y="307.584"/>
      </g>
     </g>
     <g id="text_7">
      <!-- 300 -->
      <defs>
       <path d="M 40.578125 39.3125 
Q 47.65625 37.796875 51.625 33 
Q 55.609375 28.21875 55.609375 21.1875 
Q 55.609375 10.40625 48.1875 4.484375 
Q 40.765625 -1.421875 27.09375 -1.421875 
Q 22.515625 -1.421875 17.65625 -0.515625 
Q 12.796875 0.390625 7.625 2.203125 
L 7.625 11.71875 
Q 11.71875 9.328125 16.59375 8.109375 
Q 21.484375 6.890625 26.8125 6.890625 
Q 36.078125 6.890625 40.9375 10.546875 
Q 45.796875 14.203125 45.796875 21.1875 
Q 45.796875 27.640625 41.28125 31.265625 
Q 36.765625 34.90625 28.71875 34.90625 
L 20.21875 34.90625 
L 20.21875 43.015625 
L 29.109375 43.015625 
Q 36.375 43.015625 40.234375 45.921875 
Q 44.09375 48.828125 44.09375 54.296875 
Q 44.09375 59.90625 40.109375 62.90625 
Q 36.140625 65.921875 28.71875 65.921875 
Q 24.65625 65.921875 20.015625 65.03125 
Q 15.375 64.15625 9.8125 62.3125 
L 9.8125 71.09375 
Q 15.4375 72.65625 20.34375 73.4375 
Q 25.25 74.21875 29.59375 74.21875 
Q 40.828125 74.21875 47.359375 69.109375 
Q 53.90625 64.015625 53.90625 55.328125 
Q 53.90625 49.265625 50.4375 45.09375 
Q 46.96875 40.921875 40.578125 39.3125 
z
" id="DejaVuSans-51"/>
      </defs>
      <g transform="translate(308.390139 322.182437)scale(0.1 -0.1)">
       <use xlink:href="#DejaVuSans-51"/>
       <use x="63.623047" xlink:href="#DejaVuSans-48"/>
       <use x="127.246094" xlink:href="#DejaVuSans-48"/>
      </g>
     </g>
    </g>
    <g id="xtick_8">
     <g id="line2d_15">
      <path clip-path="url(#pa2b1186c57)" d="M 358.617416 307.584 
L 358.617416 41.472 
" style="fill:none;stroke:#b0b0b0;stroke-linecap:square;stroke-width:0.8;"/>
     </g>
     <g id="line2d_16">
      <g>
       <use style="stroke:#000000;stroke-width:0.8;" x="358.617416" xlink:href="#m3c40a3a4c0" y="307.584"/>
      </g>
     </g>
     <g id="text_8">
      <!-- 350 -->
      <g transform="translate(349.073666 322.182437)scale(0.1 -0.1)">
       <use xlink:href="#DejaVuSans-51"/>
       <use x="63.623047" xlink:href="#DejaVuSans-53"/>
       <use x="127.246094" xlink:href="#DejaVuSans-48"/>
      </g>
     </g>
    </g>
    <g id="xtick_9">
     <g id="line2d_17">
      <path clip-path="url(#pa2b1186c57)" d="M 399.300943 307.584 
L 399.300943 41.472 
" style="fill:none;stroke:#b0b0b0;stroke-linecap:square;stroke-width:0.8;"/>
     </g>
     <g id="line2d_18">
      <g>
       <use style="stroke:#000000;stroke-width:0.8;" x="399.300943" xlink:href="#m3c40a3a4c0" y="307.584"/>
      </g>
     </g>
     <g id="text_9">
      <!-- 400 -->
      <defs>
       <path d="M 37.796875 64.3125 
L 12.890625 25.390625 
L 37.796875 25.390625 
z
M 35.203125 72.90625 
L 47.609375 72.90625 
L 47.609375 25.390625 
L 58.015625 25.390625 
L 58.015625 17.1875 
L 47.609375 17.1875 
L 47.609375 0 
L 37.796875 0 
L 37.796875 17.1875 
L 4.890625 17.1875 
L 4.890625 26.703125 
z
" id="DejaVuSans-52"/>
      </defs>
      <g transform="translate(389.757193 322.182437)scale(0.1 -0.1)">
       <use xlink:href="#DejaVuSans-52"/>
       <use x="63.623047" xlink:href="#DejaVuSans-48"/>
       <use x="127.246094" xlink:href="#DejaVuSans-48"/>
      </g>
     </g>
    </g>
    <g id="text_10">
     <!-- Generations -->
     <defs>
      <path d="M 59.515625 10.40625 
L 59.515625 29.984375 
L 43.40625 29.984375 
L 43.40625 38.09375 
L 69.28125 38.09375 
L 69.28125 6.78125 
Q 63.578125 2.734375 56.6875 0.65625 
Q 49.8125 -1.421875 42 -1.421875 
Q 24.90625 -1.421875 15.25 8.5625 
Q 5.609375 18.5625 5.609375 36.375 
Q 5.609375 54.25 15.25 64.234375 
Q 24.90625 74.21875 42 74.21875 
Q 49.125 74.21875 55.546875 72.453125 
Q 61.96875 70.703125 67.390625 67.28125 
L 67.390625 56.78125 
Q 61.921875 61.421875 55.765625 63.765625 
Q 49.609375 66.109375 42.828125 66.109375 
Q 29.4375 66.109375 22.71875 58.640625 
Q 16.015625 51.171875 16.015625 36.375 
Q 16.015625 21.625 22.71875 14.15625 
Q 29.4375 6.6875 42.828125 6.6875 
Q 48.046875 6.6875 52.140625 7.59375 
Q 56.25 8.5 59.515625 10.40625 
z
" id="DejaVuSans-71"/>
      <path d="M 56.203125 29.59375 
L 56.203125 25.203125 
L 14.890625 25.203125 
Q 15.484375 15.921875 20.484375 11.0625 
Q 25.484375 6.203125 34.421875 6.203125 
Q 39.59375 6.203125 44.453125 7.46875 
Q 49.3125 8.734375 54.109375 11.28125 
L 54.109375 2.78125 
Q 49.265625 0.734375 44.1875 -0.34375 
Q 39.109375 -1.421875 33.890625 -1.421875 
Q 20.796875 -1.421875 13.15625 6.1875 
Q 5.515625 13.8125 5.515625 26.8125 
Q 5.515625 40.234375 12.765625 48.109375 
Q 20.015625 56 32.328125 56 
Q 43.359375 56 49.78125 48.890625 
Q 56.203125 41.796875 56.203125 29.59375 
z
M 47.21875 32.234375 
Q 47.125 39.59375 43.09375 43.984375 
Q 39.0625 48.390625 32.421875 48.390625 
Q 24.90625 48.390625 20.390625 44.140625 
Q 15.875 39.890625 15.1875 32.171875 
z
" id="DejaVuSans-101"/>
      <path d="M 54.890625 33.015625 
L 54.890625 0 
L 45.90625 0 
L 45.90625 32.71875 
Q 45.90625 40.484375 42.875 44.328125 
Q 39.84375 48.1875 33.796875 48.1875 
Q 26.515625 48.1875 22.3125 43.546875 
Q 18.109375 38.921875 18.109375 30.90625 
L 18.109375 0 
L 9.078125 0 
L 9.078125 54.6875 
L 18.109375 54.6875 
L 18.109375 46.1875 
Q 21.34375 51.125 25.703125 53.5625 
Q 30.078125 56 35.796875 56 
Q 45.21875 56 50.046875 50.171875 
Q 54.890625 44.34375 54.890625 33.015625 
z
" id="DejaVuSans-110"/>
      <path d="M 41.109375 46.296875 
Q 39.59375 47.171875 37.8125 47.578125 
Q 36.03125 48 33.890625 48 
Q 26.265625 48 22.1875 43.046875 
Q 18.109375 38.09375 18.109375 28.8125 
L 18.109375 0 
L 9.078125 0 
L 9.078125 54.6875 
L 18.109375 54.6875 
L 18.109375 46.1875 
Q 20.953125 51.171875 25.484375 53.578125 
Q 30.03125 56 36.53125 56 
Q 37.453125 56 38.578125 55.875 
Q 39.703125 55.765625 41.0625 55.515625 
z
" id="DejaVuSans-114"/>
      <path d="M 34.28125 27.484375 
Q 23.390625 27.484375 19.1875 25 
Q 14.984375 22.515625 14.984375 16.5 
Q 14.984375 11.71875 18.140625 8.90625 
Q 21.296875 6.109375 26.703125 6.109375 
Q 34.1875 6.109375 38.703125 11.40625 
Q 43.21875 16.703125 43.21875 25.484375 
L 43.21875 27.484375 
z
M 52.203125 31.203125 
L 52.203125 0 
L 43.21875 0 
L 43.21875 8.296875 
Q 40.140625 3.328125 35.546875 0.953125 
Q 30.953125 -1.421875 24.3125 -1.421875 
Q 15.921875 -1.421875 10.953125 3.296875 
Q 6 8.015625 6 15.921875 
Q 6 25.140625 12.171875 29.828125 
Q 18.359375 34.515625 30.609375 34.515625 
L 43.21875 34.515625 
L 43.21875 35.40625 
Q 43.21875 41.609375 39.140625 45 
Q 35.0625 48.390625 27.6875 48.390625 
Q 23 48.390625 18.546875 47.265625 
Q 14.109375 46.140625 10.015625 43.890625 
L 10.015625 52.203125 
Q 14.9375 54.109375 19.578125 55.046875 
Q 24.21875 56 28.609375 56 
Q 40.484375 56 46.34375 49.84375 
Q 52.203125 43.703125 52.203125 31.203125 
z
" id="DejaVuSans-97"/>
      <path d="M 18.3125 70.21875 
L 18.3125 54.6875 
L 36.8125 54.6875 
L 36.8125 47.703125 
L 18.3125 47.703125 
L 18.3125 18.015625 
Q 18.3125 11.328125 20.140625 9.421875 
Q 21.96875 7.515625 27.59375 7.515625 
L 36.8125 7.515625 
L 36.8125 0 
L 27.59375 0 
Q 17.1875 0 13.234375 3.875 
Q 9.28125 7.765625 9.28125 18.015625 
L 9.28125 47.703125 
L 2.6875 47.703125 
L 2.6875 54.6875 
L 9.28125 54.6875 
L 9.28125 70.21875 
z
" id="DejaVuSans-116"/>
      <path d="M 9.421875 54.6875 
L 18.40625 54.6875 
L 18.40625 0 
L 9.421875 0 
z
M 9.421875 75.984375 
L 18.40625 75.984375 
L 18.40625 64.59375 
L 9.421875 64.59375 
z
" id="DejaVuSans-105"/>
      <path d="M 30.609375 48.390625 
Q 23.390625 48.390625 19.1875 42.75 
Q 14.984375 37.109375 14.984375 27.296875 
Q 14.984375 17.484375 19.15625 11.84375 
Q 23.34375 6.203125 30.609375 6.203125 
Q 37.796875 6.203125 41.984375 11.859375 
Q 46.1875 17.53125 46.1875 27.296875 
Q 46.1875 37.015625 41.984375 42.703125 
Q 37.796875 48.390625 30.609375 48.390625 
z
M 30.609375 56 
Q 42.328125 56 49.015625 48.375 
Q 55.71875 40.765625 55.71875 27.296875 
Q 55.71875 13.875 49.015625 6.21875 
Q 42.328125 -1.421875 30.609375 -1.421875 
Q 18.84375 -1.421875 12.171875 6.21875 
Q 5.515625 13.875 5.515625 27.296875 
Q 5.515625 40.765625 12.171875 48.375 
Q 18.84375 56 30.609375 56 
z
" id="DejaVuSans-111"/>
      <path d="M 44.28125 53.078125 
L 44.28125 44.578125 
Q 40.484375 46.53125 36.375 47.5 
Q 32.28125 48.484375 27.875 48.484375 
Q 21.1875 48.484375 17.84375 46.4375 
Q 14.5 44.390625 14.5 40.28125 
Q 14.5 37.15625 16.890625 35.375 
Q 19.28125 33.59375 26.515625 31.984375 
L 29.59375 31.296875 
Q 39.15625 29.25 43.1875 25.515625 
Q 47.21875 21.78125 47.21875 15.09375 
Q 47.21875 7.46875 41.1875 3.015625 
Q 35.15625 -1.421875 24.609375 -1.421875 
Q 20.21875 -1.421875 15.453125 -0.5625 
Q 10.6875 0.296875 5.421875 2 
L 5.421875 11.28125 
Q 10.40625 8.6875 15.234375 7.390625 
Q 20.0625 6.109375 24.8125 6.109375 
Q 31.15625 6.109375 34.5625 8.28125 
Q 37.984375 10.453125 37.984375 14.40625 
Q 37.984375 18.0625 35.515625 20.015625 
Q 33.0625 21.96875 24.703125 23.78125 
L 21.578125 24.515625 
Q 13.234375 26.265625 9.515625 29.90625 
Q 5.8125 33.546875 5.8125 39.890625 
Q 5.8125 47.609375 11.28125 51.796875 
Q 16.75 56 26.8125 56 
Q 31.78125 56 36.171875 55.265625 
Q 40.578125 54.546875 44.28125 53.078125 
z
" id="DejaVuSans-115"/>
     </defs>
     <g transform="translate(205.662344 335.860562)scale(0.1 -0.1)">
      <use xlink:href="#DejaVuSans-71"/>
      <use x="77.490234" xlink:href="#DejaVuSans-101"/>
      <use x="139.013672" xlink:href="#DejaVuSans-110"/>
      <use x="202.392578" xlink:href="#DejaVuSans-101"/>
      <use x="263.916016" xlink:href="#DejaVuSans-114"/>
      <use x="305.029297" xlink:href="#DejaVuSans-97"/>
      <use x="366.308594" xlink:href="#DejaVuSans-116"/>
      <use x="405.517578" xlink:href="#DejaVuSans-105"/>
      <use x="433.300781" xlink:href="#DejaVuSans-111"/>
      <use x="494.482422" xlink:href="#DejaVuSans-110"/>
      <use x="557.861328" xlink:href="#DejaVuSans-115"/>
     </g>
    </g>
   </g>
   <g id="matplotlib.axis_2">
    <g id="ytick_1">
     <g id="line2d_19">
      <path clip-path="url(#pa2b1186c57)" d="M 57.6 290.235952 
L 414.72 290.235952 
" style="fill:none;stroke:#b0b0b0;stroke-linecap:square;stroke-width:0.8;"/>
     </g>
     <g id="line2d_20">
      <defs>
       <path d="M 0 0 
L -3.5 0 
" id="maf86477beb" style="stroke:#000000;stroke-width:0.8;"/>
      </defs>
      <g>
       <use style="stroke:#000000;stroke-width:0.8;" x="57.6" xlink:href="#maf86477beb" y="290.235952"/>
      </g>
     </g>
     <g id="text_11">
      <!-- 0.0 -->
      <defs>
       <path d="M 10.6875 12.40625 
L 21 12.40625 
L 21 0 
L 10.6875 0 
z
" id="DejaVuSans-46"/>
      </defs>
      <g transform="translate(34.696875 294.03517)scale(0.1 -0.1)">
       <use xlink:href="#DejaVuSans-48"/>
       <use x="63.623047" xlink:href="#DejaVuSans-46"/>
       <use x="95.410156" xlink:href="#DejaVuSans-48"/>
      </g>
     </g>
    </g>
    <g id="ytick_2">
     <g id="line2d_21">
      <path clip-path="url(#pa2b1186c57)" d="M 57.6 231.438776 
L 414.72 231.438776 
" style="fill:none;stroke:#b0b0b0;stroke-linecap:square;stroke-width:0.8;"/>
     </g>
     <g id="line2d_22">
      <g>
       <use style="stroke:#000000;stroke-width:0.8;" x="57.6" xlink:href="#maf86477beb" y="231.438776"/>
      </g>
     </g>
     <g id="text_12">
      <!-- 0.2 -->
      <g transform="translate(34.696875 235.237995)scale(0.1 -0.1)">
       <use xlink:href="#DejaVuSans-48"/>
       <use x="63.623047" xlink:href="#DejaVuSans-46"/>
       <use x="95.410156" xlink:href="#DejaVuSans-50"/>
      </g>
     </g>
    </g>
    <g id="ytick_3">
     <g id="line2d_23">
      <path clip-path="url(#pa2b1186c57)" d="M 57.6 172.641601 
L 414.72 172.641601 
" style="fill:none;stroke:#b0b0b0;stroke-linecap:square;stroke-width:0.8;"/>
     </g>
     <g id="line2d_24">
      <g>
       <use style="stroke:#000000;stroke-width:0.8;" x="57.6" xlink:href="#maf86477beb" y="172.641601"/>
      </g>
     </g>
     <g id="text_13">
      <!-- 0.4 -->
      <g transform="translate(34.696875 176.440819)scale(0.1 -0.1)">
       <use xlink:href="#DejaVuSans-48"/>
       <use x="63.623047" xlink:href="#DejaVuSans-46"/>
       <use x="95.410156" xlink:href="#DejaVuSans-52"/>
      </g>
     </g>
    </g>
    <g id="ytick_4">
     <g id="line2d_25">
      <path clip-path="url(#pa2b1186c57)" d="M 57.6 113.844425 
L 414.72 113.844425 
" style="fill:none;stroke:#b0b0b0;stroke-linecap:square;stroke-width:0.8;"/>
     </g>
     <g id="line2d_26">
      <g>
       <use style="stroke:#000000;stroke-width:0.8;" x="57.6" xlink:href="#maf86477beb" y="113.844425"/>
      </g>
     </g>
     <g id="text_14">
      <!-- 0.6 -->
      <defs>
       <path d="M 33.015625 40.375 
Q 26.375 40.375 22.484375 35.828125 
Q 18.609375 31.296875 18.609375 23.390625 
Q 18.609375 15.53125 22.484375 10.953125 
Q 26.375 6.390625 33.015625 6.390625 
Q 39.65625 6.390625 43.53125 10.953125 
Q 47.40625 15.53125 47.40625 23.390625 
Q 47.40625 31.296875 43.53125 35.828125 
Q 39.65625 40.375 33.015625 40.375 
z
M 52.59375 71.296875 
L 52.59375 62.3125 
Q 48.875 64.0625 45.09375 64.984375 
Q 41.3125 65.921875 37.59375 65.921875 
Q 27.828125 65.921875 22.671875 59.328125 
Q 17.53125 52.734375 16.796875 39.40625 
Q 19.671875 43.65625 24.015625 45.921875 
Q 28.375 48.1875 33.59375 48.1875 
Q 44.578125 48.1875 50.953125 41.515625 
Q 57.328125 34.859375 57.328125 23.390625 
Q 57.328125 12.15625 50.6875 5.359375 
Q 44.046875 -1.421875 33.015625 -1.421875 
Q 20.359375 -1.421875 13.671875 8.265625 
Q 6.984375 17.96875 6.984375 36.375 
Q 6.984375 53.65625 15.1875 63.9375 
Q 23.390625 74.21875 37.203125 74.21875 
Q 40.921875 74.21875 44.703125 73.484375 
Q 48.484375 72.75 52.59375 71.296875 
z
" id="DejaVuSans-54"/>
      </defs>
      <g transform="translate(34.696875 117.643644)scale(0.1 -0.1)">
       <use xlink:href="#DejaVuSans-48"/>
       <use x="63.623047" xlink:href="#DejaVuSans-46"/>
       <use x="95.410156" xlink:href="#DejaVuSans-54"/>
      </g>
     </g>
    </g>
    <g id="ytick_5">
     <g id="line2d_27">
      <path clip-path="url(#pa2b1186c57)" d="M 57.6 55.04725 
L 414.72 55.04725 
" style="fill:none;stroke:#b0b0b0;stroke-linecap:square;stroke-width:0.8;"/>
     </g>
     <g id="line2d_28">
      <g>
       <use style="stroke:#000000;stroke-width:0.8;" x="57.6" xlink:href="#maf86477beb" y="55.04725"/>
      </g>
     </g>
     <g id="text_15">
      <!-- 0.8 -->
      <defs>
       <path d="M 31.78125 34.625 
Q 24.75 34.625 20.71875 30.859375 
Q 16.703125 27.09375 16.703125 20.515625 
Q 16.703125 13.921875 20.71875 10.15625 
Q 24.75 6.390625 31.78125 6.390625 
Q 38.8125 6.390625 42.859375 10.171875 
Q 46.921875 13.96875 46.921875 20.515625 
Q 46.921875 27.09375 42.890625 30.859375 
Q 38.875 34.625 31.78125 34.625 
z
M 21.921875 38.8125 
Q 15.578125 40.375 12.03125 44.71875 
Q 8.5 49.078125 8.5 55.328125 
Q 8.5 64.0625 14.71875 69.140625 
Q 20.953125 74.21875 31.78125 74.21875 
Q 42.671875 74.21875 48.875 69.140625 
Q 55.078125 64.0625 55.078125 55.328125 
Q 55.078125 49.078125 51.53125 44.71875 
Q 48 40.375 41.703125 38.8125 
Q 48.828125 37.15625 52.796875 32.3125 
Q 56.78125 27.484375 56.78125 20.515625 
Q 56.78125 9.90625 50.3125 4.234375 
Q 43.84375 -1.421875 31.78125 -1.421875 
Q 19.734375 -1.421875 13.25 4.234375 
Q 6.78125 9.90625 6.78125 20.515625 
Q 6.78125 27.484375 10.78125 32.3125 
Q 14.796875 37.15625 21.921875 38.8125 
z
M 18.3125 54.390625 
Q 18.3125 48.734375 21.84375 45.5625 
Q 25.390625 42.390625 31.78125 42.390625 
Q 38.140625 42.390625 41.71875 45.5625 
Q 45.3125 48.734375 45.3125 54.390625 
Q 45.3125 60.0625 41.71875 63.234375 
Q 38.140625 66.40625 31.78125 66.40625 
Q 25.390625 66.40625 21.84375 63.234375 
Q 18.3125 60.0625 18.3125 54.390625 
z
" id="DejaVuSans-56"/>
      </defs>
      <g transform="translate(34.696875 58.846468)scale(0.1 -0.1)">
       <use xlink:href="#DejaVuSans-48"/>
       <use x="63.623047" xlink:href="#DejaVuSans-46"/>
       <use x="95.410156" xlink:href="#DejaVuSans-56"/>
      </g>
     </g>
    </g>
    <g id="text_16">
     <!-- Fitness -->
     <defs>
      <path d="M 9.8125 72.90625 
L 51.703125 72.90625 
L 51.703125 64.59375 
L 19.671875 64.59375 
L 19.671875 43.109375 
L 48.578125 43.109375 
L 48.578125 34.8125 
L 19.671875 34.8125 
L 19.671875 0 
L 9.8125 0 
z
" id="DejaVuSans-70"/>
     </defs>
     <g transform="translate(28.617187 192.202219)rotate(-90)scale(0.1 -0.1)">
      <use xlink:href="#DejaVuSans-70"/>
      <use x="57.410156" xlink:href="#DejaVuSans-105"/>
      <use x="85.193359" xlink:href="#DejaVuSans-116"/>
      <use x="124.402344" xlink:href="#DejaVuSans-110"/>
      <use x="187.78125" xlink:href="#DejaVuSans-101"/>
      <use x="249.304688" xlink:href="#DejaVuSans-115"/>
      <use x="301.404297" xlink:href="#DejaVuSans-115"/>
     </g>
    </g>
   </g>
   <g id="line2d_29">
    <path clip-path="url(#pa2b1186c57)" d="M 73.832727 255.167598 
L 74.646398 244.977694 
L 75.460068 229.460828 
L 76.273739 239.527057 
L 77.087409 235.882092 
L 77.90108 238.544971 
L 78.714751 235.512238 
L 79.528421 237.74182 
L 80.342092 235.192204 
L 81.155762 235.812953 
L 82.783103 243.509767 
L 83.596774 240.239138 
L 84.410444 239.787287 
L 85.224115 230.464392 
L 86.037785 237.336823 
L 86.851456 237.115113 
L 87.665126 238.294992 
L 88.478797 230.86918 
L 89.292468 241.554376 
L 90.106138 234.249598 
L 90.919809 236.106999 
L 91.733479 237.474651 
L 92.54715 235.839459 
L 93.36082 235.16207 
L 94.988161 219.077558 
L 95.801832 206.687005 
L 96.615502 209.549253 
L 97.429173 209.873301 
L 98.242843 207.12552 
L 99.056514 209.480241 
L 99.870185 195.480023 
L 100.683855 187.523618 
L 102.311196 174.26821 
L 103.124867 171.677394 
L 103.938537 163.319954 
L 104.752208 177.31557 
L 105.565878 187.570394 
L 106.379549 178.758815 
L 107.193219 180.348574 
L 108.00689 169.987101 
L 108.82056 182.031738 
L 109.634231 169.760491 
L 111.261572 192.865067 
L 112.075243 182.168584 
L 112.888913 169.985723 
L 113.702584 181.750269 
L 114.516254 172.358825 
L 115.329925 181.142118 
L 116.143595 179.450709 
L 116.957266 176.785659 
L 117.770936 169.729102 
L 118.584607 161.010476 
L 119.398278 168.70189 
L 120.211948 160.628524 
L 121.025619 169.731524 
L 121.839289 171.379734 
L 122.65296 154.280247 
L 123.46663 160.927445 
L 124.280301 163.016128 
L 125.093971 174.578069 
L 125.907642 167.762333 
L 126.721312 167.979021 
L 127.534983 161.179448 
L 128.348653 157.192209 
L 129.162324 169.339943 
L 129.975995 171.93698 
L 130.789665 166.858207 
L 131.603336 157.510378 
L 132.417006 154.359852 
L 133.230677 163.21685 
L 134.044347 156.97947 
L 134.858018 164.173482 
L 135.671688 170.281483 
L 136.485359 151.280267 
L 137.299029 170.899008 
L 138.1127 164.024154 
L 138.92637 165.494727 
L 139.740041 162.818352 
L 140.553712 170.87344 
L 141.367382 167.741286 
L 142.181053 176.458058 
L 142.994723 157.440613 
L 143.808394 174.083858 
L 144.622064 176.78962 
L 145.435735 171.687894 
L 146.249405 168.877809 
L 147.063076 170.637312 
L 148.690417 155.243059 
L 149.504087 163.180948 
L 150.317758 169.337486 
L 151.131429 163.839039 
L 151.945099 166.331172 
L 152.75877 164.728348 
L 153.57244 168.153195 
L 154.386111 164.612435 
L 155.199781 164.140693 
L 156.013452 164.02778 
L 156.827122 163.538017 
L 157.640793 169.118555 
L 158.454463 163.312874 
L 159.268134 172.893544 
L 160.081805 168.395969 
L 160.895475 172.073466 
L 161.709146 159.526752 
L 162.522816 165.093945 
L 163.336487 175.084013 
L 164.150157 172.074773 
L 164.963828 161.582419 
L 165.777498 173.375472 
L 166.591169 174.673969 
L 167.404839 169.510802 
L 168.21851 167.79126 
L 169.03218 175.988894 
L 169.845851 164.914027 
L 170.659522 177.435731 
L 171.473192 182.098242 
L 172.286863 177.781113 
L 173.100533 183.929678 
L 173.914204 164.941771 
L 174.727874 177.96002 
L 175.541545 173.203471 
L 176.355215 169.553484 
L 177.168886 158.89385 
L 177.982556 169.794431 
L 178.796227 165.163219 
L 179.609897 167.660217 
L 180.423568 168.657315 
L 181.237239 165.140706 
L 182.050909 169.113703 
L 182.86458 162.457689 
L 183.67825 163.197726 
L 184.491921 154.509694 
L 185.305591 167.011024 
L 186.119262 164.257623 
L 186.932932 168.826841 
L 187.746603 164.745364 
L 188.560273 166.655415 
L 189.373944 164.721044 
L 190.187614 174.391314 
L 191.001285 166.341344 
L 191.814956 162.666088 
L 192.628626 172.321075 
L 193.442297 156.908577 
L 194.255967 173.078181 
L 195.069638 176.935985 
L 195.883308 167.259994 
L 196.696979 171.236533 
L 197.510649 156.152843 
L 198.32432 163.667722 
L 199.13799 164.675884 
L 199.951661 154.780949 
L 200.765332 161.439693 
L 201.579002 165.7755 
L 202.392673 164.182942 
L 203.206343 156.428322 
L 204.020014 168.142726 
L 204.833684 166.318597 
L 205.647355 162.456795 
L 206.461025 169.571546 
L 207.274696 161.456468 
L 208.088366 162.026808 
L 208.902037 168.000678 
L 209.715707 171.279289 
L 210.529378 165.569285 
L 211.343049 168.010146 
L 212.156719 171.943898 
L 212.97039 168.914019 
L 213.78406 165.28802 
L 214.597731 164.084632 
L 215.411401 176.156123 
L 216.225072 172.094342 
L 217.038742 168.832097 
L 217.852413 162.103184 
L 218.666083 168.038591 
L 219.479754 163.126433 
L 220.293424 164.036907 
L 221.107095 165.899318 
L 221.920766 168.895688 
L 222.734436 178.505069 
L 223.548107 171.033248 
L 224.361777 168.479247 
L 225.175448 160.541573 
L 225.989118 173.766006 
L 226.802789 165.063351 
L 227.616459 173.02835 
L 228.43013 164.097301 
L 229.2438 159.135624 
L 230.057471 165.740316 
L 230.871141 167.40507 
L 231.684812 166.499732 
L 232.498483 168.825224 
L 233.312153 155.94636 
L 234.125824 171.353452 
L 234.939494 161.768111 
L 235.753165 170.938663 
L 236.566835 172.667058 
L 237.380506 162.656843 
L 238.194176 169.960462 
L 239.007847 170.732686 
L 239.821517 176.28205 
L 240.635188 168.16258 
L 241.448859 181.324488 
L 242.262529 174.067802 
L 243.0762 180.379302 
L 243.88987 167.418919 
L 244.703541 173.188711 
L 245.517211 170.992178 
L 246.330882 166.096393 
L 247.144552 164.542547 
L 247.958223 175.283219 
L 248.771893 172.70464 
L 249.585564 169.576602 
L 250.399234 178.485228 
L 251.212905 159.402274 
L 252.026576 158.093832 
L 252.840246 165.167554 
L 253.653917 183.025247 
L 254.467587 156.217338 
L 255.281258 169.208368 
L 256.094928 175.740817 
L 256.908599 174.781096 
L 257.722269 169.637552 
L 258.53594 167.78174 
L 259.34961 167.509609 
L 260.163281 170.432126 
L 260.976951 169.557139 
L 261.790622 170.195203 
L 262.604293 160.537005 
L 263.417963 169.380273 
L 264.231634 169.109177 
L 265.045304 159.918935 
L 265.858975 169.908428 
L 266.672645 169.236803 
L 267.486316 161.875986 
L 268.299986 177.440559 
L 269.113657 180.374928 
L 269.927327 169.871052 
L 270.740998 174.015729 
L 271.554668 169.49547 
L 272.368339 173.022038 
L 273.18201 160.815908 
L 273.99568 178.533025 
L 274.809351 173.154111 
L 275.623021 164.429959 
L 276.436692 164.081396 
L 277.250362 162.972952 
L 278.064033 164.915958 
L 278.877703 161.105688 
L 279.691374 165.528217 
L 280.505044 155.115229 
L 281.318715 166.298696 
L 282.132386 163.602177 
L 282.946056 168.840661 
L 283.759727 164.519261 
L 284.573397 158.921432 
L 285.387068 155.557272 
L 286.200738 163.532209 
L 287.014409 154.932436 
L 287.828079 163.079613 
L 288.64175 165.335623 
L 289.45542 148.286158 
L 291.082761 163.102829 
L 291.896432 161.984897 
L 292.710103 166.20253 
L 293.523773 160.206984 
L 294.337444 168.573851 
L 295.151114 170.065998 
L 295.964785 163.248289 
L 296.778455 152.169162 
L 297.592126 165.655361 
L 298.405796 148.088628 
L 299.219467 162.524073 
L 300.033137 154.624536 
L 300.846808 158.39408 
L 301.660478 167.46678 
L 302.474149 158.922806 
L 303.28782 152.49704 
L 304.10149 162.715703 
L 304.915161 148.710856 
L 305.728831 165.817775 
L 306.542502 158.870723 
L 307.356172 157.209757 
L 308.169843 157.942113 
L 308.983513 155.374338 
L 309.797184 156.37416 
L 310.610854 163.351418 
L 311.424525 161.846638 
L 312.238195 166.52782 
L 313.051866 167.946246 
L 313.865537 164.822768 
L 314.679207 166.732274 
L 315.492878 162.69788 
L 316.306548 166.212917 
L 317.120219 170.273746 
L 317.933889 149.729347 
L 318.74756 167.707789 
L 319.56123 157.620675 
L 320.374901 154.111605 
L 321.188571 160.096751 
L 322.002242 162.055573 
L 322.815913 158.439473 
L 323.629583 172.037034 
L 324.443254 161.793591 
L 325.256924 163.761707 
L 326.070595 162.64882 
L 326.884265 160.850043 
L 327.697936 159.889166 
L 328.511606 150.220695 
L 329.325277 154.323107 
L 330.138947 143.436157 
L 330.952618 154.463859 
L 331.766288 162.962953 
L 332.579959 157.415279 
L 333.39363 161.249857 
L 334.2073 160.961765 
L 335.020971 147.853111 
L 335.834641 153.476298 
L 336.648312 154.354669 
L 337.461982 156.53352 
L 338.275653 154.257642 
L 339.089323 156.175944 
L 339.902994 149.778361 
L 340.716664 149.864615 
L 341.530335 154.266973 
L 342.344005 162.230591 
L 343.157676 154.274678 
L 343.971347 161.25349 
L 344.785017 144.758317 
L 345.598688 147.392206 
L 346.412358 147.67889 
L 347.226029 142.436081 
L 348.039699 168.383707 
L 349.66704 144.140206 
L 350.480711 155.692625 
L 351.294381 156.115133 
L 352.108052 154.358683 
L 352.921722 161.188304 
L 353.735393 152.985458 
L 354.549064 153.144802 
L 355.362734 156.391964 
L 356.176405 157.94139 
L 356.990075 156.975959 
L 357.803746 167.466881 
L 358.617416 166.183795 
L 359.431087 159.312237 
L 360.244757 161.763822 
L 361.058428 167.545579 
L 361.872098 169.630546 
L 362.685769 180.491944 
L 363.49944 178.374555 
L 365.126781 166.264119 
L 365.940451 174.592282 
L 366.754122 172.598887 
L 367.567792 162.916018 
L 368.381463 175.080423 
L 370.008804 169.694143 
L 370.822474 168.551957 
L 371.636145 157.671004 
L 372.449815 153.376235 
L 373.263486 170.250746 
L 374.890827 160.577461 
L 375.704498 168.765287 
L 376.518168 170.40809 
L 377.331839 164.780256 
L 378.145509 161.308993 
L 378.95918 152.999057 
L 380.586521 150.004227 
L 381.400191 161.455605 
L 382.213862 164.297356 
L 383.027532 151.585707 
L 383.841203 155.436437 
L 384.654874 145.764301 
L 386.282215 167.089388 
L 387.095885 151.930775 
L 387.909556 159.764654 
L 388.723226 168.955239 
L 389.536897 154.930366 
L 390.350567 173.355801 
L 391.164238 162.490638 
L 391.977908 156.490201 
L 392.791579 162.390331 
L 393.605249 158.064231 
L 394.41892 162.177428 
L 395.232591 155.655398 
L 396.046261 156.896737 
L 396.859932 159.106313 
L 397.673602 160.21068 
L 398.487273 154.331831 
L 398.487273 154.331831 
" style="fill:none;stroke:#0000ff;stroke-linecap:square;stroke-width:1.5;"/>
   </g>
   <g id="line2d_30">
    <path clip-path="url(#pa2b1186c57)" d="M 73.832727 276.946883 
L 74.646398 281.381478 
L 75.460068 269.719853 
L 76.273739 283.464277 
L 77.087409 281.199463 
L 77.90108 282.055689 
L 78.714751 276.079671 
L 79.528421 282.073257 
L 80.342092 278.397544 
L 81.155762 279.555959 
L 81.969433 283.924806 
L 82.783103 285.936663 
L 83.596774 284.603262 
L 84.410444 287.668209 
L 85.224115 283.145381 
L 86.037785 289.074905 
L 86.851456 287.757758 
L 87.665126 292.522203 
L 88.478797 283.596649 
L 89.292468 295.0534 
L 90.106138 295.488 
L 90.919809 294.039101 
L 91.733479 291.388021 
L 92.54715 292.386758 
L 93.36082 293.890778 
L 94.174491 291.350506 
L 94.988161 292.491229 
L 95.801832 281.348827 
L 96.615502 286.601264 
L 97.429173 287.2603 
L 98.242843 285.964248 
L 99.056514 287.518592 
L 99.870185 279.820164 
L 100.683855 274.133798 
L 102.311196 259.577813 
L 103.124867 258.702222 
L 103.938537 250.675638 
L 104.752208 262.983807 
L 105.565878 273.422723 
L 106.379549 264.766378 
L 107.193219 265.305828 
L 108.00689 256.148301 
L 108.82056 270.054117 
L 109.634231 255.854069 
L 111.261572 278.323257 
L 112.075243 269.378265 
L 112.888913 257.76239 
L 113.702584 269.778175 
L 114.516254 258.611923 
L 115.329925 266.708898 
L 116.143595 264.136693 
L 116.957266 262.737807 
L 117.770936 258.250197 
L 118.584607 249.257905 
L 119.398278 258.021424 
L 120.211948 248.075763 
L 121.025619 256.94826 
L 121.839289 261.000564 
L 122.65296 242.229283 
L 123.46663 249.436833 
L 124.280301 250.861949 
L 125.093971 262.755206 
L 125.907642 256.10192 
L 126.721312 257.520036 
L 127.534983 250.206733 
L 128.348653 244.639147 
L 129.162324 257.651587 
L 129.975995 261.344067 
L 130.789665 254.912802 
L 131.603336 245.57885 
L 132.417006 242.401394 
L 133.230677 253.091297 
L 134.044347 246.902897 
L 134.858018 252.087158 
L 135.671688 258.404949 
L 136.485359 238.285778 
L 137.299029 258.307754 
L 138.1127 252.01187 
L 138.92637 253.297412 
L 139.740041 252.815815 
L 140.553712 259.408981 
L 141.367382 254.639783 
L 142.181053 265.051106 
L 142.994723 246.480736 
L 143.808394 265.472108 
L 144.622064 264.884269 
L 146.249405 259.150346 
L 147.063076 261.050154 
L 147.876746 251.419711 
L 148.690417 243.391469 
L 149.504087 253.512986 
L 150.317758 257.395768 
L 151.131429 250.317163 
L 151.945099 254.130818 
L 152.75877 252.293594 
L 153.57244 256.816672 
L 154.386111 253.81574 
L 155.199781 251.650016 
L 156.013452 254.029778 
L 156.827122 251.670838 
L 157.640793 257.189671 
L 158.454463 249.232173 
L 159.268134 260.83473 
L 160.081805 257.128804 
L 160.895475 261.894882 
L 161.709146 246.555413 
L 162.522816 250.5856 
L 163.336487 265.150053 
L 164.150157 259.796977 
L 164.963828 249.083137 
L 165.777498 260.969074 
L 166.591169 265.539165 
L 167.404839 258.502961 
L 168.21851 258.394629 
L 169.03218 265.990556 
L 169.845851 252.601123 
L 170.659522 267.704843 
L 171.473192 266.848377 
L 172.286863 264.748821 
L 173.100533 268.899235 
L 173.914204 254.111786 
L 174.727874 264.449552 
L 175.541545 257.899856 
L 176.355215 256.106454 
L 177.168886 245.215218 
L 177.982556 257.878355 
L 178.796227 254.128599 
L 179.609897 257.050954 
L 180.423568 256.426708 
L 181.237239 253.002745 
L 182.050909 257.912789 
L 182.86458 252.076795 
L 183.67825 251.355956 
L 184.491921 243.619729 
L 185.305591 255.000494 
L 186.119262 254.303771 
L 186.932932 256.714093 
L 187.746603 253.237726 
L 188.560273 257.679798 
L 189.373944 253.398331 
L 190.187614 262.246323 
L 191.001285 256.238755 
L 191.814956 251.620946 
L 192.628626 262.988702 
L 193.442297 244.363334 
L 194.255967 261.777981 
L 195.069638 261.572594 
L 195.883308 254.739733 
L 196.696979 258.66599 
L 197.510649 245.809223 
L 198.32432 254.287201 
L 199.13799 252.935708 
L 199.951661 243.129602 
L 200.765332 251.329129 
L 201.579002 253.819573 
L 202.392673 256.89262 
L 203.206343 247.629613 
L 204.020014 257.470621 
L 204.833684 258.329497 
L 205.647355 252.897286 
L 206.461025 259.626363 
L 207.274696 250.488671 
L 208.088366 252.336669 
L 208.902037 258.765592 
L 209.715707 261.172461 
L 210.529378 254.279155 
L 211.343049 259.552135 
L 212.156719 263.715972 
L 212.97039 259.402789 
L 213.78406 256.695564 
L 214.597731 253.563305 
L 215.411401 265.496868 
L 216.225072 262.731137 
L 217.038742 258.35918 
L 217.852413 249.821512 
L 218.666083 258.528933 
L 219.479754 251.453706 
L 220.293424 253.07479 
L 221.107095 255.660645 
L 221.920766 259.50177 
L 222.734436 266.702391 
L 223.548107 260.970417 
L 224.361777 256.798117 
L 225.175448 249.467007 
L 225.989118 261.732515 
L 226.802789 254.954066 
L 227.616459 262.519859 
L 228.43013 253.29346 
L 229.2438 248.340123 
L 230.057471 254.744306 
L 230.871141 258.619467 
L 231.684812 255.975603 
L 232.498483 257.610687 
L 233.312153 244.069278 
L 234.125824 260.645379 
L 234.939494 249.946526 
L 235.753165 258.645614 
L 236.566835 261.415279 
L 237.380506 250.594335 
L 238.194176 260.093003 
L 239.007847 259.406018 
L 239.821517 263.872555 
L 240.635188 257.06871 
L 241.448859 270.439112 
L 242.262529 261.653927 
L 243.0762 270.249659 
L 243.88987 256.065634 
L 244.703541 263.324897 
L 245.517211 260.394669 
L 246.330882 256.119706 
L 247.144552 252.844622 
L 247.958223 264.199957 
L 249.585564 258.874618 
L 250.399234 267.999577 
L 251.212905 249.410621 
L 252.026576 246.378 
L 252.840246 253.399708 
L 253.653917 271.385286 
L 254.467587 244.300957 
L 255.281258 259.754481 
L 256.094928 266.030564 
L 256.908599 263.128117 
L 257.722269 258.112619 
L 258.53594 255.837635 
L 259.34961 257.090039 
L 260.163281 260.03387 
L 260.976951 260.375505 
L 261.790622 259.26799 
L 262.604293 250.507729 
L 263.417963 257.913862 
L 264.231634 258.753853 
L 265.045304 250.848335 
L 265.858975 258.2673 
L 266.672645 257.09719 
L 267.486316 252.35922 
L 268.299986 266.318902 
L 269.113657 268.667653 
L 269.927327 258.39848 
L 270.740998 262.468134 
L 271.554668 259.472158 
L 272.368339 261.155513 
L 273.18201 251.328076 
L 273.99568 266.10347 
L 274.809351 263.659694 
L 275.623021 252.853348 
L 276.436692 253.048722 
L 277.250362 253.925436 
L 278.064033 253.71457 
L 278.877703 250.513264 
L 279.691374 254.567061 
L 280.505044 243.551236 
L 281.318715 256.418039 
L 282.132386 252.355385 
L 282.946056 257.246937 
L 283.759727 253.891123 
L 284.573397 247.845969 
L 285.387068 246.541602 
L 286.200738 253.897066 
L 287.014409 245.019076 
L 287.828079 252.422962 
L 288.64175 255.566814 
L 289.45542 235.986125 
L 290.269091 243.721129 
L 291.082761 252.582617 
L 291.896432 251.652437 
L 292.710103 254.469698 
L 293.523773 251.035515 
L 294.337444 260.302611 
L 295.151114 261.481359 
L 295.964785 253.801329 
L 296.778455 243.688681 
L 297.592126 255.789449 
L 298.405796 238.088429 
L 299.219467 250.86693 
L 300.033137 243.261208 
L 300.846808 249.91333 
L 301.660478 261.416899 
L 302.474149 249.368509 
L 303.28782 241.792042 
L 304.10149 254.497897 
L 304.915161 239.123239 
L 305.728831 257.773817 
L 306.542502 251.462897 
L 307.356172 246.719433 
L 308.169843 248.87836 
L 308.983513 247.108545 
L 309.797184 248.327563 
L 310.610854 254.236256 
L 311.424525 252.081856 
L 312.238195 257.464228 
L 313.051866 257.673957 
L 313.865537 254.978135 
L 314.679207 256.921875 
L 315.492878 252.436525 
L 316.306548 256.20314 
L 317.120219 258.397909 
L 317.933889 237.04091 
L 318.74756 259.413273 
L 319.56123 247.4511 
L 320.374901 243.991185 
L 321.188571 253.201254 
L 322.002242 254.268833 
L 322.815913 248.471919 
L 323.629583 263.780328 
L 324.443254 253.616134 
L 325.256924 255.382534 
L 326.070595 252.916124 
L 326.884265 253.240097 
L 327.697936 253.76912 
L 328.511606 240.970101 
L 329.325277 246.429733 
L 330.138947 233.304313 
L 330.952618 244.858634 
L 331.766288 254.58382 
L 332.579959 247.865048 
L 333.39363 255.145249 
L 334.2073 250.023976 
L 335.020971 237.946531 
L 335.834641 245.214617 
L 336.648312 244.247819 
L 337.461982 247.352263 
L 338.275653 245.043004 
L 339.089323 248.312427 
L 339.902994 240.870056 
L 340.716664 240.454338 
L 341.530335 245.206638 
L 342.344005 251.11034 
L 343.157676 245.192231 
L 343.971347 250.65942 
L 344.785017 233.550498 
L 345.598688 239.037492 
L 346.412358 236.532328 
L 347.226029 226.69363 
L 348.039699 259.237197 
L 349.66704 232.121397 
L 350.480711 246.013262 
L 351.294381 246.866154 
L 352.108052 241.370331 
L 352.921722 250.977536 
L 353.735393 241.774726 
L 354.549064 240.653027 
L 355.362734 245.939952 
L 356.176405 246.446039 
L 356.990075 244.985055 
L 357.803746 257.513872 
L 358.617416 259.005587 
L 359.431087 247.315442 
L 360.244757 253.801177 
L 361.058428 256.5601 
L 361.872098 258.620344 
L 362.685769 268.766028 
L 363.49944 269.231123 
L 364.31311 264.369342 
L 365.126781 256.851116 
L 365.940451 265.746382 
L 366.754122 262.445064 
L 367.567792 254.57445 
L 368.381463 264.699811 
L 369.195133 261.712302 
L 370.008804 261.612067 
L 370.822474 259.269175 
L 371.636145 244.289364 
L 372.449815 239.693516 
L 373.263486 260.998488 
L 374.077157 251.087068 
L 374.890827 250.151804 
L 375.704498 258.671935 
L 376.518168 259.309037 
L 377.331839 252.880847 
L 378.145509 252.280621 
L 378.95918 242.386199 
L 379.77285 241.410997 
L 380.586521 237.232513 
L 381.400191 250.339876 
L 382.213862 254.793871 
L 383.027532 238.276482 
L 383.841203 244.341111 
L 384.654874 233.321585 
L 385.468544 246.625199 
L 386.282215 257.834116 
L 387.095885 243.088771 
L 387.909556 250.510653 
L 388.723226 259.620369 
L 389.536897 245.131277 
L 390.350567 263.223551 
L 391.164238 249.633537 
L 391.977908 245.419928 
L 392.791579 249.764997 
L 393.605249 246.491066 
L 394.41892 254.391142 
L 395.232591 244.585279 
L 396.046261 248.579044 
L 396.859932 249.149125 
L 397.673602 249.96671 
L 398.487273 244.102748 
L 398.487273 244.102748 
" style="fill:none;stroke:#008000;stroke-dasharray:9.6,2.4,1.5,2.4;stroke-dashoffset:0;stroke-width:1.5;"/>
   </g>
   <g id="line2d_31">
    <path clip-path="url(#pa2b1186c57)" d="M 73.832727 233.388314 
L 74.646398 208.573909 
L 75.460068 189.201802 
L 76.273739 195.589837 
L 77.087409 190.564721 
L 77.90108 195.034252 
L 78.714751 194.944804 
L 80.342092 191.986865 
L 81.155762 192.069947 
L 81.969433 195.213806 
L 82.783103 201.082871 
L 83.596774 195.875014 
L 84.410444 191.906366 
L 85.224115 177.783404 
L 86.037785 185.59874 
L 86.851456 186.472469 
L 87.665126 184.067782 
L 88.478797 178.141711 
L 89.292468 188.055352 
L 90.106138 173.011197 
L 91.733479 183.56128 
L 92.54715 179.29216 
L 93.36082 176.433361 
L 94.174491 162.915008 
L 94.988161 145.663887 
L 95.801832 132.025183 
L 96.615502 132.497241 
L 97.429173 132.486302 
L 98.242843 128.286791 
L 99.056514 131.44189 
L 99.870185 111.139882 
L 100.683855 100.913438 
L 101.497526 95.496927 
L 102.311196 88.958608 
L 103.124867 84.652565 
L 103.938537 75.964269 
L 104.752208 91.647333 
L 105.565878 101.718065 
L 106.379549 92.751251 
L 107.193219 95.391321 
L 108.00689 83.825901 
L 108.82056 94.009359 
L 109.634231 83.666912 
L 111.261572 107.406877 
L 112.888913 82.209056 
L 113.702584 93.722363 
L 114.516254 86.105727 
L 115.329925 95.575337 
L 116.143595 94.764726 
L 116.957266 90.833511 
L 118.584607 72.763047 
L 119.398278 79.382356 
L 120.211948 73.181285 
L 121.025619 82.514788 
L 121.839289 81.758904 
L 122.65296 66.331211 
L 123.46663 72.418057 
L 124.280301 75.170308 
L 125.093971 86.400931 
L 125.907642 79.422745 
L 126.721312 78.438007 
L 127.534983 72.152163 
L 128.348653 69.745271 
L 129.162324 81.028299 
L 129.975995 82.529892 
L 130.789665 78.803611 
L 131.603336 69.441906 
L 132.417006 66.31831 
L 133.230677 73.342403 
L 134.044347 67.056043 
L 134.858018 76.259806 
L 135.671688 82.158017 
L 136.485359 64.274755 
L 137.299029 83.490262 
L 138.1127 76.036438 
L 138.92637 77.692043 
L 139.740041 72.820889 
L 140.553712 82.3379 
L 141.367382 80.842788 
L 142.181053 87.865011 
L 142.994723 68.40049 
L 143.808394 82.695607 
L 144.622064 88.694971 
L 145.435735 81.351938 
L 146.249405 78.605272 
L 147.063076 80.224469 
L 148.690417 67.094648 
L 149.504087 72.848911 
L 150.317758 81.279204 
L 151.131429 77.360914 
L 151.945099 78.531526 
L 152.75877 77.163102 
L 153.57244 79.489718 
L 154.386111 75.40913 
L 155.199781 76.63137 
L 156.013452 74.025781 
L 156.827122 75.405196 
L 157.640793 81.047438 
L 158.454463 77.393575 
L 159.268134 84.952358 
L 160.081805 79.663133 
L 160.895475 82.252049 
L 161.709146 72.498091 
L 162.522816 79.602289 
L 163.336487 85.017973 
L 164.150157 84.352569 
L 164.963828 74.0817 
L 165.777498 85.78187 
L 166.591169 83.808772 
L 168.21851 77.187891 
L 169.03218 85.987232 
L 169.845851 77.226931 
L 171.473192 97.348108 
L 172.286863 90.813404 
L 173.100533 98.960121 
L 173.914204 75.771756 
L 174.727874 91.470489 
L 175.541545 88.507087 
L 176.355215 83.000513 
L 177.168886 72.572483 
L 177.982556 81.710508 
L 178.796227 76.19784 
L 179.609897 78.269481 
L 180.423568 80.887921 
L 181.237239 77.278668 
L 182.050909 80.314617 
L 182.86458 72.838583 
L 183.67825 75.039496 
L 184.491921 65.399659 
L 185.305591 79.021555 
L 186.119262 74.211475 
L 186.932932 80.939589 
L 187.746603 76.253001 
L 188.560273 75.631032 
L 189.373944 76.043758 
L 190.187614 86.536306 
L 191.001285 76.443934 
L 191.814956 73.71123 
L 192.628626 81.653449 
L 193.442297 69.45382 
L 194.255967 84.37838 
L 195.069638 92.299375 
L 195.883308 79.780255 
L 196.696979 83.807076 
L 197.510649 66.496462 
L 198.32432 73.048243 
L 199.13799 76.41606 
L 199.951661 66.432296 
L 200.765332 71.550257 
L 201.579002 77.731426 
L 203.206343 65.227031 
L 204.020014 78.814832 
L 204.833684 74.307696 
L 205.647355 72.016305 
L 206.461025 79.516729 
L 207.274696 72.424264 
L 208.088366 71.716948 
L 208.902037 77.235764 
L 209.715707 81.386118 
L 210.529378 76.859414 
L 211.343049 76.468157 
L 212.156719 80.171824 
L 212.97039 78.425248 
L 213.78406 73.880476 
L 214.597731 74.605959 
L 215.411401 86.815378 
L 216.225072 81.457546 
L 217.038742 79.305014 
L 217.852413 74.384856 
L 218.666083 77.548248 
L 219.479754 74.79916 
L 220.293424 74.999023 
L 221.107095 76.137992 
L 221.920766 78.289606 
L 222.734436 90.307746 
L 223.548107 81.096078 
L 224.361777 80.160376 
L 225.175448 71.61614 
L 225.989118 85.799497 
L 226.802789 75.172635 
L 227.616459 83.536842 
L 228.43013 74.901142 
L 229.2438 69.931124 
L 230.057471 76.736325 
L 230.871141 76.190674 
L 231.684812 77.023861 
L 232.498483 80.039761 
L 233.312153 67.823443 
L 234.125824 82.061525 
L 234.939494 73.589696 
L 235.753165 83.231713 
L 236.566835 83.918838 
L 237.380506 74.719351 
L 238.194176 79.827921 
L 239.007847 82.059355 
L 239.821517 88.691544 
L 240.635188 79.25645 
L 241.448859 92.209864 
L 242.262529 86.481678 
L 243.0762 90.508945 
L 243.88987 78.772205 
L 244.703541 83.052525 
L 245.517211 81.589687 
L 246.330882 76.07308 
L 247.144552 76.240473 
L 247.958223 86.366481 
L 248.771893 83.940737 
L 249.585564 80.278585 
L 250.399234 88.970878 
L 251.212905 69.393927 
L 252.026576 69.809665 
L 252.840246 76.935399 
L 253.653917 94.665208 
L 254.467587 68.133719 
L 255.281258 78.662255 
L 256.094928 85.451069 
L 256.908599 86.434075 
L 257.722269 81.162485 
L 258.53594 79.725845 
L 259.34961 77.92918 
L 260.163281 80.830382 
L 260.976951 78.738772 
L 261.790622 81.122416 
L 262.604293 70.566281 
L 263.417963 80.846683 
L 264.231634 79.464502 
L 265.045304 68.989535 
L 265.858975 81.549555 
L 266.672645 81.376415 
L 267.486316 71.392751 
L 268.299986 88.562215 
L 269.113657 92.082202 
L 269.927327 81.343625 
L 270.740998 85.563325 
L 271.554668 79.518781 
L 272.368339 84.888563 
L 273.18201 70.30374 
L 273.99568 90.96258 
L 274.809351 82.648528 
L 275.623021 76.00657 
L 276.436692 75.11407 
L 277.250362 72.020469 
L 278.064033 76.117346 
L 278.877703 71.698112 
L 279.691374 76.489374 
L 280.505044 66.679222 
L 281.318715 76.179353 
L 282.132386 74.84897 
L 282.946056 80.434385 
L 285.387068 64.572942 
L 286.200738 73.167352 
L 287.014409 64.845796 
L 287.828079 73.736264 
L 288.64175 75.104432 
L 289.45542 60.586191 
L 290.269091 68.573972 
L 291.082761 73.623041 
L 291.896432 72.317356 
L 292.710103 77.935362 
L 293.523773 69.378452 
L 294.337444 76.845091 
L 295.151114 78.650638 
L 295.964785 72.695248 
L 296.778455 60.649642 
L 297.592126 75.521274 
L 298.405796 58.088828 
L 299.219467 74.181216 
L 300.033137 65.987863 
L 300.846808 66.87483 
L 301.660478 73.516661 
L 303.28782 63.202037 
L 304.10149 70.933508 
L 304.915161 58.298474 
L 305.728831 73.861733 
L 306.542502 66.278549 
L 307.356172 67.700081 
L 308.169843 67.005866 
L 308.983513 63.640132 
L 309.797184 64.420756 
L 310.610854 72.46658 
L 311.424525 71.611419 
L 312.238195 75.591411 
L 313.051866 78.218535 
L 313.865537 74.667402 
L 314.679207 76.542673 
L 315.492878 72.959234 
L 316.306548 76.222695 
L 317.120219 82.149582 
L 317.933889 62.417784 
L 318.74756 76.002305 
L 319.56123 67.79025 
L 320.374901 64.232026 
L 322.002242 69.842312 
L 322.815913 68.407028 
L 323.629583 80.29374 
L 324.443254 69.971047 
L 325.256924 72.14088 
L 326.070595 72.381516 
L 326.884265 68.459988 
L 327.697936 66.009213 
L 328.511606 59.471288 
L 329.325277 62.216482 
L 330.138947 53.568 
L 330.952618 64.069084 
L 331.766288 71.342085 
L 332.579959 66.965511 
L 333.39363 67.354465 
L 334.2073 71.899553 
L 335.020971 57.75969 
L 335.834641 61.737978 
L 336.648312 64.461518 
L 337.461982 65.714778 
L 338.275653 63.47228 
L 339.089323 64.03946 
L 339.902994 58.686667 
L 340.716664 59.274891 
L 341.530335 63.327308 
L 342.344005 73.350842 
L 343.157676 63.357124 
L 343.971347 71.847561 
L 344.785017 55.966135 
L 345.598688 55.746921 
L 346.412358 58.825452 
L 347.226029 58.178532 
L 348.039699 77.530218 
L 348.85337 65.912819 
L 349.66704 56.159014 
L 350.480711 65.371987 
L 351.294381 65.364111 
L 352.108052 67.347036 
L 352.921722 71.399073 
L 353.735393 64.196191 
L 354.549064 65.636576 
L 355.362734 66.843975 
L 356.176405 69.436741 
L 356.990075 68.966864 
L 357.803746 77.41989 
L 358.617416 73.362004 
L 359.431087 71.309033 
L 360.244757 69.726468 
L 361.058428 78.531057 
L 361.872098 80.640747 
L 362.685769 92.217861 
L 363.49944 87.517988 
L 364.31311 80.653915 
L 365.126781 75.677122 
L 365.940451 83.438181 
L 366.754122 82.75271 
L 367.567792 71.257586 
L 368.381463 85.461035 
L 369.195133 83.027047 
L 370.008804 77.776219 
L 370.822474 77.834739 
L 371.636145 71.052644 
L 372.449815 67.058955 
L 373.263486 79.503003 
L 374.077157 79.483043 
L 374.890827 71.003118 
L 375.704498 78.85864 
L 376.518168 81.507143 
L 377.331839 76.679665 
L 378.95918 63.611915 
L 379.77285 61.381379 
L 380.586521 62.77594 
L 381.400191 72.571333 
L 382.213862 73.800841 
L 383.027532 64.894932 
L 383.841203 66.531762 
L 384.654874 58.207017 
L 385.468544 66.537253 
L 386.282215 76.34466 
L 387.095885 60.772779 
L 388.723226 78.290109 
L 389.536897 64.729454 
L 390.350567 83.488051 
L 391.977908 67.560474 
L 392.791579 75.015665 
L 393.605249 69.637396 
L 394.41892 69.963714 
L 395.232591 66.725517 
L 396.046261 65.214429 
L 396.859932 69.063502 
L 397.673602 70.454651 
L 398.487273 64.560915 
L 398.487273 64.560915 
" style="fill:none;stroke:#008000;stroke-dasharray:9.6,2.4,1.5,2.4;stroke-dashoffset:0;stroke-width:1.5;"/>
   </g>
   <g id="line2d_32">
    <path clip-path="url(#pa2b1186c57)" d="M 73.832727 188.315912 
L 74.646398 71.997319 
L 87.665126 71.997319 
L 88.478797 71.794968 
L 90.106138 71.794968 
L 90.919809 71.480282 
L 94.988161 71.480282 
L 95.801832 68.946845 
L 96.615502 68.35359 
L 98.242843 68.35359 
L 99.056514 68.148865 
L 99.870185 68.148865 
L 100.683855 67.91162 
L 103.124867 67.74625 
L 212.156719 67.637807 
L 239.007847 67.631451 
L 398.487273 67.63095 
L 398.487273 67.63095 
" style="fill:none;stroke:#ff0000;stroke-linecap:square;stroke-width:1.5;"/>
   </g>
   <g id="patch_3">
    <path d="M 57.6 307.584 
L 57.6 41.472 
" style="fill:none;stroke:#000000;stroke-linecap:square;stroke-linejoin:miter;stroke-width:0.8;"/>
   </g>
   <g id="patch_4">
    <path d="M 414.72 307.584 
L 414.72 41.472 
" style="fill:none;stroke:#000000;stroke-linecap:square;stroke-linejoin:miter;stroke-width:0.8;"/>
   </g>
   <g id="patch_5">
    <path d="M 57.6 307.584 
L 414.72 307.584 
" style="fill:none;stroke:#000000;stroke-linecap:square;stroke-linejoin:miter;stroke-width:0.8;"/>
   </g>
   <g id="patch_6">
    <path d="M 57.6 41.472 
L 414.72 41.472 
" style="fill:none;stroke:#000000;stroke-linecap:square;stroke-linejoin:miter;stroke-width:0.8;"/>
   </g>
   <g id="text_17">
    <!-- Population's average and best fitness -->
    <defs>
     <path d="M 19.671875 64.796875 
L 19.671875 37.40625 
L 32.078125 37.40625 
Q 38.96875 37.40625 42.71875 40.96875 
Q 46.484375 44.53125 46.484375 51.125 
Q 46.484375 57.671875 42.71875 61.234375 
Q 38.96875 64.796875 32.078125 64.796875 
z
M 9.8125 72.90625 
L 32.078125 72.90625 
Q 44.34375 72.90625 50.609375 67.359375 
Q 56.890625 61.8125 56.890625 51.125 
Q 56.890625 40.328125 50.609375 34.8125 
Q 44.34375 29.296875 32.078125 29.296875 
L 19.671875 29.296875 
L 19.671875 0 
L 9.8125 0 
z
" id="DejaVuSans-80"/>
     <path d="M 18.109375 8.203125 
L 18.109375 -20.796875 
L 9.078125 -20.796875 
L 9.078125 54.6875 
L 18.109375 54.6875 
L 18.109375 46.390625 
Q 20.953125 51.265625 25.265625 53.625 
Q 29.59375 56 35.59375 56 
Q 45.5625 56 51.78125 48.09375 
Q 58.015625 40.1875 58.015625 27.296875 
Q 58.015625 14.40625 51.78125 6.484375 
Q 45.5625 -1.421875 35.59375 -1.421875 
Q 29.59375 -1.421875 25.265625 0.953125 
Q 20.953125 3.328125 18.109375 8.203125 
z
M 48.6875 27.296875 
Q 48.6875 37.203125 44.609375 42.84375 
Q 40.53125 48.484375 33.40625 48.484375 
Q 26.265625 48.484375 22.1875 42.84375 
Q 18.109375 37.203125 18.109375 27.296875 
Q 18.109375 17.390625 22.1875 11.75 
Q 26.265625 6.109375 33.40625 6.109375 
Q 40.53125 6.109375 44.609375 11.75 
Q 48.6875 17.390625 48.6875 27.296875 
z
" id="DejaVuSans-112"/>
     <path d="M 8.5 21.578125 
L 8.5 54.6875 
L 17.484375 54.6875 
L 17.484375 21.921875 
Q 17.484375 14.15625 20.5 10.265625 
Q 23.53125 6.390625 29.59375 6.390625 
Q 36.859375 6.390625 41.078125 11.03125 
Q 45.3125 15.671875 45.3125 23.6875 
L 45.3125 54.6875 
L 54.296875 54.6875 
L 54.296875 0 
L 45.3125 0 
L 45.3125 8.40625 
Q 42.046875 3.421875 37.71875 1 
Q 33.40625 -1.421875 27.6875 -1.421875 
Q 18.265625 -1.421875 13.375 4.4375 
Q 8.5 10.296875 8.5 21.578125 
z
M 31.109375 56 
z
" id="DejaVuSans-117"/>
     <path d="M 9.421875 75.984375 
L 18.40625 75.984375 
L 18.40625 0 
L 9.421875 0 
z
" id="DejaVuSans-108"/>
     <path d="M 17.921875 72.90625 
L 17.921875 45.796875 
L 9.625 45.796875 
L 9.625 72.90625 
z
" id="DejaVuSans-39"/>
     <path id="DejaVuSans-32"/>
     <path d="M 2.984375 54.6875 
L 12.5 54.6875 
L 29.59375 8.796875 
L 46.6875 54.6875 
L 56.203125 54.6875 
L 35.6875 0 
L 23.484375 0 
z
" id="DejaVuSans-118"/>
     <path d="M 45.40625 27.984375 
Q 45.40625 37.75 41.375 43.109375 
Q 37.359375 48.484375 30.078125 48.484375 
Q 22.859375 48.484375 18.828125 43.109375 
Q 14.796875 37.75 14.796875 27.984375 
Q 14.796875 18.265625 18.828125 12.890625 
Q 22.859375 7.515625 30.078125 7.515625 
Q 37.359375 7.515625 41.375 12.890625 
Q 45.40625 18.265625 45.40625 27.984375 
z
M 54.390625 6.78125 
Q 54.390625 -7.171875 48.1875 -13.984375 
Q 42 -20.796875 29.203125 -20.796875 
Q 24.46875 -20.796875 20.265625 -20.09375 
Q 16.0625 -19.390625 12.109375 -17.921875 
L 12.109375 -9.1875 
Q 16.0625 -11.328125 19.921875 -12.34375 
Q 23.78125 -13.375 27.78125 -13.375 
Q 36.625 -13.375 41.015625 -8.765625 
Q 45.40625 -4.15625 45.40625 5.171875 
L 45.40625 9.625 
Q 42.625 4.78125 38.28125 2.390625 
Q 33.9375 0 27.875 0 
Q 17.828125 0 11.671875 7.65625 
Q 5.515625 15.328125 5.515625 27.984375 
Q 5.515625 40.671875 11.671875 48.328125 
Q 17.828125 56 27.875 56 
Q 33.9375 56 38.28125 53.609375 
Q 42.625 51.21875 45.40625 46.390625 
L 45.40625 54.6875 
L 54.390625 54.6875 
z
" id="DejaVuSans-103"/>
     <path d="M 45.40625 46.390625 
L 45.40625 75.984375 
L 54.390625 75.984375 
L 54.390625 0 
L 45.40625 0 
L 45.40625 8.203125 
Q 42.578125 3.328125 38.25 0.953125 
Q 33.9375 -1.421875 27.875 -1.421875 
Q 17.96875 -1.421875 11.734375 6.484375 
Q 5.515625 14.40625 5.515625 27.296875 
Q 5.515625 40.1875 11.734375 48.09375 
Q 17.96875 56 27.875 56 
Q 33.9375 56 38.25 53.625 
Q 42.578125 51.265625 45.40625 46.390625 
z
M 14.796875 27.296875 
Q 14.796875 17.390625 18.875 11.75 
Q 22.953125 6.109375 30.078125 6.109375 
Q 37.203125 6.109375 41.296875 11.75 
Q 45.40625 17.390625 45.40625 27.296875 
Q 45.40625 37.203125 41.296875 42.84375 
Q 37.203125 48.484375 30.078125 48.484375 
Q 22.953125 48.484375 18.875 42.84375 
Q 14.796875 37.203125 14.796875 27.296875 
z
" id="DejaVuSans-100"/>
     <path d="M 48.6875 27.296875 
Q 48.6875 37.203125 44.609375 42.84375 
Q 40.53125 48.484375 33.40625 48.484375 
Q 26.265625 48.484375 22.1875 42.84375 
Q 18.109375 37.203125 18.109375 27.296875 
Q 18.109375 17.390625 22.1875 11.75 
Q 26.265625 6.109375 33.40625 6.109375 
Q 40.53125 6.109375 44.609375 11.75 
Q 48.6875 17.390625 48.6875 27.296875 
z
M 18.109375 46.390625 
Q 20.953125 51.265625 25.265625 53.625 
Q 29.59375 56 35.59375 56 
Q 45.5625 56 51.78125 48.09375 
Q 58.015625 40.1875 58.015625 27.296875 
Q 58.015625 14.40625 51.78125 6.484375 
Q 45.5625 -1.421875 35.59375 -1.421875 
Q 29.59375 -1.421875 25.265625 0.953125 
Q 20.953125 3.328125 18.109375 8.203125 
L 18.109375 0 
L 9.078125 0 
L 9.078125 75.984375 
L 18.109375 75.984375 
z
" id="DejaVuSans-98"/>
     <path d="M 37.109375 75.984375 
L 37.109375 68.5 
L 28.515625 68.5 
Q 23.6875 68.5 21.796875 66.546875 
Q 19.921875 64.59375 19.921875 59.515625 
L 19.921875 54.6875 
L 34.71875 54.6875 
L 34.71875 47.703125 
L 19.921875 47.703125 
L 19.921875 0 
L 10.890625 0 
L 10.890625 47.703125 
L 2.296875 47.703125 
L 2.296875 54.6875 
L 10.890625 54.6875 
L 10.890625 58.5 
Q 10.890625 67.625 15.140625 71.796875 
Q 19.390625 75.984375 28.609375 75.984375 
z
" id="DejaVuSans-102"/>
    </defs>
    <g transform="translate(123.315 35.472)scale(0.12 -0.12)">
     <use xlink:href="#DejaVuSans-80"/>
     <use x="60.255859" xlink:href="#DejaVuSans-111"/>
     <use x="121.4375" xlink:href="#DejaVuSans-112"/>
     <use x="184.914062" xlink:href="#DejaVuSans-117"/>
     <use x="248.292969" xlink:href="#DejaVuSans-108"/>
     <use x="276.076172" xlink:href="#DejaVuSans-97"/>
     <use x="337.355469" xlink:href="#DejaVuSans-116"/>
     <use x="376.564453" xlink:href="#DejaVuSans-105"/>
     <use x="404.347656" xlink:href="#DejaVuSans-111"/>
     <use x="465.529297" xlink:href="#DejaVuSans-110"/>
     <use x="528.908203" xlink:href="#DejaVuSans-39"/>
     <use x="556.398438" xlink:href="#DejaVuSans-115"/>
     <use x="608.498047" xlink:href="#DejaVuSans-32"/>
     <use x="640.285156" xlink:href="#DejaVuSans-97"/>
     <use x="701.564453" xlink:href="#DejaVuSans-118"/>
     <use x="760.744141" xlink:href="#DejaVuSans-101"/>
     <use x="822.267578" xlink:href="#DejaVuSans-114"/>
     <use x="863.380859" xlink:href="#DejaVuSans-97"/>
     <use x="924.660156" xlink:href="#DejaVuSans-103"/>
     <use x="988.136719" xlink:href="#DejaVuSans-101"/>
     <use x="1049.660156" xlink:href="#DejaVuSans-32"/>
     <use x="1081.447266" xlink:href="#DejaVuSans-97"/>
     <use x="1142.726562" xlink:href="#DejaVuSans-110"/>
     <use x="1206.105469" xlink:href="#DejaVuSans-100"/>
     <use x="1269.582031" xlink:href="#DejaVuSans-32"/>
     <use x="1301.369141" xlink:href="#DejaVuSans-98"/>
     <use x="1364.845703" xlink:href="#DejaVuSans-101"/>
     <use x="1426.369141" xlink:href="#DejaVuSans-115"/>
     <use x="1478.46875" xlink:href="#DejaVuSans-116"/>
     <use x="1517.677734" xlink:href="#DejaVuSans-32"/>
     <use x="1549.464844" xlink:href="#DejaVuSans-102"/>
     <use x="1584.669922" xlink:href="#DejaVuSans-105"/>
     <use x="1612.453125" xlink:href="#DejaVuSans-116"/>
     <use x="1651.662109" xlink:href="#DejaVuSans-110"/>
     <use x="1715.041016" xlink:href="#DejaVuSans-101"/>
     <use x="1776.564453" xlink:href="#DejaVuSans-115"/>
     <use x="1828.664062" xlink:href="#DejaVuSans-115"/>
    </g>
   </g>
   <g id="legend_1">
    <g id="patch_7">
     <path d="M 334.779375 302.584 
L 407.72 302.584 
Q 409.72 302.584 409.72 300.584 
L 409.72 242.8715 
Q 409.72 240.8715 407.72 240.8715 
L 334.779375 240.8715 
Q 332.779375 240.8715 332.779375 242.8715 
L 332.779375 300.584 
Q 332.779375 302.584 334.779375 302.584 
z
" style="fill:#ffffff;opacity:0.8;stroke:#cccccc;stroke-linejoin:miter;"/>
    </g>
    <g id="line2d_33">
     <path d="M 336.779375 248.969937 
L 356.779375 248.969937 
" style="fill:none;stroke:#0000ff;stroke-linecap:square;stroke-width:1.5;"/>
    </g>
    <g id="line2d_34"/>
    <g id="text_18">
     <!-- average -->
     <g transform="translate(364.779375 252.469937)scale(0.1 -0.1)">
      <use xlink:href="#DejaVuSans-97"/>
      <use x="61.279297" xlink:href="#DejaVuSans-118"/>
      <use x="120.458984" xlink:href="#DejaVuSans-101"/>
      <use x="181.982422" xlink:href="#DejaVuSans-114"/>
      <use x="223.095703" xlink:href="#DejaVuSans-97"/>
      <use x="284.375" xlink:href="#DejaVuSans-103"/>
      <use x="347.851562" xlink:href="#DejaVuSans-101"/>
     </g>
    </g>
    <g id="line2d_35">
     <path d="M 336.779375 263.648062 
L 356.779375 263.648062 
" style="fill:none;stroke:#008000;stroke-dasharray:9.6,2.4,1.5,2.4;stroke-dashoffset:0;stroke-width:1.5;"/>
    </g>
    <g id="line2d_36"/>
    <g id="text_19">
     <!-- -1 sd -->
     <defs>
      <path d="M 4.890625 31.390625 
L 31.203125 31.390625 
L 31.203125 23.390625 
L 4.890625 23.390625 
z
" id="DejaVuSans-45"/>
     </defs>
     <g transform="translate(364.779375 267.148062)scale(0.1 -0.1)">
      <use xlink:href="#DejaVuSans-45"/>
      <use x="36.083984" xlink:href="#DejaVuSans-49"/>
      <use x="99.707031" xlink:href="#DejaVuSans-32"/>
      <use x="131.494141" xlink:href="#DejaVuSans-115"/>
      <use x="183.59375" xlink:href="#DejaVuSans-100"/>
     </g>
    </g>
    <g id="line2d_37">
     <path d="M 336.779375 278.326187 
L 356.779375 278.326187 
" style="fill:none;stroke:#008000;stroke-dasharray:9.6,2.4,1.5,2.4;stroke-dashoffset:0;stroke-width:1.5;"/>
    </g>
    <g id="line2d_38"/>
    <g id="text_20">
     <!-- +1 sd -->
     <defs>
      <path d="M 46 62.703125 
L 46 35.5 
L 73.1875 35.5 
L 73.1875 27.203125 
L 46 27.203125 
L 46 0 
L 37.796875 0 
L 37.796875 27.203125 
L 10.59375 27.203125 
L 10.59375 35.5 
L 37.796875 35.5 
L 37.796875 62.703125 
z
" id="DejaVuSans-43"/>
     </defs>
     <g transform="translate(364.779375 281.826187)scale(0.1 -0.1)">
      <use xlink:href="#DejaVuSans-43"/>
      <use x="83.789062" xlink:href="#DejaVuSans-49"/>
      <use x="147.412109" xlink:href="#DejaVuSans-32"/>
      <use x="179.199219" xlink:href="#DejaVuSans-115"/>
      <use x="231.298828" xlink:href="#DejaVuSans-100"/>
     </g>
    </g>
    <g id="line2d_39">
     <path d="M 336.779375 293.004312 
L 356.779375 293.004312 
" style="fill:none;stroke:#ff0000;stroke-linecap:square;stroke-width:1.5;"/>
    </g>
    <g id="line2d_40"/>
    <g id="text_21">
     <!-- best -->
     <g transform="translate(364.779375 296.504312)scale(0.1 -0.1)">
      <use xlink:href="#DejaVuSans-98"/>
      <use x="63.476562" xlink:href="#DejaVuSans-101"/>
      <use x="125" xlink:href="#DejaVuSans-115"/>
      <use x="177.099609" xlink:href="#DejaVuSans-116"/>
     </g>
    </g>
   </g>
  </g>
 </g>
 <defs>
  <clipPath id="pa2b1186c57">
   <rect height="266.112" width="357.12" x="57.6" y="41.472"/>
  </clipPath>
 </defs>
</svg>
