<?xml version="1.0" encoding="UTF-8" standalone="no"?>
<!DOCTYPE svg PUBLIC "-//W3C//DTD SVG 1.1//EN"
 "http://www.w3.org/Graphics/SVG/1.1/DTD/svg11.dtd">
<!-- Generated by graphviz version 2.40.1 (20161225.0304)
 -->
<!-- Title: %3 Pages: 1 -->
<svg width="622pt" height="151pt"
 viewBox="0.00 0.00 622.00 151.10" xmlns="http://www.w3.org/2000/svg" xmlns:xlink="http://www.w3.org/1999/xlink">
<g id="graph0" class="graph" transform="scale(1 1) rotate(0) translate(4 147.0955)">
<title>%3</title>
<polygon fill="#ffffff" stroke="transparent" points="-4,4 -4,-147.0955 618,-147.0955 618,4 -4,4"/>
<!-- RF_R -->
<g id="node1" class="node">
<title>RF_R</title>
<polygon fill="#d3d3d3" stroke="#000000" points="41,-143.0955 0,-143.0955 0,-125.0955 41,-125.0955 41,-143.0955"/>
<text text-anchor="middle" x="20.5" y="-131.8955" font-family="Times,serif" font-size="9.00" fill="#000000">RF_R</text>
</g>
<!-- ANG_VEL -->
<g id="node11" class="node">
<title>ANG_VEL</title>
<ellipse fill="#add8e6" stroke="#000000" cx="117.5" cy="-44.5477" rx="44.5955" ry="44.5955"/>
<text text-anchor="middle" x="117.5" y="-42.3477" font-family="Times,serif" font-size="9.00" fill="#000000">ANG_VEL</text>
</g>
<!-- RF_R&#45;&gt;ANG_VEL -->
<g id="edge4" class="edge">
<title>RF_R&#45;&gt;ANG_VEL</title>
<path fill="none" stroke="#00ff00" stroke-width=".8861" d="M30.5154,-124.8496C41.5131,-114.6967 59.8792,-97.7417 76.9085,-82.0207"/>
<polygon fill="#00ff00" stroke="#00ff00" stroke-width=".8861" points="79.6338,-84.2682 84.6074,-74.9133 74.8855,-79.1248 79.6338,-84.2682"/>
</g>
<!-- RF_FR -->
<g id="node2" class="node">
<title>RF_FR</title>
<polygon fill="#d3d3d3" stroke="#000000" points="358,-143.0955 311,-143.0955 311,-125.0955 358,-125.0955 358,-143.0955"/>
<text text-anchor="middle" x="334.5" y="-131.8955" font-family="Times,serif" font-size="9.00" fill="#000000">RF_FR</text>
</g>
<!-- RF_F -->
<g id="node3" class="node">
<title>RF_F</title>
<polygon fill="#d3d3d3" stroke="#000000" points="416.5,-143.0955 376.5,-143.0955 376.5,-125.0955 416.5,-125.0955 416.5,-143.0955"/>
<text text-anchor="middle" x="396.5" y="-131.8955" font-family="Times,serif" font-size="9.00" fill="#000000">RF_F</text>
</g>
<!-- RF_FL -->
<g id="node4" class="node">
<title>RF_FL</title>
<polygon fill="#d3d3d3" stroke="#000000" points="480.5,-143.0955 434.5,-143.0955 434.5,-125.0955 480.5,-125.0955 480.5,-143.0955"/>
<text text-anchor="middle" x="457.5" y="-131.8955" font-family="Times,serif" font-size="9.00" fill="#000000">RF_FL</text>
</g>
<!-- RF_L -->
<g id="node5" class="node">
<title>RF_L</title>
<polygon fill="#d3d3d3" stroke="#000000" points="99.5,-143.0955 59.5,-143.0955 59.5,-125.0955 99.5,-125.0955 99.5,-143.0955"/>
<text text-anchor="middle" x="79.5" y="-131.8955" font-family="Times,serif" font-size="9.00" fill="#000000">RF_L</text>
</g>
<!-- RF_L&#45;&gt;ANG_VEL -->
<g id="edge2" class="edge">
<title>RF_L&#45;&gt;ANG_VEL</title>
<path fill="none" stroke="#00ff00" stroke-width="1.0212" d="M83.4235,-124.8496C86.5657,-117.4449 91.2433,-106.4222 96.1333,-94.8988"/>
<polygon fill="#00ff00" stroke="#00ff00" stroke-width="1.0212" points="99.3907,-96.1822 100.0752,-85.6095 92.9469,-93.4477 99.3907,-96.1822"/>
</g>
<!-- RF_B -->
<g id="node6" class="node">
<title>RF_B</title>
<polygon fill="#d3d3d3" stroke="#000000" points="159,-143.0955 118,-143.0955 118,-125.0955 159,-125.0955 159,-143.0955"/>
<text text-anchor="middle" x="138.5" y="-131.8955" font-family="Times,serif" font-size="9.00" fill="#000000">RF_B</text>
</g>
<!-- RF_B&#45;&gt;ANG_VEL -->
<g id="edge3" class="edge">
<title>RF_B&#45;&gt;ANG_VEL</title>
<path fill="none" stroke="#ff0000" stroke-width=".8539" d="M136.3317,-124.8496C134.7593,-118.1445 132.4912,-108.4728 130.0701,-98.1491"/>
<polygon fill="#ff0000" stroke="#ff0000" stroke-width=".8539" points="133.4106,-97.0635 127.7198,-88.1268 126.5955,-98.6618 133.4106,-97.0635"/>
</g>
<!-- RAD_F -->
<g id="node7" class="node">
<title>RAD_F</title>
<polygon fill="#d3d3d3" stroke="#000000" points="225.5,-143.0955 177.5,-143.0955 177.5,-125.0955 225.5,-125.0955 225.5,-143.0955"/>
<text text-anchor="middle" x="201.5" y="-131.8955" font-family="Times,serif" font-size="9.00" fill="#000000">RAD_F</text>
</g>
<!-- RAD_F&#45;&gt;ANG_VEL -->
<g id="edge5" class="edge">
<title>RAD_F&#45;&gt;ANG_VEL</title>
<path fill="none" stroke="#00ff00" stroke-width=".3378" d="M192.8269,-124.8496C183.903,-115.3363 169.3769,-99.8508 155.4503,-85.0044"/>
<polygon fill="#00ff00" stroke="#00ff00" stroke-width=".3378" points="157.6493,-82.2328 148.255,-77.3339 152.5439,-87.0219 157.6493,-82.2328"/>
</g>
<!-- VEL -->
<g id="node12" class="node">
<title>VEL</title>
<ellipse fill="#add8e6" stroke="#000000" cx="222.5" cy="-44.5477" rx="25.4118" ry="25.4118"/>
<text text-anchor="middle" x="222.5" y="-42.3477" font-family="Times,serif" font-size="9.00" fill="#000000">VEL</text>
</g>
<!-- RAD_F&#45;&gt;VEL -->
<g id="edge6" class="edge">
<title>RAD_F&#45;&gt;VEL</title>
<path fill="none" stroke="#ff0000" stroke-width=".1643" d="M203.6683,-124.8496C206.185,-114.1179 210.4839,-95.7863 214.3395,-79.3454"/>
<polygon fill="#ff0000" stroke="#ff0000" stroke-width=".1643" points="217.7873,-79.9729 216.663,-69.4379 210.9722,-78.3746 217.7873,-79.9729"/>
</g>
<!-- RAD_L -->
<g id="node8" class="node">
<title>RAD_L</title>
<polygon fill="#d3d3d3" stroke="#000000" points="546.5,-143.0955 498.5,-143.0955 498.5,-125.0955 546.5,-125.0955 546.5,-143.0955"/>
<text text-anchor="middle" x="522.5" y="-131.8955" font-family="Times,serif" font-size="9.00" fill="#000000">RAD_L</text>
</g>
<!-- RAD_B -->
<g id="node9" class="node">
<title>RAD_B</title>
<polygon fill="#d3d3d3" stroke="#000000" points="293,-143.0955 244,-143.0955 244,-125.0955 293,-125.0955 293,-143.0955"/>
<text text-anchor="middle" x="268.5" y="-131.8955" font-family="Times,serif" font-size="9.00" fill="#000000">RAD_B</text>
</g>
<!-- RAD_B&#45;&gt;VEL -->
<g id="edge1" class="edge">
<title>RAD_B&#45;&gt;VEL</title>
<path fill="none" stroke="#00ff00" stroke-width="1.7781" d="M263.7504,-124.8496C257.94,-113.5384 247.7924,-93.7843 239.0164,-76.7"/>
<polygon fill="#00ff00" stroke="#00ff00" stroke-width="1.7781" points="242.0008,-74.8497 234.3181,-67.554 235.7742,-78.0483 242.0008,-74.8497"/>
</g>
<!-- RAD_R -->
<g id="node10" class="node">
<title>RAD_R</title>
<polygon fill="#d3d3d3" stroke="#000000" points="614,-143.0955 565,-143.0955 565,-125.0955 614,-125.0955 614,-143.0955"/>
<text text-anchor="middle" x="589.5" y="-131.8955" font-family="Times,serif" font-size="9.00" fill="#000000">RAD_R</text>
</g>
</g>
</svg>
