<?xml version="1.0" encoding="UTF-8" standalone="no"?>
<!DOCTYPE svg PUBLIC "-//W3C//DTD SVG 1.1//EN"
 "http://www.w3.org/Graphics/SVG/1.1/DTD/svg11.dtd">
<!-- Generated by graphviz version 2.40.1 (20161225.0304)
 -->
<!-- Title: %3 Pages: 1 -->
<svg width="563pt" height="237pt"
 viewBox="0.00 0.00 562.50 236.59" xmlns="http://www.w3.org/2000/svg" xmlns:xlink="http://www.w3.org/1999/xlink">
<g id="graph0" class="graph" transform="scale(1 1) rotate(0) translate(4 232.5929)">
<title>%3</title>
<polygon fill="#ffffff" stroke="transparent" points="-4,4 -4,-232.5929 558.5,-232.5929 558.5,4 -4,4"/>
<!-- RF_R -->
<g id="node1" class="node">
<title>RF_R</title>
<polygon fill="#d3d3d3" stroke="#000000" points="41,-228.5929 0,-228.5929 0,-210.5929 41,-210.5929 41,-228.5929"/>
<text text-anchor="middle" x="20.5" y="-217.3929" font-family="Times,serif" font-size="9.00" fill="#000000">RF_R</text>
</g>
<!-- RF_FR -->
<g id="node2" class="node">
<title>RF_FR</title>
<polygon fill="#d3d3d3" stroke="#000000" points="106,-228.5929 59,-228.5929 59,-210.5929 106,-210.5929 106,-228.5929"/>
<text text-anchor="middle" x="82.5" y="-217.3929" font-family="Times,serif" font-size="9.00" fill="#000000">RF_FR</text>
</g>
<!-- RF_F -->
<g id="node3" class="node">
<title>RF_F</title>
<polygon fill="#d3d3d3" stroke="#000000" points="232.5,-228.5929 192.5,-228.5929 192.5,-210.5929 232.5,-210.5929 232.5,-228.5929"/>
<text text-anchor="middle" x="212.5" y="-217.3929" font-family="Times,serif" font-size="9.00" fill="#000000">RF_F</text>
</g>
<!-- ANG_VEL -->
<g id="node11" class="node">
<title>ANG_VEL</title>
<ellipse fill="#add8e6" stroke="#000000" cx="174.5" cy="-44.5477" rx="44.5955" ry="44.5955"/>
<text text-anchor="middle" x="174.5" y="-42.3477" font-family="Times,serif" font-size="9.00" fill="#000000">ANG_VEL</text>
</g>
<!-- RF_F&#45;&gt;ANG_VEL -->
<g id="edge14" class="edge">
<title>RF_F&#45;&gt;ANG_VEL</title>
<path fill="none" stroke="#ff0000" stroke-width=".2205" d="M209.2782,-210.3759C206.2053,-201.3433 201.5987,-187.1434 198.5,-174.5929 192.4119,-149.9346 187.1037,-122.3024 183.0383,-98.8716"/>
<polygon fill="#ff0000" stroke="#ff0000" stroke-width=".2205" points="186.4469,-98.0387 181.3166,-88.7688 179.5464,-99.2147 186.4469,-98.0387"/>
</g>
<!-- VEL -->
<g id="node12" class="node">
<title>VEL</title>
<ellipse fill="#add8e6" stroke="#000000" cx="394.5" cy="-44.5477" rx="25.4118" ry="25.4118"/>
<text text-anchor="middle" x="394.5" y="-42.3477" font-family="Times,serif" font-size="9.00" fill="#000000">VEL</text>
</g>
<!-- RF_F&#45;&gt;VEL -->
<g id="edge11" class="edge">
<title>RF_F&#45;&gt;VEL</title>
<path fill="none" stroke="#ff0000" stroke-width=".18" d="M216.3548,-210.3423C224.2256,-192.2814 243.6101,-151.7647 269.5,-125.0955 296.5243,-97.2576 334.8966,-74.3458 361.9806,-60.1696"/>
<polygon fill="#ff0000" stroke="#ff0000" stroke-width=".18" points="363.7458,-63.198 371.0526,-55.526 360.5562,-56.9669 363.7458,-63.198"/>
</g>
<!-- 246 -->
<g id="node13" class="node">
<title>246</title>
<ellipse fill="#ffffff" stroke="#000000" cx="303.5" cy="-149.8442" rx="25" ry="25"/>
<text text-anchor="middle" x="303.5" y="-147.6442" font-family="Times,serif" font-size="9.00" fill="#000000">246</text>
</g>
<!-- RF_F&#45;&gt;246 -->
<g id="edge4" class="edge">
<title>RF_F&#45;&gt;246</title>
<path fill="none" stroke="#00ff00" stroke-width=".1988" d="M224.3967,-210.4745C237.3141,-200.5737 258.3958,-184.4152 275.5483,-171.2683"/>
<polygon fill="#00ff00" stroke="#00ff00" stroke-width=".1988" points="277.7923,-173.9582 283.6,-165.097 273.534,-168.4024 277.7923,-173.9582"/>
</g>
<!-- RF_FL -->
<g id="node4" class="node">
<title>RF_FL</title>
<polygon fill="#d3d3d3" stroke="#000000" points="554.5,-228.5929 508.5,-228.5929 508.5,-210.5929 554.5,-210.5929 554.5,-228.5929"/>
<text text-anchor="middle" x="531.5" y="-217.3929" font-family="Times,serif" font-size="9.00" fill="#000000">RF_FL</text>
</g>
<!-- RF_FL&#45;&gt;VEL -->
<g id="edge13" class="edge">
<title>RF_FL&#45;&gt;VEL</title>
<path fill="none" stroke="#00ff00" stroke-width=".3324" d="M529.9717,-210.472C526.6282,-192.6382 517.3249,-152.5013 497.5,-125.0955 478.3543,-98.6286 448.1885,-76.4661 425.4406,-62.1314"/>
<polygon fill="#00ff00" stroke="#00ff00" stroke-width=".3324" points="427.1719,-59.0874 416.817,-56.845 423.5134,-65.0553 427.1719,-59.0874"/>
</g>
<!-- RF_FL&#45;&gt;246 -->
<g id="edge3" class="edge">
<title>RF_FL&#45;&gt;246</title>
<path fill="none" stroke="#ff0000" stroke-width=".1223" d="M508.3834,-212.5212C467.8821,-200.1312 383.9507,-174.4553 337.0548,-160.1091"/>
<polygon fill="#ff0000" stroke="#ff0000" stroke-width=".1223" points="337.9483,-156.7224 327.3618,-157.1439 335.9005,-163.4162 337.9483,-156.7224"/>
</g>
<!-- RF_L -->
<g id="node5" class="node">
<title>RF_L</title>
<polygon fill="#d3d3d3" stroke="#000000" points="323.5,-228.5929 283.5,-228.5929 283.5,-210.5929 323.5,-210.5929 323.5,-228.5929"/>
<text text-anchor="middle" x="303.5" y="-217.3929" font-family="Times,serif" font-size="9.00" fill="#000000">RF_L</text>
</g>
<!-- RF_L&#45;&gt;ANG_VEL -->
<g id="edge12" class="edge">
<title>RF_L&#45;&gt;ANG_VEL</title>
<path fill="none" stroke="#00ff00" stroke-width=".1684" d="M296.4234,-210.3179C289.5153,-201.2423 278.7265,-187.0115 269.5,-174.5929 248.4515,-146.2624 225.0627,-114.2521 206.7591,-89.0791"/>
<polygon fill="#00ff00" stroke="#00ff00" stroke-width=".1684" points="209.4672,-86.852 200.7575,-80.8195 203.8043,-90.9668 209.4672,-86.852"/>
</g>
<!-- RF_L&#45;&gt;VEL -->
<g id="edge10" class="edge">
<title>RF_L&#45;&gt;VEL</title>
<path fill="none" stroke="#ff0000" stroke-width=".2409" d="M311.4756,-210.3908C318.8409,-201.5992 329.777,-187.7719 337.5,-174.5929 355.8151,-143.3389 371.8857,-105.1146 382.2534,-78.2212"/>
<polygon fill="#ff0000" stroke="#ff0000" stroke-width=".2409" points="385.5303,-79.4508 385.8087,-68.8596 378.9863,-76.9655 385.5303,-79.4508"/>
</g>
<!-- RF_L&#45;&gt;246 -->
<g id="edge18" class="edge">
<title>RF_L&#45;&gt;246</title>
<path fill="none" stroke="#00ff00" stroke-width=".1703" d="M303.5,-210.4745C303.5,-203.8578 303.5,-194.4463 303.5,-185.0066"/>
<polygon fill="#00ff00" stroke="#00ff00" stroke-width=".1703" points="307.0001,-184.8834 303.5,-174.8835 300.0001,-184.8835 307.0001,-184.8834"/>
</g>
<!-- RF_B -->
<g id="node6" class="node">
<title>RF_B</title>
<polygon fill="#d3d3d3" stroke="#000000" points="165,-228.5929 124,-228.5929 124,-210.5929 165,-210.5929 165,-228.5929"/>
<text text-anchor="middle" x="144.5" y="-217.3929" font-family="Times,serif" font-size="9.00" fill="#000000">RF_B</text>
</g>
<!-- RF_B&#45;&gt;ANG_VEL -->
<g id="edge17" class="edge">
<title>RF_B&#45;&gt;ANG_VEL</title>
<path fill="none" stroke="#ff0000" stroke-width=".6491" d="M146.0313,-210.4684C148.8646,-193.6045 155.1261,-156.4189 160.5,-125.0955 161.9822,-116.456 163.564,-107.2973 165.1112,-98.3726"/>
<polygon fill="#ff0000" stroke="#ff0000" stroke-width=".6491" points="168.5741,-98.8872 166.836,-88.4359 161.6772,-97.69 168.5741,-98.8872"/>
</g>
<!-- RF_B&#45;&gt;246 -->
<g id="edge6" class="edge">
<title>RF_B&#45;&gt;246</title>
<path fill="none" stroke="#00ff00" stroke-width=".2924" d="M165.2865,-210.4745C192.2916,-198.6281 239.7188,-177.8232 271.3731,-163.9373"/>
<polygon fill="#00ff00" stroke="#00ff00" stroke-width=".2924" points="272.8988,-167.0901 280.6504,-159.8676 270.0868,-160.6797 272.8988,-167.0901"/>
</g>
<!-- RAD_F -->
<g id="node7" class="node">
<title>RAD_F</title>
<polygon fill="#d3d3d3" stroke="#000000" points="108.5,-158.8442 60.5,-158.8442 60.5,-140.8442 108.5,-140.8442 108.5,-158.8442"/>
<text text-anchor="middle" x="84.5" y="-147.6442" font-family="Times,serif" font-size="9.00" fill="#000000">RAD_F</text>
</g>
<!-- RAD_F&#45;&gt;ANG_VEL -->
<g id="edge8" class="edge">
<title>RAD_F&#45;&gt;ANG_VEL</title>
<path fill="none" stroke="#00ff00" stroke-width=".1706" d="M92.4869,-140.4998C102.8931,-128.325 121.7721,-106.2373 138.7954,-86.3207"/>
<polygon fill="#00ff00" stroke="#00ff00" stroke-width=".1706" points="141.6156,-88.408 145.4524,-78.5323 136.2944,-83.8599 141.6156,-88.408"/>
</g>
<!-- RAD_L -->
<g id="node8" class="node">
<title>RAD_L</title>
<polygon fill="#d3d3d3" stroke="#000000" points="403.5,-228.5929 355.5,-228.5929 355.5,-210.5929 403.5,-210.5929 403.5,-228.5929"/>
<text text-anchor="middle" x="379.5" y="-217.3929" font-family="Times,serif" font-size="9.00" fill="#000000">RAD_L</text>
</g>
<!-- RAD_L&#45;&gt;VEL -->
<g id="edge2" class="edge">
<title>RAD_L&#45;&gt;VEL</title>
<path fill="none" stroke="#00ff00" stroke-width=".1141" d="M380.3065,-210.1817C382.3721,-186.0763 387.9376,-121.1287 391.4543,-80.0906"/>
<polygon fill="#00ff00" stroke="#00ff00" stroke-width=".1141" points="394.9557,-80.2222 392.3224,-69.9599 387.9813,-79.6245 394.9557,-80.2222"/>
</g>
<!-- RAD_L&#45;&gt;246 -->
<g id="edge5" class="edge">
<title>RAD_L&#45;&gt;246</title>
<path fill="none" stroke="#ff0000" stroke-width=".3052" d="M369.5643,-210.4745C359.3797,-201.1276 343.1181,-186.2035 329.2776,-173.5015"/>
<polygon fill="#ff0000" stroke="#ff0000" stroke-width=".3052" points="331.6256,-170.9058 321.8914,-166.7229 326.8925,-176.0631 331.6256,-170.9058"/>
</g>
<!-- RAD_B -->
<g id="node9" class="node">
<title>RAD_B</title>
<polygon fill="#d3d3d3" stroke="#000000" points="472,-158.8442 423,-158.8442 423,-140.8442 472,-140.8442 472,-158.8442"/>
<text text-anchor="middle" x="447.5" y="-147.6442" font-family="Times,serif" font-size="9.00" fill="#000000">RAD_B</text>
</g>
<!-- RAD_B&#45;&gt;VEL -->
<g id="edge1" class="edge">
<title>RAD_B&#45;&gt;VEL</title>
<path fill="none" stroke="#ff0000" stroke-width=".2737" d="M442.7966,-140.4998C435.6587,-126.3188 421.7514,-98.6888 410.6865,-76.7058"/>
<polygon fill="#ff0000" stroke="#ff0000" stroke-width=".2737" points="413.7688,-75.0447 406.1464,-67.686 407.5162,-78.1919 413.7688,-75.0447"/>
</g>
<!-- RAD_R -->
<g id="node10" class="node">
<title>RAD_R</title>
<polygon fill="#d3d3d3" stroke="#000000" points="484,-228.5929 435,-228.5929 435,-210.5929 484,-210.5929 484,-228.5929"/>
<text text-anchor="middle" x="459.5" y="-217.3929" font-family="Times,serif" font-size="9.00" fill="#000000">RAD_R</text>
</g>
<!-- RAD_R&#45;&gt;VEL -->
<g id="edge16" class="edge">
<title>RAD_R&#45;&gt;VEL</title>
<path fill="none" stroke="#00ff00" stroke-width=".2167" d="M465.5484,-210.4082C470.9416,-201.6288 478.4421,-187.8098 481.5,-174.5929 486.4587,-153.1602 490.3082,-145.254 481.5,-125.0955 470.034,-98.8541 445.3355,-77.3454 425.1735,-63.1757"/>
<polygon fill="#00ff00" stroke="#00ff00" stroke-width=".2167" points="427.1076,-60.2585 416.8622,-57.5599 423.1885,-66.0586 427.1076,-60.2585"/>
</g>
<!-- RAD_R&#45;&gt;246 -->
<g id="edge15" class="edge">
<title>RAD_R&#45;&gt;246</title>
<path fill="none" stroke="#ff0000" stroke-width=".1585" d="M439.1057,-210.4745C412.7988,-198.7125 366.7397,-178.1191 335.6867,-164.2351"/>
<polygon fill="#ff0000" stroke="#ff0000" stroke-width=".1585" points="336.7336,-160.8693 326.1759,-159.9828 333.8764,-167.2597 336.7336,-160.8693"/>
</g>
<!-- 246&#45;&gt;ANG_VEL -->
<g id="edge7" class="edge">
<title>246&#45;&gt;ANG_VEL</title>
<path fill="none" stroke="#ff0000" stroke-width=".4399" d="M284.1874,-134.0802C266.4571,-119.6078 239.5719,-97.6628 216.8568,-79.1215"/>
<polygon fill="#ff0000" stroke="#ff0000" stroke-width=".4399" points="218.9781,-76.3351 209.018,-72.7231 214.5517,-81.758 218.9781,-76.3351"/>
</g>
<!-- 246&#45;&gt;VEL -->
<g id="edge9" class="edge">
<title>246&#45;&gt;VEL</title>
<path fill="none" stroke="#ff0000" stroke-width=".2606" d="M319.769,-131.0193C334.0833,-114.4561 355.0913,-90.1476 371.1908,-71.5189"/>
<polygon fill="#ff0000" stroke="#ff0000" stroke-width=".2606" points="373.8655,-73.7767 377.7562,-63.922 368.5693,-69.1995 373.8655,-73.7767"/>
</g>
</g>
</svg>
