<?xml version="1.0" encoding="utf-8" standalone="no"?>
<!DOCTYPE svg PUBLIC "-//W3C//DTD SVG 1.1//EN"
  "http://www.w3.org/Graphics/SVG/1.1/DTD/svg11.dtd">
<!-- Created with matplotlib (https://matplotlib.org/) -->
<svg height="345.6pt" version="1.1" viewBox="0 0 460.8 345.6" width="460.8pt" xmlns="http://www.w3.org/2000/svg" xmlns:xlink="http://www.w3.org/1999/xlink">
 <defs>
  <style type="text/css">
*{stroke-linecap:butt;stroke-linejoin:round;}
  </style>
 </defs>
 <g id="figure_1">
  <g id="patch_1">
   <path d="M 0 345.6 
L 460.8 345.6 
L 460.8 0 
L 0 0 
z
" style="fill:#ffffff;"/>
  </g>
  <g id="axes_1">
   <g id="patch_2">
    <path d="M 57.6 307.584 
L 414.72 307.584 
L 414.72 41.472 
L 57.6 41.472 
z
" style="fill:#ffffff;"/>
   </g>
   <g id="matplotlib.axis_1">
    <g id="xtick_1">
     <g id="line2d_1">
      <path clip-path="url(#p61e92f8ce6)" d="M 73.832727 307.584 
L 73.832727 41.472 
" style="fill:none;stroke:#b0b0b0;stroke-linecap:square;stroke-width:0.8;"/>
     </g>
     <g id="line2d_2">
      <defs>
       <path d="M 0 0 
L 0 3.5 
" id="m9852af6281" style="stroke:#000000;stroke-width:0.8;"/>
      </defs>
      <g>
       <use style="stroke:#000000;stroke-width:0.8;" x="73.832727" xlink:href="#m9852af6281" y="307.584"/>
      </g>
     </g>
     <g id="text_1">
      <!-- 0 -->
      <defs>
       <path d="M 31.78125 66.40625 
Q 24.171875 66.40625 20.328125 58.90625 
Q 16.5 51.421875 16.5 36.375 
Q 16.5 21.390625 20.328125 13.890625 
Q 24.171875 6.390625 31.78125 6.390625 
Q 39.453125 6.390625 43.28125 13.890625 
Q 47.125 21.390625 47.125 36.375 
Q 47.125 51.421875 43.28125 58.90625 
Q 39.453125 66.40625 31.78125 66.40625 
z
M 31.78125 74.21875 
Q 44.046875 74.21875 50.515625 64.515625 
Q 56.984375 54.828125 56.984375 36.375 
Q 56.984375 17.96875 50.515625 8.265625 
Q 44.046875 -1.421875 31.78125 -1.421875 
Q 19.53125 -1.421875 13.0625 8.265625 
Q 6.59375 17.96875 6.59375 36.375 
Q 6.59375 54.828125 13.0625 64.515625 
Q 19.53125 74.21875 31.78125 74.21875 
z
" id="DejaVuSans-48"/>
      </defs>
      <g transform="translate(70.651477 322.182437)scale(0.1 -0.1)">
       <use xlink:href="#DejaVuSans-48"/>
      </g>
     </g>
    </g>
    <g id="xtick_2">
     <g id="line2d_3">
      <path clip-path="url(#p61e92f8ce6)" d="M 114.516254 307.584 
L 114.516254 41.472 
" style="fill:none;stroke:#b0b0b0;stroke-linecap:square;stroke-width:0.8;"/>
     </g>
     <g id="line2d_4">
      <g>
       <use style="stroke:#000000;stroke-width:0.8;" x="114.516254" xlink:href="#m9852af6281" y="307.584"/>
      </g>
     </g>
     <g id="text_2">
      <!-- 50 -->
      <defs>
       <path d="M 10.796875 72.90625 
L 49.515625 72.90625 
L 49.515625 64.59375 
L 19.828125 64.59375 
L 19.828125 46.734375 
Q 21.96875 47.46875 24.109375 47.828125 
Q 26.265625 48.1875 28.421875 48.1875 
Q 40.625 48.1875 47.75 41.5 
Q 54.890625 34.8125 54.890625 23.390625 
Q 54.890625 11.625 47.5625 5.09375 
Q 40.234375 -1.421875 26.90625 -1.421875 
Q 22.3125 -1.421875 17.546875 -0.640625 
Q 12.796875 0.140625 7.71875 1.703125 
L 7.71875 11.625 
Q 12.109375 9.234375 16.796875 8.0625 
Q 21.484375 6.890625 26.703125 6.890625 
Q 35.15625 6.890625 40.078125 11.328125 
Q 45.015625 15.765625 45.015625 23.390625 
Q 45.015625 31 40.078125 35.4375 
Q 35.15625 39.890625 26.703125 39.890625 
Q 22.75 39.890625 18.8125 39.015625 
Q 14.890625 38.140625 10.796875 36.28125 
z
" id="DejaVuSans-53"/>
      </defs>
      <g transform="translate(108.153754 322.182437)scale(0.1 -0.1)">
       <use xlink:href="#DejaVuSans-53"/>
       <use x="63.623047" xlink:href="#DejaVuSans-48"/>
      </g>
     </g>
    </g>
    <g id="xtick_3">
     <g id="line2d_5">
      <path clip-path="url(#p61e92f8ce6)" d="M 155.199781 307.584 
L 155.199781 41.472 
" style="fill:none;stroke:#b0b0b0;stroke-linecap:square;stroke-width:0.8;"/>
     </g>
     <g id="line2d_6">
      <g>
       <use style="stroke:#000000;stroke-width:0.8;" x="155.199781" xlink:href="#m9852af6281" y="307.584"/>
      </g>
     </g>
     <g id="text_3">
      <!-- 100 -->
      <defs>
       <path d="M 12.40625 8.296875 
L 28.515625 8.296875 
L 28.515625 63.921875 
L 10.984375 60.40625 
L 10.984375 69.390625 
L 28.421875 72.90625 
L 38.28125 72.90625 
L 38.28125 8.296875 
L 54.390625 8.296875 
L 54.390625 0 
L 12.40625 0 
z
" id="DejaVuSans-49"/>
      </defs>
      <g transform="translate(145.656031 322.182437)scale(0.1 -0.1)">
       <use xlink:href="#DejaVuSans-49"/>
       <use x="63.623047" xlink:href="#DejaVuSans-48"/>
       <use x="127.246094" xlink:href="#DejaVuSans-48"/>
      </g>
     </g>
    </g>
    <g id="xtick_4">
     <g id="line2d_7">
      <path clip-path="url(#p61e92f8ce6)" d="M 195.883308 307.584 
L 195.883308 41.472 
" style="fill:none;stroke:#b0b0b0;stroke-linecap:square;stroke-width:0.8;"/>
     </g>
     <g id="line2d_8">
      <g>
       <use style="stroke:#000000;stroke-width:0.8;" x="195.883308" xlink:href="#m9852af6281" y="307.584"/>
      </g>
     </g>
     <g id="text_4">
      <!-- 150 -->
      <g transform="translate(186.339558 322.182437)scale(0.1 -0.1)">
       <use xlink:href="#DejaVuSans-49"/>
       <use x="63.623047" xlink:href="#DejaVuSans-53"/>
       <use x="127.246094" xlink:href="#DejaVuSans-48"/>
      </g>
     </g>
    </g>
    <g id="xtick_5">
     <g id="line2d_9">
      <path clip-path="url(#p61e92f8ce6)" d="M 236.566835 307.584 
L 236.566835 41.472 
" style="fill:none;stroke:#b0b0b0;stroke-linecap:square;stroke-width:0.8;"/>
     </g>
     <g id="line2d_10">
      <g>
       <use style="stroke:#000000;stroke-width:0.8;" x="236.566835" xlink:href="#m9852af6281" y="307.584"/>
      </g>
     </g>
     <g id="text_5">
      <!-- 200 -->
      <defs>
       <path d="M 19.1875 8.296875 
L 53.609375 8.296875 
L 53.609375 0 
L 7.328125 0 
L 7.328125 8.296875 
Q 12.9375 14.109375 22.625 23.890625 
Q 32.328125 33.6875 34.8125 36.53125 
Q 39.546875 41.84375 41.421875 45.53125 
Q 43.3125 49.21875 43.3125 52.78125 
Q 43.3125 58.59375 39.234375 62.25 
Q 35.15625 65.921875 28.609375 65.921875 
Q 23.96875 65.921875 18.8125 64.3125 
Q 13.671875 62.703125 7.8125 59.421875 
L 7.8125 69.390625 
Q 13.765625 71.78125 18.9375 73 
Q 24.125 74.21875 28.421875 74.21875 
Q 39.75 74.21875 46.484375 68.546875 
Q 53.21875 62.890625 53.21875 53.421875 
Q 53.21875 48.921875 51.53125 44.890625 
Q 49.859375 40.875 45.40625 35.40625 
Q 44.1875 33.984375 37.640625 27.21875 
Q 31.109375 20.453125 19.1875 8.296875 
z
" id="DejaVuSans-50"/>
      </defs>
      <g transform="translate(227.023085 322.182437)scale(0.1 -0.1)">
       <use xlink:href="#DejaVuSans-50"/>
       <use x="63.623047" xlink:href="#DejaVuSans-48"/>
       <use x="127.246094" xlink:href="#DejaVuSans-48"/>
      </g>
     </g>
    </g>
    <g id="xtick_6">
     <g id="line2d_11">
      <path clip-path="url(#p61e92f8ce6)" d="M 277.250362 307.584 
L 277.250362 41.472 
" style="fill:none;stroke:#b0b0b0;stroke-linecap:square;stroke-width:0.8;"/>
     </g>
     <g id="line2d_12">
      <g>
       <use style="stroke:#000000;stroke-width:0.8;" x="277.250362" xlink:href="#m9852af6281" y="307.584"/>
      </g>
     </g>
     <g id="text_6">
      <!-- 250 -->
      <g transform="translate(267.706612 322.182437)scale(0.1 -0.1)">
       <use xlink:href="#DejaVuSans-50"/>
       <use x="63.623047" xlink:href="#DejaVuSans-53"/>
       <use x="127.246094" xlink:href="#DejaVuSans-48"/>
      </g>
     </g>
    </g>
    <g id="xtick_7">
     <g id="line2d_13">
      <path clip-path="url(#p61e92f8ce6)" d="M 317.933889 307.584 
L 317.933889 41.472 
" style="fill:none;stroke:#b0b0b0;stroke-linecap:square;stroke-width:0.8;"/>
     </g>
     <g id="line2d_14">
      <g>
       <use style="stroke:#000000;stroke-width:0.8;" x="317.933889" xlink:href="#m9852af6281" y="307.584"/>
      </g>
     </g>
     <g id="text_7">
      <!-- 300 -->
      <defs>
       <path d="M 40.578125 39.3125 
Q 47.65625 37.796875 51.625 33 
Q 55.609375 28.21875 55.609375 21.1875 
Q 55.609375 10.40625 48.1875 4.484375 
Q 40.765625 -1.421875 27.09375 -1.421875 
Q 22.515625 -1.421875 17.65625 -0.515625 
Q 12.796875 0.390625 7.625 2.203125 
L 7.625 11.71875 
Q 11.71875 9.328125 16.59375 8.109375 
Q 21.484375 6.890625 26.8125 6.890625 
Q 36.078125 6.890625 40.9375 10.546875 
Q 45.796875 14.203125 45.796875 21.1875 
Q 45.796875 27.640625 41.28125 31.265625 
Q 36.765625 34.90625 28.71875 34.90625 
L 20.21875 34.90625 
L 20.21875 43.015625 
L 29.109375 43.015625 
Q 36.375 43.015625 40.234375 45.921875 
Q 44.09375 48.828125 44.09375 54.296875 
Q 44.09375 59.90625 40.109375 62.90625 
Q 36.140625 65.921875 28.71875 65.921875 
Q 24.65625 65.921875 20.015625 65.03125 
Q 15.375 64.15625 9.8125 62.3125 
L 9.8125 71.09375 
Q 15.4375 72.65625 20.34375 73.4375 
Q 25.25 74.21875 29.59375 74.21875 
Q 40.828125 74.21875 47.359375 69.109375 
Q 53.90625 64.015625 53.90625 55.328125 
Q 53.90625 49.265625 50.4375 45.09375 
Q 46.96875 40.921875 40.578125 39.3125 
z
" id="DejaVuSans-51"/>
      </defs>
      <g transform="translate(308.390139 322.182437)scale(0.1 -0.1)">
       <use xlink:href="#DejaVuSans-51"/>
       <use x="63.623047" xlink:href="#DejaVuSans-48"/>
       <use x="127.246094" xlink:href="#DejaVuSans-48"/>
      </g>
     </g>
    </g>
    <g id="xtick_8">
     <g id="line2d_15">
      <path clip-path="url(#p61e92f8ce6)" d="M 358.617416 307.584 
L 358.617416 41.472 
" style="fill:none;stroke:#b0b0b0;stroke-linecap:square;stroke-width:0.8;"/>
     </g>
     <g id="line2d_16">
      <g>
       <use style="stroke:#000000;stroke-width:0.8;" x="358.617416" xlink:href="#m9852af6281" y="307.584"/>
      </g>
     </g>
     <g id="text_8">
      <!-- 350 -->
      <g transform="translate(349.073666 322.182437)scale(0.1 -0.1)">
       <use xlink:href="#DejaVuSans-51"/>
       <use x="63.623047" xlink:href="#DejaVuSans-53"/>
       <use x="127.246094" xlink:href="#DejaVuSans-48"/>
      </g>
     </g>
    </g>
    <g id="xtick_9">
     <g id="line2d_17">
      <path clip-path="url(#p61e92f8ce6)" d="M 399.300943 307.584 
L 399.300943 41.472 
" style="fill:none;stroke:#b0b0b0;stroke-linecap:square;stroke-width:0.8;"/>
     </g>
     <g id="line2d_18">
      <g>
       <use style="stroke:#000000;stroke-width:0.8;" x="399.300943" xlink:href="#m9852af6281" y="307.584"/>
      </g>
     </g>
     <g id="text_9">
      <!-- 400 -->
      <defs>
       <path d="M 37.796875 64.3125 
L 12.890625 25.390625 
L 37.796875 25.390625 
z
M 35.203125 72.90625 
L 47.609375 72.90625 
L 47.609375 25.390625 
L 58.015625 25.390625 
L 58.015625 17.1875 
L 47.609375 17.1875 
L 47.609375 0 
L 37.796875 0 
L 37.796875 17.1875 
L 4.890625 17.1875 
L 4.890625 26.703125 
z
" id="DejaVuSans-52"/>
      </defs>
      <g transform="translate(389.757193 322.182437)scale(0.1 -0.1)">
       <use xlink:href="#DejaVuSans-52"/>
       <use x="63.623047" xlink:href="#DejaVuSans-48"/>
       <use x="127.246094" xlink:href="#DejaVuSans-48"/>
      </g>
     </g>
    </g>
    <g id="text_10">
     <!-- Generations -->
     <defs>
      <path d="M 59.515625 10.40625 
L 59.515625 29.984375 
L 43.40625 29.984375 
L 43.40625 38.09375 
L 69.28125 38.09375 
L 69.28125 6.78125 
Q 63.578125 2.734375 56.6875 0.65625 
Q 49.8125 -1.421875 42 -1.421875 
Q 24.90625 -1.421875 15.25 8.5625 
Q 5.609375 18.5625 5.609375 36.375 
Q 5.609375 54.25 15.25 64.234375 
Q 24.90625 74.21875 42 74.21875 
Q 49.125 74.21875 55.546875 72.453125 
Q 61.96875 70.703125 67.390625 67.28125 
L 67.390625 56.78125 
Q 61.921875 61.421875 55.765625 63.765625 
Q 49.609375 66.109375 42.828125 66.109375 
Q 29.4375 66.109375 22.71875 58.640625 
Q 16.015625 51.171875 16.015625 36.375 
Q 16.015625 21.625 22.71875 14.15625 
Q 29.4375 6.6875 42.828125 6.6875 
Q 48.046875 6.6875 52.140625 7.59375 
Q 56.25 8.5 59.515625 10.40625 
z
" id="DejaVuSans-71"/>
      <path d="M 56.203125 29.59375 
L 56.203125 25.203125 
L 14.890625 25.203125 
Q 15.484375 15.921875 20.484375 11.0625 
Q 25.484375 6.203125 34.421875 6.203125 
Q 39.59375 6.203125 44.453125 7.46875 
Q 49.3125 8.734375 54.109375 11.28125 
L 54.109375 2.78125 
Q 49.265625 0.734375 44.1875 -0.34375 
Q 39.109375 -1.421875 33.890625 -1.421875 
Q 20.796875 -1.421875 13.15625 6.1875 
Q 5.515625 13.8125 5.515625 26.8125 
Q 5.515625 40.234375 12.765625 48.109375 
Q 20.015625 56 32.328125 56 
Q 43.359375 56 49.78125 48.890625 
Q 56.203125 41.796875 56.203125 29.59375 
z
M 47.21875 32.234375 
Q 47.125 39.59375 43.09375 43.984375 
Q 39.0625 48.390625 32.421875 48.390625 
Q 24.90625 48.390625 20.390625 44.140625 
Q 15.875 39.890625 15.1875 32.171875 
z
" id="DejaVuSans-101"/>
      <path d="M 54.890625 33.015625 
L 54.890625 0 
L 45.90625 0 
L 45.90625 32.71875 
Q 45.90625 40.484375 42.875 44.328125 
Q 39.84375 48.1875 33.796875 48.1875 
Q 26.515625 48.1875 22.3125 43.546875 
Q 18.109375 38.921875 18.109375 30.90625 
L 18.109375 0 
L 9.078125 0 
L 9.078125 54.6875 
L 18.109375 54.6875 
L 18.109375 46.1875 
Q 21.34375 51.125 25.703125 53.5625 
Q 30.078125 56 35.796875 56 
Q 45.21875 56 50.046875 50.171875 
Q 54.890625 44.34375 54.890625 33.015625 
z
" id="DejaVuSans-110"/>
      <path d="M 41.109375 46.296875 
Q 39.59375 47.171875 37.8125 47.578125 
Q 36.03125 48 33.890625 48 
Q 26.265625 48 22.1875 43.046875 
Q 18.109375 38.09375 18.109375 28.8125 
L 18.109375 0 
L 9.078125 0 
L 9.078125 54.6875 
L 18.109375 54.6875 
L 18.109375 46.1875 
Q 20.953125 51.171875 25.484375 53.578125 
Q 30.03125 56 36.53125 56 
Q 37.453125 56 38.578125 55.875 
Q 39.703125 55.765625 41.0625 55.515625 
z
" id="DejaVuSans-114"/>
      <path d="M 34.28125 27.484375 
Q 23.390625 27.484375 19.1875 25 
Q 14.984375 22.515625 14.984375 16.5 
Q 14.984375 11.71875 18.140625 8.90625 
Q 21.296875 6.109375 26.703125 6.109375 
Q 34.1875 6.109375 38.703125 11.40625 
Q 43.21875 16.703125 43.21875 25.484375 
L 43.21875 27.484375 
z
M 52.203125 31.203125 
L 52.203125 0 
L 43.21875 0 
L 43.21875 8.296875 
Q 40.140625 3.328125 35.546875 0.953125 
Q 30.953125 -1.421875 24.3125 -1.421875 
Q 15.921875 -1.421875 10.953125 3.296875 
Q 6 8.015625 6 15.921875 
Q 6 25.140625 12.171875 29.828125 
Q 18.359375 34.515625 30.609375 34.515625 
L 43.21875 34.515625 
L 43.21875 35.40625 
Q 43.21875 41.609375 39.140625 45 
Q 35.0625 48.390625 27.6875 48.390625 
Q 23 48.390625 18.546875 47.265625 
Q 14.109375 46.140625 10.015625 43.890625 
L 10.015625 52.203125 
Q 14.9375 54.109375 19.578125 55.046875 
Q 24.21875 56 28.609375 56 
Q 40.484375 56 46.34375 49.84375 
Q 52.203125 43.703125 52.203125 31.203125 
z
" id="DejaVuSans-97"/>
      <path d="M 18.3125 70.21875 
L 18.3125 54.6875 
L 36.8125 54.6875 
L 36.8125 47.703125 
L 18.3125 47.703125 
L 18.3125 18.015625 
Q 18.3125 11.328125 20.140625 9.421875 
Q 21.96875 7.515625 27.59375 7.515625 
L 36.8125 7.515625 
L 36.8125 0 
L 27.59375 0 
Q 17.1875 0 13.234375 3.875 
Q 9.28125 7.765625 9.28125 18.015625 
L 9.28125 47.703125 
L 2.6875 47.703125 
L 2.6875 54.6875 
L 9.28125 54.6875 
L 9.28125 70.21875 
z
" id="DejaVuSans-116"/>
      <path d="M 9.421875 54.6875 
L 18.40625 54.6875 
L 18.40625 0 
L 9.421875 0 
z
M 9.421875 75.984375 
L 18.40625 75.984375 
L 18.40625 64.59375 
L 9.421875 64.59375 
z
" id="DejaVuSans-105"/>
      <path d="M 30.609375 48.390625 
Q 23.390625 48.390625 19.1875 42.75 
Q 14.984375 37.109375 14.984375 27.296875 
Q 14.984375 17.484375 19.15625 11.84375 
Q 23.34375 6.203125 30.609375 6.203125 
Q 37.796875 6.203125 41.984375 11.859375 
Q 46.1875 17.53125 46.1875 27.296875 
Q 46.1875 37.015625 41.984375 42.703125 
Q 37.796875 48.390625 30.609375 48.390625 
z
M 30.609375 56 
Q 42.328125 56 49.015625 48.375 
Q 55.71875 40.765625 55.71875 27.296875 
Q 55.71875 13.875 49.015625 6.21875 
Q 42.328125 -1.421875 30.609375 -1.421875 
Q 18.84375 -1.421875 12.171875 6.21875 
Q 5.515625 13.875 5.515625 27.296875 
Q 5.515625 40.765625 12.171875 48.375 
Q 18.84375 56 30.609375 56 
z
" id="DejaVuSans-111"/>
      <path d="M 44.28125 53.078125 
L 44.28125 44.578125 
Q 40.484375 46.53125 36.375 47.5 
Q 32.28125 48.484375 27.875 48.484375 
Q 21.1875 48.484375 17.84375 46.4375 
Q 14.5 44.390625 14.5 40.28125 
Q 14.5 37.15625 16.890625 35.375 
Q 19.28125 33.59375 26.515625 31.984375 
L 29.59375 31.296875 
Q 39.15625 29.25 43.1875 25.515625 
Q 47.21875 21.78125 47.21875 15.09375 
Q 47.21875 7.46875 41.1875 3.015625 
Q 35.15625 -1.421875 24.609375 -1.421875 
Q 20.21875 -1.421875 15.453125 -0.5625 
Q 10.6875 0.296875 5.421875 2 
L 5.421875 11.28125 
Q 10.40625 8.6875 15.234375 7.390625 
Q 20.0625 6.109375 24.8125 6.109375 
Q 31.15625 6.109375 34.5625 8.28125 
Q 37.984375 10.453125 37.984375 14.40625 
Q 37.984375 18.0625 35.515625 20.015625 
Q 33.0625 21.96875 24.703125 23.78125 
L 21.578125 24.515625 
Q 13.234375 26.265625 9.515625 29.90625 
Q 5.8125 33.546875 5.8125 39.890625 
Q 5.8125 47.609375 11.28125 51.796875 
Q 16.75 56 26.8125 56 
Q 31.78125 56 36.171875 55.265625 
Q 40.578125 54.546875 44.28125 53.078125 
z
" id="DejaVuSans-115"/>
     </defs>
     <g transform="translate(205.662344 335.860562)scale(0.1 -0.1)">
      <use xlink:href="#DejaVuSans-71"/>
      <use x="77.490234" xlink:href="#DejaVuSans-101"/>
      <use x="139.013672" xlink:href="#DejaVuSans-110"/>
      <use x="202.392578" xlink:href="#DejaVuSans-101"/>
      <use x="263.916016" xlink:href="#DejaVuSans-114"/>
      <use x="305.029297" xlink:href="#DejaVuSans-97"/>
      <use x="366.308594" xlink:href="#DejaVuSans-116"/>
      <use x="405.517578" xlink:href="#DejaVuSans-105"/>
      <use x="433.300781" xlink:href="#DejaVuSans-111"/>
      <use x="494.482422" xlink:href="#DejaVuSans-110"/>
      <use x="557.861328" xlink:href="#DejaVuSans-115"/>
     </g>
    </g>
   </g>
   <g id="matplotlib.axis_2">
    <g id="ytick_1">
     <g id="line2d_19">
      <path clip-path="url(#p61e92f8ce6)" d="M 57.6 267.096371 
L 414.72 267.096371 
" style="fill:none;stroke:#b0b0b0;stroke-linecap:square;stroke-width:0.8;"/>
     </g>
     <g id="line2d_20">
      <defs>
       <path d="M 0 0 
L -3.5 0 
" id="mb321fc0317" style="stroke:#000000;stroke-width:0.8;"/>
      </defs>
      <g>
       <use style="stroke:#000000;stroke-width:0.8;" x="57.6" xlink:href="#mb321fc0317" y="267.096371"/>
      </g>
     </g>
     <g id="text_11">
      <!-- 0.0 -->
      <defs>
       <path d="M 10.6875 12.40625 
L 21 12.40625 
L 21 0 
L 10.6875 0 
z
" id="DejaVuSans-46"/>
      </defs>
      <g transform="translate(34.696875 270.89559)scale(0.1 -0.1)">
       <use xlink:href="#DejaVuSans-48"/>
       <use x="63.623047" xlink:href="#DejaVuSans-46"/>
       <use x="95.410156" xlink:href="#DejaVuSans-48"/>
      </g>
     </g>
    </g>
    <g id="ytick_2">
     <g id="line2d_21">
      <path clip-path="url(#p61e92f8ce6)" d="M 57.6 210.685963 
L 414.72 210.685963 
" style="fill:none;stroke:#b0b0b0;stroke-linecap:square;stroke-width:0.8;"/>
     </g>
     <g id="line2d_22">
      <g>
       <use style="stroke:#000000;stroke-width:0.8;" x="57.6" xlink:href="#mb321fc0317" y="210.685963"/>
      </g>
     </g>
     <g id="text_12">
      <!-- 0.2 -->
      <g transform="translate(34.696875 214.485181)scale(0.1 -0.1)">
       <use xlink:href="#DejaVuSans-48"/>
       <use x="63.623047" xlink:href="#DejaVuSans-46"/>
       <use x="95.410156" xlink:href="#DejaVuSans-50"/>
      </g>
     </g>
    </g>
    <g id="ytick_3">
     <g id="line2d_23">
      <path clip-path="url(#p61e92f8ce6)" d="M 57.6 154.275554 
L 414.72 154.275554 
" style="fill:none;stroke:#b0b0b0;stroke-linecap:square;stroke-width:0.8;"/>
     </g>
     <g id="line2d_24">
      <g>
       <use style="stroke:#000000;stroke-width:0.8;" x="57.6" xlink:href="#mb321fc0317" y="154.275554"/>
      </g>
     </g>
     <g id="text_13">
      <!-- 0.4 -->
      <g transform="translate(34.696875 158.074773)scale(0.1 -0.1)">
       <use xlink:href="#DejaVuSans-48"/>
       <use x="63.623047" xlink:href="#DejaVuSans-46"/>
       <use x="95.410156" xlink:href="#DejaVuSans-52"/>
      </g>
     </g>
    </g>
    <g id="ytick_4">
     <g id="line2d_25">
      <path clip-path="url(#p61e92f8ce6)" d="M 57.6 97.865146 
L 414.72 97.865146 
" style="fill:none;stroke:#b0b0b0;stroke-linecap:square;stroke-width:0.8;"/>
     </g>
     <g id="line2d_26">
      <g>
       <use style="stroke:#000000;stroke-width:0.8;" x="57.6" xlink:href="#mb321fc0317" y="97.865146"/>
      </g>
     </g>
     <g id="text_14">
      <!-- 0.6 -->
      <defs>
       <path d="M 33.015625 40.375 
Q 26.375 40.375 22.484375 35.828125 
Q 18.609375 31.296875 18.609375 23.390625 
Q 18.609375 15.53125 22.484375 10.953125 
Q 26.375 6.390625 33.015625 6.390625 
Q 39.65625 6.390625 43.53125 10.953125 
Q 47.40625 15.53125 47.40625 23.390625 
Q 47.40625 31.296875 43.53125 35.828125 
Q 39.65625 40.375 33.015625 40.375 
z
M 52.59375 71.296875 
L 52.59375 62.3125 
Q 48.875 64.0625 45.09375 64.984375 
Q 41.3125 65.921875 37.59375 65.921875 
Q 27.828125 65.921875 22.671875 59.328125 
Q 17.53125 52.734375 16.796875 39.40625 
Q 19.671875 43.65625 24.015625 45.921875 
Q 28.375 48.1875 33.59375 48.1875 
Q 44.578125 48.1875 50.953125 41.515625 
Q 57.328125 34.859375 57.328125 23.390625 
Q 57.328125 12.15625 50.6875 5.359375 
Q 44.046875 -1.421875 33.015625 -1.421875 
Q 20.359375 -1.421875 13.671875 8.265625 
Q 6.984375 17.96875 6.984375 36.375 
Q 6.984375 53.65625 15.1875 63.9375 
Q 23.390625 74.21875 37.203125 74.21875 
Q 40.921875 74.21875 44.703125 73.484375 
Q 48.484375 72.75 52.59375 71.296875 
z
" id="DejaVuSans-54"/>
      </defs>
      <g transform="translate(34.696875 101.664365)scale(0.1 -0.1)">
       <use xlink:href="#DejaVuSans-48"/>
       <use x="63.623047" xlink:href="#DejaVuSans-46"/>
       <use x="95.410156" xlink:href="#DejaVuSans-54"/>
      </g>
     </g>
    </g>
    <g id="text_15">
     <!-- Fitness -->
     <defs>
      <path d="M 9.8125 72.90625 
L 51.703125 72.90625 
L 51.703125 64.59375 
L 19.671875 64.59375 
L 19.671875 43.109375 
L 48.578125 43.109375 
L 48.578125 34.8125 
L 19.671875 34.8125 
L 19.671875 0 
L 9.8125 0 
z
" id="DejaVuSans-70"/>
     </defs>
     <g transform="translate(28.617187 192.202219)rotate(-90)scale(0.1 -0.1)">
      <use xlink:href="#DejaVuSans-70"/>
      <use x="57.410156" xlink:href="#DejaVuSans-105"/>
      <use x="85.193359" xlink:href="#DejaVuSans-116"/>
      <use x="124.402344" xlink:href="#DejaVuSans-110"/>
      <use x="187.78125" xlink:href="#DejaVuSans-101"/>
      <use x="249.304688" xlink:href="#DejaVuSans-115"/>
      <use x="301.404297" xlink:href="#DejaVuSans-115"/>
     </g>
    </g>
   </g>
   <g id="line2d_27">
    <path clip-path="url(#p61e92f8ce6)" d="M 73.832727 235.243102 
L 74.646398 225.529765 
L 75.460068 232.021349 
L 76.273739 233.958324 
L 77.087409 236.191367 
L 77.90108 232.712418 
L 78.714751 238.903729 
L 79.528421 238.278027 
L 80.342092 238.300138 
L 81.155762 234.428058 
L 81.969433 229.794871 
L 82.783103 240.316943 
L 83.596774 229.287497 
L 84.410444 232.459811 
L 85.224115 232.881017 
L 86.037785 226.695312 
L 86.851456 227.801776 
L 87.665126 225.460418 
L 88.478797 222.134798 
L 89.292468 231.600102 
L 90.106138 234.22048 
L 90.919809 233.108968 
L 91.733479 228.909315 
L 92.54715 231.199823 
L 93.36082 222.948054 
L 94.174491 223.105665 
L 94.988161 225.887488 
L 95.801832 221.635648 
L 96.615502 222.895774 
L 97.429173 223.723942 
L 98.242843 226.579646 
L 99.056514 224.2283 
L 99.870185 220.242788 
L 100.683855 217.146694 
L 101.497526 224.485773 
L 102.311196 220.003111 
L 103.124867 221.733316 
L 103.938537 219.430284 
L 104.752208 226.077749 
L 105.565878 222.59833 
L 106.379549 224.428954 
L 107.193219 220.45219 
L 108.00689 229.73517 
L 108.82056 230.520613 
L 109.634231 225.384338 
L 110.447902 230.970114 
L 111.261572 227.507818 
L 112.075243 235.573939 
L 112.888913 232.515791 
L 113.702584 228.093835 
L 115.329925 232.825733 
L 116.143595 234.5554 
L 116.957266 235.253716 
L 117.770936 231.925812 
L 118.584607 235.492489 
L 119.398278 235.137922 
L 120.211948 237.254238 
L 121.025619 231.040111 
L 121.839289 234.32662 
L 122.65296 233.761376 
L 123.46663 229.072203 
L 124.280301 233.015988 
L 125.093971 228.826714 
L 125.907642 233.256904 
L 126.721312 234.164711 
L 127.534983 231.661907 
L 128.348653 237.652148 
L 129.162324 236.915347 
L 129.975995 234.227103 
L 130.789665 233.012626 
L 131.603336 232.412678 
L 132.417006 235.6089 
L 133.230677 243.633345 
L 134.044347 235.202321 
L 134.858018 223.223474 
L 136.485359 236.570642 
L 137.299029 238.423962 
L 138.1127 237.890798 
L 138.92637 234.512454 
L 139.740041 232.190869 
L 140.553712 229.523865 
L 141.367382 230.492942 
L 142.181053 238.641853 
L 142.994723 233.423957 
L 143.808394 236.44166 
L 144.622064 235.807027 
L 145.435735 229.462369 
L 146.249405 240.11403 
L 147.063076 225.99113 
L 147.876746 234.681923 
L 148.690417 228.890553 
L 149.504087 231.304174 
L 150.317758 226.496348 
L 151.131429 226.940685 
L 151.945099 226.02151 
L 152.75877 236.120372 
L 153.57244 233.011559 
L 154.386111 228.937708 
L 155.199781 228.850134 
L 156.013452 223.265992 
L 156.827122 226.267658 
L 157.640793 224.49401 
L 158.454463 234.616169 
L 159.268134 229.594917 
L 160.081805 221.368344 
L 160.895475 226.960723 
L 161.709146 227.857323 
L 162.522816 227.306015 
L 163.336487 226.32101 
L 164.150157 219.868897 
L 164.963828 228.293031 
L 165.777498 226.808421 
L 166.591169 219.080001 
L 167.404839 218.731361 
L 168.21851 229.722492 
L 169.03218 222.747315 
L 169.845851 230.473856 
L 170.659522 218.097337 
L 171.473192 220.084605 
L 173.100533 219.69545 
L 174.727874 230.246242 
L 175.541545 213.230516 
L 176.355215 222.688872 
L 177.168886 220.472763 
L 177.982556 213.879169 
L 178.796227 228.057731 
L 179.609897 224.341626 
L 180.423568 217.547348 
L 181.237239 223.461625 
L 182.050909 219.111505 
L 182.86458 226.445282 
L 183.67825 221.018728 
L 184.491921 223.886904 
L 185.305591 222.690186 
L 186.119262 226.945547 
L 187.746603 215.392946 
L 188.560273 216.978384 
L 189.373944 216.576798 
L 190.187614 225.697773 
L 191.001285 222.384825 
L 191.814956 213.543674 
L 192.628626 215.991707 
L 193.442297 227.412329 
L 194.255967 219.106801 
L 196.696979 227.68201 
L 197.510649 220.238016 
L 198.32432 217.452961 
L 199.13799 216.186816 
L 199.951661 217.215931 
L 200.765332 219.587518 
L 201.579002 219.198079 
L 202.392673 224.085702 
L 203.206343 231.633757 
L 204.020014 215.747962 
L 204.833684 222.98672 
L 206.461025 216.197129 
L 207.274696 221.089068 
L 208.088366 216.594209 
L 208.902037 216.970691 
L 209.715707 218.539437 
L 210.529378 222.576683 
L 211.343049 223.323647 
L 212.156719 218.981742 
L 213.78406 222.949254 
L 214.597731 220.949578 
L 215.411401 217.246337 
L 216.225072 222.4803 
L 217.038742 228.57834 
L 217.852413 215.890056 
L 218.666083 213.224057 
L 219.479754 221.737368 
L 220.293424 218.156432 
L 221.107095 211.68498 
L 221.920766 214.223307 
L 222.734436 210.59532 
L 223.548107 209.894696 
L 224.361777 215.587423 
L 225.175448 219.737871 
L 225.989118 223.206638 
L 226.802789 207.485753 
L 227.616459 223.292502 
L 228.43013 214.642751 
L 229.2438 226.940702 
L 230.057471 216.336527 
L 230.871141 214.515197 
L 231.684812 217.984292 
L 232.498483 209.723955 
L 233.312153 224.490071 
L 234.125824 216.875381 
L 234.939494 212.592559 
L 235.753165 216.167527 
L 236.566835 219.039635 
L 237.380506 223.793609 
L 238.194176 215.722077 
L 239.007847 222.670786 
L 239.821517 213.330025 
L 240.635188 215.021985 
L 241.448859 208.112363 
L 242.262529 208.622342 
L 243.0762 219.687044 
L 243.88987 225.884364 
L 244.703541 222.929208 
L 245.517211 223.316306 
L 246.330882 218.256595 
L 247.144552 221.926879 
L 247.958223 217.230139 
L 248.771893 222.226328 
L 249.585564 216.274498 
L 250.399234 208.613922 
L 251.212905 218.74808 
L 252.026576 221.430955 
L 252.840246 214.643108 
L 253.653917 215.516206 
L 254.467587 215.31699 
L 255.281258 226.180074 
L 256.094928 216.474578 
L 256.908599 221.603078 
L 257.722269 218.022903 
L 258.53594 207.443998 
L 259.34961 221.639737 
L 260.163281 215.272404 
L 260.976951 205.0069 
L 261.790622 215.891662 
L 262.604293 219.932114 
L 263.417963 215.720032 
L 264.231634 224.896131 
L 265.045304 222.709896 
L 265.858975 223.851103 
L 266.672645 223.063922 
L 267.486316 203.119038 
L 268.299986 224.133808 
L 269.113657 223.135725 
L 269.927327 228.409992 
L 270.740998 221.275558 
L 271.554668 224.834538 
L 272.368339 216.826092 
L 273.18201 218.073572 
L 273.99568 214.988528 
L 275.623021 222.107042 
L 276.436692 215.668222 
L 277.250362 222.982034 
L 278.064033 244.082382 
L 278.877703 236.992222 
L 279.691374 239.376649 
L 280.505044 236.093394 
L 281.318715 238.221931 
L 282.132386 237.550663 
L 282.946056 231.787887 
L 283.759727 235.922221 
L 284.573397 223.377328 
L 285.387068 234.722156 
L 286.200738 230.027188 
L 287.014409 232.146889 
L 287.828079 237.679213 
L 288.64175 236.683839 
L 289.45542 232.216681 
L 290.269091 235.461134 
L 291.082761 231.36028 
L 291.896432 228.669328 
L 292.710103 230.735063 
L 293.523773 227.023605 
L 294.337444 228.591986 
L 295.151114 227.021286 
L 295.964785 222.4158 
L 296.778455 227.618765 
L 297.592126 225.377864 
L 298.405796 222.778023 
L 299.219467 221.786271 
L 300.033137 229.316209 
L 300.846808 228.556332 
L 301.660478 223.45268 
L 302.474149 219.115733 
L 303.28782 229.728542 
L 304.10149 234.567727 
L 305.728831 231.250082 
L 306.542502 226.287071 
L 307.356172 223.327907 
L 308.169843 222.673768 
L 308.983513 229.578222 
L 309.797184 224.648078 
L 310.610854 207.912184 
L 311.424525 218.677809 
L 312.238195 223.520154 
L 313.051866 217.670256 
L 314.679207 222.013537 
L 315.492878 231.570209 
L 316.306548 229.278023 
L 317.120219 234.597478 
L 317.933889 231.453369 
L 320.374901 223.462411 
L 321.188571 226.22309 
L 322.002242 223.321368 
L 322.815913 216.366531 
L 323.629583 212.326301 
L 324.443254 212.211781 
L 325.256924 223.802614 
L 326.070595 214.547065 
L 327.697936 224.334582 
L 328.511606 220.240611 
L 329.325277 220.779992 
L 330.138947 216.939744 
L 330.952618 218.689358 
L 331.766288 211.331205 
L 332.579959 221.712188 
L 333.39363 218.267408 
L 334.2073 216.393846 
L 335.020971 223.786471 
L 335.834641 227.105587 
L 336.648312 223.057265 
L 337.461982 216.261809 
L 338.275653 205.438071 
L 339.089323 218.750383 
L 339.902994 211.857473 
L 340.716664 216.679459 
L 341.530335 226.203946 
L 342.344005 216.970021 
L 343.157676 218.186068 
L 343.971347 221.316355 
L 344.785017 222.075095 
L 345.598688 217.205065 
L 346.412358 220.563186 
L 347.226029 216.420727 
L 348.039699 217.44561 
L 348.85337 210.776724 
L 349.66704 224.113057 
L 350.480711 222.619112 
L 351.294381 224.170564 
L 352.108052 212.438516 
L 352.921722 215.826792 
L 353.735393 215.953322 
L 354.549064 221.21092 
L 355.362734 213.674323 
L 356.176405 220.454473 
L 356.990075 224.34841 
L 357.803746 220.367681 
L 358.617416 224.353221 
L 359.431087 210.08584 
L 360.244757 220.371256 
L 361.058428 226.523154 
L 361.872098 222.572126 
L 362.685769 217.022385 
L 363.49944 222.648884 
L 364.31311 218.939031 
L 365.126781 222.873625 
L 365.940451 209.741215 
L 366.754122 226.032598 
L 367.567792 224.414763 
L 368.381463 221.53342 
L 369.195133 224.92937 
L 370.008804 222.138728 
L 370.822474 221.57996 
L 371.636145 221.666683 
L 372.449815 223.99332 
L 373.263486 224.433682 
L 374.077157 227.024124 
L 374.890827 224.625523 
L 375.704498 228.212692 
L 376.518168 231.074572 
L 377.331839 222.776026 
L 378.145509 232.090086 
L 378.95918 223.763051 
L 379.77285 228.453538 
L 380.586521 223.953371 
L 381.400191 225.355456 
L 382.213862 222.522337 
L 383.027532 229.613275 
L 383.841203 217.978904 
L 384.654874 219.988809 
L 385.468544 216.810065 
L 386.282215 217.001416 
L 387.095885 229.643935 
L 387.909556 220.365751 
L 388.723226 217.811749 
L 389.536897 217.360355 
L 390.350567 222.419747 
L 391.164238 206.233741 
L 391.977908 208.042985 
L 392.791579 212.07189 
L 393.605249 202.983629 
L 394.41892 215.532889 
L 395.232591 210.681864 
L 396.046261 213.836689 
L 397.673602 210.275731 
L 398.487273 212.806359 
L 398.487273 212.806359 
" style="fill:none;stroke:#0000ff;stroke-linecap:square;stroke-width:1.5;"/>
   </g>
   <g id="line2d_28">
    <path clip-path="url(#p61e92f8ce6)" d="M 73.832727 260.017075 
L 74.646398 251.312754 
L 75.460068 263.532151 
L 77.087409 272.641309 
L 77.90108 270.80588 
L 78.714751 273.489594 
L 79.528421 273.364186 
L 80.342092 275.732638 
L 81.155762 275.213934 
L 81.969433 269.654828 
L 82.783103 275.937572 
L 83.596774 271.940507 
L 84.410444 276.978228 
L 86.037785 273.103795 
L 86.851456 273.104482 
L 87.665126 271.910828 
L 88.478797 269.035309 
L 89.292468 275.829618 
L 90.106138 278.116963 
L 90.919809 277.882766 
L 91.733479 274.479217 
L 92.54715 277.121435 
L 93.36082 270.413209 
L 94.988161 273.898497 
L 95.801832 271.365602 
L 96.615502 271.222984 
L 97.429173 272.779885 
L 98.242843 275.906144 
L 99.056514 273.637173 
L 99.870185 272.579817 
L 100.683855 270.499592 
L 101.497526 274.945714 
L 102.311196 273.36415 
L 103.124867 273.973059 
L 103.938537 270.286459 
L 104.752208 276.407103 
L 105.565878 274.628514 
L 106.379549 277.359694 
L 107.193219 275.941971 
L 108.00689 285.682056 
L 108.82056 288.200735 
L 109.634231 287.120192 
L 110.447902 288.988765 
L 111.261572 287.460748 
L 112.075243 291.030633 
L 112.888913 289.24587 
L 113.702584 287.909309 
L 114.516254 289.51664 
L 115.329925 289.316831 
L 116.143595 289.418261 
L 116.957266 285.629114 
L 117.770936 286.156086 
L 118.584607 288.866809 
L 119.398278 288.018174 
L 120.211948 289.107882 
L 121.025619 289.408275 
L 121.839289 288.830177 
L 122.65296 288.003961 
L 123.46663 287.592539 
L 124.280301 289.014684 
L 125.093971 286.188785 
L 125.907642 286.742302 
L 126.721312 286.65802 
L 127.534983 288.524313 
L 128.348653 285.954389 
L 129.162324 285.700134 
L 129.975995 284.402471 
L 130.789665 284.46431 
L 131.603336 288.304586 
L 132.417006 286.04626 
L 133.230677 288.163022 
L 134.044347 285.468249 
L 134.858018 283.797067 
L 135.671688 288.341518 
L 136.485359 290.595561 
L 137.299029 292.470177 
L 138.1127 289.61853 
L 138.92637 288.723816 
L 139.740041 286.011321 
L 140.553712 285.023917 
L 141.367382 293.083893 
L 142.181053 293.09019 
L 142.994723 293.279135 
L 143.808394 294.308093 
L 144.622064 293.558295 
L 145.435735 291.152345 
L 146.249405 293.828308 
L 147.063076 291.393344 
L 147.876746 294.824616 
L 148.690417 292.800637 
L 149.504087 291.78821 
L 150.317758 291.049119 
L 151.131429 290.072942 
L 151.945099 289.680055 
L 152.75877 291.816652 
L 153.57244 289.67508 
L 154.386111 291.908395 
L 155.199781 292.457184 
L 156.013452 290.508534 
L 156.827122 291.212948 
L 157.640793 291.290965 
L 158.454463 292.893792 
L 159.268134 293.061367 
L 160.081805 288.642088 
L 160.895475 292.646745 
L 163.336487 290.955505 
L 164.150157 289.37908 
L 164.963828 291.867015 
L 165.777498 291.199822 
L 166.591169 288.58283 
L 167.404839 287.939593 
L 168.21851 291.128112 
L 169.03218 290.175687 
L 169.845851 293.558739 
L 170.659522 286.795444 
L 171.473192 288.858445 
L 172.286863 288.64281 
L 173.100533 285.927447 
L 173.914204 290.987361 
L 174.727874 292.467806 
L 175.541545 284.293338 
L 176.355215 290.071164 
L 177.168886 289.036494 
L 177.982556 285.494016 
L 178.796227 291.763004 
L 179.609897 290.360783 
L 180.423568 285.783535 
L 181.237239 291.176191 
L 182.050909 287.211872 
L 182.86458 291.199164 
L 183.67825 287.847356 
L 184.491921 288.935519 
L 185.305591 290.22668 
L 186.119262 291.726602 
L 186.932932 289.601872 
L 187.746603 285.813955 
L 188.560273 286.039316 
L 189.373944 283.539407 
L 190.187614 287.031383 
L 191.001285 287.534306 
L 191.814956 285.196828 
L 192.628626 287.294358 
L 193.442297 292.642877 
L 194.255967 287.195113 
L 195.069638 289.52875 
L 195.883308 289.406343 
L 196.696979 292.179634 
L 197.510649 288.254017 
L 198.32432 287.06085 
L 199.13799 285.277296 
L 200.765332 288.040693 
L 201.579002 287.924821 
L 203.206343 293.440408 
L 204.020014 285.924269 
L 204.833684 290.181309 
L 205.647355 287.012856 
L 206.461025 285.553905 
L 207.274696 288.571466 
L 208.088366 285.895936 
L 208.902037 286.47845 
L 209.715707 286.735253 
L 210.529378 288.850377 
L 211.343049 288.793559 
L 212.156719 288.150085 
L 212.97039 288.654918 
L 213.78406 290.803524 
L 214.597731 288.685288 
L 215.411401 285.317329 
L 217.038742 293.419244 
L 217.852413 285.870147 
L 218.666083 286.131996 
L 219.479754 290.121086 
L 220.293424 288.586019 
L 221.107095 284.522312 
L 221.920766 284.623584 
L 222.734436 282.844414 
L 223.548107 283.857521 
L 224.361777 286.396859 
L 225.175448 289.755705 
L 225.989118 290.325076 
L 226.802789 281.066816 
L 227.616459 286.987608 
L 228.43013 281.691933 
L 229.2438 287.8501 
L 230.057471 287.347584 
L 230.871141 286.403533 
L 231.684812 287.803515 
L 232.498483 282.851337 
L 233.312153 291.87177 
L 234.125824 287.955746 
L 234.939494 284.785967 
L 235.753165 287.301015 
L 236.566835 288.941148 
L 237.380506 291.15286 
L 238.194176 287.198368 
L 239.007847 289.94408 
L 239.821517 286.189749 
L 240.635188 286.180877 
L 241.448859 283.653114 
L 242.262529 282.40396 
L 243.0762 288.149039 
L 243.88987 291.723555 
L 244.703541 290.48395 
L 245.517211 290.035748 
L 246.330882 288.072003 
L 247.144552 290.516901 
L 247.958223 288.385761 
L 248.771893 290.942785 
L 249.585564 287.970557 
L 250.399234 282.580295 
L 251.212905 287.965191 
L 252.026576 290.22984 
L 252.840246 286.353065 
L 253.653917 286.934374 
L 254.467587 287.37873 
L 255.281258 292.920599 
L 256.094928 286.947605 
L 256.908599 290.577136 
L 257.722269 287.934635 
L 258.53594 282.370711 
L 259.34961 290.041917 
L 260.163281 287.040689 
L 260.976951 279.988543 
L 261.790622 287.514562 
L 262.604293 288.980934 
L 263.417963 287.684297 
L 264.231634 291.99366 
L 265.045304 290.472395 
L 265.858975 290.723943 
L 266.672645 289.346491 
L 267.486316 278.520926 
L 268.299986 291.328524 
L 269.113657 289.664491 
L 269.927327 291.971565 
L 270.740998 290.109626 
L 271.554668 292.261834 
L 272.368339 287.563672 
L 273.99568 287.087087 
L 275.623021 290.70796 
L 276.436692 287.228823 
L 277.250362 289.959818 
L 278.064033 291.433178 
L 278.877703 294.01672 
L 279.691374 293.781569 
L 281.318715 294.229952 
L 282.132386 294.090072 
L 282.946056 293.528288 
L 283.759727 295.488 
L 284.573397 290.391217 
L 285.387068 293.223431 
L 287.828079 292.853413 
L 288.64175 291.693078 
L 289.45542 292.217104 
L 290.269091 292.915902 
L 291.082761 292.720576 
L 291.896432 291.403048 
L 292.710103 292.636486 
L 293.523773 292.734177 
L 294.337444 290.645518 
L 295.151114 291.770176 
L 295.964785 289.696309 
L 296.778455 290.938457 
L 298.405796 288.833602 
L 299.219467 288.206855 
L 300.033137 292.396917 
L 300.846808 291.506932 
L 301.660478 291.144831 
L 302.474149 286.701515 
L 303.28782 291.731969 
L 304.10149 293.18211 
L 304.915161 291.282629 
L 305.728831 292.368406 
L 306.542502 290.733979 
L 307.356172 288.719464 
L 308.169843 289.666021 
L 308.983513 292.326015 
L 309.797184 289.776601 
L 310.610854 282.011761 
L 311.424525 288.540558 
L 312.238195 291.173565 
L 313.051866 287.202658 
L 313.865537 287.63856 
L 314.679207 288.969483 
L 315.492878 289.836731 
L 316.306548 291.455834 
L 317.120219 293.345128 
L 317.933889 293.508947 
L 318.74756 291.453161 
L 320.374901 289.781906 
L 321.188571 290.492964 
L 322.002242 290.605037 
L 322.815913 285.801964 
L 324.443254 283.447572 
L 325.256924 291.407507 
L 326.070595 286.256702 
L 326.884265 287.495412 
L 327.697936 290.741397 
L 328.511606 288.081105 
L 329.325277 288.801152 
L 330.138947 286.214466 
L 330.952618 286.771476 
L 331.766288 283.451362 
L 332.579959 289.381648 
L 333.39363 288.460608 
L 334.2073 285.395156 
L 335.020971 289.483138 
L 335.834641 290.208032 
L 336.648312 289.166822 
L 337.461982 287.01904 
L 338.275653 279.737325 
L 339.089323 287.720404 
L 339.902994 283.271912 
L 340.716664 286.002424 
L 341.530335 291.212508 
L 342.344005 286.545735 
L 343.157676 286.682672 
L 343.971347 288.795092 
L 344.785017 290.082516 
L 345.598688 285.267469 
L 346.412358 288.254428 
L 347.226029 286.426136 
L 348.039699 286.522163 
L 348.85337 282.404655 
L 349.66704 289.844446 
L 350.480711 290.845683 
L 351.294381 289.759279 
L 352.108052 283.473286 
L 352.921722 285.852979 
L 354.549064 289.143054 
L 355.362734 285.768087 
L 356.176405 289.181184 
L 356.990075 289.075676 
L 357.803746 288.690857 
L 358.617416 290.606276 
L 359.431087 282.238986 
L 360.244757 288.660301 
L 361.058428 291.513807 
L 361.872098 289.554848 
L 362.685769 286.991637 
L 363.49944 290.629325 
L 364.31311 288.9147 
L 365.126781 288.848314 
L 365.940451 282.849765 
L 366.754122 289.165471 
L 367.567792 290.462636 
L 368.381463 289.659468 
L 369.195133 291.853142 
L 370.008804 289.845507 
L 370.822474 290.345234 
L 371.636145 290.005757 
L 372.449815 290.272689 
L 373.263486 291.039685 
L 374.077157 291.077776 
L 374.890827 291.450427 
L 375.704498 292.903155 
L 376.518168 293.312344 
L 377.331839 289.467358 
L 378.145509 293.355882 
L 378.95918 289.959476 
L 379.77285 293.938453 
L 380.586521 291.173166 
L 381.400191 292.745426 
L 382.213862 290.481851 
L 383.027532 293.151183 
L 383.841203 288.446678 
L 384.654874 289.72931 
L 385.468544 287.559492 
L 386.282215 288.440982 
L 387.095885 293.548808 
L 387.909556 290.074935 
L 388.723226 288.31321 
L 389.536897 286.962311 
L 390.350567 290.520646 
L 391.164238 280.836489 
L 392.791579 285.530226 
L 393.605249 278.725957 
L 394.41892 286.59472 
L 395.232591 284.821233 
L 396.046261 286.104313 
L 396.859932 285.281576 
L 397.673602 283.472694 
L 398.487273 285.332663 
L 398.487273 285.332663 
" style="fill:none;stroke:#008000;stroke-dasharray:9.6,2.4,1.5,2.4;stroke-dashoffset:0;stroke-width:1.5;"/>
   </g>
   <g id="line2d_29">
    <path clip-path="url(#p61e92f8ce6)" d="M 73.832727 210.469128 
L 74.646398 199.746777 
L 75.460068 200.510547 
L 76.273739 199.688042 
L 77.087409 199.741425 
L 77.90108 194.618957 
L 78.714751 204.317865 
L 79.528421 203.191869 
L 80.342092 200.867637 
L 81.155762 193.642182 
L 81.969433 189.934915 
L 82.783103 204.696314 
L 83.596774 186.634487 
L 84.410444 187.941393 
L 85.224115 190.627691 
L 86.037785 180.286828 
L 86.851456 182.499069 
L 88.478797 175.234288 
L 89.292468 187.370587 
L 90.106138 190.323996 
L 90.919809 188.33517 
L 91.733479 183.339412 
L 92.54715 185.278211 
L 93.36082 175.482899 
L 94.174491 174.167262 
L 94.988161 177.876479 
L 95.801832 171.905693 
L 96.615502 174.568564 
L 97.429173 174.667999 
L 98.242843 177.253147 
L 99.056514 174.819428 
L 99.870185 167.905759 
L 100.683855 163.793796 
L 101.497526 174.025832 
L 102.311196 166.642071 
L 103.124867 169.493573 
L 103.938537 168.57411 
L 104.752208 175.748395 
L 105.565878 170.568147 
L 106.379549 171.498213 
L 107.193219 164.962409 
L 108.00689 173.788284 
L 108.82056 172.840492 
L 109.634231 163.648484 
L 110.447902 172.951463 
L 111.261572 167.554888 
L 112.075243 180.117246 
L 112.888913 175.785713 
L 113.702584 168.278361 
L 114.516254 171.64344 
L 115.329925 176.334635 
L 116.143595 179.69254 
L 116.957266 184.878319 
L 117.770936 177.695538 
L 118.584607 182.11817 
L 119.398278 182.25767 
L 120.211948 185.400595 
L 121.025619 172.671947 
L 121.839289 179.823063 
L 122.65296 179.51879 
L 123.46663 170.551867 
L 124.280301 177.017292 
L 125.093971 171.464643 
L 125.907642 179.771507 
L 126.721312 181.671403 
L 127.534983 174.7995 
L 128.348653 189.349907 
L 129.162324 188.13056 
L 129.975995 184.051735 
L 130.789665 181.560942 
L 131.603336 176.52077 
L 132.417006 185.17154 
L 133.230677 199.103668 
L 134.044347 184.936394 
L 134.858018 162.649881 
L 136.485359 182.545722 
L 138.1127 186.163066 
L 138.92637 180.301092 
L 139.740041 178.370417 
L 140.553712 174.023814 
L 141.367382 167.90199 
L 142.181053 184.193517 
L 142.994723 173.568779 
L 143.808394 178.575226 
L 144.622064 178.05576 
L 145.435735 167.772393 
L 146.249405 186.399753 
L 147.063076 160.588916 
L 147.876746 174.539231 
L 148.690417 164.980469 
L 149.504087 170.820138 
L 150.317758 161.943577 
L 151.131429 163.808428 
L 151.945099 162.362965 
L 152.75877 180.424092 
L 153.57244 176.348038 
L 154.386111 165.967022 
L 155.199781 165.243083 
L 156.013452 156.023449 
L 156.827122 161.322367 
L 157.640793 157.697055 
L 158.454463 176.338546 
L 159.268134 166.128467 
L 160.081805 154.0946 
L 160.895475 161.274702 
L 161.709146 163.625333 
L 162.522816 162.956347 
L 163.336487 161.686516 
L 164.150157 150.358715 
L 164.963828 164.719047 
L 165.777498 162.41702 
L 166.591169 149.577171 
L 167.404839 149.523129 
L 168.21851 168.316871 
L 169.03218 155.318942 
L 169.845851 167.388973 
L 170.659522 149.39923 
L 171.473192 151.310765 
L 172.286863 151.230157 
L 173.100533 153.463454 
L 173.914204 158.748234 
L 174.727874 168.024677 
L 175.541545 142.167693 
L 176.355215 155.306581 
L 177.168886 151.909033 
L 177.982556 142.264322 
L 178.796227 164.352459 
L 179.609897 158.322469 
L 180.423568 149.311162 
L 181.237239 155.74706 
L 182.050909 151.011139 
L 182.86458 161.6914 
L 183.67825 154.1901 
L 184.491921 158.83829 
L 185.305591 155.153692 
L 186.119262 162.164492 
L 187.746603 144.971937 
L 188.560273 147.917453 
L 189.373944 149.61419 
L 190.187614 164.364162 
L 191.001285 157.235344 
L 191.814956 141.890521 
L 192.628626 144.689057 
L 193.442297 162.181782 
L 194.255967 151.018489 
L 195.069638 154.553911 
L 195.883308 160.885186 
L 196.696979 163.184385 
L 197.510649 152.222014 
L 198.32432 147.845073 
L 199.13799 147.096335 
L 199.951661 147.874837 
L 200.765332 151.134342 
L 201.579002 150.471337 
L 202.392673 157.541346 
L 203.206343 169.827106 
L 204.020014 145.571656 
L 204.833684 155.792131 
L 205.647355 152.180071 
L 206.461025 146.840353 
L 207.274696 153.60667 
L 208.088366 147.292481 
L 208.902037 147.462931 
L 209.715707 150.343621 
L 210.529378 156.302989 
L 211.343049 157.853734 
L 212.156719 149.8134 
L 212.97039 153.541281 
L 213.78406 155.094984 
L 214.597731 153.213867 
L 215.411401 149.175345 
L 216.225072 155.477647 
L 217.038742 163.737436 
L 217.852413 145.909965 
L 218.666083 140.316118 
L 219.479754 153.35365 
L 220.293424 147.726846 
L 221.107095 138.847649 
L 221.920766 143.823029 
L 222.734436 138.346226 
L 223.548107 135.93187 
L 224.361777 144.777988 
L 225.175448 149.720036 
L 225.989118 156.0882 
L 226.802789 133.904691 
L 227.616459 159.597396 
L 228.43013 147.593569 
L 229.2438 166.031305 
L 230.057471 145.32547 
L 230.871141 142.626861 
L 231.684812 148.16507 
L 232.498483 136.596574 
L 233.312153 157.108372 
L 234.125824 145.795015 
L 234.939494 140.39915 
L 236.566835 149.138123 
L 237.380506 156.434358 
L 238.194176 144.245786 
L 239.007847 155.397492 
L 239.821517 140.470302 
L 240.635188 143.863092 
L 241.448859 132.571612 
L 242.262529 134.840724 
L 243.0762 151.225048 
L 243.88987 160.045172 
L 244.703541 155.374466 
L 245.517211 156.596865 
L 246.330882 148.441188 
L 247.144552 153.336858 
L 247.958223 146.074516 
L 248.771893 153.509872 
L 250.399234 134.647549 
L 251.212905 149.530968 
L 252.026576 152.632069 
L 252.840246 142.933151 
L 253.653917 144.098038 
L 254.467587 143.255251 
L 255.281258 159.43955 
L 256.094928 146.001552 
L 256.908599 152.62902 
L 257.722269 148.111171 
L 258.53594 132.517286 
L 259.34961 153.237558 
L 260.163281 143.50412 
L 260.976951 130.025258 
L 261.790622 144.268763 
L 262.604293 150.883294 
L 263.417963 143.755767 
L 264.231634 157.798601 
L 265.045304 154.947396 
L 265.858975 156.978263 
L 266.672645 156.781352 
L 267.486316 127.71715 
L 268.299986 156.939091 
L 269.113657 156.60696 
L 269.927327 164.848419 
L 270.740998 152.441489 
L 271.554668 157.407241 
L 272.368339 146.088512 
L 273.18201 148.775665 
L 273.99568 142.889969 
L 275.623021 153.506125 
L 276.436692 144.107621 
L 277.250362 156.00425 
L 278.064033 196.731586 
L 278.877703 179.967725 
L 279.691374 184.971728 
L 280.505044 178.189765 
L 281.318715 182.21391 
L 282.132386 181.011255 
L 282.946056 170.047485 
L 283.759727 176.356442 
L 284.573397 156.363438 
L 285.387068 176.220882 
L 286.200738 166.991944 
L 287.014409 171.417769 
L 287.828079 182.505013 
L 288.64175 181.6746 
L 289.45542 172.216259 
L 290.269091 178.006366 
L 291.082761 169.999984 
L 291.896432 165.935607 
L 292.710103 168.83364 
L 293.523773 161.313032 
L 294.337444 166.538454 
L 295.151114 162.272396 
L 295.964785 155.135292 
L 296.778455 164.299073 
L 297.592126 160.928591 
L 298.405796 156.722443 
L 299.219467 155.365687 
L 300.033137 166.235502 
L 300.846808 165.605732 
L 301.660478 155.76053 
L 302.474149 151.529952 
L 303.28782 167.725116 
L 304.10149 175.953343 
L 304.915161 174.520477 
L 305.728831 170.131757 
L 306.542502 161.840162 
L 307.356172 157.93635 
L 308.169843 155.681516 
L 308.983513 166.830428 
L 309.797184 159.519556 
L 310.610854 133.812607 
L 311.424525 148.815061 
L 312.238195 155.866744 
L 313.051866 148.137854 
L 313.865537 152.323579 
L 314.679207 155.05759 
L 315.492878 173.303687 
L 316.306548 167.100212 
L 317.120219 175.849829 
L 317.933889 169.39779 
L 318.74756 166.185732 
L 319.56123 162.413089 
L 320.374901 157.142917 
L 321.188571 161.953216 
L 322.002242 156.037699 
L 322.815913 146.931098 
L 323.629583 140.066959 
L 324.443254 140.975989 
L 325.256924 156.197721 
L 326.070595 142.837428 
L 326.884265 151.179188 
L 327.697936 157.927768 
L 328.511606 152.400117 
L 329.325277 152.758832 
L 330.138947 147.665022 
L 330.952618 150.60724 
L 331.766288 139.211048 
L 332.579959 154.042727 
L 333.39363 148.074207 
L 334.2073 147.392535 
L 335.020971 158.089804 
L 335.834641 164.003143 
L 336.648312 156.947709 
L 337.461982 145.504579 
L 338.275653 131.138817 
L 339.089323 149.780362 
L 339.902994 140.443034 
L 340.716664 147.356494 
L 341.530335 161.195384 
L 342.344005 147.394308 
L 343.157676 149.689463 
L 343.971347 153.837618 
L 344.785017 154.067675 
L 345.598688 149.142662 
L 346.412358 152.871943 
L 347.226029 146.415319 
L 348.039699 148.369056 
L 348.85337 139.148793 
L 349.66704 158.381668 
L 350.480711 154.392542 
L 351.294381 158.581849 
L 352.108052 141.403746 
L 352.921722 145.800606 
L 353.735393 144.354139 
L 354.549064 153.278786 
L 355.362734 141.580559 
L 356.176405 151.727763 
L 356.990075 159.621144 
L 357.803746 152.044506 
L 358.617416 158.100165 
L 359.431087 137.932694 
L 360.244757 152.082212 
L 361.058428 161.5325 
L 361.872098 155.589404 
L 362.685769 147.053134 
L 363.49944 154.668442 
L 364.31311 148.963361 
L 365.126781 156.898935 
L 365.940451 136.632664 
L 366.754122 162.899725 
L 368.381463 153.407371 
L 369.195133 158.005597 
L 370.008804 154.431949 
L 370.822474 152.814686 
L 371.636145 153.32761 
L 372.449815 157.713951 
L 373.263486 157.827678 
L 374.077157 162.970471 
L 374.890827 157.80062 
L 376.518168 168.836801 
L 377.331839 156.084694 
L 378.145509 170.82429 
L 378.95918 157.566626 
L 379.77285 162.968623 
L 380.586521 156.733576 
L 381.400191 157.965486 
L 382.213862 154.562824 
L 383.027532 166.075367 
L 383.841203 147.51113 
L 384.654874 150.248308 
L 385.468544 146.060638 
L 386.282215 145.561851 
L 387.095885 165.739062 
L 387.909556 150.656567 
L 388.723226 147.310288 
L 389.536897 147.758398 
L 390.350567 154.318848 
L 391.164238 131.630994 
L 391.977908 132.993563 
L 392.791579 138.613555 
L 393.605249 127.2413 
L 394.41892 144.471058 
L 395.232591 136.542495 
L 396.046261 141.569065 
L 396.859932 138.997775 
L 397.673602 137.078769 
L 398.487273 140.280056 
L 398.487273 140.280056 
" style="fill:none;stroke:#008000;stroke-dasharray:9.6,2.4,1.5,2.4;stroke-dashoffset:0;stroke-width:1.5;"/>
   </g>
   <g id="line2d_30">
    <path clip-path="url(#p61e92f8ce6)" d="M 73.832727 156.10428 
L 74.646398 150.326977 
L 76.273739 150.326977 
L 77.087409 150.197805 
L 87.665126 150.171566 
L 88.478797 130.401877 
L 94.988161 130.401877 
L 95.801832 108.089444 
L 96.615502 108.089444 
L 97.429173 106.317207 
L 98.242843 105.627976 
L 103.124867 105.627976 
L 103.938537 104.309163 
L 104.752208 104.309163 
L 105.565878 102.867937 
L 107.193219 102.867937 
L 108.00689 99.874537 
L 110.447902 99.874537 
L 111.261572 97.601454 
L 120.211948 97.601454 
L 121.025619 97.279502 
L 121.839289 95.653053 
L 122.65296 95.653053 
L 123.46663 92.518833 
L 125.907642 92.518833 
L 126.721312 90.830526 
L 195.883308 90.830526 
L 196.696979 89.941559 
L 276.436692 89.941559 
L 277.250362 83.21361 
L 300.846808 83.21361 
L 301.660478 76.29561 
L 319.56123 76.29561 
L 320.374901 53.568 
L 398.487273 53.568 
L 398.487273 53.568 
" style="fill:none;stroke:#ff0000;stroke-linecap:square;stroke-width:1.5;"/>
   </g>
   <g id="patch_3">
    <path d="M 57.6 307.584 
L 57.6 41.472 
" style="fill:none;stroke:#000000;stroke-linecap:square;stroke-linejoin:miter;stroke-width:0.8;"/>
   </g>
   <g id="patch_4">
    <path d="M 414.72 307.584 
L 414.72 41.472 
" style="fill:none;stroke:#000000;stroke-linecap:square;stroke-linejoin:miter;stroke-width:0.8;"/>
   </g>
   <g id="patch_5">
    <path d="M 57.6 307.584 
L 414.72 307.584 
" style="fill:none;stroke:#000000;stroke-linecap:square;stroke-linejoin:miter;stroke-width:0.8;"/>
   </g>
   <g id="patch_6">
    <path d="M 57.6 41.472 
L 414.72 41.472 
" style="fill:none;stroke:#000000;stroke-linecap:square;stroke-linejoin:miter;stroke-width:0.8;"/>
   </g>
   <g id="text_16">
    <!-- Population's average and best fitness -->
    <defs>
     <path d="M 19.671875 64.796875 
L 19.671875 37.40625 
L 32.078125 37.40625 
Q 38.96875 37.40625 42.71875 40.96875 
Q 46.484375 44.53125 46.484375 51.125 
Q 46.484375 57.671875 42.71875 61.234375 
Q 38.96875 64.796875 32.078125 64.796875 
z
M 9.8125 72.90625 
L 32.078125 72.90625 
Q 44.34375 72.90625 50.609375 67.359375 
Q 56.890625 61.8125 56.890625 51.125 
Q 56.890625 40.328125 50.609375 34.8125 
Q 44.34375 29.296875 32.078125 29.296875 
L 19.671875 29.296875 
L 19.671875 0 
L 9.8125 0 
z
" id="DejaVuSans-80"/>
     <path d="M 18.109375 8.203125 
L 18.109375 -20.796875 
L 9.078125 -20.796875 
L 9.078125 54.6875 
L 18.109375 54.6875 
L 18.109375 46.390625 
Q 20.953125 51.265625 25.265625 53.625 
Q 29.59375 56 35.59375 56 
Q 45.5625 56 51.78125 48.09375 
Q 58.015625 40.1875 58.015625 27.296875 
Q 58.015625 14.40625 51.78125 6.484375 
Q 45.5625 -1.421875 35.59375 -1.421875 
Q 29.59375 -1.421875 25.265625 0.953125 
Q 20.953125 3.328125 18.109375 8.203125 
z
M 48.6875 27.296875 
Q 48.6875 37.203125 44.609375 42.84375 
Q 40.53125 48.484375 33.40625 48.484375 
Q 26.265625 48.484375 22.1875 42.84375 
Q 18.109375 37.203125 18.109375 27.296875 
Q 18.109375 17.390625 22.1875 11.75 
Q 26.265625 6.109375 33.40625 6.109375 
Q 40.53125 6.109375 44.609375 11.75 
Q 48.6875 17.390625 48.6875 27.296875 
z
" id="DejaVuSans-112"/>
     <path d="M 8.5 21.578125 
L 8.5 54.6875 
L 17.484375 54.6875 
L 17.484375 21.921875 
Q 17.484375 14.15625 20.5 10.265625 
Q 23.53125 6.390625 29.59375 6.390625 
Q 36.859375 6.390625 41.078125 11.03125 
Q 45.3125 15.671875 45.3125 23.6875 
L 45.3125 54.6875 
L 54.296875 54.6875 
L 54.296875 0 
L 45.3125 0 
L 45.3125 8.40625 
Q 42.046875 3.421875 37.71875 1 
Q 33.40625 -1.421875 27.6875 -1.421875 
Q 18.265625 -1.421875 13.375 4.4375 
Q 8.5 10.296875 8.5 21.578125 
z
M 31.109375 56 
z
" id="DejaVuSans-117"/>
     <path d="M 9.421875 75.984375 
L 18.40625 75.984375 
L 18.40625 0 
L 9.421875 0 
z
" id="DejaVuSans-108"/>
     <path d="M 17.921875 72.90625 
L 17.921875 45.796875 
L 9.625 45.796875 
L 9.625 72.90625 
z
" id="DejaVuSans-39"/>
     <path id="DejaVuSans-32"/>
     <path d="M 2.984375 54.6875 
L 12.5 54.6875 
L 29.59375 8.796875 
L 46.6875 54.6875 
L 56.203125 54.6875 
L 35.6875 0 
L 23.484375 0 
z
" id="DejaVuSans-118"/>
     <path d="M 45.40625 27.984375 
Q 45.40625 37.75 41.375 43.109375 
Q 37.359375 48.484375 30.078125 48.484375 
Q 22.859375 48.484375 18.828125 43.109375 
Q 14.796875 37.75 14.796875 27.984375 
Q 14.796875 18.265625 18.828125 12.890625 
Q 22.859375 7.515625 30.078125 7.515625 
Q 37.359375 7.515625 41.375 12.890625 
Q 45.40625 18.265625 45.40625 27.984375 
z
M 54.390625 6.78125 
Q 54.390625 -7.171875 48.1875 -13.984375 
Q 42 -20.796875 29.203125 -20.796875 
Q 24.46875 -20.796875 20.265625 -20.09375 
Q 16.0625 -19.390625 12.109375 -17.921875 
L 12.109375 -9.1875 
Q 16.0625 -11.328125 19.921875 -12.34375 
Q 23.78125 -13.375 27.78125 -13.375 
Q 36.625 -13.375 41.015625 -8.765625 
Q 45.40625 -4.15625 45.40625 5.171875 
L 45.40625 9.625 
Q 42.625 4.78125 38.28125 2.390625 
Q 33.9375 0 27.875 0 
Q 17.828125 0 11.671875 7.65625 
Q 5.515625 15.328125 5.515625 27.984375 
Q 5.515625 40.671875 11.671875 48.328125 
Q 17.828125 56 27.875 56 
Q 33.9375 56 38.28125 53.609375 
Q 42.625 51.21875 45.40625 46.390625 
L 45.40625 54.6875 
L 54.390625 54.6875 
z
" id="DejaVuSans-103"/>
     <path d="M 45.40625 46.390625 
L 45.40625 75.984375 
L 54.390625 75.984375 
L 54.390625 0 
L 45.40625 0 
L 45.40625 8.203125 
Q 42.578125 3.328125 38.25 0.953125 
Q 33.9375 -1.421875 27.875 -1.421875 
Q 17.96875 -1.421875 11.734375 6.484375 
Q 5.515625 14.40625 5.515625 27.296875 
Q 5.515625 40.1875 11.734375 48.09375 
Q 17.96875 56 27.875 56 
Q 33.9375 56 38.25 53.625 
Q 42.578125 51.265625 45.40625 46.390625 
z
M 14.796875 27.296875 
Q 14.796875 17.390625 18.875 11.75 
Q 22.953125 6.109375 30.078125 6.109375 
Q 37.203125 6.109375 41.296875 11.75 
Q 45.40625 17.390625 45.40625 27.296875 
Q 45.40625 37.203125 41.296875 42.84375 
Q 37.203125 48.484375 30.078125 48.484375 
Q 22.953125 48.484375 18.875 42.84375 
Q 14.796875 37.203125 14.796875 27.296875 
z
" id="DejaVuSans-100"/>
     <path d="M 48.6875 27.296875 
Q 48.6875 37.203125 44.609375 42.84375 
Q 40.53125 48.484375 33.40625 48.484375 
Q 26.265625 48.484375 22.1875 42.84375 
Q 18.109375 37.203125 18.109375 27.296875 
Q 18.109375 17.390625 22.1875 11.75 
Q 26.265625 6.109375 33.40625 6.109375 
Q 40.53125 6.109375 44.609375 11.75 
Q 48.6875 17.390625 48.6875 27.296875 
z
M 18.109375 46.390625 
Q 20.953125 51.265625 25.265625 53.625 
Q 29.59375 56 35.59375 56 
Q 45.5625 56 51.78125 48.09375 
Q 58.015625 40.1875 58.015625 27.296875 
Q 58.015625 14.40625 51.78125 6.484375 
Q 45.5625 -1.421875 35.59375 -1.421875 
Q 29.59375 -1.421875 25.265625 0.953125 
Q 20.953125 3.328125 18.109375 8.203125 
L 18.109375 0 
L 9.078125 0 
L 9.078125 75.984375 
L 18.109375 75.984375 
z
" id="DejaVuSans-98"/>
     <path d="M 37.109375 75.984375 
L 37.109375 68.5 
L 28.515625 68.5 
Q 23.6875 68.5 21.796875 66.546875 
Q 19.921875 64.59375 19.921875 59.515625 
L 19.921875 54.6875 
L 34.71875 54.6875 
L 34.71875 47.703125 
L 19.921875 47.703125 
L 19.921875 0 
L 10.890625 0 
L 10.890625 47.703125 
L 2.296875 47.703125 
L 2.296875 54.6875 
L 10.890625 54.6875 
L 10.890625 58.5 
Q 10.890625 67.625 15.140625 71.796875 
Q 19.390625 75.984375 28.609375 75.984375 
z
" id="DejaVuSans-102"/>
    </defs>
    <g transform="translate(123.315 35.472)scale(0.12 -0.12)">
     <use xlink:href="#DejaVuSans-80"/>
     <use x="60.255859" xlink:href="#DejaVuSans-111"/>
     <use x="121.4375" xlink:href="#DejaVuSans-112"/>
     <use x="184.914062" xlink:href="#DejaVuSans-117"/>
     <use x="248.292969" xlink:href="#DejaVuSans-108"/>
     <use x="276.076172" xlink:href="#DejaVuSans-97"/>
     <use x="337.355469" xlink:href="#DejaVuSans-116"/>
     <use x="376.564453" xlink:href="#DejaVuSans-105"/>
     <use x="404.347656" xlink:href="#DejaVuSans-111"/>
     <use x="465.529297" xlink:href="#DejaVuSans-110"/>
     <use x="528.908203" xlink:href="#DejaVuSans-39"/>
     <use x="556.398438" xlink:href="#DejaVuSans-115"/>
     <use x="608.498047" xlink:href="#DejaVuSans-32"/>
     <use x="640.285156" xlink:href="#DejaVuSans-97"/>
     <use x="701.564453" xlink:href="#DejaVuSans-118"/>
     <use x="760.744141" xlink:href="#DejaVuSans-101"/>
     <use x="822.267578" xlink:href="#DejaVuSans-114"/>
     <use x="863.380859" xlink:href="#DejaVuSans-97"/>
     <use x="924.660156" xlink:href="#DejaVuSans-103"/>
     <use x="988.136719" xlink:href="#DejaVuSans-101"/>
     <use x="1049.660156" xlink:href="#DejaVuSans-32"/>
     <use x="1081.447266" xlink:href="#DejaVuSans-97"/>
     <use x="1142.726562" xlink:href="#DejaVuSans-110"/>
     <use x="1206.105469" xlink:href="#DejaVuSans-100"/>
     <use x="1269.582031" xlink:href="#DejaVuSans-32"/>
     <use x="1301.369141" xlink:href="#DejaVuSans-98"/>
     <use x="1364.845703" xlink:href="#DejaVuSans-101"/>
     <use x="1426.369141" xlink:href="#DejaVuSans-115"/>
     <use x="1478.46875" xlink:href="#DejaVuSans-116"/>
     <use x="1517.677734" xlink:href="#DejaVuSans-32"/>
     <use x="1549.464844" xlink:href="#DejaVuSans-102"/>
     <use x="1584.669922" xlink:href="#DejaVuSans-105"/>
     <use x="1612.453125" xlink:href="#DejaVuSans-116"/>
     <use x="1651.662109" xlink:href="#DejaVuSans-110"/>
     <use x="1715.041016" xlink:href="#DejaVuSans-101"/>
     <use x="1776.564453" xlink:href="#DejaVuSans-115"/>
     <use x="1828.664062" xlink:href="#DejaVuSans-115"/>
    </g>
   </g>
   <g id="legend_1">
    <g id="patch_7">
     <path d="M 64.6 108.1845 
L 137.540625 108.1845 
Q 139.540625 108.1845 139.540625 106.1845 
L 139.540625 48.472 
Q 139.540625 46.472 137.540625 46.472 
L 64.6 46.472 
Q 62.6 46.472 62.6 48.472 
L 62.6 106.1845 
Q 62.6 108.1845 64.6 108.1845 
z
" style="fill:#ffffff;opacity:0.8;stroke:#cccccc;stroke-linejoin:miter;"/>
    </g>
    <g id="line2d_31">
     <path d="M 66.6 54.570438 
L 86.6 54.570438 
" style="fill:none;stroke:#0000ff;stroke-linecap:square;stroke-width:1.5;"/>
    </g>
    <g id="line2d_32"/>
    <g id="text_17">
     <!-- average -->
     <g transform="translate(94.6 58.070438)scale(0.1 -0.1)">
      <use xlink:href="#DejaVuSans-97"/>
      <use x="61.279297" xlink:href="#DejaVuSans-118"/>
      <use x="120.458984" xlink:href="#DejaVuSans-101"/>
      <use x="181.982422" xlink:href="#DejaVuSans-114"/>
      <use x="223.095703" xlink:href="#DejaVuSans-97"/>
      <use x="284.375" xlink:href="#DejaVuSans-103"/>
      <use x="347.851562" xlink:href="#DejaVuSans-101"/>
     </g>
    </g>
    <g id="line2d_33">
     <path d="M 66.6 69.248563 
L 86.6 69.248563 
" style="fill:none;stroke:#008000;stroke-dasharray:9.6,2.4,1.5,2.4;stroke-dashoffset:0;stroke-width:1.5;"/>
    </g>
    <g id="line2d_34"/>
    <g id="text_18">
     <!-- -1 sd -->
     <defs>
      <path d="M 4.890625 31.390625 
L 31.203125 31.390625 
L 31.203125 23.390625 
L 4.890625 23.390625 
z
" id="DejaVuSans-45"/>
     </defs>
     <g transform="translate(94.6 72.748563)scale(0.1 -0.1)">
      <use xlink:href="#DejaVuSans-45"/>
      <use x="36.083984" xlink:href="#DejaVuSans-49"/>
      <use x="99.707031" xlink:href="#DejaVuSans-32"/>
      <use x="131.494141" xlink:href="#DejaVuSans-115"/>
      <use x="183.59375" xlink:href="#DejaVuSans-100"/>
     </g>
    </g>
    <g id="line2d_35">
     <path d="M 66.6 83.926688 
L 86.6 83.926688 
" style="fill:none;stroke:#008000;stroke-dasharray:9.6,2.4,1.5,2.4;stroke-dashoffset:0;stroke-width:1.5;"/>
    </g>
    <g id="line2d_36"/>
    <g id="text_19">
     <!-- +1 sd -->
     <defs>
      <path d="M 46 62.703125 
L 46 35.5 
L 73.1875 35.5 
L 73.1875 27.203125 
L 46 27.203125 
L 46 0 
L 37.796875 0 
L 37.796875 27.203125 
L 10.59375 27.203125 
L 10.59375 35.5 
L 37.796875 35.5 
L 37.796875 62.703125 
z
" id="DejaVuSans-43"/>
     </defs>
     <g transform="translate(94.6 87.426688)scale(0.1 -0.1)">
      <use xlink:href="#DejaVuSans-43"/>
      <use x="83.789062" xlink:href="#DejaVuSans-49"/>
      <use x="147.412109" xlink:href="#DejaVuSans-32"/>
      <use x="179.199219" xlink:href="#DejaVuSans-115"/>
      <use x="231.298828" xlink:href="#DejaVuSans-100"/>
     </g>
    </g>
    <g id="line2d_37">
     <path d="M 66.6 98.604813 
L 86.6 98.604813 
" style="fill:none;stroke:#ff0000;stroke-linecap:square;stroke-width:1.5;"/>
    </g>
    <g id="line2d_38"/>
    <g id="text_20">
     <!-- best -->
     <g transform="translate(94.6 102.104813)scale(0.1 -0.1)">
      <use xlink:href="#DejaVuSans-98"/>
      <use x="63.476562" xlink:href="#DejaVuSans-101"/>
      <use x="125" xlink:href="#DejaVuSans-115"/>
      <use x="177.099609" xlink:href="#DejaVuSans-116"/>
     </g>
    </g>
   </g>
  </g>
 </g>
 <defs>
  <clipPath id="p61e92f8ce6">
   <rect height="266.112" width="357.12" x="57.6" y="41.472"/>
  </clipPath>
 </defs>
</svg>
