<?xml version="1.0" encoding="UTF-8" standalone="no"?>
<!DOCTYPE svg PUBLIC "-//W3C//DTD SVG 1.1//EN"
 "http://www.w3.org/Graphics/SVG/1.1/DTD/svg11.dtd">
<!-- Generated by graphviz version 2.40.1 (20161225.0304)
 -->
<!-- Title: %3 Pages: 1 -->
<svg width="622pt" height="151pt"
 viewBox="0.00 0.00 621.50 151.10" xmlns="http://www.w3.org/2000/svg" xmlns:xlink="http://www.w3.org/1999/xlink">
<g id="graph0" class="graph" transform="scale(1 1) rotate(0) translate(4 147.0955)">
<title>%3</title>
<polygon fill="#ffffff" stroke="transparent" points="-4,4 -4,-147.0955 617.5,-147.0955 617.5,4 -4,4"/>
<!-- RF_R -->
<g id="node1" class="node">
<title>RF_R</title>
<polygon fill="#d3d3d3" stroke="#000000" points="41,-143.0955 0,-143.0955 0,-125.0955 41,-125.0955 41,-143.0955"/>
<text text-anchor="middle" x="20.5" y="-131.8955" font-family="Times,serif" font-size="9.00" fill="#000000">RF_R</text>
</g>
<!-- RF_FR -->
<g id="node2" class="node">
<title>RF_FR</title>
<polygon fill="#d3d3d3" stroke="#000000" points="106,-143.0955 59,-143.0955 59,-125.0955 106,-125.0955 106,-143.0955"/>
<text text-anchor="middle" x="82.5" y="-131.8955" font-family="Times,serif" font-size="9.00" fill="#000000">RF_FR</text>
</g>
<!-- VEL -->
<g id="node12" class="node">
<title>VEL</title>
<ellipse fill="#add8e6" stroke="#000000" cx="174.5" cy="-44.5477" rx="25.4118" ry="25.4118"/>
<text text-anchor="middle" x="174.5" y="-42.3477" font-family="Times,serif" font-size="9.00" fill="#000000">VEL</text>
</g>
<!-- RF_FR&#45;&gt;VEL -->
<g id="edge10" class="edge">
<title>RF_FR&#45;&gt;VEL</title>
<path fill="none" stroke="#ff0000" stroke-width=".1595" d="M91.9991,-124.8496C105.2929,-111.9101 129.9378,-87.9221 148.8426,-69.5212"/>
<polygon fill="#ff0000" stroke="#ff0000" stroke-width=".1595" points="151.3029,-72.0107 156.0276,-62.5277 146.4204,-66.9946 151.3029,-72.0107"/>
</g>
<!-- RF_F -->
<g id="node3" class="node">
<title>RF_F</title>
<polygon fill="#d3d3d3" stroke="#000000" points="348.5,-143.0955 308.5,-143.0955 308.5,-125.0955 348.5,-125.0955 348.5,-143.0955"/>
<text text-anchor="middle" x="328.5" y="-131.8955" font-family="Times,serif" font-size="9.00" fill="#000000">RF_F</text>
</g>
<!-- ANG_VEL -->
<g id="node11" class="node">
<title>ANG_VEL</title>
<ellipse fill="#add8e6" stroke="#000000" cx="328.5" cy="-44.5477" rx="44.5955" ry="44.5955"/>
<text text-anchor="middle" x="328.5" y="-42.3477" font-family="Times,serif" font-size="9.00" fill="#000000">ANG_VEL</text>
</g>
<!-- RF_F&#45;&gt;ANG_VEL -->
<g id="edge8" class="edge">
<title>RF_F&#45;&gt;ANG_VEL</title>
<path fill="none" stroke="#00ff00" stroke-width=".1348" d="M328.5,-124.8496C328.5,-118.4148 328.5,-109.2475 328.5,-99.3939"/>
<polygon fill="#00ff00" stroke="#00ff00" stroke-width=".1348" points="332.0001,-99.3871 328.5,-89.3872 325.0001,-99.3872 332.0001,-99.3871"/>
</g>
<!-- RF_FL -->
<g id="node4" class="node">
<title>RF_FL</title>
<polygon fill="#d3d3d3" stroke="#000000" points="412.5,-143.0955 366.5,-143.0955 366.5,-125.0955 412.5,-125.0955 412.5,-143.0955"/>
<text text-anchor="middle" x="389.5" y="-131.8955" font-family="Times,serif" font-size="9.00" fill="#000000">RF_FL</text>
</g>
<!-- RF_FL&#45;&gt;ANG_VEL -->
<g id="edge4" class="edge">
<title>RF_FL&#45;&gt;ANG_VEL</title>
<path fill="none" stroke="#ff0000" stroke-width=".632" d="M383.2017,-124.8496C377.4038,-116.3382 368.3494,-103.0465 359.2638,-89.7089"/>
<polygon fill="#ff0000" stroke="#ff0000" stroke-width=".632" points="362.1541,-87.7349 353.6315,-81.4407 356.3688,-91.6759 362.1541,-87.7349"/>
</g>
<!-- RF_L -->
<g id="node5" class="node">
<title>RF_L</title>
<polygon fill="#d3d3d3" stroke="#000000" points="164.5,-143.0955 124.5,-143.0955 124.5,-125.0955 164.5,-125.0955 164.5,-143.0955"/>
<text text-anchor="middle" x="144.5" y="-131.8955" font-family="Times,serif" font-size="9.00" fill="#000000">RF_L</text>
</g>
<!-- RF_L&#45;&gt;ANG_VEL -->
<g id="edge2" class="edge">
<title>RF_L&#45;&gt;ANG_VEL</title>
<path fill="none" stroke="#ff0000" stroke-width="1.5949" d="M163.1555,-125.0163C190.0235,-111.9404 240.5746,-87.3386 278.7393,-68.7649"/>
<polygon fill="#ff0000" stroke="#ff0000" stroke-width="1.5949" points="280.6932,-71.7065 288.1533,-64.1834 277.63,-65.4123 280.6932,-71.7065"/>
</g>
<!-- RF_L&#45;&gt;VEL -->
<g id="edge11" class="edge">
<title>RF_L&#45;&gt;VEL</title>
<path fill="none" stroke="#00ff00" stroke-width=".4065" d="M147.5975,-124.8496C151.2176,-114.0439 157.419,-95.5331 162.956,-79.0056"/>
<polygon fill="#00ff00" stroke="#00ff00" stroke-width=".4065" points="166.4307,-79.6516 166.2887,-69.0577 159.7933,-77.4279 166.4307,-79.6516"/>
</g>
<!-- RF_B -->
<g id="node6" class="node">
<title>RF_B</title>
<polygon fill="#d3d3d3" stroke="#000000" points="224,-143.0955 183,-143.0955 183,-125.0955 224,-125.0955 224,-143.0955"/>
<text text-anchor="middle" x="203.5" y="-131.8955" font-family="Times,serif" font-size="9.00" fill="#000000">RF_B</text>
</g>
<!-- RF_B&#45;&gt;ANG_VEL -->
<g id="edge3" class="edge">
<title>RF_B&#45;&gt;ANG_VEL</title>
<path fill="none" stroke="#00ff00" stroke-width=".8416" d="M216.4064,-124.8496C232.2532,-113.4972 259.9715,-93.6403 283.879,-76.5134"/>
<polygon fill="#00ff00" stroke="#00ff00" stroke-width=".8416" points="286.0597,-79.2567 292.1507,-70.5877 281.9831,-73.5662 286.0597,-79.2567"/>
</g>
<!-- RF_B&#45;&gt;VEL -->
<g id="edge5" class="edge">
<title>RF_B&#45;&gt;VEL</title>
<path fill="none" stroke="#ff0000" stroke-width=".3668" d="M200.5057,-124.8496C197.0063,-114.0439 191.0116,-95.5331 185.6592,-79.0056"/>
<polygon fill="#ff0000" stroke="#ff0000" stroke-width=".3668" points="188.8483,-77.4929 182.4376,-69.0577 182.1888,-79.6497 188.8483,-77.4929"/>
</g>
<!-- RAD_F -->
<g id="node7" class="node">
<title>RAD_F</title>
<polygon fill="#d3d3d3" stroke="#000000" points="290.5,-143.0955 242.5,-143.0955 242.5,-125.0955 290.5,-125.0955 290.5,-143.0955"/>
<text text-anchor="middle" x="266.5" y="-131.8955" font-family="Times,serif" font-size="9.00" fill="#000000">RAD_F</text>
</g>
<!-- RAD_F&#45;&gt;ANG_VEL -->
<g id="edge1" class="edge">
<title>RAD_F&#45;&gt;ANG_VEL</title>
<path fill="none" stroke="#00ff00" stroke-width=".1309" d="M272.9016,-124.8496C278.7945,-116.3382 287.9973,-103.0465 297.2319,-89.7089"/>
<polygon fill="#00ff00" stroke="#00ff00" stroke-width=".1309" points="300.1416,-91.6548 302.9565,-81.4407 294.3864,-87.6701 300.1416,-91.6548"/>
</g>
<!-- RAD_F&#45;&gt;VEL -->
<g id="edge7" class="edge">
<title>RAD_F&#45;&gt;VEL</title>
<path fill="none" stroke="#ff0000" stroke-width=".2547" d="M257.0009,-124.8496C243.7071,-111.9101 219.0622,-87.9221 200.1574,-69.5212"/>
<polygon fill="#ff0000" stroke="#ff0000" stroke-width=".2547" points="202.5796,-66.9946 192.9724,-62.5277 197.6971,-72.0107 202.5796,-66.9946"/>
</g>
<!-- RAD_L -->
<g id="node8" class="node">
<title>RAD_L</title>
<polygon fill="#d3d3d3" stroke="#000000" points="613.5,-143.0955 565.5,-143.0955 565.5,-125.0955 613.5,-125.0955 613.5,-143.0955"/>
<text text-anchor="middle" x="589.5" y="-131.8955" font-family="Times,serif" font-size="9.00" fill="#000000">RAD_L</text>
</g>
<!-- RAD_B -->
<g id="node9" class="node">
<title>RAD_B</title>
<polygon fill="#d3d3d3" stroke="#000000" points="480,-143.0955 431,-143.0955 431,-125.0955 480,-125.0955 480,-143.0955"/>
<text text-anchor="middle" x="455.5" y="-131.8955" font-family="Times,serif" font-size="9.00" fill="#000000">RAD_B</text>
</g>
<!-- RAD_B&#45;&gt;ANG_VEL -->
<g id="edge6" class="edge">
<title>RAD_B&#45;&gt;ANG_VEL</title>
<path fill="none" stroke="#00ff00" stroke-width=".1792" stroke-dasharray="1,5" d="M442.3871,-124.8496C426.2301,-113.4572 397.9265,-93.5003 373.5785,-76.3326"/>
<polygon fill="#00ff00" stroke="#00ff00" stroke-width=".1792" points="375.3474,-73.2973 365.1578,-70.3951 371.3136,-79.0182 375.3474,-73.2973"/>
</g>
<!-- RAD_R -->
<g id="node10" class="node">
<title>RAD_R</title>
<polygon fill="#d3d3d3" stroke="#000000" points="547,-143.0955 498,-143.0955 498,-125.0955 547,-125.0955 547,-143.0955"/>
<text text-anchor="middle" x="522.5" y="-131.8955" font-family="Times,serif" font-size="9.00" fill="#000000">RAD_R</text>
</g>
<!-- RAD_R&#45;&gt;ANG_VEL -->
<g id="edge9" class="edge">
<title>RAD_R&#45;&gt;ANG_VEL</title>
<path fill="none" stroke="#ff0000" stroke-width=".1117" d="M502.8306,-125.0163C473.8755,-111.6511 418.8327,-86.2441 378.3133,-67.5409"/>
<polygon fill="#ff0000" stroke="#ff0000" stroke-width=".1117" points="379.6744,-64.3143 369.1281,-63.3011 376.7407,-70.6699 379.6744,-64.3143"/>
</g>
</g>
</svg>
