<?xml version="1.0" encoding="UTF-8" standalone="no"?>
<!DOCTYPE svg PUBLIC "-//W3C//DTD SVG 1.1//EN"
 "http://www.w3.org/Graphics/SVG/1.1/DTD/svg11.dtd">
<!-- Generated by graphviz version 2.40.1 (20161225.0304)
 -->
<!-- Title: %3 Pages: 1 -->
<svg width="563pt" height="238pt"
 viewBox="0.00 0.00 562.50 238.01" xmlns="http://www.w3.org/2000/svg" xmlns:xlink="http://www.w3.org/1999/xlink">
<g id="graph0" class="graph" transform="scale(1 1) rotate(0) translate(4 234.0071)">
<title>%3</title>
<polygon fill="#ffffff" stroke="transparent" points="-4,4 -4,-234.0071 558.5,-234.0071 558.5,4 -4,4"/>
<!-- RF_R -->
<g id="node1" class="node">
<title>RF_R</title>
<polygon fill="#d3d3d3" stroke="#000000" points="295,-230.0071 254,-230.0071 254,-212.0071 295,-212.0071 295,-230.0071"/>
<text text-anchor="middle" x="274.5" y="-218.8071" font-family="Times,serif" font-size="9.00" fill="#000000">RF_R</text>
</g>
<!-- ANG_VEL -->
<g id="node11" class="node">
<title>ANG_VEL</title>
<ellipse fill="#add8e6" stroke="#000000" cx="197.5" cy="-44.5477" rx="44.5955" ry="44.5955"/>
<text text-anchor="middle" x="197.5" y="-42.3477" font-family="Times,serif" font-size="9.00" fill="#000000">ANG_VEL</text>
</g>
<!-- RF_R&#45;&gt;ANG_VEL -->
<g id="edge8" class="edge">
<title>RF_R&#45;&gt;ANG_VEL</title>
<path fill="none" stroke="#ff0000" stroke-width=".3894" d="M272.3488,-211.767C268.1384,-194.3685 258.0267,-155.7409 244.5,-125.0955 239.4945,-113.7552 233.2791,-101.9935 227.0252,-91.0768"/>
<polygon fill="#ff0000" stroke="#ff0000" stroke-width=".3894" points="229.8618,-88.9944 221.7887,-82.1333 223.8211,-92.5314 229.8618,-88.9944"/>
</g>
<!-- 2 -->
<g id="node13" class="node">
<title>2</title>
<ellipse fill="#ffffff" stroke="#000000" cx="219.5" cy="-150.5513" rx="16.0303" ry="16.0303"/>
<text text-anchor="middle" x="219.5" y="-148.3513" font-family="Times,serif" font-size="9.00" fill="#000000">2</text>
</g>
<!-- RF_R&#45;&gt;2 -->
<g id="edge12" class="edge">
<title>RF_R&#45;&gt;2</title>
<path fill="none" stroke="#00ff00" stroke-width=".6726" d="M267.3097,-211.7963C259.4274,-201.6989 246.5153,-185.1583 236.0955,-171.8104"/>
<polygon fill="#00ff00" stroke="#00ff00" stroke-width=".6726" points="238.5984,-169.3287 229.6861,-163.5998 233.0806,-173.6361 238.5984,-169.3287"/>
</g>
<!-- RF_FR -->
<g id="node2" class="node">
<title>RF_FR</title>
<polygon fill="#d3d3d3" stroke="#000000" points="47,-230.0071 0,-230.0071 0,-212.0071 47,-212.0071 47,-230.0071"/>
<text text-anchor="middle" x="23.5" y="-218.8071" font-family="Times,serif" font-size="9.00" fill="#000000">RF_FR</text>
</g>
<!-- RF_FR&#45;&gt;ANG_VEL -->
<g id="edge6" class="edge">
<title>RF_FR&#45;&gt;ANG_VEL</title>
<path fill="none" stroke="#00ff00" stroke-width=".3642" d="M29.5137,-212.0065C41.5202,-194.356 69.7851,-154.3711 98.5,-125.0955 115.1841,-108.0855 135.3194,-91.1538 153.0628,-77.2359"/>
<polygon fill="#00ff00" stroke="#00ff00" stroke-width=".3642" points="155.2663,-79.9563 161.0259,-71.0637 150.9779,-74.4236 155.2663,-79.9563"/>
</g>
<!-- RF_FR&#45;&gt;2 -->
<g id="edge9" class="edge">
<title>RF_FR&#45;&gt;2</title>
<path fill="none" stroke="#00ff00" stroke-width=".2691" d="M47.1892,-213.4493C73.9011,-204.8213 118.5605,-190.0771 156.5,-176.0071 169.2464,-171.2801 183.2837,-165.6504 194.8666,-160.8886"/>
<polygon fill="#00ff00" stroke="#00ff00" stroke-width=".2691" points="196.4209,-164.0332 204.3196,-156.972 193.7414,-157.5663 196.4209,-164.0332"/>
</g>
<!-- RF_F -->
<g id="node3" class="node">
<title>RF_F</title>
<polygon fill="#d3d3d3" stroke="#000000" points="235.5,-230.0071 195.5,-230.0071 195.5,-212.0071 235.5,-212.0071 235.5,-230.0071"/>
<text text-anchor="middle" x="215.5" y="-218.8071" font-family="Times,serif" font-size="9.00" fill="#000000">RF_F</text>
</g>
<!-- RF_F&#45;&gt;2 -->
<g id="edge18" class="edge">
<title>RF_F&#45;&gt;2</title>
<path fill="none" stroke="#00ff00" stroke-width=".3729" d="M216.0229,-211.7963C216.5208,-203.026 217.2947,-189.3948 217.9861,-177.2169"/>
<polygon fill="#00ff00" stroke="#00ff00" stroke-width=".3729" points="221.4909,-177.2302 218.5634,-167.0478 214.5022,-176.8333 221.4909,-177.2302"/>
</g>
<!-- RF_FL -->
<g id="node4" class="node">
<title>RF_FL</title>
<polygon fill="#d3d3d3" stroke="#000000" points="177.5,-230.0071 131.5,-230.0071 131.5,-212.0071 177.5,-212.0071 177.5,-230.0071"/>
<text text-anchor="middle" x="154.5" y="-218.8071" font-family="Times,serif" font-size="9.00" fill="#000000">RF_FL</text>
</g>
<!-- RF_FL&#45;&gt;2 -->
<g id="edge4" class="edge">
<title>RF_FL&#45;&gt;2</title>
<path fill="none" stroke="#ff0000" stroke-width=".1092" d="M162.9976,-211.7963C172.6631,-201.3195 188.728,-183.9062 201.2623,-170.3198"/>
<polygon fill="#ff0000" stroke="#ff0000" stroke-width=".1092" points="203.951,-172.5671 208.1593,-162.8439 198.806,-167.8206 203.951,-172.5671"/>
</g>
<!-- RF_L -->
<g id="node5" class="node">
<title>RF_L</title>
<polygon fill="#d3d3d3" stroke="#000000" points="147.5,-159.5513 107.5,-159.5513 107.5,-141.5513 147.5,-141.5513 147.5,-159.5513"/>
<text text-anchor="middle" x="127.5" y="-148.3513" font-family="Times,serif" font-size="9.00" fill="#000000">RF_L</text>
</g>
<!-- RF_L&#45;&gt;ANG_VEL -->
<g id="edge10" class="edge">
<title>RF_L&#45;&gt;ANG_VEL</title>
<path fill="none" stroke="#00ff00" stroke-width=".3148" d="M133.4682,-141.5135C141.0139,-130.0867 154.5555,-109.5802 167.2483,-90.359"/>
<polygon fill="#00ff00" stroke="#00ff00" stroke-width=".3148" points="170.2154,-92.2174 172.8052,-81.9439 164.374,-88.36 170.2154,-92.2174"/>
</g>
<!-- RF_B -->
<g id="node6" class="node">
<title>RF_B</title>
<polygon fill="#d3d3d3" stroke="#000000" points="354,-230.0071 313,-230.0071 313,-212.0071 354,-212.0071 354,-230.0071"/>
<text text-anchor="middle" x="333.5" y="-218.8071" font-family="Times,serif" font-size="9.00" fill="#000000">RF_B</text>
</g>
<!-- VEL -->
<g id="node12" class="node">
<title>VEL</title>
<ellipse fill="#add8e6" stroke="#000000" cx="416.5" cy="-150.5513" rx="25.4118" ry="25.4118"/>
<text text-anchor="middle" x="416.5" y="-148.3513" font-family="Times,serif" font-size="9.00" fill="#000000">VEL</text>
</g>
<!-- RF_B&#45;&gt;VEL -->
<g id="edge15" class="edge">
<title>RF_B&#45;&gt;VEL</title>
<path fill="none" stroke="#ff0000" stroke-width=".2109" d="M344.3508,-211.7963C355.7262,-202.1401 374.0432,-186.5914 389.3741,-173.5776"/>
<polygon fill="#ff0000" stroke="#ff0000" stroke-width=".2109" points="391.7077,-176.1876 397.0664,-167.0478 387.1777,-170.851 391.7077,-176.1876"/>
</g>
<!-- RF_B&#45;&gt;2 -->
<g id="edge1" class="edge">
<title>RF_B&#45;&gt;2</title>
<path fill="none" stroke="#ff0000" stroke-width=".3386" d="M318.5965,-211.7963C299.0759,-199.7319 264.6725,-178.4694 241.9795,-164.4444"/>
<polygon fill="#ff0000" stroke="#ff0000" stroke-width=".3386" points="243.6828,-161.3826 233.3362,-159.1026 240.0027,-167.3372 243.6828,-161.3826"/>
</g>
<!-- RAD_F -->
<g id="node7" class="node">
<title>RAD_F</title>
<polygon fill="#d3d3d3" stroke="#000000" points="554.5,-230.0071 506.5,-230.0071 506.5,-212.0071 554.5,-212.0071 554.5,-230.0071"/>
<text text-anchor="middle" x="530.5" y="-218.8071" font-family="Times,serif" font-size="9.00" fill="#000000">RAD_F</text>
</g>
<!-- RAD_F&#45;&gt;ANG_VEL -->
<g id="edge5" class="edge">
<title>RAD_F&#45;&gt;ANG_VEL</title>
<path fill="none" stroke="#ff0000" stroke-width=".4292" d="M525.3596,-211.8699C514.2141,-192.8781 485.9491,-148.929 450.5,-125.0955 389.406,-84.02 306.0731,-62.846 252.0266,-52.7286"/>
<polygon fill="#ff0000" stroke="#ff0000" stroke-width=".4292" points="252.4188,-49.2428 241.9556,-50.9078 251.1733,-56.1312 252.4188,-49.2428"/>
</g>
<!-- RAD_F&#45;&gt;VEL -->
<g id="edge7" class="edge">
<title>RAD_F&#45;&gt;VEL</title>
<path fill="none" stroke="#ff0000" stroke-width=".1707" d="M515.5965,-211.7963C498.3038,-201.1088 469.3315,-183.203 447.1675,-169.5048"/>
<polygon fill="#ff0000" stroke="#ff0000" stroke-width=".1707" points="448.789,-166.3925 438.4424,-164.1124 445.1088,-172.3471 448.789,-166.3925"/>
</g>
<!-- RAD_F&#45;&gt;2 -->
<g id="edge3" class="edge">
<title>RAD_F&#45;&gt;2</title>
<path fill="none" stroke="#ff0000" stroke-width=".1346" d="M506.3847,-214.2847C503.3983,-213.4952 500.3828,-212.7184 497.5,-212.0071 405.1752,-189.2269 294.6137,-165.9781 245.3657,-155.8301"/>
<polygon fill="#ff0000" stroke="#ff0000" stroke-width=".1346" points="246.0464,-152.3969 235.5467,-153.8132 244.6379,-159.2538 246.0464,-152.3969"/>
</g>
<!-- RAD_L -->
<g id="node8" class="node">
<title>RAD_L</title>
<polygon fill="#d3d3d3" stroke="#000000" points="113.5,-230.0071 65.5,-230.0071 65.5,-212.0071 113.5,-212.0071 113.5,-230.0071"/>
<text text-anchor="middle" x="89.5" y="-218.8071" font-family="Times,serif" font-size="9.00" fill="#000000">RAD_L</text>
</g>
<!-- RAD_L&#45;&gt;ANG_VEL -->
<g id="edge11" class="edge">
<title>RAD_L&#45;&gt;ANG_VEL</title>
<path fill="none" stroke="#ff0000" stroke-width=".1343" d="M109.8244,-211.9914C124.7453,-204.3977 144.4366,-192.1812 156.5,-176.0071 173.2823,-153.5062 183.295,-123.9917 189.2174,-98.6304"/>
<polygon fill="#ff0000" stroke="#ff0000" stroke-width=".1343" points="192.6552,-99.2926 191.366,-88.7765 185.8159,-97.8013 192.6552,-99.2926"/>
</g>
<!-- RAD_L&#45;&gt;2 -->
<g id="edge14" class="edge">
<title>RAD_L&#45;&gt;2</title>
<path fill="none" stroke="#ff0000" stroke-width=".1651" d="M113.9013,-212.2528C134.7694,-204.2545 165.1934,-191.3563 189.5,-176.0071 192.9743,-173.8132 196.4724,-171.2447 199.7911,-168.5988"/>
<polygon fill="#ff0000" stroke="#ff0000" stroke-width=".1651" points="202.1807,-171.1618 207.5559,-162.0317 197.6603,-165.817 202.1807,-171.1618"/>
</g>
<!-- RAD_B -->
<g id="node9" class="node">
<title>RAD_B</title>
<polygon fill="#d3d3d3" stroke="#000000" points="488,-230.0071 439,-230.0071 439,-212.0071 488,-212.0071 488,-230.0071"/>
<text text-anchor="middle" x="463.5" y="-218.8071" font-family="Times,serif" font-size="9.00" fill="#000000">RAD_B</text>
</g>
<!-- RAD_B&#45;&gt;VEL -->
<g id="edge17" class="edge">
<title>RAD_B&#45;&gt;VEL</title>
<path fill="none" stroke="#00ff00" stroke-width=".2949" d="M457.3556,-211.7963C452.0019,-203.7708 443.933,-191.6751 436.3764,-180.3472"/>
<polygon fill="#00ff00" stroke="#00ff00" stroke-width=".2949" points="439.2121,-178.2911 430.751,-171.9145 433.3889,-182.1757 439.2121,-178.2911"/>
</g>
<!-- RAD_R -->
<g id="node10" class="node">
<title>RAD_R</title>
<polygon fill="#d3d3d3" stroke="#000000" points="421,-230.0071 372,-230.0071 372,-212.0071 421,-212.0071 421,-230.0071"/>
<text text-anchor="middle" x="396.5" y="-218.8071" font-family="Times,serif" font-size="9.00" fill="#000000">RAD_R</text>
</g>
<!-- RAD_R&#45;&gt;VEL -->
<g id="edge2" class="edge">
<title>RAD_R&#45;&gt;VEL</title>
<path fill="none" stroke="#00ff00" stroke-width=".1607" d="M399.1147,-211.7963C401.0841,-204.8584 403.917,-194.8786 406.7261,-184.9827"/>
<polygon fill="#00ff00" stroke="#00ff00" stroke-width=".1607" points="410.1306,-185.8062 409.4944,-175.2304 403.3966,-183.8946 410.1306,-185.8062"/>
</g>
<!-- RAD_R&#45;&gt;2 -->
<g id="edge13" class="edge">
<title>RAD_R&#45;&gt;2</title>
<path fill="none" stroke="#ff0000" stroke-width=".4398" d="M373.7227,-211.9405C340.4104,-198.6804 278.6367,-174.091 244.2434,-160.4006"/>
<polygon fill="#ff0000" stroke="#ff0000" stroke-width=".4398" points="245.4978,-157.1328 234.9124,-156.6863 242.909,-163.6365 245.4978,-157.1328"/>
</g>
<!-- 2&#45;&gt;ANG_VEL -->
<g id="edge16" class="edge">
<title>2&#45;&gt;ANG_VEL</title>
<path fill="none" stroke="#00ff00" stroke-width=".1134" d="M216.1587,-134.4516C214.128,-124.6671 211.406,-111.5515 208.67,-98.3684"/>
<polygon fill="#00ff00" stroke="#00ff00" stroke-width=".1134" points="212.0453,-97.4082 206.5862,-88.3281 205.1914,-98.8307 212.0453,-97.4082"/>
</g>
</g>
</svg>
