<?xml version="1.0" encoding="UTF-8" standalone="no"?>
<!DOCTYPE svg PUBLIC "-//W3C//DTD SVG 1.1//EN"
 "http://www.w3.org/Graphics/SVG/1.1/DTD/svg11.dtd">
<!-- Generated by graphviz version 2.40.1 (20161225.0304)
 -->
<!-- Title: %3 Pages: 1 -->
<svg width="629pt" height="237pt"
 viewBox="0.00 0.00 629.00 236.59" xmlns="http://www.w3.org/2000/svg" xmlns:xlink="http://www.w3.org/1999/xlink">
<g id="graph0" class="graph" transform="scale(1 1) rotate(0) translate(4 232.5929)">
<title>%3</title>
<polygon fill="#ffffff" stroke="transparent" points="-4,4 -4,-232.5929 625,-232.5929 625,4 -4,4"/>
<!-- RF_R -->
<g id="node1" class="node">
<title>RF_R</title>
<polygon fill="#d3d3d3" stroke="#000000" points="41,-228.5929 0,-228.5929 0,-210.5929 41,-210.5929 41,-228.5929"/>
<text text-anchor="middle" x="20.5" y="-217.3929" font-family="Times,serif" font-size="9.00" fill="#000000">RF_R</text>
</g>
<!-- RF_FR -->
<g id="node2" class="node">
<title>RF_FR</title>
<polygon fill="#d3d3d3" stroke="#000000" points="224,-228.5929 177,-228.5929 177,-210.5929 224,-210.5929 224,-228.5929"/>
<text text-anchor="middle" x="200.5" y="-217.3929" font-family="Times,serif" font-size="9.00" fill="#000000">RF_FR</text>
</g>
<!-- 116 -->
<g id="node14" class="node">
<title>116</title>
<ellipse fill="#ffffff" stroke="#000000" cx="262.5" cy="-149.8442" rx="25" ry="25"/>
<text text-anchor="middle" x="262.5" y="-147.6442" font-family="Times,serif" font-size="9.00" fill="#000000">116</text>
</g>
<!-- RF_FR&#45;&gt;116 -->
<g id="edge12" class="edge">
<title>RF_FR&#45;&gt;116</title>
<path fill="none" stroke="#ff0000" stroke-width=".4288" d="M208.6054,-210.4745C216.3601,-201.7507 228.4332,-188.1686 239.1885,-176.0692"/>
<polygon fill="#ff0000" stroke="#ff0000" stroke-width=".4288" points="241.9794,-178.1976 246.0073,-168.3982 236.7476,-173.5469 241.9794,-178.1976"/>
</g>
<!-- RF_F -->
<g id="node3" class="node">
<title>RF_F</title>
<polygon fill="#d3d3d3" stroke="#000000" points="99.5,-228.5929 59.5,-228.5929 59.5,-210.5929 99.5,-210.5929 99.5,-228.5929"/>
<text text-anchor="middle" x="79.5" y="-217.3929" font-family="Times,serif" font-size="9.00" fill="#000000">RF_F</text>
</g>
<!-- VEL -->
<g id="node12" class="node">
<title>VEL</title>
<ellipse fill="#add8e6" stroke="#000000" cx="204.5" cy="-44.5477" rx="25.4118" ry="25.4118"/>
<text text-anchor="middle" x="204.5" y="-42.3477" font-family="Times,serif" font-size="9.00" fill="#000000">VEL</text>
</g>
<!-- RF_F&#45;&gt;VEL -->
<g id="edge1" class="edge">
<title>RF_F&#45;&gt;VEL</title>
<path fill="none" stroke="#00ff00" stroke-width=".316" d="M86.2205,-210.1817C104.3622,-184.7768 154.8985,-114.0077 183.702,-73.6724"/>
<polygon fill="#00ff00" stroke="#00ff00" stroke-width=".316" points="186.7069,-75.4872 189.67,-65.3151 181.0102,-71.4192 186.7069,-75.4872"/>
</g>
<!-- RF_F&#45;&gt;116 -->
<g id="edge6" class="edge">
<title>RF_F&#45;&gt;116</title>
<path fill="none" stroke="#00ff00" stroke-width=".1122" d="M99.7834,-211.8621C131.22,-199.8804 192.0077,-176.7117 229.7304,-162.334"/>
<polygon fill="#00ff00" stroke="#00ff00" stroke-width=".1122" points="231.1555,-165.5365 239.2533,-158.7045 228.6624,-158.9955 231.1555,-165.5365"/>
</g>
<!-- RF_FL -->
<g id="node4" class="node">
<title>RF_FL</title>
<polygon fill="#d3d3d3" stroke="#000000" points="480.5,-228.5929 434.5,-228.5929 434.5,-210.5929 480.5,-210.5929 480.5,-228.5929"/>
<text text-anchor="middle" x="457.5" y="-217.3929" font-family="Times,serif" font-size="9.00" fill="#000000">RF_FL</text>
</g>
<!-- ANG_VEL -->
<g id="node11" class="node">
<title>ANG_VEL</title>
<ellipse fill="#add8e6" stroke="#000000" cx="353.5" cy="-44.5477" rx="44.5955" ry="44.5955"/>
<text text-anchor="middle" x="353.5" y="-42.3477" font-family="Times,serif" font-size="9.00" fill="#000000">ANG_VEL</text>
</g>
<!-- RF_FL&#45;&gt;ANG_VEL -->
<g id="edge3" class="edge">
<title>RF_FL&#45;&gt;ANG_VEL</title>
<path fill="none" stroke="#ff0000" stroke-width=".4121" stroke-dasharray="1,5" d="M463.5106,-210.4148C474.2065,-192.8217 494.0274,-153.573 478.5,-125.0955 462.8567,-96.4053 432.124,-76.3948 405.0478,-63.4946"/>
<polygon fill="#ff0000" stroke="#ff0000" stroke-width=".4121" points="406.206,-60.1765 395.6539,-59.2256 403.3099,-66.5493 406.206,-60.1765"/>
</g>
<!-- RF_FL&#45;&gt;VEL -->
<g id="edge8" class="edge">
<title>RF_FL&#45;&gt;VEL</title>
<path fill="none" stroke="#ff0000" stroke-width=".1081" d="M444.2538,-210.4282C405.0708,-183.3183 289.0394,-103.0387 234.0468,-64.9905"/>
<polygon fill="#ff0000" stroke="#ff0000" stroke-width=".1081" points="235.981,-62.0727 225.766,-59.2612 231.9982,-67.8292 235.981,-62.0727"/>
</g>
<!-- 259 -->
<g id="node13" class="node">
<title>259</title>
<ellipse fill="#ffffff" stroke="#000000" cx="444.5" cy="-149.8442" rx="25" ry="25"/>
<text text-anchor="middle" x="444.5" y="-147.6442" font-family="Times,serif" font-size="9.00" fill="#000000">259</text>
</g>
<!-- RF_FL&#45;&gt;259 -->
<g id="edge19" class="edge">
<title>RF_FL&#45;&gt;259</title>
<path fill="none" stroke="#00ff00" stroke-width=".2295" d="M455.8005,-210.4745C454.5337,-203.6778 452.7172,-193.9321 450.9101,-184.2362"/>
<polygon fill="#00ff00" stroke="#00ff00" stroke-width=".2295" points="454.3267,-183.465 449.0536,-174.2757 447.4452,-184.7477 454.3267,-183.465"/>
</g>
<!-- RF_FL&#45;&gt;116 -->
<g id="edge13" class="edge">
<title>RF_FL&#45;&gt;116</title>
<path fill="none" stroke="#00ff00" stroke-width=".1628" d="M434.3652,-211.3179C399.8607,-198.9762 334.764,-175.692 295.3429,-161.5916"/>
<polygon fill="#00ff00" stroke="#00ff00" stroke-width=".1628" points="296.5026,-158.2893 285.908,-158.2169 294.145,-164.8804 296.5026,-158.2893"/>
</g>
<!-- RF_L -->
<g id="node5" class="node">
<title>RF_L</title>
<polygon fill="#d3d3d3" stroke="#000000" points="282.5,-228.5929 242.5,-228.5929 242.5,-210.5929 282.5,-210.5929 282.5,-228.5929"/>
<text text-anchor="middle" x="262.5" y="-217.3929" font-family="Times,serif" font-size="9.00" fill="#000000">RF_L</text>
</g>
<!-- RF_L&#45;&gt;116 -->
<g id="edge16" class="edge">
<title>RF_L&#45;&gt;116</title>
<path fill="none" stroke="#ff0000" stroke-width=".1174" d="M262.5,-210.4745C262.5,-203.8578 262.5,-194.4463 262.5,-185.0066"/>
<polygon fill="#ff0000" stroke="#ff0000" stroke-width=".1174" points="266.0001,-184.8834 262.5,-174.8835 259.0001,-184.8835 266.0001,-184.8834"/>
</g>
<!-- RF_B -->
<g id="node6" class="node">
<title>RF_B</title>
<polygon fill="#d3d3d3" stroke="#000000" points="159,-228.5929 118,-228.5929 118,-210.5929 159,-210.5929 159,-228.5929"/>
<text text-anchor="middle" x="138.5" y="-217.3929" font-family="Times,serif" font-size="9.00" fill="#000000">RF_B</text>
</g>
<!-- RF_B&#45;&gt;ANG_VEL -->
<g id="edge21" class="edge">
<title>RF_B&#45;&gt;ANG_VEL</title>
<path fill="none" stroke="#ff0000" stroke-width=".3469" d="M147.0295,-210.3916C167.7321,-188.0942 219.5967,-132.4601 228.5,-125.0955 252.5069,-105.2376 281.6577,-86.2024 305.7678,-71.6271"/>
<polygon fill="#ff0000" stroke="#ff0000" stroke-width=".3469" points="307.6153,-74.6004 314.4035,-66.4658 304.0241,-68.5917 307.6153,-74.6004"/>
</g>
<!-- RF_B&#45;&gt;VEL -->
<g id="edge11" class="edge">
<title>RF_B&#45;&gt;VEL</title>
<path fill="none" stroke="#ff0000" stroke-width=".3616" d="M142.0484,-210.1817C151.2996,-185.6459 176.5048,-118.7965 191.9187,-77.9157"/>
<polygon fill="#ff0000" stroke="#ff0000" stroke-width=".3616" points="195.2642,-78.9633 195.5174,-68.3715 188.7143,-76.4937 195.2642,-78.9633"/>
</g>
<!-- RF_B&#45;&gt;116 -->
<g id="edge5" class="edge">
<title>RF_B&#45;&gt;116</title>
<path fill="none" stroke="#ff0000" stroke-width=".8015" d="M154.7108,-210.4745C174.2698,-199.4728 207.565,-180.7445 231.987,-167.0074"/>
<polygon fill="#ff0000" stroke="#ff0000" stroke-width=".8015" points="233.8655,-169.9666 240.8654,-162.0134 230.4337,-163.8655 233.8655,-169.9666"/>
</g>
<!-- RAD_F -->
<g id="node7" class="node">
<title>RAD_F</title>
<polygon fill="#d3d3d3" stroke="#000000" points="553.5,-228.5929 505.5,-228.5929 505.5,-210.5929 553.5,-210.5929 553.5,-228.5929"/>
<text text-anchor="middle" x="529.5" y="-217.3929" font-family="Times,serif" font-size="9.00" fill="#000000">RAD_F</text>
</g>
<!-- RAD_F&#45;&gt;ANG_VEL -->
<g id="edge9" class="edge">
<title>RAD_F&#45;&gt;ANG_VEL</title>
<path fill="none" stroke="#00ff00" stroke-width=".2423" d="M528.2433,-210.486C525.3215,-192.3251 516.5622,-151.1167 494.5,-125.0955 470.8103,-97.1546 434.8437,-76.8264 405.166,-63.5812"/>
<polygon fill="#00ff00" stroke="#00ff00" stroke-width=".2423" points="406.3432,-60.2773 395.7749,-59.5291 403.5699,-66.7045 406.3432,-60.2773"/>
</g>
<!-- RAD_F&#45;&gt;116 -->
<g id="edge2" class="edge">
<title>RAD_F&#45;&gt;116</title>
<path fill="none" stroke="#00ff00" stroke-width=".3858" d="M505.3346,-213.2802C457.6993,-200.8363 351.5534,-173.1077 296.7335,-158.787"/>
<polygon fill="#00ff00" stroke="#00ff00" stroke-width=".3858" points="297.3631,-155.3341 286.8031,-156.1929 295.5938,-162.1069 297.3631,-155.3341"/>
</g>
<!-- RAD_L -->
<g id="node8" class="node">
<title>RAD_L</title>
<polygon fill="#d3d3d3" stroke="#000000" points="348.5,-228.5929 300.5,-228.5929 300.5,-210.5929 348.5,-210.5929 348.5,-228.5929"/>
<text text-anchor="middle" x="324.5" y="-217.3929" font-family="Times,serif" font-size="9.00" fill="#000000">RAD_L</text>
</g>
<!-- RAD_L&#45;&gt;ANG_VEL -->
<g id="edge7" class="edge">
<title>RAD_L&#45;&gt;ANG_VEL</title>
<path fill="none" stroke="#ff0000" stroke-width=".3735" d="M325.9036,-210.4634C328.5077,-193.5914 334.2963,-156.3932 339.5,-125.0955 340.9377,-116.4485 342.4965,-107.2858 344.0342,-98.3596"/>
<polygon fill="#ff0000" stroke="#ff0000" stroke-width=".3735" points="347.4974,-98.8725 345.754,-88.4221 340.6,-97.6788 347.4974,-98.8725"/>
</g>
<!-- RAD_L&#45;&gt;116 -->
<g id="edge18" class="edge">
<title>RAD_L&#45;&gt;116</title>
<path fill="none" stroke="#00ff00" stroke-width=".1383" d="M316.3946,-210.4745C308.6399,-201.7507 296.5668,-188.1686 285.8115,-176.0692"/>
<polygon fill="#00ff00" stroke="#00ff00" stroke-width=".1383" points="288.2524,-173.5469 278.9927,-168.3982 283.0206,-178.1976 288.2524,-173.5469"/>
</g>
<!-- RAD_B -->
<g id="node9" class="node">
<title>RAD_B</title>
<polygon fill="#d3d3d3" stroke="#000000" points="416,-228.5929 367,-228.5929 367,-210.5929 416,-210.5929 416,-228.5929"/>
<text text-anchor="middle" x="391.5" y="-217.3929" font-family="Times,serif" font-size="9.00" fill="#000000">RAD_B</text>
</g>
<!-- RAD_B&#45;&gt;ANG_VEL -->
<g id="edge15" class="edge">
<title>RAD_B&#45;&gt;ANG_VEL</title>
<path fill="none" stroke="#ff0000" stroke-width=".4596" d="M389.457,-210.1817C384.9377,-189.3638 373.8056,-138.0844 365.1149,-98.051"/>
<polygon fill="#ff0000" stroke="#ff0000" stroke-width=".4596" points="368.5053,-97.1706 362.9635,-88.1407 361.6647,-98.6557 368.5053,-97.1706"/>
</g>
<!-- RAD_B&#45;&gt;116 -->
<g id="edge17" class="edge">
<title>RAD_B&#45;&gt;116</title>
<path fill="none" stroke="#00ff00" stroke-width=".4057" d="M374.6355,-210.4745C354.0766,-199.3586 318.9292,-180.3548 293.4549,-166.5811"/>
<polygon fill="#00ff00" stroke="#00ff00" stroke-width=".4057" points="295.0134,-163.445 284.5522,-161.7675 291.6841,-169.6026 295.0134,-163.445"/>
</g>
<!-- RAD_R -->
<g id="node10" class="node">
<title>RAD_R</title>
<polygon fill="#d3d3d3" stroke="#000000" points="621,-228.5929 572,-228.5929 572,-210.5929 621,-210.5929 621,-228.5929"/>
<text text-anchor="middle" x="596.5" y="-217.3929" font-family="Times,serif" font-size="9.00" fill="#000000">RAD_R</text>
</g>
<!-- ANG_VEL&#45;&gt;ANG_VEL -->
<g id="edge4" class="edge">
<title>ANG_VEL&#45;&gt;ANG_VEL</title>
<path fill="none" stroke="#00ff00" stroke-width=".2993" d="M393.8061,-64.0287C406.2645,-63.6351 416.0477,-57.1415 416.0477,-44.5477 416.0477,-35.6927 411.211,-29.8536 404.0085,-27.0302"/>
<polygon fill="#00ff00" stroke="#00ff00" stroke-width=".2993" points="404.2874,-23.5197 393.8061,-25.0668 402.9645,-30.3936 404.2874,-23.5197"/>
</g>
<!-- 259&#45;&gt;ANG_VEL -->
<g id="edge20" class="edge">
<title>259&#45;&gt;ANG_VEL</title>
<path fill="none" stroke="#ff0000" stroke-width=".5262" d="M428.231,-131.0193C417.5216,-118.6274 403.0655,-101.9002 389.7214,-86.4596"/>
<polygon fill="#ff0000" stroke="#ff0000" stroke-width=".5262" points="392.0573,-83.8098 382.8704,-78.5323 386.761,-88.3869 392.0573,-83.8098"/>
</g>
<!-- 116&#45;&gt;ANG_VEL -->
<g id="edge10" class="edge">
<title>116&#45;&gt;ANG_VEL</title>
<path fill="none" stroke="#00ff00" stroke-width=".2857" d="M278.769,-131.0193C289.4784,-118.6274 303.9345,-101.9002 317.2786,-86.4596"/>
<polygon fill="#00ff00" stroke="#00ff00" stroke-width=".2857" points="320.239,-88.3869 324.1296,-78.5323 314.9427,-83.8098 320.239,-88.3869"/>
</g>
<!-- 116&#45;&gt;VEL -->
<g id="edge14" class="edge">
<title>116&#45;&gt;VEL</title>
<path fill="none" stroke="#ff0000" stroke-width=".3148" d="M250.4824,-128.0267C242.1955,-112.9822 231.052,-92.7517 221.8106,-75.9744"/>
<polygon fill="#ff0000" stroke="#ff0000" stroke-width=".3148" points="224.7929,-74.1342 216.9024,-67.0638 218.6615,-77.5116 224.7929,-74.1342"/>
</g>
</g>
</svg>
