<?xml version="1.0" encoding="utf-8" standalone="no"?>
<!DOCTYPE svg PUBLIC "-//W3C//DTD SVG 1.1//EN"
  "http://www.w3.org/Graphics/SVG/1.1/DTD/svg11.dtd">
<!-- Created with matplotlib (https://matplotlib.org/) -->
<svg height="345.6pt" version="1.1" viewBox="0 0 460.8 345.6" width="460.8pt" xmlns="http://www.w3.org/2000/svg" xmlns:xlink="http://www.w3.org/1999/xlink">
 <defs>
  <style type="text/css">
*{stroke-linecap:butt;stroke-linejoin:round;}
  </style>
 </defs>
 <g id="figure_1">
  <g id="patch_1">
   <path d="M 0 345.6 
L 460.8 345.6 
L 460.8 0 
L 0 0 
z
" style="fill:#ffffff;"/>
  </g>
  <g id="axes_1">
   <g id="patch_2">
    <path d="M 57.6 307.584 
L 414.72 307.584 
L 414.72 41.472 
L 57.6 41.472 
z
" style="fill:#ffffff;"/>
   </g>
   <g id="matplotlib.axis_1">
    <g id="xtick_1">
     <g id="line2d_1">
      <path clip-path="url(#p8cea81bbf5)" d="M 73.832727 307.584 
L 73.832727 41.472 
" style="fill:none;stroke:#b0b0b0;stroke-linecap:square;stroke-width:0.8;"/>
     </g>
     <g id="line2d_2">
      <defs>
       <path d="M 0 0 
L 0 3.5 
" id="mbf3498e514" style="stroke:#000000;stroke-width:0.8;"/>
      </defs>
      <g>
       <use style="stroke:#000000;stroke-width:0.8;" x="73.832727" xlink:href="#mbf3498e514" y="307.584"/>
      </g>
     </g>
     <g id="text_1">
      <!-- 0 -->
      <defs>
       <path d="M 31.78125 66.40625 
Q 24.171875 66.40625 20.328125 58.90625 
Q 16.5 51.421875 16.5 36.375 
Q 16.5 21.390625 20.328125 13.890625 
Q 24.171875 6.390625 31.78125 6.390625 
Q 39.453125 6.390625 43.28125 13.890625 
Q 47.125 21.390625 47.125 36.375 
Q 47.125 51.421875 43.28125 58.90625 
Q 39.453125 66.40625 31.78125 66.40625 
z
M 31.78125 74.21875 
Q 44.046875 74.21875 50.515625 64.515625 
Q 56.984375 54.828125 56.984375 36.375 
Q 56.984375 17.96875 50.515625 8.265625 
Q 44.046875 -1.421875 31.78125 -1.421875 
Q 19.53125 -1.421875 13.0625 8.265625 
Q 6.59375 17.96875 6.59375 36.375 
Q 6.59375 54.828125 13.0625 64.515625 
Q 19.53125 74.21875 31.78125 74.21875 
z
" id="DejaVuSans-48"/>
      </defs>
      <g transform="translate(70.651477 322.182437)scale(0.1 -0.1)">
       <use xlink:href="#DejaVuSans-48"/>
      </g>
     </g>
    </g>
    <g id="xtick_2">
     <g id="line2d_3">
      <path clip-path="url(#p8cea81bbf5)" d="M 138.893758 307.584 
L 138.893758 41.472 
" style="fill:none;stroke:#b0b0b0;stroke-linecap:square;stroke-width:0.8;"/>
     </g>
     <g id="line2d_4">
      <g>
       <use style="stroke:#000000;stroke-width:0.8;" x="138.893758" xlink:href="#mbf3498e514" y="307.584"/>
      </g>
     </g>
     <g id="text_2">
      <!-- 100 -->
      <defs>
       <path d="M 12.40625 8.296875 
L 28.515625 8.296875 
L 28.515625 63.921875 
L 10.984375 60.40625 
L 10.984375 69.390625 
L 28.421875 72.90625 
L 38.28125 72.90625 
L 38.28125 8.296875 
L 54.390625 8.296875 
L 54.390625 0 
L 12.40625 0 
z
" id="DejaVuSans-49"/>
      </defs>
      <g transform="translate(129.350008 322.182437)scale(0.1 -0.1)">
       <use xlink:href="#DejaVuSans-49"/>
       <use x="63.623047" xlink:href="#DejaVuSans-48"/>
       <use x="127.246094" xlink:href="#DejaVuSans-48"/>
      </g>
     </g>
    </g>
    <g id="xtick_3">
     <g id="line2d_5">
      <path clip-path="url(#p8cea81bbf5)" d="M 203.95479 307.584 
L 203.95479 41.472 
" style="fill:none;stroke:#b0b0b0;stroke-linecap:square;stroke-width:0.8;"/>
     </g>
     <g id="line2d_6">
      <g>
       <use style="stroke:#000000;stroke-width:0.8;" x="203.95479" xlink:href="#mbf3498e514" y="307.584"/>
      </g>
     </g>
     <g id="text_3">
      <!-- 200 -->
      <defs>
       <path d="M 19.1875 8.296875 
L 53.609375 8.296875 
L 53.609375 0 
L 7.328125 0 
L 7.328125 8.296875 
Q 12.9375 14.109375 22.625 23.890625 
Q 32.328125 33.6875 34.8125 36.53125 
Q 39.546875 41.84375 41.421875 45.53125 
Q 43.3125 49.21875 43.3125 52.78125 
Q 43.3125 58.59375 39.234375 62.25 
Q 35.15625 65.921875 28.609375 65.921875 
Q 23.96875 65.921875 18.8125 64.3125 
Q 13.671875 62.703125 7.8125 59.421875 
L 7.8125 69.390625 
Q 13.765625 71.78125 18.9375 73 
Q 24.125 74.21875 28.421875 74.21875 
Q 39.75 74.21875 46.484375 68.546875 
Q 53.21875 62.890625 53.21875 53.421875 
Q 53.21875 48.921875 51.53125 44.890625 
Q 49.859375 40.875 45.40625 35.40625 
Q 44.1875 33.984375 37.640625 27.21875 
Q 31.109375 20.453125 19.1875 8.296875 
z
" id="DejaVuSans-50"/>
      </defs>
      <g transform="translate(194.41104 322.182437)scale(0.1 -0.1)">
       <use xlink:href="#DejaVuSans-50"/>
       <use x="63.623047" xlink:href="#DejaVuSans-48"/>
       <use x="127.246094" xlink:href="#DejaVuSans-48"/>
      </g>
     </g>
    </g>
    <g id="xtick_4">
     <g id="line2d_7">
      <path clip-path="url(#p8cea81bbf5)" d="M 269.015821 307.584 
L 269.015821 41.472 
" style="fill:none;stroke:#b0b0b0;stroke-linecap:square;stroke-width:0.8;"/>
     </g>
     <g id="line2d_8">
      <g>
       <use style="stroke:#000000;stroke-width:0.8;" x="269.015821" xlink:href="#mbf3498e514" y="307.584"/>
      </g>
     </g>
     <g id="text_4">
      <!-- 300 -->
      <defs>
       <path d="M 40.578125 39.3125 
Q 47.65625 37.796875 51.625 33 
Q 55.609375 28.21875 55.609375 21.1875 
Q 55.609375 10.40625 48.1875 4.484375 
Q 40.765625 -1.421875 27.09375 -1.421875 
Q 22.515625 -1.421875 17.65625 -0.515625 
Q 12.796875 0.390625 7.625 2.203125 
L 7.625 11.71875 
Q 11.71875 9.328125 16.59375 8.109375 
Q 21.484375 6.890625 26.8125 6.890625 
Q 36.078125 6.890625 40.9375 10.546875 
Q 45.796875 14.203125 45.796875 21.1875 
Q 45.796875 27.640625 41.28125 31.265625 
Q 36.765625 34.90625 28.71875 34.90625 
L 20.21875 34.90625 
L 20.21875 43.015625 
L 29.109375 43.015625 
Q 36.375 43.015625 40.234375 45.921875 
Q 44.09375 48.828125 44.09375 54.296875 
Q 44.09375 59.90625 40.109375 62.90625 
Q 36.140625 65.921875 28.71875 65.921875 
Q 24.65625 65.921875 20.015625 65.03125 
Q 15.375 64.15625 9.8125 62.3125 
L 9.8125 71.09375 
Q 15.4375 72.65625 20.34375 73.4375 
Q 25.25 74.21875 29.59375 74.21875 
Q 40.828125 74.21875 47.359375 69.109375 
Q 53.90625 64.015625 53.90625 55.328125 
Q 53.90625 49.265625 50.4375 45.09375 
Q 46.96875 40.921875 40.578125 39.3125 
z
" id="DejaVuSans-51"/>
      </defs>
      <g transform="translate(259.472071 322.182437)scale(0.1 -0.1)">
       <use xlink:href="#DejaVuSans-51"/>
       <use x="63.623047" xlink:href="#DejaVuSans-48"/>
       <use x="127.246094" xlink:href="#DejaVuSans-48"/>
      </g>
     </g>
    </g>
    <g id="xtick_5">
     <g id="line2d_9">
      <path clip-path="url(#p8cea81bbf5)" d="M 334.076852 307.584 
L 334.076852 41.472 
" style="fill:none;stroke:#b0b0b0;stroke-linecap:square;stroke-width:0.8;"/>
     </g>
     <g id="line2d_10">
      <g>
       <use style="stroke:#000000;stroke-width:0.8;" x="334.076852" xlink:href="#mbf3498e514" y="307.584"/>
      </g>
     </g>
     <g id="text_5">
      <!-- 400 -->
      <defs>
       <path d="M 37.796875 64.3125 
L 12.890625 25.390625 
L 37.796875 25.390625 
z
M 35.203125 72.90625 
L 47.609375 72.90625 
L 47.609375 25.390625 
L 58.015625 25.390625 
L 58.015625 17.1875 
L 47.609375 17.1875 
L 47.609375 0 
L 37.796875 0 
L 37.796875 17.1875 
L 4.890625 17.1875 
L 4.890625 26.703125 
z
" id="DejaVuSans-52"/>
      </defs>
      <g transform="translate(324.533102 322.182437)scale(0.1 -0.1)">
       <use xlink:href="#DejaVuSans-52"/>
       <use x="63.623047" xlink:href="#DejaVuSans-48"/>
       <use x="127.246094" xlink:href="#DejaVuSans-48"/>
      </g>
     </g>
    </g>
    <g id="xtick_6">
     <g id="line2d_11">
      <path clip-path="url(#p8cea81bbf5)" d="M 399.137883 307.584 
L 399.137883 41.472 
" style="fill:none;stroke:#b0b0b0;stroke-linecap:square;stroke-width:0.8;"/>
     </g>
     <g id="line2d_12">
      <g>
       <use style="stroke:#000000;stroke-width:0.8;" x="399.137883" xlink:href="#mbf3498e514" y="307.584"/>
      </g>
     </g>
     <g id="text_6">
      <!-- 500 -->
      <defs>
       <path d="M 10.796875 72.90625 
L 49.515625 72.90625 
L 49.515625 64.59375 
L 19.828125 64.59375 
L 19.828125 46.734375 
Q 21.96875 47.46875 24.109375 47.828125 
Q 26.265625 48.1875 28.421875 48.1875 
Q 40.625 48.1875 47.75 41.5 
Q 54.890625 34.8125 54.890625 23.390625 
Q 54.890625 11.625 47.5625 5.09375 
Q 40.234375 -1.421875 26.90625 -1.421875 
Q 22.3125 -1.421875 17.546875 -0.640625 
Q 12.796875 0.140625 7.71875 1.703125 
L 7.71875 11.625 
Q 12.109375 9.234375 16.796875 8.0625 
Q 21.484375 6.890625 26.703125 6.890625 
Q 35.15625 6.890625 40.078125 11.328125 
Q 45.015625 15.765625 45.015625 23.390625 
Q 45.015625 31 40.078125 35.4375 
Q 35.15625 39.890625 26.703125 39.890625 
Q 22.75 39.890625 18.8125 39.015625 
Q 14.890625 38.140625 10.796875 36.28125 
z
" id="DejaVuSans-53"/>
      </defs>
      <g transform="translate(389.594133 322.182437)scale(0.1 -0.1)">
       <use xlink:href="#DejaVuSans-53"/>
       <use x="63.623047" xlink:href="#DejaVuSans-48"/>
       <use x="127.246094" xlink:href="#DejaVuSans-48"/>
      </g>
     </g>
    </g>
    <g id="text_7">
     <!-- Generations -->
     <defs>
      <path d="M 59.515625 10.40625 
L 59.515625 29.984375 
L 43.40625 29.984375 
L 43.40625 38.09375 
L 69.28125 38.09375 
L 69.28125 6.78125 
Q 63.578125 2.734375 56.6875 0.65625 
Q 49.8125 -1.421875 42 -1.421875 
Q 24.90625 -1.421875 15.25 8.5625 
Q 5.609375 18.5625 5.609375 36.375 
Q 5.609375 54.25 15.25 64.234375 
Q 24.90625 74.21875 42 74.21875 
Q 49.125 74.21875 55.546875 72.453125 
Q 61.96875 70.703125 67.390625 67.28125 
L 67.390625 56.78125 
Q 61.921875 61.421875 55.765625 63.765625 
Q 49.609375 66.109375 42.828125 66.109375 
Q 29.4375 66.109375 22.71875 58.640625 
Q 16.015625 51.171875 16.015625 36.375 
Q 16.015625 21.625 22.71875 14.15625 
Q 29.4375 6.6875 42.828125 6.6875 
Q 48.046875 6.6875 52.140625 7.59375 
Q 56.25 8.5 59.515625 10.40625 
z
" id="DejaVuSans-71"/>
      <path d="M 56.203125 29.59375 
L 56.203125 25.203125 
L 14.890625 25.203125 
Q 15.484375 15.921875 20.484375 11.0625 
Q 25.484375 6.203125 34.421875 6.203125 
Q 39.59375 6.203125 44.453125 7.46875 
Q 49.3125 8.734375 54.109375 11.28125 
L 54.109375 2.78125 
Q 49.265625 0.734375 44.1875 -0.34375 
Q 39.109375 -1.421875 33.890625 -1.421875 
Q 20.796875 -1.421875 13.15625 6.1875 
Q 5.515625 13.8125 5.515625 26.8125 
Q 5.515625 40.234375 12.765625 48.109375 
Q 20.015625 56 32.328125 56 
Q 43.359375 56 49.78125 48.890625 
Q 56.203125 41.796875 56.203125 29.59375 
z
M 47.21875 32.234375 
Q 47.125 39.59375 43.09375 43.984375 
Q 39.0625 48.390625 32.421875 48.390625 
Q 24.90625 48.390625 20.390625 44.140625 
Q 15.875 39.890625 15.1875 32.171875 
z
" id="DejaVuSans-101"/>
      <path d="M 54.890625 33.015625 
L 54.890625 0 
L 45.90625 0 
L 45.90625 32.71875 
Q 45.90625 40.484375 42.875 44.328125 
Q 39.84375 48.1875 33.796875 48.1875 
Q 26.515625 48.1875 22.3125 43.546875 
Q 18.109375 38.921875 18.109375 30.90625 
L 18.109375 0 
L 9.078125 0 
L 9.078125 54.6875 
L 18.109375 54.6875 
L 18.109375 46.1875 
Q 21.34375 51.125 25.703125 53.5625 
Q 30.078125 56 35.796875 56 
Q 45.21875 56 50.046875 50.171875 
Q 54.890625 44.34375 54.890625 33.015625 
z
" id="DejaVuSans-110"/>
      <path d="M 41.109375 46.296875 
Q 39.59375 47.171875 37.8125 47.578125 
Q 36.03125 48 33.890625 48 
Q 26.265625 48 22.1875 43.046875 
Q 18.109375 38.09375 18.109375 28.8125 
L 18.109375 0 
L 9.078125 0 
L 9.078125 54.6875 
L 18.109375 54.6875 
L 18.109375 46.1875 
Q 20.953125 51.171875 25.484375 53.578125 
Q 30.03125 56 36.53125 56 
Q 37.453125 56 38.578125 55.875 
Q 39.703125 55.765625 41.0625 55.515625 
z
" id="DejaVuSans-114"/>
      <path d="M 34.28125 27.484375 
Q 23.390625 27.484375 19.1875 25 
Q 14.984375 22.515625 14.984375 16.5 
Q 14.984375 11.71875 18.140625 8.90625 
Q 21.296875 6.109375 26.703125 6.109375 
Q 34.1875 6.109375 38.703125 11.40625 
Q 43.21875 16.703125 43.21875 25.484375 
L 43.21875 27.484375 
z
M 52.203125 31.203125 
L 52.203125 0 
L 43.21875 0 
L 43.21875 8.296875 
Q 40.140625 3.328125 35.546875 0.953125 
Q 30.953125 -1.421875 24.3125 -1.421875 
Q 15.921875 -1.421875 10.953125 3.296875 
Q 6 8.015625 6 15.921875 
Q 6 25.140625 12.171875 29.828125 
Q 18.359375 34.515625 30.609375 34.515625 
L 43.21875 34.515625 
L 43.21875 35.40625 
Q 43.21875 41.609375 39.140625 45 
Q 35.0625 48.390625 27.6875 48.390625 
Q 23 48.390625 18.546875 47.265625 
Q 14.109375 46.140625 10.015625 43.890625 
L 10.015625 52.203125 
Q 14.9375 54.109375 19.578125 55.046875 
Q 24.21875 56 28.609375 56 
Q 40.484375 56 46.34375 49.84375 
Q 52.203125 43.703125 52.203125 31.203125 
z
" id="DejaVuSans-97"/>
      <path d="M 18.3125 70.21875 
L 18.3125 54.6875 
L 36.8125 54.6875 
L 36.8125 47.703125 
L 18.3125 47.703125 
L 18.3125 18.015625 
Q 18.3125 11.328125 20.140625 9.421875 
Q 21.96875 7.515625 27.59375 7.515625 
L 36.8125 7.515625 
L 36.8125 0 
L 27.59375 0 
Q 17.1875 0 13.234375 3.875 
Q 9.28125 7.765625 9.28125 18.015625 
L 9.28125 47.703125 
L 2.6875 47.703125 
L 2.6875 54.6875 
L 9.28125 54.6875 
L 9.28125 70.21875 
z
" id="DejaVuSans-116"/>
      <path d="M 9.421875 54.6875 
L 18.40625 54.6875 
L 18.40625 0 
L 9.421875 0 
z
M 9.421875 75.984375 
L 18.40625 75.984375 
L 18.40625 64.59375 
L 9.421875 64.59375 
z
" id="DejaVuSans-105"/>
      <path d="M 30.609375 48.390625 
Q 23.390625 48.390625 19.1875 42.75 
Q 14.984375 37.109375 14.984375 27.296875 
Q 14.984375 17.484375 19.15625 11.84375 
Q 23.34375 6.203125 30.609375 6.203125 
Q 37.796875 6.203125 41.984375 11.859375 
Q 46.1875 17.53125 46.1875 27.296875 
Q 46.1875 37.015625 41.984375 42.703125 
Q 37.796875 48.390625 30.609375 48.390625 
z
M 30.609375 56 
Q 42.328125 56 49.015625 48.375 
Q 55.71875 40.765625 55.71875 27.296875 
Q 55.71875 13.875 49.015625 6.21875 
Q 42.328125 -1.421875 30.609375 -1.421875 
Q 18.84375 -1.421875 12.171875 6.21875 
Q 5.515625 13.875 5.515625 27.296875 
Q 5.515625 40.765625 12.171875 48.375 
Q 18.84375 56 30.609375 56 
z
" id="DejaVuSans-111"/>
      <path d="M 44.28125 53.078125 
L 44.28125 44.578125 
Q 40.484375 46.53125 36.375 47.5 
Q 32.28125 48.484375 27.875 48.484375 
Q 21.1875 48.484375 17.84375 46.4375 
Q 14.5 44.390625 14.5 40.28125 
Q 14.5 37.15625 16.890625 35.375 
Q 19.28125 33.59375 26.515625 31.984375 
L 29.59375 31.296875 
Q 39.15625 29.25 43.1875 25.515625 
Q 47.21875 21.78125 47.21875 15.09375 
Q 47.21875 7.46875 41.1875 3.015625 
Q 35.15625 -1.421875 24.609375 -1.421875 
Q 20.21875 -1.421875 15.453125 -0.5625 
Q 10.6875 0.296875 5.421875 2 
L 5.421875 11.28125 
Q 10.40625 8.6875 15.234375 7.390625 
Q 20.0625 6.109375 24.8125 6.109375 
Q 31.15625 6.109375 34.5625 8.28125 
Q 37.984375 10.453125 37.984375 14.40625 
Q 37.984375 18.0625 35.515625 20.015625 
Q 33.0625 21.96875 24.703125 23.78125 
L 21.578125 24.515625 
Q 13.234375 26.265625 9.515625 29.90625 
Q 5.8125 33.546875 5.8125 39.890625 
Q 5.8125 47.609375 11.28125 51.796875 
Q 16.75 56 26.8125 56 
Q 31.78125 56 36.171875 55.265625 
Q 40.578125 54.546875 44.28125 53.078125 
z
" id="DejaVuSans-115"/>
     </defs>
     <g transform="translate(205.662344 335.860562)scale(0.1 -0.1)">
      <use xlink:href="#DejaVuSans-71"/>
      <use x="77.490234" xlink:href="#DejaVuSans-101"/>
      <use x="139.013672" xlink:href="#DejaVuSans-110"/>
      <use x="202.392578" xlink:href="#DejaVuSans-101"/>
      <use x="263.916016" xlink:href="#DejaVuSans-114"/>
      <use x="305.029297" xlink:href="#DejaVuSans-97"/>
      <use x="366.308594" xlink:href="#DejaVuSans-116"/>
      <use x="405.517578" xlink:href="#DejaVuSans-105"/>
      <use x="433.300781" xlink:href="#DejaVuSans-111"/>
      <use x="494.482422" xlink:href="#DejaVuSans-110"/>
      <use x="557.861328" xlink:href="#DejaVuSans-115"/>
     </g>
    </g>
   </g>
   <g id="matplotlib.axis_2">
    <g id="ytick_1">
     <g id="line2d_13">
      <path clip-path="url(#p8cea81bbf5)" d="M 57.6 264.86844 
L 414.72 264.86844 
" style="fill:none;stroke:#b0b0b0;stroke-linecap:square;stroke-width:0.8;"/>
     </g>
     <g id="line2d_14">
      <defs>
       <path d="M 0 0 
L -3.5 0 
" id="m2c57bff76a" style="stroke:#000000;stroke-width:0.8;"/>
      </defs>
      <g>
       <use style="stroke:#000000;stroke-width:0.8;" x="57.6" xlink:href="#m2c57bff76a" y="264.86844"/>
      </g>
     </g>
     <g id="text_8">
      <!-- 0.1 -->
      <defs>
       <path d="M 10.6875 12.40625 
L 21 12.40625 
L 21 0 
L 10.6875 0 
z
" id="DejaVuSans-46"/>
      </defs>
      <g transform="translate(34.696875 268.667659)scale(0.1 -0.1)">
       <use xlink:href="#DejaVuSans-48"/>
       <use x="63.623047" xlink:href="#DejaVuSans-46"/>
       <use x="95.410156" xlink:href="#DejaVuSans-49"/>
      </g>
     </g>
    </g>
    <g id="ytick_2">
     <g id="line2d_15">
      <path clip-path="url(#p8cea81bbf5)" d="M 57.6 220.884848 
L 414.72 220.884848 
" style="fill:none;stroke:#b0b0b0;stroke-linecap:square;stroke-width:0.8;"/>
     </g>
     <g id="line2d_16">
      <g>
       <use style="stroke:#000000;stroke-width:0.8;" x="57.6" xlink:href="#m2c57bff76a" y="220.884848"/>
      </g>
     </g>
     <g id="text_9">
      <!-- 0.2 -->
      <g transform="translate(34.696875 224.684067)scale(0.1 -0.1)">
       <use xlink:href="#DejaVuSans-48"/>
       <use x="63.623047" xlink:href="#DejaVuSans-46"/>
       <use x="95.410156" xlink:href="#DejaVuSans-50"/>
      </g>
     </g>
    </g>
    <g id="ytick_3">
     <g id="line2d_17">
      <path clip-path="url(#p8cea81bbf5)" d="M 57.6 176.901255 
L 414.72 176.901255 
" style="fill:none;stroke:#b0b0b0;stroke-linecap:square;stroke-width:0.8;"/>
     </g>
     <g id="line2d_18">
      <g>
       <use style="stroke:#000000;stroke-width:0.8;" x="57.6" xlink:href="#m2c57bff76a" y="176.901255"/>
      </g>
     </g>
     <g id="text_10">
      <!-- 0.3 -->
      <g transform="translate(34.696875 180.700474)scale(0.1 -0.1)">
       <use xlink:href="#DejaVuSans-48"/>
       <use x="63.623047" xlink:href="#DejaVuSans-46"/>
       <use x="95.410156" xlink:href="#DejaVuSans-51"/>
      </g>
     </g>
    </g>
    <g id="ytick_4">
     <g id="line2d_19">
      <path clip-path="url(#p8cea81bbf5)" d="M 57.6 132.917663 
L 414.72 132.917663 
" style="fill:none;stroke:#b0b0b0;stroke-linecap:square;stroke-width:0.8;"/>
     </g>
     <g id="line2d_20">
      <g>
       <use style="stroke:#000000;stroke-width:0.8;" x="57.6" xlink:href="#m2c57bff76a" y="132.917663"/>
      </g>
     </g>
     <g id="text_11">
      <!-- 0.4 -->
      <g transform="translate(34.696875 136.716882)scale(0.1 -0.1)">
       <use xlink:href="#DejaVuSans-48"/>
       <use x="63.623047" xlink:href="#DejaVuSans-46"/>
       <use x="95.410156" xlink:href="#DejaVuSans-52"/>
      </g>
     </g>
    </g>
    <g id="ytick_5">
     <g id="line2d_21">
      <path clip-path="url(#p8cea81bbf5)" d="M 57.6 88.93407 
L 414.72 88.93407 
" style="fill:none;stroke:#b0b0b0;stroke-linecap:square;stroke-width:0.8;"/>
     </g>
     <g id="line2d_22">
      <g>
       <use style="stroke:#000000;stroke-width:0.8;" x="57.6" xlink:href="#m2c57bff76a" y="88.93407"/>
      </g>
     </g>
     <g id="text_12">
      <!-- 0.5 -->
      <g transform="translate(34.696875 92.733289)scale(0.1 -0.1)">
       <use xlink:href="#DejaVuSans-48"/>
       <use x="63.623047" xlink:href="#DejaVuSans-46"/>
       <use x="95.410156" xlink:href="#DejaVuSans-53"/>
      </g>
     </g>
    </g>
    <g id="ytick_6">
     <g id="line2d_23">
      <path clip-path="url(#p8cea81bbf5)" d="M 57.6 44.950478 
L 414.72 44.950478 
" style="fill:none;stroke:#b0b0b0;stroke-linecap:square;stroke-width:0.8;"/>
     </g>
     <g id="line2d_24">
      <g>
       <use style="stroke:#000000;stroke-width:0.8;" x="57.6" xlink:href="#m2c57bff76a" y="44.950478"/>
      </g>
     </g>
     <g id="text_13">
      <!-- 0.6 -->
      <defs>
       <path d="M 33.015625 40.375 
Q 26.375 40.375 22.484375 35.828125 
Q 18.609375 31.296875 18.609375 23.390625 
Q 18.609375 15.53125 22.484375 10.953125 
Q 26.375 6.390625 33.015625 6.390625 
Q 39.65625 6.390625 43.53125 10.953125 
Q 47.40625 15.53125 47.40625 23.390625 
Q 47.40625 31.296875 43.53125 35.828125 
Q 39.65625 40.375 33.015625 40.375 
z
M 52.59375 71.296875 
L 52.59375 62.3125 
Q 48.875 64.0625 45.09375 64.984375 
Q 41.3125 65.921875 37.59375 65.921875 
Q 27.828125 65.921875 22.671875 59.328125 
Q 17.53125 52.734375 16.796875 39.40625 
Q 19.671875 43.65625 24.015625 45.921875 
Q 28.375 48.1875 33.59375 48.1875 
Q 44.578125 48.1875 50.953125 41.515625 
Q 57.328125 34.859375 57.328125 23.390625 
Q 57.328125 12.15625 50.6875 5.359375 
Q 44.046875 -1.421875 33.015625 -1.421875 
Q 20.359375 -1.421875 13.671875 8.265625 
Q 6.984375 17.96875 6.984375 36.375 
Q 6.984375 53.65625 15.1875 63.9375 
Q 23.390625 74.21875 37.203125 74.21875 
Q 40.921875 74.21875 44.703125 73.484375 
Q 48.484375 72.75 52.59375 71.296875 
z
" id="DejaVuSans-54"/>
      </defs>
      <g transform="translate(34.696875 48.749697)scale(0.1 -0.1)">
       <use xlink:href="#DejaVuSans-48"/>
       <use x="63.623047" xlink:href="#DejaVuSans-46"/>
       <use x="95.410156" xlink:href="#DejaVuSans-54"/>
      </g>
     </g>
    </g>
    <g id="text_14">
     <!-- Fitness -->
     <defs>
      <path d="M 9.8125 72.90625 
L 51.703125 72.90625 
L 51.703125 64.59375 
L 19.671875 64.59375 
L 19.671875 43.109375 
L 48.578125 43.109375 
L 48.578125 34.8125 
L 19.671875 34.8125 
L 19.671875 0 
L 9.8125 0 
z
" id="DejaVuSans-70"/>
     </defs>
     <g transform="translate(28.617187 192.202219)rotate(-90)scale(0.1 -0.1)">
      <use xlink:href="#DejaVuSans-70"/>
      <use x="57.410156" xlink:href="#DejaVuSans-105"/>
      <use x="85.193359" xlink:href="#DejaVuSans-116"/>
      <use x="124.402344" xlink:href="#DejaVuSans-110"/>
      <use x="187.78125" xlink:href="#DejaVuSans-101"/>
      <use x="249.304688" xlink:href="#DejaVuSans-115"/>
      <use x="301.404297" xlink:href="#DejaVuSans-115"/>
     </g>
    </g>
   </g>
   <g id="line2d_25">
    <path clip-path="url(#p8cea81bbf5)" d="M 73.832727 209.091381 
L 75.133948 139.120263 
L 75.784558 135.813818 
L 76.435169 163.029159 
L 77.085779 145.911747 
L 77.736389 145.024882 
L 78.386999 139.088183 
L 79.03761 149.084566 
L 79.68822 146.818876 
L 80.33883 150.542931 
L 80.989441 156.332665 
L 82.290661 183.590781 
L 82.941272 169.660547 
L 83.591882 167.061425 
L 84.242492 163.317773 
L 84.893103 161.621765 
L 85.543713 169.848189 
L 86.194323 160.141468 
L 86.844934 163.748727 
L 87.495544 165.414889 
L 88.146154 154.571307 
L 88.796764 162.504762 
L 90.097985 156.645329 
L 91.399206 161.689042 
L 92.049816 167.24493 
L 92.700426 164.275288 
L 93.351037 163.147155 
L 94.001647 173.163211 
L 95.302868 165.870147 
L 95.953478 157.67605 
L 96.604088 170.449872 
L 97.254698 163.863513 
L 97.905309 163.145544 
L 98.555919 186.575207 
L 99.206529 175.964779 
L 99.85714 167.739857 
L 100.50775 167.128095 
L 101.15836 176.735244 
L 101.808971 161.733646 
L 102.459581 159.585976 
L 103.110191 161.644625 
L 103.760802 167.908451 
L 104.411412 151.566015 
L 105.062022 172.900811 
L 105.712633 174.630567 
L 106.363243 175.081158 
L 107.013853 175.777366 
L 107.664463 184.422028 
L 108.315074 180.206116 
L 108.965684 173.088904 
L 109.616294 167.779043 
L 110.266905 168.631456 
L 110.917515 164.63726 
L 111.568125 169.922007 
L 112.218736 166.253673 
L 112.869346 165.023703 
L 113.519956 179.180978 
L 114.170567 175.064144 
L 114.821177 168.712486 
L 115.471787 182.14982 
L 116.122398 175.209415 
L 116.773008 169.711517 
L 117.423618 176.662277 
L 118.074228 195.52171 
L 118.724839 189.140849 
L 119.375449 193.522295 
L 120.67667 184.867242 
L 121.32728 190.171711 
L 121.97789 188.445221 
L 122.628501 185.117063 
L 123.279111 172.060033 
L 123.929721 177.791286 
L 124.580332 173.769726 
L 125.230942 171.46851 
L 125.881552 178.288203 
L 126.532163 193.487934 
L 127.182773 178.935426 
L 127.833383 168.57166 
L 128.483993 181.616868 
L 129.134604 184.94216 
L 129.785214 178.268396 
L 130.435824 170.251795 
L 131.737045 183.91991 
L 132.387655 194.054649 
L 133.038266 189.458442 
L 133.688876 186.321912 
L 134.339486 189.007202 
L 134.990097 189.923332 
L 135.640707 174.741956 
L 136.291317 185.147264 
L 136.941927 179.555619 
L 137.592538 185.841818 
L 138.243148 172.554267 
L 139.544369 187.882664 
L 140.194979 179.867062 
L 140.845589 173.640073 
L 141.4962 170.34253 
L 142.14681 181.701001 
L 142.79742 176.043559 
L 143.448031 167.950087 
L 144.098641 169.591709 
L 145.399862 183.024083 
L 146.050472 176.948991 
L 146.701082 175.720798 
L 147.351692 177.638042 
L 148.002303 162.879168 
L 148.652913 170.494401 
L 149.303523 168.650368 
L 149.954134 180.648917 
L 150.604744 163.811444 
L 151.255354 169.477925 
L 151.905965 186.71136 
L 152.556575 171.73408 
L 153.207185 178.077508 
L 153.857796 177.027915 
L 154.508406 169.707895 
L 155.159016 175.652645 
L 155.809627 163.708827 
L 156.460237 190.653806 
L 157.110847 166.783991 
L 157.761457 169.810842 
L 158.412068 165.129815 
L 159.062678 184.591552 
L 159.713288 185.550674 
L 160.363899 178.684704 
L 161.014509 166.482786 
L 161.665119 177.921255 
L 162.31573 184.836527 
L 162.96634 178.021512 
L 163.61695 173.093422 
L 164.267561 190.365297 
L 164.918171 185.648617 
L 165.568781 174.268044 
L 166.219392 172.188917 
L 166.870002 170.491822 
L 167.520612 170.768371 
L 168.171222 178.387007 
L 168.821833 177.625548 
L 169.472443 178.898467 
L 170.123053 180.659997 
L 170.773664 178.414084 
L 171.424274 185.965566 
L 172.074884 172.503437 
L 172.725495 194.792603 
L 173.376105 175.542788 
L 174.026715 181.409745 
L 174.677326 183.622577 
L 175.327936 196.177695 
L 176.629156 183.452145 
L 177.279767 169.371907 
L 177.930377 182.659586 
L 178.580987 185.375834 
L 179.231598 191.69419 
L 179.882208 196.725977 
L 180.532818 198.298562 
L 181.183429 182.363557 
L 181.834039 181.022656 
L 182.484649 156.634101 
L 183.13526 168.098834 
L 183.78587 160.001763 
L 184.43648 176.207707 
L 185.087091 186.733348 
L 185.737701 172.809087 
L 186.388311 176.570398 
L 187.038921 188.223082 
L 187.689532 183.712818 
L 188.340142 195.793712 
L 188.990752 185.60799 
L 189.641363 184.669762 
L 190.291973 191.849696 
L 191.593194 171.636574 
L 192.243804 186.754919 
L 192.894414 187.613375 
L 193.545025 180.984386 
L 194.195635 192.118522 
L 195.496856 174.540617 
L 196.147466 175.049974 
L 197.448686 165.156302 
L 198.099297 158.877653 
L 198.749907 162.360296 
L 199.400517 158.081246 
L 200.051128 170.745694 
L 200.701738 168.045344 
L 201.352348 185.97437 
L 202.002959 171.749068 
L 202.653569 170.077704 
L 203.304179 173.899353 
L 203.95479 172.410949 
L 204.6054 171.666551 
L 205.25601 176.708108 
L 205.906621 170.557105 
L 206.557231 165.742277 
L 207.207841 176.476463 
L 207.858451 177.502813 
L 208.509062 166.369381 
L 209.159672 164.605695 
L 209.810282 178.41763 
L 210.460893 173.947373 
L 211.111503 172.46634 
L 211.762113 168.461056 
L 212.412724 187.160167 
L 213.063334 193.824832 
L 213.713944 199.109498 
L 214.364555 199.302557 
L 215.015165 184.434953 
L 215.665775 204.025681 
L 216.316385 189.307604 
L 217.617606 177.374663 
L 218.268216 171.101368 
L 218.918827 162.803369 
L 219.569437 183.622776 
L 220.220047 168.562961 
L 220.870658 158.724798 
L 221.521268 171.258345 
L 222.171878 162.983103 
L 222.822489 162.743505 
L 223.473099 165.317994 
L 224.123709 155.063437 
L 224.77432 175.062668 
L 225.42493 152.765976 
L 226.07554 167.671793 
L 226.72615 164.440365 
L 227.376761 165.771936 
L 228.027371 170.468518 
L 228.677981 167.366795 
L 229.328592 158.207065 
L 229.979202 166.96078 
L 230.629812 162.028646 
L 231.280423 176.683081 
L 231.931033 159.922396 
L 232.581643 176.334125 
L 233.232254 169.311604 
L 233.882864 158.96133 
L 234.533474 172.858613 
L 235.184085 174.726253 
L 235.834695 169.437294 
L 236.485305 169.983317 
L 237.135915 168.197811 
L 237.786526 152.169835 
L 238.437136 164.668732 
L 239.087746 174.955668 
L 239.738357 160.289474 
L 240.388967 176.437262 
L 241.039577 162.446143 
L 241.690188 173.489115 
L 242.340798 158.423873 
L 242.991408 154.218009 
L 243.642019 165.377429 
L 244.292629 171.866745 
L 244.943239 163.824944 
L 245.59385 162.500443 
L 246.24446 171.930859 
L 246.89507 175.258679 
L 247.54568 184.653744 
L 248.196291 178.07471 
L 249.497511 160.736125 
L 250.148122 162.377218 
L 250.798732 169.438271 
L 251.449342 162.593604 
L 252.099953 161.349844 
L 252.750563 158.982498 
L 253.401173 158.615349 
L 254.051784 159.5759 
L 254.702394 160.25081 
L 255.353004 157.117028 
L 256.003615 153.352706 
L 256.654225 167.127905 
L 257.304835 161.645616 
L 257.955445 149.332631 
L 258.606056 159.186081 
L 259.256666 162.590291 
L 259.907276 170.825623 
L 260.557887 156.01795 
L 261.208497 164.995316 
L 261.859107 162.080996 
L 262.509718 157.756452 
L 263.160328 156.003437 
L 263.810938 163.291606 
L 264.461549 161.780154 
L 265.112159 168.119296 
L 265.762769 162.249801 
L 266.413379 153.896313 
L 267.06399 165.297624 
L 267.7146 165.142828 
L 268.36521 154.052884 
L 269.015821 161.000201 
L 269.666431 154.783372 
L 270.317041 167.347845 
L 270.967652 162.36114 
L 271.618262 174.794981 
L 272.268872 170.183035 
L 273.570093 157.245305 
L 274.220703 157.798223 
L 274.871314 167.836301 
L 275.521924 171.48475 
L 276.172534 166.90814 
L 276.823144 163.28587 
L 277.473755 170.146623 
L 278.124365 165.06137 
L 278.774975 157.509761 
L 279.425586 164.771604 
L 280.076196 165.507028 
L 280.726806 166.814423 
L 281.377417 169.326562 
L 282.028027 159.937141 
L 282.678637 167.214921 
L 283.329248 170.720603 
L 283.979858 159.160075 
L 284.630468 166.682046 
L 285.281079 163.392779 
L 285.931689 168.547599 
L 286.582299 152.743883 
L 287.232909 163.864178 
L 287.88352 153.12044 
L 288.53413 151.658116 
L 289.18474 153.789197 
L 289.835351 149.543629 
L 290.485961 163.728768 
L 291.136571 143.978258 
L 291.787182 142.083287 
L 292.437792 134.147132 
L 293.739013 152.495318 
L 294.389623 144.371756 
L 295.040233 153.825682 
L 295.690844 146.369768 
L 296.341454 150.737392 
L 296.992064 150.761126 
L 297.642674 161.046811 
L 298.293285 152.096966 
L 298.943895 156.403749 
L 299.594505 144.032392 
L 300.245116 157.423293 
L 300.895726 159.760859 
L 301.546336 145.566049 
L 302.196947 149.512353 
L 302.847557 165.364899 
L 303.498167 146.321623 
L 304.148778 167.394876 
L 305.449998 160.754094 
L 306.100608 152.12704 
L 306.751219 160.082105 
L 308.052439 170.721302 
L 308.70305 159.634654 
L 309.35366 153.321299 
L 310.00427 160.674492 
L 310.654881 170.352491 
L 311.305491 154.354995 
L 311.956101 161.465243 
L 312.606712 164.660422 
L 313.257322 156.911787 
L 313.907932 160.331805 
L 314.558543 161.555885 
L 315.209153 162.273643 
L 315.859763 165.798301 
L 316.510373 154.582425 
L 317.160984 162.732641 
L 317.811594 156.67526 
L 318.462204 161.37693 
L 319.112815 153.02805 
L 319.763425 157.746036 
L 320.414035 163.865564 
L 321.064646 161.241248 
L 321.715256 168.192047 
L 322.365866 158.84365 
L 323.016477 152.450282 
L 323.667087 179.797071 
L 324.317697 170.608073 
L 324.968308 172.394902 
L 325.618918 179.642575 
L 326.269528 165.297074 
L 326.920138 175.582815 
L 327.570749 172.034559 
L 328.221359 176.113806 
L 328.871969 169.768986 
L 329.52258 183.517818 
L 330.17319 173.030783 
L 330.8238 177.83035 
L 331.474411 187.272437 
L 332.125021 174.649446 
L 332.775631 176.279618 
L 333.426242 171.74854 
L 334.076852 176.741441 
L 334.727462 190.125442 
L 335.378073 169.473369 
L 336.028683 185.902499 
L 336.679293 185.438468 
L 337.329903 180.778228 
L 337.980514 168.203942 
L 338.631124 169.515033 
L 339.281734 174.844707 
L 339.932345 170.711143 
L 340.582955 176.433048 
L 341.233565 173.705316 
L 341.884176 179.214263 
L 342.534786 163.595665 
L 343.185396 181.713468 
L 343.836007 168.179757 
L 344.486617 174.839115 
L 345.137227 173.528494 
L 345.787837 171.193472 
L 346.438448 179.771961 
L 347.089058 179.683692 
L 347.739668 172.859115 
L 348.390279 170.880533 
L 349.040889 172.546216 
L 349.691499 181.952362 
L 350.34211 170.024861 
L 350.99272 182.452497 
L 351.64333 169.972782 
L 352.293941 178.26502 
L 352.944551 176.674642 
L 353.595161 168.481505 
L 354.245772 163.412789 
L 354.896382 181.13661 
L 355.546992 175.234407 
L 356.197602 178.918585 
L 356.848213 179.970992 
L 357.498823 179.492475 
L 358.149433 179.433522 
L 358.800044 175.091819 
L 359.450654 178.313396 
L 360.101264 175.115033 
L 360.751875 179.170186 
L 361.402485 184.190273 
L 362.053095 184.911371 
L 362.703706 187.178024 
L 363.354316 176.190887 
L 364.004926 183.784992 
L 364.655537 179.238003 
L 365.306147 175.505517 
L 365.956757 191.255872 
L 366.607367 189.113905 
L 367.908588 173.711659 
L 369.209809 192.966217 
L 369.860419 173.50157 
L 370.511029 189.328644 
L 371.16164 187.605554 
L 372.46286 183.315318 
L 373.113471 196.929059 
L 373.764081 173.514011 
L 374.414691 184.910098 
L 375.065302 177.270424 
L 375.715912 179.129891 
L 376.366522 196.631978 
L 377.017132 192.551778 
L 377.667743 195.738796 
L 378.318353 175.99329 
L 378.968963 180.512019 
L 379.619574 169.913857 
L 380.270184 173.949427 
L 380.920794 172.040004 
L 381.571405 169.139109 
L 382.222015 163.895316 
L 382.872625 167.538538 
L 383.523236 175.542748 
L 384.173846 176.405972 
L 384.824456 177.756738 
L 385.475066 188.92076 
L 386.125677 183.065847 
L 386.776287 180.668584 
L 387.426897 183.613021 
L 388.077508 197.839693 
L 388.728118 183.641788 
L 389.378728 181.91275 
L 390.029339 186.14966 
L 390.679949 192.331118 
L 391.330559 188.974396 
L 391.98117 186.564214 
L 392.63178 189.332625 
L 393.28239 177.930074 
L 393.933001 175.528294 
L 394.583611 185.405728 
L 395.234221 184.445117 
L 395.884831 184.700068 
L 396.535442 189.107451 
L 397.186052 187.664099 
L 397.836662 171.444905 
L 398.487273 181.428503 
L 398.487273 181.428503 
" style="fill:none;stroke:#0000ff;stroke-linecap:square;stroke-width:1.5;"/>
   </g>
   <g id="line2d_26">
    <path clip-path="url(#p8cea81bbf5)" d="M 73.832727 271.443204 
L 74.483338 270.140258 
L 75.133948 222.890112 
L 75.784558 218.059637 
L 76.435169 256.446569 
L 77.085779 227.237589 
L 77.736389 225.131775 
L 78.386999 214.0972 
L 79.03761 234.062456 
L 79.68822 230.735004 
L 80.33883 234.412402 
L 81.640051 258.991554 
L 82.290661 277.76098 
L 82.941272 257.985458 
L 84.242492 252.289862 
L 84.893103 249.487237 
L 85.543713 259.120452 
L 86.194323 246.280165 
L 86.844934 251.528375 
L 87.495544 251.014953 
L 88.146154 237.905468 
L 88.796764 250.090089 
L 89.447375 245.453524 
L 90.097985 243.167061 
L 90.748595 244.704374 
L 91.399206 248.960638 
L 92.049816 257.180332 
L 93.351037 247.965066 
L 94.001647 263.334156 
L 94.652257 261.620518 
L 95.302868 257.914939 
L 95.953478 247.466823 
L 96.604088 265.339046 
L 97.254698 254.801694 
L 97.905309 251.826473 
L 98.555919 278.314665 
L 99.206529 268.154417 
L 99.85714 261.946466 
L 100.50775 258.073612 
L 101.15836 268.076608 
L 101.808971 250.606168 
L 102.459581 245.676636 
L 103.110191 251.084884 
L 103.760802 258.8414 
L 104.411412 235.095646 
L 105.062022 259.814306 
L 105.712633 260.542488 
L 107.664463 269.632715 
L 108.315074 263.394828 
L 109.616294 256.030227 
L 110.266905 253.658299 
L 110.917515 252.331004 
L 111.568125 257.123733 
L 112.218736 251.696757 
L 112.869346 252.915842 
L 113.519956 266.942086 
L 114.170567 262.492593 
L 114.821177 255.47914 
L 115.471787 271.363198 
L 116.122398 270.037955 
L 116.773008 263.499608 
L 117.423618 268.365972 
L 118.074228 285.365299 
L 118.724839 281.147179 
L 119.375449 284.923363 
L 120.026059 281.766625 
L 120.67667 275.898989 
L 121.32728 279.769664 
L 121.97789 275.831039 
L 122.628501 277.295397 
L 123.279111 261.774676 
L 123.929721 271.249796 
L 125.230942 264.896025 
L 125.881552 274.172913 
L 126.532163 292.069368 
L 127.182773 276.856776 
L 127.833383 264.576743 
L 128.483993 279.009272 
L 129.134604 281.890028 
L 129.785214 276.851957 
L 130.435824 266.645861 
L 131.737045 283.171138 
L 132.387655 292.519295 
L 133.038266 288.538992 
L 133.688876 283.801754 
L 134.339486 285.535892 
L 134.990097 286.657474 
L 135.640707 271.101712 
L 136.291317 284.938983 
L 136.941927 276.625668 
L 137.592538 283.104771 
L 138.243148 268.369831 
L 139.544369 285.236621 
L 140.194979 276.282845 
L 141.4962 265.510174 
L 142.14681 277.900603 
L 142.79742 273.464831 
L 143.448031 260.095678 
L 144.749251 273.905423 
L 145.399862 279.203368 
L 146.050472 276.989037 
L 146.701082 273.110255 
L 147.351692 272.729045 
L 148.002303 257.648148 
L 148.652913 264.420218 
L 149.303523 261.314324 
L 149.954134 278.328897 
L 150.604744 257.998036 
L 151.255354 263.626639 
L 151.905965 283.818104 
L 152.556575 266.557966 
L 153.207185 273.510972 
L 153.857796 272.744709 
L 154.508406 262.337617 
L 155.159016 271.056935 
L 155.809627 254.981423 
L 156.460237 285.498392 
L 157.110847 259.862986 
L 157.761457 263.947843 
L 158.412068 261.20916 
L 159.062678 282.489923 
L 159.713288 284.481903 
L 161.014509 260.592664 
L 161.665119 271.990722 
L 162.31573 278.950659 
L 162.96634 272.232254 
L 163.61695 270.329391 
L 164.267561 285.450723 
L 164.918171 281.277883 
L 165.568781 271.111279 
L 166.219392 266.331015 
L 166.870002 264.271657 
L 167.520612 264.083777 
L 168.171222 273.006674 
L 168.821833 275.310933 
L 169.472443 275.521789 
L 170.123053 275.425707 
L 170.773664 275.66729 
L 171.424274 280.469343 
L 172.074884 268.151746 
L 172.725495 292.629305 
L 173.376105 273.995166 
L 174.026715 277.669946 
L 174.677326 283.434118 
L 175.327936 292.934542 
L 175.978546 288.534758 
L 176.629156 280.622234 
L 177.279767 268.141806 
L 177.930377 280.085874 
L 178.580987 280.238823 
L 179.231598 291.228398 
L 179.882208 294.658015 
L 180.532818 295.488 
L 181.183429 278.102589 
L 181.834039 279.549842 
L 182.484649 249.061497 
L 183.13526 264.266904 
L 183.78587 255.330194 
L 184.43648 271.546766 
L 185.087091 273.382895 
L 185.737701 261.345649 
L 186.388311 258.714357 
L 187.038921 275.347019 
L 187.689532 276.101208 
L 188.340142 286.356114 
L 188.990752 278.741487 
L 189.641363 277.374254 
L 190.291973 288.203378 
L 190.942583 277.381693 
L 191.593194 264.157592 
L 192.243804 281.132108 
L 192.894414 282.680642 
L 193.545025 275.346867 
L 194.195635 286.885207 
L 195.496856 266.539947 
L 196.147466 270.344156 
L 196.798076 262.331146 
L 197.448686 258.205768 
L 198.099297 249.433373 
L 198.749907 254.404238 
L 199.400517 250.301971 
L 200.051128 264.253259 
L 200.701738 261.017262 
L 201.352348 281.934789 
L 202.002959 265.888276 
L 202.653569 262.074977 
L 203.304179 269.767058 
L 203.95479 261.851565 
L 204.6054 264.016722 
L 205.25601 265.42795 
L 205.906621 261.871118 
L 206.557231 256.739645 
L 207.207841 267.952676 
L 207.858451 270.062526 
L 208.509062 255.030368 
L 209.159672 254.162009 
L 209.810282 274.819054 
L 210.460893 265.303975 
L 211.111503 264.025109 
L 211.762113 255.705052 
L 212.412724 274.370569 
L 213.063334 280.587605 
L 213.713944 285.665244 
L 214.364555 281.107093 
L 215.015165 271.014981 
L 215.665775 292.046491 
L 216.316385 278.262182 
L 216.966996 273.043227 
L 217.617606 261.16339 
L 218.268216 255.888826 
L 218.918827 246.401229 
L 219.569437 271.671424 
L 220.220047 252.409285 
L 220.870658 243.293551 
L 221.521268 260.624888 
L 222.171878 249.625254 
L 222.822489 250.529299 
L 223.473099 252.779888 
L 224.123709 236.263754 
L 224.77432 261.759507 
L 225.42493 235.160968 
L 226.07554 257.864171 
L 226.72615 251.051619 
L 228.027371 260.369727 
L 228.677981 257.169285 
L 229.328592 244.021233 
L 229.979202 254.280687 
L 230.629812 248.665025 
L 231.280423 269.259378 
L 231.931033 249.279306 
L 232.581643 267.423831 
L 233.232254 259.845348 
L 233.882864 249.975999 
L 234.533474 263.993848 
L 235.184085 264.350594 
L 235.834695 259.981033 
L 236.485305 258.495041 
L 237.135915 257.867616 
L 237.786526 234.329689 
L 239.087746 262.54761 
L 239.738357 245.491668 
L 240.388967 269.04239 
L 241.039577 247.433528 
L 241.690188 261.188205 
L 242.340798 241.337109 
L 242.991408 237.988254 
L 243.642019 252.495701 
L 244.292629 260.378769 
L 244.943239 249.293073 
L 245.59385 245.446966 
L 246.24446 258.314773 
L 246.89507 261.515771 
L 247.54568 277.407629 
L 248.846901 262.492908 
L 249.497511 251.915213 
L 250.148122 253.148281 
L 250.798732 259.535003 
L 251.449342 248.217184 
L 252.099953 246.538152 
L 252.750563 242.364431 
L 253.401173 240.629727 
L 254.051784 242.238345 
L 254.702394 244.599385 
L 255.353004 239.603557 
L 256.003615 231.211694 
L 256.654225 256.637049 
L 257.304835 248.048825 
L 257.955445 231.324429 
L 258.606056 247.375577 
L 259.256666 244.610455 
L 259.907276 259.096986 
L 260.557887 241.821156 
L 261.208497 250.915747 
L 261.859107 246.232957 
L 262.509718 243.949815 
L 263.160328 239.3217 
L 263.810938 249.874924 
L 264.461549 246.667003 
L 265.112159 255.068792 
L 266.413379 238.119876 
L 267.06399 252.888836 
L 267.7146 253.12661 
L 268.36521 239.475022 
L 269.015821 245.644963 
L 269.666431 240.335694 
L 270.317041 251.98707 
L 270.967652 249.582279 
L 271.618262 264.996598 
L 272.268872 258.871417 
L 272.919483 248.341966 
L 273.570093 241.241258 
L 274.220703 242.465573 
L 274.871314 258.914419 
L 275.521924 260.267846 
L 276.172534 252.243629 
L 276.823144 249.766289 
L 277.473755 254.646074 
L 278.124365 254.460272 
L 278.774975 241.395936 
L 279.425586 251.464597 
L 280.076196 254.083479 
L 280.726806 253.087635 
L 281.377417 255.726855 
L 282.028027 250.128404 
L 282.678637 254.287965 
L 283.329248 255.176628 
L 283.979858 245.08866 
L 284.630468 251.228733 
L 285.281079 251.210578 
L 285.931689 259.534226 
L 286.582299 235.170177 
L 287.232909 251.858202 
L 287.88352 239.884393 
L 288.53413 234.023222 
L 289.18474 239.866304 
L 289.835351 234.762519 
L 290.485961 251.666954 
L 291.136571 222.684548 
L 291.787182 220.00721 
L 292.437792 208.895976 
L 293.088402 220.269313 
L 293.739013 235.070739 
L 294.389623 227.24587 
L 295.040233 238.119971 
L 295.690844 228.728334 
L 296.341454 230.788166 
L 296.992064 234.429257 
L 297.642674 246.642945 
L 298.293285 234.175831 
L 298.943895 237.817287 
L 299.594505 220.879958 
L 300.245116 239.783739 
L 300.895726 239.310822 
L 301.546336 226.299005 
L 302.196947 225.597342 
L 302.847557 251.871819 
L 303.498167 226.929885 
L 304.148778 253.290101 
L 304.799388 247.024581 
L 305.449998 248.200471 
L 306.100608 234.059206 
L 306.751219 245.699582 
L 307.401829 250.696613 
L 308.052439 258.619943 
L 308.70305 242.888385 
L 309.35366 236.79959 
L 310.00427 245.072803 
L 310.654881 257.143184 
L 311.305491 238.244528 
L 311.956101 249.058739 
L 312.606712 251.852905 
L 313.257322 242.924268 
L 313.907932 248.206671 
L 314.558543 249.529604 
L 315.209153 251.336108 
L 315.859763 249.751901 
L 316.510373 232.82368 
L 317.160984 249.003431 
L 317.811594 235.221348 
L 318.462204 246.431386 
L 319.112815 232.851214 
L 319.763425 244.754639 
L 320.414035 248.68412 
L 321.064646 245.799434 
L 321.715256 257.850689 
L 322.365866 242.663925 
L 323.016477 236.217077 
L 323.667087 276.391165 
L 324.317697 262.561786 
L 324.968308 266.163988 
L 325.618918 275.319976 
L 326.269528 260.452308 
L 326.920138 269.020255 
L 327.570749 265.667202 
L 328.221359 271.204575 
L 328.871969 265.091709 
L 329.52258 279.171388 
L 330.17319 267.457247 
L 330.8238 274.324533 
L 331.474411 282.65179 
L 332.125021 268.546302 
L 332.775631 268.79828 
L 333.426242 263.279702 
L 334.076852 271.160556 
L 334.727462 287.615366 
L 335.378073 263.718036 
L 336.028683 282.710751 
L 336.679293 283.186477 
L 337.329903 276.168164 
L 337.980514 263.401042 
L 338.631124 264.487496 
L 339.281734 271.76656 
L 339.932345 267.220015 
L 340.582955 274.214688 
L 341.233565 271.419355 
L 341.884176 276.717929 
L 342.534786 258.234118 
L 343.185396 281.144815 
L 343.836007 261.087758 
L 344.486617 271.218897 
L 345.137227 267.207958 
L 345.787837 266.878611 
L 346.438448 276.657641 
L 347.089058 274.011794 
L 347.739668 266.493875 
L 348.390279 265.725631 
L 349.040889 268.073664 
L 349.691499 277.736236 
L 350.34211 265.748083 
L 350.99272 280.369402 
L 351.64333 265.139075 
L 352.293941 272.758217 
L 352.944551 272.118334 
L 353.595161 262.333099 
L 354.245772 258.387632 
L 354.896382 276.66476 
L 355.546992 271.207982 
L 356.197602 274.941387 
L 356.848213 275.031032 
L 357.498823 274.806354 
L 358.149433 277.16886 
L 358.800044 269.265605 
L 359.450654 271.506759 
L 360.101264 270.21237 
L 360.751875 272.697156 
L 361.402485 280.135485 
L 362.053095 281.226893 
L 362.703706 284.976281 
L 363.354316 270.639917 
L 364.004926 281.335014 
L 364.655537 274.530734 
L 365.306147 270.686409 
L 365.956757 288.523637 
L 366.607367 283.7443 
L 367.257978 277.168156 
L 367.908588 267.112785 
L 368.559198 281.007103 
L 369.209809 287.101922 
L 369.860419 269.325164 
L 370.511029 286.516075 
L 371.16164 285.720884 
L 371.81225 282.025637 
L 372.46286 280.805018 
L 373.113471 291.381644 
L 373.764081 265.613424 
L 374.414691 280.00678 
L 375.065302 270.995654 
L 375.715912 273.157147 
L 376.366522 290.142979 
L 377.017132 289.70985 
L 377.667743 291.297169 
L 378.318353 271.983565 
L 378.968963 275.887304 
L 379.619574 266.41447 
L 380.270184 266.613097 
L 380.920794 263.589908 
L 381.571405 261.389682 
L 382.222015 255.942015 
L 382.872625 260.72701 
L 383.523236 268.628081 
L 384.173846 268.698659 
L 384.824456 273.411318 
L 385.475066 281.847542 
L 386.125677 274.778634 
L 386.776287 274.251244 
L 387.426897 279.419654 
L 388.077508 286.157001 
L 388.728118 277.256081 
L 389.378728 275.168219 
L 390.029339 278.701021 
L 390.679949 284.66432 
L 391.98117 275.640232 
L 392.63178 282.656948 
L 393.28239 270.2123 
L 393.933001 268.679322 
L 394.583611 279.673447 
L 395.234221 278.676298 
L 395.884831 283.196654 
L 396.535442 282.496597 
L 397.186052 284.754207 
L 397.836662 267.200054 
L 398.487273 273.532806 
L 398.487273 273.532806 
" style="fill:none;stroke:#008000;stroke-dasharray:9.6,2.4,1.5,2.4;stroke-dashoffset:0;stroke-width:1.5;"/>
   </g>
   <g id="line2d_27">
    <path clip-path="url(#p8cea81bbf5)" d="M 73.832727 146.739558 
L 74.483338 80.260028 
L 75.133948 55.350414 
L 75.784558 53.568 
L 76.435169 69.61175 
L 77.085779 64.585905 
L 77.736389 64.917989 
L 78.386999 64.079166 
L 79.03761 64.106676 
L 79.68822 62.902747 
L 80.33883 66.673459 
L 80.989441 65.500133 
L 81.640051 79.748119 
L 82.290661 89.420582 
L 82.941272 81.335636 
L 83.591882 79.182449 
L 84.242492 74.345685 
L 84.893103 73.756292 
L 85.543713 80.575926 
L 86.194323 74.002771 
L 86.844934 75.969078 
L 87.495544 79.814826 
L 88.146154 71.237146 
L 88.796764 74.919434 
L 89.447375 73.54618 
L 90.097985 70.123596 
L 90.748595 73.69697 
L 91.399206 74.417446 
L 92.049816 77.309529 
L 92.700426 76.122607 
L 93.351037 78.329245 
L 94.001647 82.992266 
L 94.652257 77.354579 
L 95.302868 73.825356 
L 95.953478 67.885277 
L 96.604088 75.560699 
L 97.254698 72.925332 
L 97.905309 74.464614 
L 98.555919 94.835749 
L 99.85714 73.533248 
L 100.50775 76.182578 
L 101.15836 85.393881 
L 101.808971 72.861124 
L 102.459581 73.495316 
L 103.110191 72.204367 
L 103.760802 76.975503 
L 104.411412 68.036384 
L 105.062022 85.987316 
L 105.712633 88.718647 
L 106.363243 86.429764 
L 107.013853 84.818622 
L 107.664463 99.211341 
L 108.315074 97.017405 
L 108.965684 86.251161 
L 109.616294 79.527859 
L 110.266905 83.604613 
L 110.917515 76.943515 
L 111.568125 82.72028 
L 112.218736 80.810589 
L 112.869346 77.131565 
L 113.519956 91.41987 
L 114.170567 87.635694 
L 114.821177 81.945831 
L 115.471787 92.936441 
L 116.122398 80.380875 
L 116.773008 75.923427 
L 117.423618 84.958582 
L 118.074228 105.67812 
L 118.724839 97.134518 
L 119.375449 102.121227 
L 120.026059 97.177715 
L 120.67667 93.835494 
L 121.32728 100.573758 
L 121.97789 101.059402 
L 122.628501 92.93873 
L 123.279111 82.34539 
L 123.929721 84.332775 
L 124.580332 79.580631 
L 125.230942 78.040995 
L 125.881552 82.403494 
L 126.532163 94.9065 
L 127.182773 81.014076 
L 127.833383 72.566577 
L 128.483993 84.224464 
L 129.134604 87.994292 
L 129.785214 79.684834 
L 130.435824 73.857729 
L 131.737045 84.668682 
L 132.387655 95.590002 
L 133.038266 90.377891 
L 133.688876 88.842071 
L 134.339486 92.478513 
L 134.990097 93.189191 
L 135.640707 78.3822 
L 136.291317 85.355545 
L 136.941927 82.48557 
L 137.592538 88.578864 
L 138.243148 76.738704 
L 139.544369 90.528706 
L 140.845589 76.233779 
L 141.4962 75.174886 
L 142.14681 85.501399 
L 142.79742 78.622287 
L 143.448031 75.804497 
L 144.098641 71.944307 
L 144.749251 78.478042 
L 145.399862 86.844798 
L 146.050472 76.908945 
L 146.701082 78.331342 
L 147.351692 82.547039 
L 148.002303 68.110188 
L 148.652913 76.568584 
L 149.303523 75.986412 
L 149.954134 82.968937 
L 150.604744 69.624851 
L 151.255354 75.329211 
L 151.905965 89.604616 
L 152.556575 76.910194 
L 153.207185 82.644044 
L 153.857796 81.311121 
L 154.508406 77.078172 
L 155.159016 80.248355 
L 155.809627 72.436232 
L 156.460237 95.809219 
L 157.110847 73.704995 
L 157.761457 75.673841 
L 158.412068 69.050471 
L 159.062678 86.693182 
L 159.713288 86.619445 
L 160.363899 84.509097 
L 161.014509 72.372909 
L 161.665119 83.851789 
L 162.31573 90.722394 
L 163.61695 75.857453 
L 164.267561 95.27987 
L 164.918171 90.019351 
L 165.568781 77.424808 
L 166.219392 78.046819 
L 166.870002 76.711987 
L 167.520612 77.452966 
L 168.171222 83.767341 
L 168.821833 79.940162 
L 169.472443 82.275144 
L 170.123053 85.894287 
L 170.773664 81.160878 
L 171.424274 91.46179 
L 172.074884 76.855127 
L 172.725495 96.955901 
L 173.376105 77.09041 
L 174.026715 85.149544 
L 174.677326 83.811035 
L 175.327936 99.420848 
L 175.978546 91.392356 
L 176.629156 86.282055 
L 177.279767 70.602007 
L 177.930377 85.233299 
L 178.580987 90.512845 
L 179.231598 92.159982 
L 179.882208 98.79394 
L 180.532818 101.109124 
L 181.183429 86.624525 
L 181.834039 82.49547 
L 182.484649 64.206705 
L 183.13526 71.930763 
L 183.78587 64.673332 
L 184.43648 80.868647 
L 185.087091 100.083801 
L 185.737701 84.272525 
L 186.388311 94.426439 
L 187.038921 101.099146 
L 187.689532 91.324428 
L 188.340142 105.23131 
L 188.990752 92.474492 
L 189.641363 91.965271 
L 190.291973 95.496015 
L 191.593194 79.115555 
L 192.243804 92.37773 
L 192.894414 92.546108 
L 193.545025 86.621905 
L 194.195635 97.351836 
L 194.846245 88.3229 
L 195.496856 82.541287 
L 196.147466 79.755792 
L 196.798076 77.781205 
L 197.448686 72.106835 
L 198.099297 68.321932 
L 198.749907 70.316354 
L 199.400517 65.860521 
L 200.051128 77.238129 
L 200.701738 75.073426 
L 201.352348 90.013951 
L 202.002959 77.60986 
L 202.653569 78.080432 
L 203.304179 78.031649 
L 203.95479 82.970333 
L 204.6054 79.31638 
L 205.25601 87.988266 
L 205.906621 79.243091 
L 206.557231 74.74491 
L 207.207841 85.000249 
L 207.858451 84.943101 
L 208.509062 77.708394 
L 209.159672 75.049381 
L 209.810282 82.016207 
L 210.460893 82.59077 
L 211.111503 80.907571 
L 211.762113 81.217059 
L 212.412724 99.949766 
L 213.063334 107.062058 
L 214.364555 117.498021 
L 215.015165 97.854926 
L 215.665775 116.00487 
L 216.316385 100.353027 
L 216.966996 94.436067 
L 217.617606 93.585937 
L 218.918827 79.205509 
L 219.569437 95.574129 
L 220.870658 74.156046 
L 221.521268 81.891803 
L 222.171878 76.340952 
L 222.822489 74.957712 
L 223.473099 77.8561 
L 224.123709 73.86312 
L 224.77432 88.365828 
L 225.42493 70.370984 
L 226.07554 77.479415 
L 226.72615 77.829112 
L 227.376761 75.933149 
L 228.027371 80.567308 
L 228.677981 77.564305 
L 229.328592 72.392897 
L 229.979202 79.640873 
L 230.629812 75.392266 
L 231.280423 84.106784 
L 231.931033 70.565486 
L 232.581643 85.244418 
L 233.232254 78.77786 
L 233.882864 67.946662 
L 234.533474 81.723378 
L 235.184085 85.101911 
L 235.834695 78.893556 
L 236.485305 81.471593 
L 237.135915 78.528007 
L 237.786526 70.00998 
L 238.437136 80.773628 
L 239.087746 87.363726 
L 239.738357 75.08728 
L 240.388967 83.832133 
L 241.039577 77.458758 
L 241.690188 85.790025 
L 242.340798 75.510638 
L 242.991408 70.447764 
L 243.642019 78.259157 
L 244.292629 83.354721 
L 244.943239 78.356814 
L 245.59385 79.553921 
L 246.24446 85.546945 
L 247.54568 91.899859 
L 248.196291 85.934898 
L 249.497511 69.557038 
L 250.148122 71.606155 
L 250.798732 79.341539 
L 251.449342 76.970025 
L 252.099953 76.161536 
L 252.750563 75.600565 
L 253.401173 76.600971 
L 254.051784 76.913456 
L 254.702394 75.902235 
L 255.353004 74.630498 
L 256.003615 75.493718 
L 256.654225 77.618762 
L 257.304835 75.242406 
L 257.955445 67.340833 
L 258.606056 70.996586 
L 259.256666 80.570127 
L 259.907276 82.554261 
L 260.557887 70.214744 
L 261.208497 79.074884 
L 261.859107 77.929035 
L 262.509718 71.563089 
L 263.160328 72.685174 
L 263.810938 76.708288 
L 264.461549 76.893305 
L 265.112159 81.169799 
L 265.762769 77.341992 
L 266.413379 69.67275 
L 267.06399 77.706412 
L 267.7146 77.159046 
L 268.36521 68.630746 
L 269.015821 76.35544 
L 269.666431 69.231049 
L 270.317041 82.70862 
L 270.967652 75.14 
L 271.618262 84.593363 
L 272.268872 81.494653 
L 272.919483 78.946657 
L 273.570093 73.249353 
L 274.220703 73.130873 
L 274.871314 76.758183 
L 275.521924 82.701655 
L 276.172534 81.572651 
L 276.823144 76.805451 
L 277.473755 85.647172 
L 278.124365 75.662468 
L 278.774975 73.623585 
L 279.425586 78.078611 
L 280.076196 76.930577 
L 280.726806 80.541212 
L 281.377417 82.926269 
L 282.028027 69.745879 
L 282.678637 80.141878 
L 283.329248 86.264577 
L 283.979858 73.231491 
L 284.630468 82.13536 
L 285.281079 75.574981 
L 285.931689 77.560972 
L 286.582299 70.317588 
L 287.232909 75.870154 
L 287.88352 66.356487 
L 288.53413 69.29301 
L 289.18474 67.71209 
L 289.835351 64.324739 
L 290.485961 75.790582 
L 291.136571 65.271968 
L 291.787182 64.159363 
L 292.437792 59.398288 
L 293.088402 66.175386 
L 293.739013 69.919896 
L 294.389623 61.497642 
L 295.040233 69.531392 
L 295.690844 64.011202 
L 296.341454 70.686619 
L 296.992064 67.092995 
L 297.642674 75.450677 
L 298.293285 70.0181 
L 298.943895 74.990211 
L 299.594505 67.184827 
L 300.245116 75.062847 
L 300.895726 80.210896 
L 301.546336 64.833093 
L 302.196947 73.427365 
L 302.847557 78.857978 
L 303.498167 65.713361 
L 304.148778 81.499651 
L 304.799388 80.66647 
L 305.449998 73.307718 
L 306.100608 70.194873 
L 306.751219 74.464628 
L 307.401829 80.471668 
L 308.052439 82.82266 
L 309.35366 69.843008 
L 310.654881 83.561799 
L 311.305491 70.465461 
L 312.606712 77.46794 
L 313.257322 70.899305 
L 313.907932 72.45694 
L 314.558543 73.582165 
L 315.209153 73.211177 
L 315.859763 81.844702 
L 316.510373 76.34117 
L 317.160984 76.461851 
L 317.811594 78.129172 
L 318.462204 76.322474 
L 319.112815 73.204885 
L 319.763425 70.737432 
L 320.414035 79.047007 
L 321.064646 76.683063 
L 321.715256 78.533405 
L 322.365866 75.023376 
L 323.016477 68.683487 
L 323.667087 83.202976 
L 324.317697 78.654359 
L 324.968308 78.625817 
L 325.618918 83.965175 
L 326.269528 70.141839 
L 326.920138 82.145375 
L 327.570749 78.401916 
L 328.221359 81.023037 
L 328.871969 74.446262 
L 329.52258 87.864248 
L 330.17319 78.604318 
L 330.8238 81.336166 
L 331.474411 91.893084 
L 332.125021 80.752591 
L 332.775631 83.760955 
L 333.426242 80.217379 
L 334.076852 82.322327 
L 334.727462 92.635519 
L 335.378073 75.228701 
L 336.028683 89.094247 
L 336.679293 87.690458 
L 337.329903 85.388292 
L 337.980514 73.006842 
L 338.631124 74.54257 
L 339.281734 77.922854 
L 339.932345 74.20227 
L 340.582955 78.651409 
L 341.233565 75.991277 
L 341.884176 81.710597 
L 342.534786 68.957212 
L 343.185396 82.282121 
L 343.836007 75.271755 
L 344.486617 78.459333 
L 345.137227 79.849031 
L 345.787837 75.508332 
L 346.438448 82.886282 
L 347.089058 85.35559 
L 347.739668 79.224355 
L 348.390279 76.035434 
L 349.040889 77.018768 
L 349.691499 86.168488 
L 350.34211 74.301639 
L 350.99272 84.535591 
L 351.64333 74.806488 
L 352.293941 83.771822 
L 352.944551 81.230949 
L 354.245772 68.437946 
L 354.896382 85.60846 
L 355.546992 79.260833 
L 356.197602 82.895784 
L 356.848213 84.910951 
L 357.498823 84.178597 
L 358.149433 81.698184 
L 358.800044 80.918033 
L 359.450654 85.120033 
L 360.101264 80.017695 
L 360.751875 85.643216 
L 361.402485 88.245061 
L 362.053095 88.595849 
L 362.703706 89.379767 
L 363.354316 81.741857 
L 364.004926 86.23497 
L 364.655537 83.945273 
L 365.306147 80.324625 
L 365.956757 93.988107 
L 366.607367 94.483509 
L 367.257978 86.07302 
L 367.908588 80.310533 
L 368.559198 87.006872 
L 369.209809 98.830513 
L 369.860419 77.677976 
L 370.511029 92.141213 
L 371.16164 89.490223 
L 371.81225 89.077233 
L 372.46286 85.825619 
L 373.113471 102.476474 
L 373.764081 81.414599 
L 374.414691 89.813416 
L 375.065302 83.545195 
L 375.715912 85.102635 
L 376.366522 103.120976 
L 377.017132 95.393705 
L 377.667743 100.180423 
L 378.318353 80.003014 
L 378.968963 85.136733 
L 379.619574 73.413244 
L 380.270184 81.285757 
L 380.920794 80.4901 
L 381.571405 76.888536 
L 382.222015 71.848618 
L 382.872625 74.350066 
L 383.523236 82.457414 
L 384.173846 84.113285 
L 384.824456 82.102158 
L 385.475066 95.993978 
L 386.776287 87.085923 
L 387.426897 87.806388 
L 388.077508 109.522385 
L 388.728118 90.027496 
L 389.378728 88.657282 
L 390.029339 93.598298 
L 390.679949 99.997916 
L 391.330559 98.02532 
L 391.98117 97.488196 
L 392.63178 96.008302 
L 393.28239 85.647848 
L 393.933001 82.377267 
L 394.583611 91.13801 
L 395.234221 90.213936 
L 395.884831 86.203481 
L 396.535442 95.718305 
L 397.186052 90.573992 
L 397.836662 75.689757 
L 398.487273 89.324199 
L 398.487273 89.324199 
" style="fill:none;stroke:#008000;stroke-dasharray:9.6,2.4,1.5,2.4;stroke-dashoffset:0;stroke-width:1.5;"/>
   </g>
   <g id="line2d_28">
    <path clip-path="url(#p8cea81bbf5)" d="M 73.832727 83.120164 
L 74.483338 81.84424 
L 79.03761 81.82866 
L 79.68822 81.613333 
L 398.487273 81.59415 
L 398.487273 81.59415 
" style="fill:none;stroke:#ff0000;stroke-linecap:square;stroke-width:1.5;"/>
   </g>
   <g id="patch_3">
    <path d="M 57.6 307.584 
L 57.6 41.472 
" style="fill:none;stroke:#000000;stroke-linecap:square;stroke-linejoin:miter;stroke-width:0.8;"/>
   </g>
   <g id="patch_4">
    <path d="M 414.72 307.584 
L 414.72 41.472 
" style="fill:none;stroke:#000000;stroke-linecap:square;stroke-linejoin:miter;stroke-width:0.8;"/>
   </g>
   <g id="patch_5">
    <path d="M 57.6 307.584 
L 414.72 307.584 
" style="fill:none;stroke:#000000;stroke-linecap:square;stroke-linejoin:miter;stroke-width:0.8;"/>
   </g>
   <g id="patch_6">
    <path d="M 57.6 41.472 
L 414.72 41.472 
" style="fill:none;stroke:#000000;stroke-linecap:square;stroke-linejoin:miter;stroke-width:0.8;"/>
   </g>
   <g id="text_15">
    <!-- Population's average and best fitness -->
    <defs>
     <path d="M 19.671875 64.796875 
L 19.671875 37.40625 
L 32.078125 37.40625 
Q 38.96875 37.40625 42.71875 40.96875 
Q 46.484375 44.53125 46.484375 51.125 
Q 46.484375 57.671875 42.71875 61.234375 
Q 38.96875 64.796875 32.078125 64.796875 
z
M 9.8125 72.90625 
L 32.078125 72.90625 
Q 44.34375 72.90625 50.609375 67.359375 
Q 56.890625 61.8125 56.890625 51.125 
Q 56.890625 40.328125 50.609375 34.8125 
Q 44.34375 29.296875 32.078125 29.296875 
L 19.671875 29.296875 
L 19.671875 0 
L 9.8125 0 
z
" id="DejaVuSans-80"/>
     <path d="M 18.109375 8.203125 
L 18.109375 -20.796875 
L 9.078125 -20.796875 
L 9.078125 54.6875 
L 18.109375 54.6875 
L 18.109375 46.390625 
Q 20.953125 51.265625 25.265625 53.625 
Q 29.59375 56 35.59375 56 
Q 45.5625 56 51.78125 48.09375 
Q 58.015625 40.1875 58.015625 27.296875 
Q 58.015625 14.40625 51.78125 6.484375 
Q 45.5625 -1.421875 35.59375 -1.421875 
Q 29.59375 -1.421875 25.265625 0.953125 
Q 20.953125 3.328125 18.109375 8.203125 
z
M 48.6875 27.296875 
Q 48.6875 37.203125 44.609375 42.84375 
Q 40.53125 48.484375 33.40625 48.484375 
Q 26.265625 48.484375 22.1875 42.84375 
Q 18.109375 37.203125 18.109375 27.296875 
Q 18.109375 17.390625 22.1875 11.75 
Q 26.265625 6.109375 33.40625 6.109375 
Q 40.53125 6.109375 44.609375 11.75 
Q 48.6875 17.390625 48.6875 27.296875 
z
" id="DejaVuSans-112"/>
     <path d="M 8.5 21.578125 
L 8.5 54.6875 
L 17.484375 54.6875 
L 17.484375 21.921875 
Q 17.484375 14.15625 20.5 10.265625 
Q 23.53125 6.390625 29.59375 6.390625 
Q 36.859375 6.390625 41.078125 11.03125 
Q 45.3125 15.671875 45.3125 23.6875 
L 45.3125 54.6875 
L 54.296875 54.6875 
L 54.296875 0 
L 45.3125 0 
L 45.3125 8.40625 
Q 42.046875 3.421875 37.71875 1 
Q 33.40625 -1.421875 27.6875 -1.421875 
Q 18.265625 -1.421875 13.375 4.4375 
Q 8.5 10.296875 8.5 21.578125 
z
M 31.109375 56 
z
" id="DejaVuSans-117"/>
     <path d="M 9.421875 75.984375 
L 18.40625 75.984375 
L 18.40625 0 
L 9.421875 0 
z
" id="DejaVuSans-108"/>
     <path d="M 17.921875 72.90625 
L 17.921875 45.796875 
L 9.625 45.796875 
L 9.625 72.90625 
z
" id="DejaVuSans-39"/>
     <path id="DejaVuSans-32"/>
     <path d="M 2.984375 54.6875 
L 12.5 54.6875 
L 29.59375 8.796875 
L 46.6875 54.6875 
L 56.203125 54.6875 
L 35.6875 0 
L 23.484375 0 
z
" id="DejaVuSans-118"/>
     <path d="M 45.40625 27.984375 
Q 45.40625 37.75 41.375 43.109375 
Q 37.359375 48.484375 30.078125 48.484375 
Q 22.859375 48.484375 18.828125 43.109375 
Q 14.796875 37.75 14.796875 27.984375 
Q 14.796875 18.265625 18.828125 12.890625 
Q 22.859375 7.515625 30.078125 7.515625 
Q 37.359375 7.515625 41.375 12.890625 
Q 45.40625 18.265625 45.40625 27.984375 
z
M 54.390625 6.78125 
Q 54.390625 -7.171875 48.1875 -13.984375 
Q 42 -20.796875 29.203125 -20.796875 
Q 24.46875 -20.796875 20.265625 -20.09375 
Q 16.0625 -19.390625 12.109375 -17.921875 
L 12.109375 -9.1875 
Q 16.0625 -11.328125 19.921875 -12.34375 
Q 23.78125 -13.375 27.78125 -13.375 
Q 36.625 -13.375 41.015625 -8.765625 
Q 45.40625 -4.15625 45.40625 5.171875 
L 45.40625 9.625 
Q 42.625 4.78125 38.28125 2.390625 
Q 33.9375 0 27.875 0 
Q 17.828125 0 11.671875 7.65625 
Q 5.515625 15.328125 5.515625 27.984375 
Q 5.515625 40.671875 11.671875 48.328125 
Q 17.828125 56 27.875 56 
Q 33.9375 56 38.28125 53.609375 
Q 42.625 51.21875 45.40625 46.390625 
L 45.40625 54.6875 
L 54.390625 54.6875 
z
" id="DejaVuSans-103"/>
     <path d="M 45.40625 46.390625 
L 45.40625 75.984375 
L 54.390625 75.984375 
L 54.390625 0 
L 45.40625 0 
L 45.40625 8.203125 
Q 42.578125 3.328125 38.25 0.953125 
Q 33.9375 -1.421875 27.875 -1.421875 
Q 17.96875 -1.421875 11.734375 6.484375 
Q 5.515625 14.40625 5.515625 27.296875 
Q 5.515625 40.1875 11.734375 48.09375 
Q 17.96875 56 27.875 56 
Q 33.9375 56 38.25 53.625 
Q 42.578125 51.265625 45.40625 46.390625 
z
M 14.796875 27.296875 
Q 14.796875 17.390625 18.875 11.75 
Q 22.953125 6.109375 30.078125 6.109375 
Q 37.203125 6.109375 41.296875 11.75 
Q 45.40625 17.390625 45.40625 27.296875 
Q 45.40625 37.203125 41.296875 42.84375 
Q 37.203125 48.484375 30.078125 48.484375 
Q 22.953125 48.484375 18.875 42.84375 
Q 14.796875 37.203125 14.796875 27.296875 
z
" id="DejaVuSans-100"/>
     <path d="M 48.6875 27.296875 
Q 48.6875 37.203125 44.609375 42.84375 
Q 40.53125 48.484375 33.40625 48.484375 
Q 26.265625 48.484375 22.1875 42.84375 
Q 18.109375 37.203125 18.109375 27.296875 
Q 18.109375 17.390625 22.1875 11.75 
Q 26.265625 6.109375 33.40625 6.109375 
Q 40.53125 6.109375 44.609375 11.75 
Q 48.6875 17.390625 48.6875 27.296875 
z
M 18.109375 46.390625 
Q 20.953125 51.265625 25.265625 53.625 
Q 29.59375 56 35.59375 56 
Q 45.5625 56 51.78125 48.09375 
Q 58.015625 40.1875 58.015625 27.296875 
Q 58.015625 14.40625 51.78125 6.484375 
Q 45.5625 -1.421875 35.59375 -1.421875 
Q 29.59375 -1.421875 25.265625 0.953125 
Q 20.953125 3.328125 18.109375 8.203125 
L 18.109375 0 
L 9.078125 0 
L 9.078125 75.984375 
L 18.109375 75.984375 
z
" id="DejaVuSans-98"/>
     <path d="M 37.109375 75.984375 
L 37.109375 68.5 
L 28.515625 68.5 
Q 23.6875 68.5 21.796875 66.546875 
Q 19.921875 64.59375 19.921875 59.515625 
L 19.921875 54.6875 
L 34.71875 54.6875 
L 34.71875 47.703125 
L 19.921875 47.703125 
L 19.921875 0 
L 10.890625 0 
L 10.890625 47.703125 
L 2.296875 47.703125 
L 2.296875 54.6875 
L 10.890625 54.6875 
L 10.890625 58.5 
Q 10.890625 67.625 15.140625 71.796875 
Q 19.390625 75.984375 28.609375 75.984375 
z
" id="DejaVuSans-102"/>
    </defs>
    <g transform="translate(123.315 35.472)scale(0.12 -0.12)">
     <use xlink:href="#DejaVuSans-80"/>
     <use x="60.255859" xlink:href="#DejaVuSans-111"/>
     <use x="121.4375" xlink:href="#DejaVuSans-112"/>
     <use x="184.914062" xlink:href="#DejaVuSans-117"/>
     <use x="248.292969" xlink:href="#DejaVuSans-108"/>
     <use x="276.076172" xlink:href="#DejaVuSans-97"/>
     <use x="337.355469" xlink:href="#DejaVuSans-116"/>
     <use x="376.564453" xlink:href="#DejaVuSans-105"/>
     <use x="404.347656" xlink:href="#DejaVuSans-111"/>
     <use x="465.529297" xlink:href="#DejaVuSans-110"/>
     <use x="528.908203" xlink:href="#DejaVuSans-39"/>
     <use x="556.398438" xlink:href="#DejaVuSans-115"/>
     <use x="608.498047" xlink:href="#DejaVuSans-32"/>
     <use x="640.285156" xlink:href="#DejaVuSans-97"/>
     <use x="701.564453" xlink:href="#DejaVuSans-118"/>
     <use x="760.744141" xlink:href="#DejaVuSans-101"/>
     <use x="822.267578" xlink:href="#DejaVuSans-114"/>
     <use x="863.380859" xlink:href="#DejaVuSans-97"/>
     <use x="924.660156" xlink:href="#DejaVuSans-103"/>
     <use x="988.136719" xlink:href="#DejaVuSans-101"/>
     <use x="1049.660156" xlink:href="#DejaVuSans-32"/>
     <use x="1081.447266" xlink:href="#DejaVuSans-97"/>
     <use x="1142.726562" xlink:href="#DejaVuSans-110"/>
     <use x="1206.105469" xlink:href="#DejaVuSans-100"/>
     <use x="1269.582031" xlink:href="#DejaVuSans-32"/>
     <use x="1301.369141" xlink:href="#DejaVuSans-98"/>
     <use x="1364.845703" xlink:href="#DejaVuSans-101"/>
     <use x="1426.369141" xlink:href="#DejaVuSans-115"/>
     <use x="1478.46875" xlink:href="#DejaVuSans-116"/>
     <use x="1517.677734" xlink:href="#DejaVuSans-32"/>
     <use x="1549.464844" xlink:href="#DejaVuSans-102"/>
     <use x="1584.669922" xlink:href="#DejaVuSans-105"/>
     <use x="1612.453125" xlink:href="#DejaVuSans-116"/>
     <use x="1651.662109" xlink:href="#DejaVuSans-110"/>
     <use x="1715.041016" xlink:href="#DejaVuSans-101"/>
     <use x="1776.564453" xlink:href="#DejaVuSans-115"/>
     <use x="1828.664062" xlink:href="#DejaVuSans-115"/>
    </g>
   </g>
   <g id="legend_1">
    <g id="patch_7">
     <path d="M 64.6 302.584 
L 137.540625 302.584 
Q 139.540625 302.584 139.540625 300.584 
L 139.540625 242.8715 
Q 139.540625 240.8715 137.540625 240.8715 
L 64.6 240.8715 
Q 62.6 240.8715 62.6 242.8715 
L 62.6 300.584 
Q 62.6 302.584 64.6 302.584 
z
" style="fill:#ffffff;opacity:0.8;stroke:#cccccc;stroke-linejoin:miter;"/>
    </g>
    <g id="line2d_29">
     <path d="M 66.6 248.969937 
L 86.6 248.969937 
" style="fill:none;stroke:#0000ff;stroke-linecap:square;stroke-width:1.5;"/>
    </g>
    <g id="line2d_30"/>
    <g id="text_16">
     <!-- average -->
     <g transform="translate(94.6 252.469937)scale(0.1 -0.1)">
      <use xlink:href="#DejaVuSans-97"/>
      <use x="61.279297" xlink:href="#DejaVuSans-118"/>
      <use x="120.458984" xlink:href="#DejaVuSans-101"/>
      <use x="181.982422" xlink:href="#DejaVuSans-114"/>
      <use x="223.095703" xlink:href="#DejaVuSans-97"/>
      <use x="284.375" xlink:href="#DejaVuSans-103"/>
      <use x="347.851562" xlink:href="#DejaVuSans-101"/>
     </g>
    </g>
    <g id="line2d_31">
     <path d="M 66.6 263.648062 
L 86.6 263.648062 
" style="fill:none;stroke:#008000;stroke-dasharray:9.6,2.4,1.5,2.4;stroke-dashoffset:0;stroke-width:1.5;"/>
    </g>
    <g id="line2d_32"/>
    <g id="text_17">
     <!-- -1 sd -->
     <defs>
      <path d="M 4.890625 31.390625 
L 31.203125 31.390625 
L 31.203125 23.390625 
L 4.890625 23.390625 
z
" id="DejaVuSans-45"/>
     </defs>
     <g transform="translate(94.6 267.148062)scale(0.1 -0.1)">
      <use xlink:href="#DejaVuSans-45"/>
      <use x="36.083984" xlink:href="#DejaVuSans-49"/>
      <use x="99.707031" xlink:href="#DejaVuSans-32"/>
      <use x="131.494141" xlink:href="#DejaVuSans-115"/>
      <use x="183.59375" xlink:href="#DejaVuSans-100"/>
     </g>
    </g>
    <g id="line2d_33">
     <path d="M 66.6 278.326187 
L 86.6 278.326187 
" style="fill:none;stroke:#008000;stroke-dasharray:9.6,2.4,1.5,2.4;stroke-dashoffset:0;stroke-width:1.5;"/>
    </g>
    <g id="line2d_34"/>
    <g id="text_18">
     <!-- +1 sd -->
     <defs>
      <path d="M 46 62.703125 
L 46 35.5 
L 73.1875 35.5 
L 73.1875 27.203125 
L 46 27.203125 
L 46 0 
L 37.796875 0 
L 37.796875 27.203125 
L 10.59375 27.203125 
L 10.59375 35.5 
L 37.796875 35.5 
L 37.796875 62.703125 
z
" id="DejaVuSans-43"/>
     </defs>
     <g transform="translate(94.6 281.826187)scale(0.1 -0.1)">
      <use xlink:href="#DejaVuSans-43"/>
      <use x="83.789062" xlink:href="#DejaVuSans-49"/>
      <use x="147.412109" xlink:href="#DejaVuSans-32"/>
      <use x="179.199219" xlink:href="#DejaVuSans-115"/>
      <use x="231.298828" xlink:href="#DejaVuSans-100"/>
     </g>
    </g>
    <g id="line2d_35">
     <path d="M 66.6 293.004312 
L 86.6 293.004312 
" style="fill:none;stroke:#ff0000;stroke-linecap:square;stroke-width:1.5;"/>
    </g>
    <g id="line2d_36"/>
    <g id="text_19">
     <!-- best -->
     <g transform="translate(94.6 296.504312)scale(0.1 -0.1)">
      <use xlink:href="#DejaVuSans-98"/>
      <use x="63.476562" xlink:href="#DejaVuSans-101"/>
      <use x="125" xlink:href="#DejaVuSans-115"/>
      <use x="177.099609" xlink:href="#DejaVuSans-116"/>
     </g>
    </g>
   </g>
  </g>
 </g>
 <defs>
  <clipPath id="p8cea81bbf5">
   <rect height="266.112" width="357.12" x="57.6" y="41.472"/>
  </clipPath>
 </defs>
</svg>
