<?xml version="1.0" encoding="UTF-8" standalone="no"?>
<!DOCTYPE svg PUBLIC "-//W3C//DTD SVG 1.1//EN"
 "http://www.w3.org/Graphics/SVG/1.1/DTD/svg11.dtd">
<!-- Generated by graphviz version 2.40.1 (20161225.0304)
 -->
<!-- Title: %3 Pages: 1 -->
<svg width="584pt" height="144pt"
 viewBox="0.00 0.00 583.50 144.10" xmlns="http://www.w3.org/2000/svg" xmlns:xlink="http://www.w3.org/1999/xlink">
<g id="graph0" class="graph" transform="scale(1 1) rotate(0) translate(4 140.0955)">
<title>%3</title>
<polygon fill="#ffffff" stroke="transparent" points="-4,4 -4,-140.0955 579.5029,-140.0955 579.5029,4 -4,4"/>
<!-- RF_R -->
<g id="node1" class="node">
<title>RF_R</title>
<polygon fill="#d3d3d3" stroke="#000000" points="37.2641,-135.9966 .2432,-135.9966 .2432,-117.3944 37.2641,-117.3944 37.2641,-135.9966"/>
<text text-anchor="middle" x="18.7536" y="-123.9955" font-family="Times,serif" font-size="9.00" fill="#000000">RF_R</text>
</g>
<!-- ANG_VEL -->
<g id="node11" class="node">
<title>ANG_VEL</title>
<ellipse fill="#add8e6" stroke="#000000" cx="46.7536" cy="-40.6478" rx="40.796" ry="40.796"/>
<text text-anchor="middle" x="46.7536" y="-37.9478" font-family="Times,serif" font-size="9.00" fill="#000000">ANG_VEL</text>
</g>
<!-- RF_R&#45;&gt;ANG_VEL -->
<g id="edge1" class="edge">
<title>RF_R&#45;&gt;ANG_VEL</title>
<path fill="none" stroke="#ff0000" stroke-width=".7219" d="M21.8571,-117.1581C24.1464,-110.1228 27.453,-99.9612 30.9123,-89.3305"/>
<polygon fill="#ff0000" stroke="#ff0000" stroke-width=".7219" points="34.3411,-90.1042 34.1072,-79.512 27.6846,-87.9382 34.3411,-90.1042"/>
</g>
<!-- RF_FR -->
<g id="node2" class="node">
<title>RF_FR</title>
<polygon fill="#d3d3d3" stroke="#000000" points="152.7668,-135.9966 110.7405,-135.9966 110.7405,-117.3944 152.7668,-117.3944 152.7668,-135.9966"/>
<text text-anchor="middle" x="131.7537" y="-123.9955" font-family="Times,serif" font-size="9.00" fill="#000000">RF_FR</text>
</g>
<!-- VEL -->
<g id="node12" class="node">
<title>VEL</title>
<ellipse fill="#add8e6" stroke="#000000" cx="189.7537" cy="-40.6478" rx="23.8681" ry="23.8681"/>
<text text-anchor="middle" x="189.7537" y="-37.9478" font-family="Times,serif" font-size="9.00" fill="#000000">VEL</text>
</g>
<!-- RF_FR&#45;&gt;VEL -->
<g id="edge2" class="edge">
<title>RF_FR&#45;&gt;VEL</title>
<path fill="none" stroke="#00ff00" stroke-width=".9562" d="M138.1823,-117.1581C146.0185,-105.5324 159.609,-85.3697 170.8717,-68.6607"/>
<polygon fill="#00ff00" stroke="#00ff00" stroke-width=".9562" points="173.8193,-70.5496 176.5064,-60.3012 168.0148,-66.6371 173.8193,-70.5496"/>
</g>
<!-- RF_F -->
<g id="node3" class="node">
<title>RF_F</title>
<polygon fill="#d3d3d3" stroke="#000000" points="326.7652,-135.9966 290.7421,-135.9966 290.7421,-117.3944 326.7652,-117.3944 326.7652,-135.9966"/>
<text text-anchor="middle" x="308.7537" y="-123.9955" font-family="Times,serif" font-size="9.00" fill="#000000">RF_F</text>
</g>
<!-- RF_FL -->
<g id="node4" class="node">
<title>RF_FL</title>
<polygon fill="#d3d3d3" stroke="#000000" points="386.7601,-135.9966 344.7472,-135.9966 344.7472,-117.3944 386.7601,-117.3944 386.7601,-135.9966"/>
<text text-anchor="middle" x="365.7537" y="-123.9955" font-family="Times,serif" font-size="9.00" fill="#000000">RF_FL</text>
</g>
<!-- RF_L -->
<g id="node5" class="node">
<title>RF_L</title>
<polygon fill="#d3d3d3" stroke="#000000" points="92.257,-135.9966 55.2503,-135.9966 55.2503,-117.3944 92.257,-117.3944 92.257,-135.9966"/>
<text text-anchor="middle" x="73.7536" y="-123.9955" font-family="Times,serif" font-size="9.00" fill="#000000">RF_L</text>
</g>
<!-- RF_L&#45;&gt;ANG_VEL -->
<g id="edge3" class="edge">
<title>RF_L&#45;&gt;ANG_VEL</title>
<path fill="none" stroke="#00ff00" stroke-width="3.7481" d="M70.761,-117.1581C68.5535,-110.1228 65.365,-99.9612 62.0293,-89.3305"/>
<polygon fill="#00ff00" stroke="#00ff00" stroke-width="3.7481" points="65.2818,-88.0054 58.9484,-79.512 58.6029,-90.1012 65.2818,-88.0054"/>
</g>
<!-- RF_B -->
<g id="node6" class="node">
<title>RF_B</title>
<polygon fill="#d3d3d3" stroke="#000000" points="208.2641,-135.9966 171.2432,-135.9966 171.2432,-117.3944 208.2641,-117.3944 208.2641,-135.9966"/>
<text text-anchor="middle" x="189.7537" y="-123.9955" font-family="Times,serif" font-size="9.00" fill="#000000">RF_B</text>
</g>
<!-- RF_B&#45;&gt;VEL -->
<g id="edge4" class="edge">
<title>RF_B&#45;&gt;VEL</title>
<path fill="none" stroke="#ff0000" stroke-width=".4399" d="M189.7537,-117.1581C189.7537,-106.919 189.7537,-90.0578 189.7537,-74.7662"/>
<polygon fill="#ff0000" stroke="#ff0000" stroke-width=".4399" points="193.2537,-74.5311 189.7537,-64.5311 186.2537,-74.5312 193.2537,-74.5311"/>
</g>
<!-- RAD_F -->
<g id="node7" class="node">
<title>RAD_F</title>
<polygon fill="#d3d3d3" stroke="#000000" points="449.2559,-135.9966 404.2514,-135.9966 404.2514,-117.3944 449.2559,-117.3944 449.2559,-135.9966"/>
<text text-anchor="middle" x="426.7537" y="-123.9955" font-family="Times,serif" font-size="9.00" fill="#000000">RAD_F</text>
</g>
<!-- RAD_L -->
<g id="node8" class="node">
<title>RAD_L</title>
<polygon fill="#d3d3d3" stroke="#000000" points="512.2481,-135.9966 467.2592,-135.9966 467.2592,-117.3944 512.2481,-117.3944 512.2481,-135.9966"/>
<text text-anchor="middle" x="489.7537" y="-123.9955" font-family="Times,serif" font-size="9.00" fill="#000000">RAD_L</text>
</g>
<!-- RAD_B -->
<g id="node9" class="node">
<title>RAD_B</title>
<polygon fill="#d3d3d3" stroke="#000000" points="272.7548,-135.9966 226.7525,-135.9966 226.7525,-117.3944 272.7548,-117.3944 272.7548,-135.9966"/>
<text text-anchor="middle" x="249.7537" y="-123.9955" font-family="Times,serif" font-size="9.00" fill="#000000">RAD_B</text>
</g>
<!-- RAD_B&#45;&gt;VEL -->
<g id="edge5" class="edge">
<title>RAD_B&#45;&gt;VEL</title>
<path fill="none" stroke="#00ff00" stroke-width=".6367" d="M243.1034,-117.1581C234.9969,-105.5324 220.9377,-85.3697 209.2867,-68.6607"/>
<polygon fill="#00ff00" stroke="#00ff00" stroke-width=".6367" points="212.0484,-66.5021 203.4577,-60.3012 206.3065,-70.5059 212.0484,-66.5021"/>
</g>
<!-- RAD_R -->
<g id="node10" class="node">
<title>RAD_R</title>
<polygon fill="#d3d3d3" stroke="#000000" points="575.7548,-135.9966 529.7525,-135.9966 529.7525,-117.3944 575.7548,-117.3944 575.7548,-135.9966"/>
<text text-anchor="middle" x="552.7537" y="-123.9955" font-family="Times,serif" font-size="9.00" fill="#000000">RAD_R</text>
</g>
</g>
</svg>
